<?xml version="1.0" encoding="utf-8"?>
<!-- Generator: Adobe Illustrator 23.1.0, SVG Export Plug-In . SVG Version: 6.00 Build 0)  -->
<svg version="1.1" id="Layer_1" xmlns="http://www.w3.org/2000/svg" xmlns:xlink="http://www.w3.org/1999/xlink" x="0px" y="0px"
	 viewBox="0 0 547.2 509" style="enable-background:new 0 0 547.2 509;" xml:space="preserve" preserveAspectRatio="xMidYMid slice">
<style type="text/css">
	.st0{fill:url(#SVGID_1_);}
	.st1{fill:url(#SVGID_2_);}
	.st2{fill:url(#SVGID_3_);}
	.st3{opacity:0.58;fill:url(#SVGID_4_);enable-background:new    ;}
	.st4{opacity:0.58;fill:url(#SVGID_5_);enable-background:new    ;}
	.st5{fill:url(#SVGID_6_);}
	.st6{fill:url(#SVGID_7_);}
	.st7{fill:url(#SVGID_8_);}
	.st8{fill:url(#SVGID_9_);}
</style>
<linearGradient id="SVGID_1_" gradientUnits="userSpaceOnUse" x1="273.8" y1="318" x2="273.8" y2="-191" gradientTransform="matrix(1 0 0 -1 0 318)">
	<stop  offset="0" style="stop-color:#81E6FD;stop-opacity:0"/>
	<stop  offset="0.3517" style="stop-color:#68E1FD"/>
</linearGradient>
<rect x="0.3" class="st0" width="547" height="509"/>
<title>Peak 1</title>
<linearGradient id="SVGID_2_" gradientUnits="userSpaceOnUse" x1="289.8212" y1="967.2255" x2="285.3111" y2="1351.2755" gradientTransform="matrix(1 0 0 1 -14.31 -789.69)">
	<stop  offset="1.000000e-02" style="stop-color:#000000"/>
	<stop  offset="0.13" style="stop-color:#000000;stop-opacity:0.69"/>
	<stop  offset="1" style="stop-color:#000000;stop-opacity:0"/>
</linearGradient>
<path class="st1" d="M541.8,245.9c-0.1-0.5-0.7-0.8-1.2-1c0-0.3-0.3-0.6-0.8-0.9c1.4-0.7,2.2-2.2,1.9-3.8c-0.9,0.5-1.7,1.2-2.4,2.1
	c-0.7-0.6-1.6-0.7-2.3-0.3c-0.7-0.7-0.1-1.9,0.6-2.6s1.7-1.4,1.6-2.4l-4.4,2.3c0.5-1.2,1.1-2.4,1.7-3.6c-0.8-0.2-1.6-0.1-2.3,0.4
	c0-1.1-0.2-2.3-0.4-3.4l-0.1-0.4c-0.1-1.4-0.5-2.8-1.2-4.1l1.5-0.4c-0.9-1-2.2-1.5-3.6-1.4c0.7-3.5,0.4-7.1-1-10.4
	c-0.2,3.5-0.3,7.1-0.3,10.6l-1.1-0.4c-0.2,0.5,0,1.1,0.5,1.3c-0.6,0.7-0.7,1.6-0.4,2.4c-1.1,0.1-2.2-0.1-3.3-0.5
	c0.1-0.3,0.2-0.5,0.2-0.8l-4.4,2.2l1.7-3.6c-0.8-0.2-1.6-0.1-2.3,0.4c0-1.1-0.2-2.3-0.4-3.4l-0.1-0.4c-0.1-1.4-0.5-2.9-1.2-4.2
	l1.5-0.4c-0.9-1-2.2-1.5-3.6-1.4c0.7-3.5,0.4-7.1-1-10.4c-0.2,3.5-0.3,7.1-0.3,10.6l-1.1-0.4c-0.2,0.5,0,1.1,0.5,1.3
	c-0.6,0.7-0.7,1.6-0.4,2.4c-1.2,0.1-2.4-0.1-3.5-0.6c0,0.9,1.1,1.3,1.9,1.7c0.8,0.4,1.7,1.4,1,2.1s-1.7-0.2-2.5,0.1
	c0.1,0.5,0.5,1,1,1.2l-8,1c1.3,1.6,3.7,1.9,5.3,0.6c0,0,0,0,0.1,0c0.3,0.4,0.5,0.8,0.6,1.3c-1,0.5-2,0.8-3,1.1
	c0.6,0.5,1.3,0.7,2,0.6c-0.4,0.5-0.3,1.2,0.2,1.6c0.1,0.1,0.1,0.1,0.2,0.1c-0.6,0.1-1,0.7-0.9,1.3s0.4,1.1,0.7,1.5
	c-1.3-0.6-2.7-1.1-4.2-1.3c-0.2-0.7-0.4-1.3-0.7-1.9l1.5-0.4c-0.9-1-2.2-1.5-3.6-1.4c0.7-3.5,0.4-7.1-1-10.4
	c-0.2,3.5-0.3,7.1-0.3,10.6l-1.1-0.4c-0.2,0.5,0,1.1,0.5,1.3c-0.6,0.7-0.7,1.6-0.4,2.4c-1.2,0.1-2.4-0.1-3.5-0.5
	c0,0.9,1.1,1.3,1.9,1.7c0.8,0.4,1.7,1.4,1,2s-1.7-0.2-2.5,0.1c0.1,0.5,0.5,1,1,1.2l-8,1c1.3,1.6,3.7,1.9,5.3,0.6l0,0
	c0.3,0.4,0.5,0.8,0.6,1.3c-1,0.5-2,0.8-3,1.1c0-0.2,0-0.3,0-0.5l-4.4,2.2c0.5-1.2,1.1-2.4,1.7-3.6c-0.8-0.2-1.6-0.1-2.3,0.4
	c0-1.1-0.2-2.3-0.4-3.4c0-0.1,0-0.3-0.1-0.4c-0.1-1.4-0.5-2.8-1.2-4.1l1.5-0.4c-0.9-1-2.3-1.5-3.6-1.4c0.7-3.5,0.4-7.1-1-10.4
	c-0.2,3.6-0.3,7.1-0.3,10.6l-1.1-0.4c-0.2,0.5,0,1.1,0.5,1.3c-0.6,0.7-0.7,1.6-0.4,2.4c-1.2,0.1-2.4-0.1-3.5-0.6
	c0,0.9,1.1,1.3,1.9,1.7s1.6,1.4,1,2.1s-1.7-0.2-2.5,0c0.1,0.5,0.5,1,1,1.2l-8,1c0.5,0.7,1.3,1.2,2.1,1.3c-0.3,0.3-0.5,0.5-0.7,0.8
	c-0.7-0.6-1.6-0.7-2.4-0.3c-0.7-0.7-0.1-1.9,0.6-2.6s1.7-1.4,1.6-2.4l-4.4,2.3c0.6-1.2,1.1-2.4,1.7-3.6c-0.8-0.2-1.6-0.1-2.3,0.4
	c0-1.1-0.2-2.3-0.4-3.4l-0.1-0.4c-0.1-1.4-0.5-2.8-1.2-4.1l1.5-0.4c-0.9-1-2.2-1.6-3.6-1.4c0.7-3.5,0.4-7.1-1-10.4
	c-0.2,3.6-0.3,7.1-0.3,10.7l-1.1-0.4c-0.2,0.5,0,1.1,0.5,1.3c-0.6,0.7-0.7,1.6-0.4,2.4c-1.2,0.1-2.4-0.1-3.5-0.5
	c0,0.9,1.1,1.3,1.9,1.7s1.7,1.4,1,2s-1.7-0.2-2.5,0.1c0.1,0.5,0.5,1,1,1.2l-8,1c1.3,1.6,3.7,1.9,5.3,0.6l0,0
	c0.3,0.4,0.5,0.8,0.6,1.3c-1,0.5-2,0.8-3,1.1c0.5,0.5,1.3,0.7,2,0.6c-0.4,0.5-0.3,1.2,0.2,1.6c0.1,0.1,0.1,0.1,0.2,0.1
	c-0.6,0.1-1,0.7-0.9,1.2c0.1,0.6,0.4,1.1,0.7,1.5c-1.7-0.8-3.5-1.3-5.4-1.5c0.9,1.7,2.5,2.8,4.3,3.1l-3.1,2.1l1.4,1.7
	c-1.9,0.9-3.9,1.4-6,1.3v-0.1c-0.1-1.4-0.5-2.8-1.2-4.1l1.5-0.4c-0.9-1-2.2-1.5-3.6-1.4c0.7-3.5,0.4-7.1-1-10.4
	c-0.2,3.5-0.3,7.1-0.3,10.6l-1.1-0.4c-0.2,0.5,0,1.1,0.5,1.3c-0.6,0.7-0.7,1.6-0.4,2.4c-1.2,0.1-2.4-0.1-3.5-0.5
	c0,0.9,1.1,1.3,1.9,1.7c0.8,0.4,1.7,1.4,1,2s-1.7-0.2-2.5,0c0.1,0.5,0.5,1,1,1.2l-8,1c1.3,1.6,3.7,1.9,5.3,0.6l0,0
	c0.3,0.4,0.5,0.8,0.6,1.3c-1,0.5-2,0.8-3,1.1c0.5,0.5,1.3,0.7,2,0.6c-0.4,0.5-0.3,1.2,0.2,1.6c0.1,0,0.1,0.1,0.2,0.1
	c-0.6,0.1-1,0.7-0.9,1.3s0.4,1.1,0.7,1.5c-1.7-0.8-3.5-1.3-5.4-1.5c0.9,1.7,2.5,2.8,4.4,3.1l-3.1,2.1l1.4,1.7c-1.9,1-4,1.4-6.1,1.3
	c0.7-0.6,1.5-1.3,1.4-2.2l-4.4,2.3c0.5-1.2,1.1-2.4,1.7-3.6c-0.8-0.2-1.6-0.1-2.3,0.4c0-1.1-0.2-2.3-0.4-3.4c0-0.1,0-0.3-0.1-0.5
	c-0.1-1.4-0.5-2.8-1.2-4.1l1.5-0.4c-0.9-1-2.2-1.5-3.6-1.4c0.7-3.5,0.4-7.1-1-10.4c-0.2,3.5-0.3,7.1-0.3,10.6l-1.1-0.4
	c-0.2,0.5,0,1.1,0.5,1.3c-0.6,0.7-0.7,1.6-0.4,2.4c-1.2,0.1-2.4-0.1-3.5-0.5c0,0.9,1.1,1.3,1.9,1.7s1.6,1.4,1,2s-1.7-0.2-2.5,0
	c0.1,0.5,0.5,1,1,1.2l-8,1c1.3,1.6,3.7,1.9,5.3,0.6l0,0c0.3,0.4,0.5,0.8,0.6,1.3c-1,0.5-2,0.8-3,1.1c0.5,0.5,1.3,0.7,2,0.6
	c-0.4,0.5-0.3,1.2,0.2,1.6c0.1,0.1,0.1,0.1,0.2,0.1c-0.6,0.1-1,0.7-0.9,1.3c0.1,0.6,0.4,1.1,0.7,1.5c-1.7-0.8-3.5-1.3-5.4-1.5
	c0.9,1.7,2.5,2.8,4.3,3.1l-3.2,2.5l1.4,1.7c-2.1,1.1-4.5,1.5-6.8,1.2c1.3,1.6,2.8,3,4.5,4.2c-1.3-0.5-2.6-0.6-4-0.4
	c-0.1-1.3-0.5-2.5-1.1-3.7l1.5-0.4c-0.9-1-2.2-1.5-3.6-1.4c0.7-3.5,0.4-7.1-1-10.4c-0.2,3.5-0.3,7.1-0.3,10.7l-1.1-0.4
	c-0.2,0.5,0,1.1,0.5,1.3c-0.6,0.7-0.7,1.6-0.4,2.4c-1.2,0.1-2.4-0.1-3.5-0.5c0,0.9,1.1,1.3,1.9,1.7s1.7,1.4,1,2s-1.7-0.2-2.5,0.1
	c0.1,0.5,0.5,1,1,1.2l-8,1c1.3,1.6,3.7,1.9,5.3,0.6c0,0,0,0,0.1,0c0.3,0.4,0.5,0.8,0.6,1.3c-1,0.5-2,0.8-3,1.1
	c0.5,0.5,1.3,0.7,2,0.6c-0.4,0.5-0.3,1.2,0.2,1.6c0.1,0,0.1,0.1,0.2,0.1c-0.6,0.1-1,0.7-0.9,1.2c0.1,0.6,0.4,1.1,0.7,1.5
	c-1.7-0.8-3.5-1.3-5.4-1.5c0.9,1.7,2.5,2.8,4.4,3.1l-3.1,2.1l1.4,1.7c-1.3,0.7-2.7,1.1-4.2,1.2l0.2-0.2c0.8-0.7,1.7-1.4,1.6-2.4
	l-4.4,2.3c0.6-1.2,1.1-2.4,1.7-3.6c-0.8-0.2-1.6,0-2.3,0.4c0-1.1-0.2-2.3-0.4-3.4c0-0.1,0-0.3-0.1-0.4c-0.1-1.4-0.5-2.8-1.2-4.1
	l1.5-0.4c-0.9-1-2.2-1.5-3.6-1.4c0.7-3.5,0.4-7.1-1-10.4c-0.2,3.5-0.3,7.1-0.3,10.6l-1.1-0.4c-0.2,0.5,0,1.1,0.5,1.3
	c-0.6,0.7-0.7,1.6-0.4,2.4c-1.2,0.1-2.4-0.1-3.5-0.5c0,0.9,1.1,1.3,1.9,1.7s1.7,1.4,1,2.1s-1.7-0.2-2.5,0c0.1,0.5,0.5,1,1,1.2l-8,1
	c1.3,1.6,3.7,1.9,5.3,0.6c0,0,0,0,0.1,0c0.3,0.4,0.5,0.8,0.6,1.3c-1,0.5-2,0.8-3,1.1c0.5,0.5,1.3,0.7,2,0.6
	c-0.4,0.5-0.3,1.2,0.2,1.6c0.1,0.1,0.1,0.1,0.2,0.1c-0.6,0.1-1,0.7-0.9,1.2c0.1,0.6,0.4,1.1,0.7,1.5c-1.7-0.8-3.5-1.3-5.4-1.5
	c0.8,1.7,2.5,2.9,4.3,3.1l-3.1,2.1l1.4,1.7c-2.1,1.2-4.5,1.7-6.9,1.4c1.3,1.6,2.8,3,4.5,4.2c-1.2-0.4-2.4-0.6-3.7-0.5
	c-0.6-0.2-1.3-0.3-1.9-0.3c0.7-3.5,0.4-7.1-1-10.4c-0.2,3.5-0.3,7.1-0.3,10.6l-1.1-0.4c-0.2,0.5,0,1.1,0.5,1.3
	c-0.6,0.7-0.7,1.6-0.4,2.4c-1.2,0.1-2.4-0.1-3.5-0.5c0,0.9,1.1,1.3,1.9,1.7s1.7,1.4,1,2c-0.7,0.6-1.7-0.2-2.5,0.1
	c0.1,0.5,0.5,1,1,1.2l-8,1c1.3,1.6,3.7,1.9,5.3,0.6c0,0,0,0,0.1,0c0.3,0.4,0.5,0.8,0.6,1.3c-1,0.5-2,0.8-3,1.1
	c0.5,0.5,1.3,0.7,2,0.6c0.7,0.9,0.5,2.2-0.4,2.9c-0.1,0-0.1,0.1-0.2,0.1c0.1,0.6,0.4,1.1,0.7,1.5c-1.7-0.8-3.5-1.3-5.4-1.5
	c0.9,1.7,2.5,2.8,4.3,3.1l-1.6,1.1c0.1-0.2,0.2-0.5,0.1-0.8l-4.4,2.3l1.7-3.6c-0.8-0.2-1.6-0.1-2.3,0.4c0-1.1-0.2-2.3-0.4-3.4
	l-0.1-0.5c-0.1-1.4-0.5-2.8-1.2-4.1l1.5-0.4c-0.9-1-2.2-1.5-3.6-1.4c0.7-3.5,0.4-7.1-1-10.4c-0.2,3.5-0.3,7.1-0.3,10.6l-1.1-0.4
	c-0.2,0.5,0,1.1,0.5,1.3c-0.6,0.7-0.7,1.6-0.4,2.4c-1.2,0.1-2.4-0.1-3.5-0.5c0,0.9,1.1,1.3,1.9,1.7s1.7,1.4,1,2s-1.7-0.2-2.5,0
	c0.1,0.5,0.5,1,1,1.2l-8,1c1.3,1.6,3.7,1.9,5.3,0.6l0,0c0.3,0.4,0.5,0.8,0.6,1.3c-1,0.5-2,0.8-3,1.1c0.5,0.5,1.3,0.7,2,0.6
	c-0.4,0.5-0.3,1.2,0.2,1.6c0.1,0,0.1,0.1,0.2,0.1c-0.6,0.1-1,0.7-0.9,1.3s0.4,1.1,0.7,1.5c-1.7-0.8-3.5-1.3-5.4-1.5
	c0.9,1.7,2.5,2.8,4.4,3.1l-3.1,2.1l1.4,1.7c-0.7,0.4-1.5,0.7-2.3,0.9c0.2-0.2,0.3-0.5,0.2-0.8l-2.3,1.2c-0.3,0-0.6,0-1,0l1.1-2.3
	c-0.6-0.2-1.3,0-1.8,0.3c0-0.9-0.1-1.9-0.3-2.8l-0.1-0.4c-0.1-1.2-0.4-2.3-1-3.4l1.1-0.3c-0.7-0.8-1.8-1.3-2.9-1.2
	c0.6-2.8,0.3-5.8-0.8-8.5c-0.2,2.9-0.3,5.8-0.2,8.7l-0.9-0.3c-0.2,0.4,0,0.9,0.4,1c-0.5,0.6-0.6,1.3-0.3,2c-1,0.1-2-0.1-2.9-0.5
	c0,0.7,0.9,1.1,1.6,1.4s1.3,1.2,0.8,1.7s-1.4-0.1-2.1,0c0.1,0.5,0.4,0.8,0.8,1l-6.5,0.9c1.1,1.3,3,1.5,4.3,0.5l0,0
	c0.3,0.3,0.4,0.7,0.5,1.1c-0.8,0.4-1.6,0.7-2.5,0.9c0.4,0.4,1,0.6,1.6,0.5c-0.3,0.4-0.2,1,0.2,1.3l0.1,0.1c-0.5,0.1-0.8,0.5-0.7,1
	c0.1,0.5,0.3,0.9,0.6,1.2c-1.4-0.7-2.9-1.1-4.4-1.2c0.7,1.4,2,2.3,3.5,2.5l-0.8,0.5c0-0.2,0.1-0.3,0.1-0.5l-4.4,2.2
	c0.6-1.2,1.1-2.4,1.7-3.6c-0.8-0.2-1.6-0.1-2.3,0.4c0-1.1-0.2-2.3-0.4-3.4l-0.1-0.4c-0.1-1.4-0.5-2.9-1.2-4.2l1.5-0.4
	c-0.9-1-2.2-1.6-3.6-1.4c0.7-3.5,0.4-7.1-1-10.4c-0.2,3.5-0.3,7.1-0.3,10.6l-1.1-0.4c-0.2,0.5,0,1.1,0.5,1.3
	c-0.6,0.7-0.7,1.6-0.4,2.4c-1.2,0.1-2.4-0.1-3.5-0.5c0,0.9,1.1,1.3,1.9,1.7s1.7,1.4,1,2s-1.7-0.2-2.5,0.1c0.1,0.5,0.5,1,1,1.2l-8,1
	c1.3,1.6,3.7,1.9,5.3,0.6c0,0,0,0,0.1,0c0.3,0.4,0.5,0.8,0.6,1.3c-1,0.5-2,0.8-3,1.1c0.5,0.5,1.3,0.7,2,0.6
	c-0.4,0.5-0.3,1.2,0.2,1.6c0.1,0.1,0.1,0.1,0.2,0.1c-0.6,0.1-1,0.7-0.9,1.3s0.4,1.1,0.7,1.5c-1.7-0.8-3.5-1.3-5.4-1.5
	c0.9,1.7,2.5,2.8,4.3,3.1l-3.1,2.1l1.2,1.5l-2.3,1.2l-0.7,0.1l1.1-2.3c-0.6-0.1-1.2,0-1.6,0.3c0-0.8-0.1-1.6-0.3-2.5
	c0-0.1,0-0.2,0-0.3c-0.1-1-0.4-2.1-0.8-3l1.1-0.3c-0.7-0.7-1.6-1.1-2.6-1c0.5-2.5,0.3-5.1-0.7-7.5c-0.2,2.5-0.2,5.1-0.2,7.6
	l-0.8-0.3c-0.1,0.4,0,0.8,0.4,0.9c-0.4,0.5-0.5,1.2-0.3,1.7c-0.9,0.1-1.7-0.1-2.5-0.4c0,0.6,0.8,1,1.4,1.2s1.2,1,0.7,1.5
	s-1.2-0.1-1.8,0c0.1,0.4,0.4,0.7,0.7,0.9l-5.8,0.8c0.9,1.2,2.6,1.4,3.8,0.4l0,0c0.2,0.3,0.4,0.6,0.4,1c-0.7,0.3-1.4,0.6-2.2,0.8
	c0.4,0.3,0.9,0.5,1.4,0.5c0.5,0.7,0.4,1.6-0.3,2.1c0,0-0.1,0-0.1,0.1c0.1,0.4,0.3,0.8,0.5,1.1c-1.2-0.6-2.5-1-3.9-1.1
	c0.6,1.2,1.8,2.1,3.1,2.3l-2.2,1.5l1,1.2c-0.2,0.1-0.4,0.2-0.6,0.3c0-0.3,0-0.5-0.1-0.8c-0.6,0.4-1.2,0.8-1.7,1.3
	c-0.8,0.1-1.7,0.2-2.5,0.1c0,0.1,0.1,0.1,0.2,0.2c-0.2,0-0.5,0.1-0.7,0.2c-0.7-0.7-0.1-1.9,0.6-2.6s1.7-1.4,1.6-2.4l-4.4,2.3
	c0.6-1.2,1.1-2.4,1.7-3.6c-0.8-0.2-1.6,0-2.3,0.4c0-1.1-0.2-2.3-0.4-3.4l-0.1-0.5c-0.1-1.4-0.5-2.8-1.2-4.1l1.5-0.4
	c-0.9-1-2.2-1.5-3.6-1.4c0.7-3.5,0.4-7.1-1-10.4c-0.2,3.5-0.3,7.1-0.3,10.6l-1.1-0.4c-0.2,0.5,0,1.1,0.5,1.3
	c-0.6,0.7-0.7,1.6-0.4,2.4c-1.2,0.1-2.4-0.1-3.5-0.5c0,0.9,1.1,1.3,1.9,1.7s1.7,1.4,1,2.1s-1.7-0.2-2.5,0c0.1,0.5,0.5,1,1,1.2l-8,1
	c1.3,1.6,3.6,1.9,5.3,0.6c0,0,0,0,0.1-0.1c0.3,0.4,0.5,0.8,0.6,1.3c-1,0.5-2,0.8-3,1.1c0.5,0.5,1.3,0.7,2,0.6
	c-0.4,0.5-0.3,1.2,0.2,1.6c0.1,0.1,0.1,0.1,0.2,0.1c-0.6,0.1-1,0.7-0.9,1.2c0.1,0.6,0.4,1.1,0.7,1.5c-1.7-0.8-3.5-1.3-5.4-1.5
	c0.8,1.7,2.5,2.9,4.3,3.1l-3.1,2.1l1.4,1.7c-0.4,0.2-0.8,0.4-1.2,0.5c0-0.1,0-0.3-0.1-0.4l-0.1-0.5c-0.1-1.4-0.5-2.8-1.2-4.1
	l1.5-0.4c-0.9-1-2.2-1.5-3.6-1.4c0.7-3.5,0.4-7.1-1-10.4c-0.2,3.5-0.3,7.1-0.3,10.6l-1.1-0.4c-0.2,0.5,0,1.1,0.5,1.3
	c-0.6,0.7-0.7,1.6-0.4,2.4c-1.2,0.1-2.4-0.1-3.5-0.5c0,0.9,1.1,1.3,1.9,1.7s1.7,1.4,1,2.1c-0.7,0.7-1.7-0.2-2.5,0
	c0.1,0.5,0.5,1,1,1.2l-6.1,0.8c0.1-0.4,0.1-0.8,0-1.2c-1,0-2,0-3,0.1c0.2-0.6,0.5-1.2,0.9-1.6l-1.5-0.4c-0.2-0.7,1-1,1.7-0.6
	s1.6,0.8,2.1,0.2l-0.4-1.2c0.3,0.5,1.1-0.1,1-0.6s-0.7-0.8-1.2-1c-0.5-0.1-1-0.3-1.4-0.7c1.8-0.4,2.9-2.2,2.5-3.9c0,0,0,0,0-0.1
	c-0.9,0.5-1.7,1.2-2.4,2.1c-0.7-0.6-1.6-0.7-2.4-0.3c-0.7-0.7-0.1-1.9,0.6-2.6s1.7-1.4,1.6-2.4l-4.5,2.4c0.6-1.2,1.1-2.4,1.7-3.6
	c-0.8-0.2-1.6-0.1-2.3,0.4c0-1.1-0.2-2.3-0.4-3.4l-0.1-0.4c-0.1-1.4-0.5-2.9-1.2-4.2l1.5-0.4c-0.9-1-2.2-1.6-3.6-1.4
	c0.7-3.5,0.4-7.1-1-10.4c-0.2,3.5-0.3,7.1-0.3,10.6l-1.1-0.4c-0.2,0.5,0,1.1,0.5,1.3c-0.6,0.7-0.7,1.6-0.4,2.4
	c-1.2,0.1-2.4-0.1-3.6-0.5c0,0.9,1.1,1.3,1.9,1.7s1.6,1.4,1,2s-1.7-0.2-2.5,0.1c0.1,0.5,0.5,1,1,1.2l-8,1c1.3,1.6,3.7,1.9,5.3,0.6
	c0,0,0,0,0.1,0c0.3,0.4,0.5,0.8,0.6,1.3c-1,0.5-2,0.8-3,1.1c0.5,0.5,1.3,0.7,2,0.6c0.7,0.9,0.5,2.2-0.4,2.9c-0.1,0-0.1,0.1-0.2,0.1
	c0.1,0.6,0.4,1.1,0.7,1.5c-1.7-0.8-3.5-1.3-5.4-1.5c0.9,1.7,2.5,2.8,4.3,3.1l-3.1,2.1l1.4,1.7c-1.5,0.7-3.1,1.2-4.7,1.3
	c0.7-1.3,1.5-2.5,1.2-4.1c-1,0-2,0-3,0.1c0.2-0.6,0.5-1.2,0.9-1.6l-1.4-0.4c-0.2-0.7,1-1,1.7-0.6s1.6,0.8,2.1,0.2l-0.4-1.2
	c0.3,0.5,1.1-0.1,1-0.6s-0.7-0.8-1.2-1c-0.5-0.1-1-0.3-1.4-0.7c1.8-0.4,2.9-2.1,2.5-3.9v-0.1c-0.9,0.5-1.7,1.2-2.4,2.1
	c-0.7-0.6-1.6-0.7-2.4-0.3c-0.7-0.7-0.1-1.9,0.6-2.6s1.7-1.4,1.6-2.4l-4.4,2.3l1.7-3.6c-0.8-0.2-1.6-0.1-2.3,0.4
	c0-1.1-0.2-2.3-0.4-3.4c0-0.1,0-0.3-0.1-0.5c-0.1-1.4-0.5-2.8-1.2-4.1l1.5-0.4c-0.9-1-2.2-1.5-3.6-1.4c0.7-3.5,0.4-7.1-1-10.4
	c-0.2,3.5-0.3,7.1-0.3,10.6l-1.1-0.4c-0.2,0.5,0,1.1,0.5,1.3c-0.6,0.7-0.7,1.6-0.4,2.4c-1.2,0.1-2.4-0.1-3.6-0.5
	c0,0.9,1.1,1.3,1.9,1.7s1.7,1.4,1,2s-1.7-0.2-2.5,0c0.1,0.5,0.5,1,1,1.2l-4.3,0.6c0.1-0.2,0.2-0.5,0.2-0.8l-2,1l-1.3,0.2l1.1-2.3
	c-0.6-0.2-1.3,0-1.8,0.3c0-0.9-0.1-1.9-0.3-2.8l-0.1-0.4c-0.1-1.2-0.4-2.3-0.9-3.4l1.2-0.3c-0.7-0.8-1.8-1.3-2.9-1.2
	c0.6-2.8,0.3-5.8-0.8-8.5c-0.2,2.9-0.3,5.8-0.2,8.7l-0.9-0.3c-0.2,0.4,0,0.9,0.4,1c-0.5,0.5-0.6,1.3-0.3,2c-1,0.1-2-0.1-2.9-0.4
	c0,0.7,0.9,1.1,1.6,1.4s1.4,1.2,0.8,1.7s-1.4-0.1-2.1,0c0.1,0.5,0.4,0.8,0.8,1l-6.5,0.9c1.1,1.3,3,1.5,4.3,0.5l0,0
	c0.3,0.3,0.4,0.7,0.5,1.1c-0.8,0.4-1.6,0.7-2.5,0.9c0.4,0.4,1,0.6,1.6,0.5c0.6,0.7,0.4,1.8-0.3,2.3l-0.1,0.1
	c0.1,0.5,0.3,0.9,0.6,1.2c-1.4-0.7-2.9-1.1-4.4-1.2c0.7,1.4,2,2.3,3.5,2.5l-2.5,1.7l0.3,0.4l-2.4-1.3c-0.1-0.2-0.2-0.4-0.3-0.6
	c-1-2.5,1.9-3.9,1.5-6.3c-0.7,0-1.4,0-2.1,0c0.1-0.4,0.3-0.8,0.6-1.2l-1-0.3c-0.1-0.5,0.7-0.7,1.2-0.4s1.2,0.6,1.5,0.1
	c-0.1-0.3-0.2-0.6-0.3-0.8c0.2,0.3,0.8,0,0.7-0.4s-0.5-0.6-0.9-0.7c-0.4-0.1-0.7-0.2-1-0.5c1.3-0.3,2.1-1.5,1.8-2.8l0,0
	c-0.7,0.4-1.2,0.9-1.7,1.5c-0.5-0.4-1.1-0.5-1.7-0.2c-0.5-0.5-0.1-1.4,0.5-1.9s1.2-1,1.2-1.7l-3.2,1.6l1.2-2.6
	c-0.6-0.1-1.2,0-1.6,0.3c0-0.8-0.1-1.6-0.3-2.5c0-0.1,0-0.2-0.1-0.3c-0.1-1-0.4-2.1-0.8-3l1.1-0.3c-0.7-0.7-1.6-1.1-2.6-1
	c0.5-2.5,0.3-5.1-0.7-7.5c-0.2,2.5-0.2,5.1-0.2,7.6l-0.8-0.3c-0.1,0.4,0,0.8,0.4,0.9c-0.4,0.5-0.5,1.2-0.3,1.7
	c-0.9,0.1-1.7-0.1-2.6-0.4c0,0.6,0.8,1,1.4,1.2c0.6,0.2,1.2,1,0.7,1.5s-1.2-0.1-1.8,0c0.1,0.4,0.4,0.7,0.7,0.9l-3.2,0.4l-0.1-0.2
	c0.3,0.5,1.1-0.1,1-0.6s-0.7-0.8-1.2-1c-0.5-0.1-1-0.3-1.4-0.7c1.8-0.4,2.9-2.2,2.5-3.9c0,0,0,0,0-0.1c-0.9,0.5-1.7,1.2-2.4,2.1
	c-0.7-0.6-1.6-0.7-2.4-0.3c-0.7-0.7-0.1-1.9,0.6-2.6s1.7-1.4,1.6-2.4l-4.4,2.3c0.6-1.2,1.1-2.4,1.7-3.6c-0.8-0.2-1.6-0.1-2.3,0.4
	c0-1.1-0.2-2.3-0.4-3.4l-0.1-0.5c-0.1-1.4-0.5-2.8-1.2-4.1l1.5-0.4c-0.9-1-2.2-1.6-3.6-1.4c0.7-3.5,0.4-7.1-1-10.4
	c-0.2,3.5-0.3,7.1-0.3,10.6l-1.1-0.4c-0.2,0.5,0,1.1,0.5,1.3c-0.6,0.7-0.7,1.6-0.4,2.4c-1.2,0.1-2.4-0.1-3.6-0.5
	c0,0.9,1.1,1.3,1.9,1.7s1.7,1.4,1,2s-1.7-0.2-2.5,0c0.1,0.5,0.5,1,1,1.2l-5.1,0.7c0.6-2,2.5-3.7,2.1-6c-1,0-2,0-3,0.1
	c0.2-0.6,0.5-1.2,0.9-1.6l-1.4-0.4c-0.2-0.7,1-1,1.7-0.6s1.6,0.8,2.1,0.2l-0.4-1.2c0.3,0.5,1.1-0.1,1-0.6s-0.7-0.8-1.2-1
	c-0.5-0.1-1-0.3-1.4-0.7c1.8-0.4,2.9-2.1,2.5-3.9v-0.1c-0.9,0.5-1.7,1.2-2.4,2.1c-0.7-0.6-1.6-0.7-2.4-0.3c-0.7-0.7-0.1-1.9,0.6-2.6
	s1.7-1.4,1.6-2.4l-4.4,2.3l1.7-3.6c-0.8-0.2-1.6-0.1-2.3,0.4c0-1.1-0.2-2.3-0.4-3.4l-0.1-0.3c-0.1-1.4-0.5-2.8-1.2-4.1l1.5-0.4
	c-0.9-1-2.2-1.5-3.6-1.4c0.7-3.5,0.4-7.1-1-10.4c-0.2,3.5-0.3,7.1-0.3,10.6l-1.1-0.4c-0.2,0.5,0,1.1,0.6,1.3
	c-0.6,0.7-0.7,1.6-0.4,2.4c-1.2,0.1-2.4-0.1-3.6-0.5c0,0.9,1.1,1.3,1.9,1.7s1.7,1.4,1,2s-1.7-0.2-2.5,0c0.1,0.5,0.5,1,1,1.2
	l-2.3,0.3c0-0.1-0.1-0.3-0.1-0.4c0.2,0.4,0.9-0.1,0.8-0.5s-0.5-0.7-1-0.8c-0.4-0.1-0.8-0.3-1.2-0.6c1.4-0.3,2.3-1.8,2-3.2l0,0
	c-0.8,0.4-1.4,1-1.9,1.7c-0.5-0.5-1.3-0.5-1.9-0.2c-0.6-0.6-0.1-1.6,0.5-2.1s1.4-1.1,1.3-2l-3.5,1.9l1.4-2.9c-0.6-0.2-1.3,0-1.8,0.3
	c0-0.9-0.1-1.9-0.3-2.8l-0.1-0.4c-0.1-1.2-0.4-2.3-0.9-3.4l1.2-0.3c-0.7-0.8-1.8-1.3-2.9-1.2c0.6-2.8,0.3-5.8-0.8-8.5
	c-0.2,2.9-0.3,5.8-0.2,8.7l-0.9-0.3c-0.1,0.4,0.1,0.8,0.4,1c-0.5,0.6-0.6,1.3-0.3,2c-1,0.1-2-0.1-2.9-0.4c0,0.7,0.9,1.1,1.6,1.4
	s1.3,1.2,0.8,1.7s-1.4-0.1-2.1,0c0.1,0.5,0.4,0.8,0.8,1l-6.5,0.9c1.1,1.3,3,1.5,4.3,0.5l0,0c0.3,0.3,0.4,0.7,0.5,1.1
	c-0.8,0.4-1.6,0.7-2.5,0.9c0.4,0.4,1,0.6,1.6,0.5c-0.3,0.4-0.2,1,0.2,1.3l0.1,0.1c-0.5,0.1-0.8,0.5-0.7,1c0.1,0.5,0.3,0.9,0.6,1.2
	c-1.4-0.7-2.9-1.1-4.4-1.2c0.7,1.4,2,2.3,3.5,2.5l-2.5,1.7l1.1,1.4c-0.8,0.4-1.6,0.7-2.4,0.8c0.2-0.2,0.3-0.5,0.4-0.8
	c0-1.2-1.1-2-1.6-3c-1-2.5,1.9-3.9,1.5-6.3c-0.7,0-1.4,0-2.1,0c0.1-0.4,0.3-0.8,0.6-1.2l-1-0.3c-0.1-0.5,0.7-0.7,1.2-0.4
	s1.2,0.6,1.5,0.1c-0.1-0.3-0.2-0.6-0.3-0.8c0.2,0.3,0.8,0,0.7-0.4s-0.5-0.6-0.8-0.7c-0.4-0.1-0.7-0.2-1-0.5c1.3-0.3,2.1-1.5,1.8-2.8
	c0,0,0,0,0-0.1c-0.7,0.4-1.2,0.9-1.7,1.5c-0.5-0.4-1.1-0.5-1.7-0.2c-0.5-0.5-0.1-1.4,0.5-1.9s1.2-1,1.2-1.7l-3.2,1.6l1.2-2.6
	c-0.6-0.1-1.2,0-1.6,0.3c0-0.8-0.1-1.6-0.3-2.5c0-0.1,0-0.2,0-0.3c-0.1-1-0.4-2.1-0.8-3l1.1-0.3c-0.7-0.7-1.6-1.1-2.6-1
	c0.5-2.5,0.3-5.1-0.7-7.5c-0.2,2.6-0.2,5.1-0.2,7.7l-0.2-0.1c0-0.1,0.1-0.1,0.1-0.2c0-1.4-1.3-2.3-1.8-3.4c-1.1-2.8,2.1-4.4,1.7-7.1
	c-0.8,0-1.6,0-2.4,0.1c0.1-0.5,0.4-1,0.7-1.3l-1.2-0.3c-0.2-0.6,0.8-0.8,1.4-0.5s1.3,0.6,1.7,0.1l-0.3-1c0.2,0.4,0.9,0,0.8-0.5
	s-0.5-0.7-1-0.8c-0.4-0.1-0.8-0.3-1.2-0.6c1.4-0.3,2.3-1.7,2-3.2c0,0,0,0,0-0.1c-0.7,0.4-1.4,1-1.9,1.7c-0.5-0.5-1.3-0.5-1.9-0.2
	c-0.6-0.6-0.1-1.6,0.5-2.1s1.4-1.1,1.3-2l-3.6,1.8c0.4-1,0.9-1.9,1.4-2.9c-0.6-0.2-1.3,0-1.8,0.3c0-0.9-0.1-1.9-0.3-2.8
	c0-0.1,0-0.2,0-0.4c-0.1-1.2-0.5-2.3-1-3.4l1.2-0.3c-0.7-0.8-1.8-1.3-2.9-1.2c0.6-2.8,0.3-5.8-0.8-8.5c-0.2,2.9-0.3,5.8-0.2,8.7
	l-0.9-0.3c-0.1,0.4,0,0.9,0.4,1c-0.5,0.6-0.6,1.3-0.3,2c-0.9,0.1-1.9-0.1-2.7-0.4c0.4-0.7,0.6-1.6,0.5-2.4c-0.8,0-1.6,0-2.4,0.1
	c0.1-0.5,0.4-1,0.7-1.3l-1.2-0.3c-0.2-0.6,0.8-0.8,1.4-0.5s1.3,0.6,1.7,0.1l-0.3-1c0.2,0.4,0.9-0.1,0.8-0.5s-0.5-0.7-1-0.8
	c-0.4-0.1-0.8-0.3-1.2-0.6c1.4-0.3,2.3-1.7,2-3.2c0,0,0,0,0-0.1c-0.8,0.4-1.4,1-1.9,1.7c-0.5-0.5-1.3-0.5-1.9-0.2
	c-0.6-0.6-0.1-1.6,0.5-2.1s1.4-1.1,1.3-2l-3.6,1.9l1.4-2.9c-0.6-0.2-1.3,0-1.8,0.3c0-0.9-0.1-1.9-0.3-2.8l-0.1-0.4
	c-0.1-1.2-0.5-2.3-1-3.4l1.2-0.3c-0.7-0.8-1.8-1.3-2.9-1.2c0.6-2.8,0.3-5.8-0.8-8.4c-0.2,2.9-0.3,5.8-0.2,8.7l-0.9-0.3
	c-0.1,0.4,0,0.9,0.4,1.1c-0.5,0.6-0.6,1.3-0.3,2c-1,0-1.9-0.1-2.8-0.5c0,0.7,0.9,1.1,1.6,1.4s1.3,1.2,0.8,1.7s-1.4-0.1-2.1,0
	c0.1,0.4,0.4,0.8,0.8,1l-2.7,0.4l-0.2-0.1c-0.4-0.1-0.8-0.3-1.2-0.6c1.4-0.3,2.3-1.8,2-3.2l0,0c-0.6,0.3-1.1,0.7-1.5,1.2
	c-0.2,0.2-0.6,0.3-0.9,0.2c-0.3-0.1-0.5-0.1-0.8-0.1c-0.4,0-0.8-0.3-0.8-0.7c0-0.1,0-0.2,0-0.3c0.2-0.3,0.4-0.7,0.7-0.9
	c0.6-0.6,1.4-1.1,1.3-2L79,244c-0.4,0.2-0.8,0-1-0.4c-0.1-0.2-0.1-0.4,0-0.6l0.4-0.9c-0.3-0.1-0.7-0.1-1,0c-0.4,0.1-0.8-0.2-0.9-0.6
	v-0.1c0-0.6-0.2-1.2-0.2-1.8l-0.1-0.4c-0.1-1.2-0.5-2.3-1-3.4l1.2-0.3c-0.6-0.6-1.3-1-2.1-1.1c-0.4-0.1-0.7-0.4-0.7-0.9
	c0.4-2.6,0-5.2-1-7.6c-0.2,2.9-0.3,5.8-0.2,8.7l-0.9-0.3c-0.1,0.4,0.1,0.8,0.4,1c-0.3,0.3-0.5,0.8-0.5,1.2c0,0.4-0.3,0.8-0.7,0.8
	c0,0,0,0-0.1,0c-0.3,0-0.6-0.1-0.9-0.1c0.1-0.4,0.1-0.7,0-1.1c-0.7,0.4-1.2,0.9-1.7,1.5c-0.5-0.4-1.1-0.5-1.7-0.2
	c-0.5-0.5-0.1-1.4,0.5-1.9s1.2-1,1.2-1.7l-3.2,1.6l3.5-0.6c-0.6-0.1-1.2,0-1.6,0.3c0-0.8-0.1-1.6-0.3-2.4v-0.3c-0.1-1-0.4-2.1-0.8-3
	l1.1-0.3c-0.7-0.7-1.6-1.1-2.6-1c0.5-2.5,0.3-5.1-0.7-7.5c-0.2,2.6-0.2,5.1-0.2,7.6l-0.8-0.3c-0.1,0.4,0,0.8,0.4,0.9
	c-0.4,0.5-0.5,1.2-0.3,1.7c-0.8,0.1-1.7,0-2.5-0.3c0,0.6,0.8,1,1.4,1.2c0.6,0.2,1.2,1,0.7,1.5s-1.2-0.1-1.8,0
	c0.1,0.4,0.4,0.7,0.7,0.9l-5.8,0.8c0.9,1.2,2.6,1.4,3.8,0.4l0,0c0.2,0.3,0.4,0.6,0.4,1c-0.7,0.3-1.4,0.6-2.2,0.8
	c0.4,0.3,0.9,0.5,1.4,0.5c-0.3,0.3-0.2,0.9,0.1,1.1c0,0,0.1,0.1,0.2,0.1c-0.4,0.1-0.7,0.5-0.6,0.9c0.1,0.4,0.3,0.8,0.5,1.1
	c-1.2-0.6-2.5-1-3.9-1.1c0.6,1.2,1.8,2,3.1,2.2l-2.2,1.5l1,1.2c-0.1,0.1-0.2,0.1-0.3,0.1c-1.3-0.6-2.6-1.2-3.9-1.7l0,0
	c0.4,0,0.7-0.1,1-0.3c0.8-0.6,0.3-1.9-0.3-2.7c0.3,0.5,2-1.9,2-2.3c0-1.2-1.1-2-1.6-3c-1-2.5,1.9-3.9,1.5-6.3c-0.7,0-1.4,0-2.1,0.1
	c0.1-0.4,0.3-0.8,0.6-1.2l-1-0.3c-0.2-0.5,0.7-0.7,1.2-0.4s1.2,0.6,1.5,0.1c-0.1-0.3-0.2-0.6-0.3-0.8c0.2,0.3,0.8,0,0.7-0.4
	s-0.5-0.6-0.8-0.7c-0.4-0.1-0.7-0.2-1-0.5c1.3-0.3,2.1-1.5,1.8-2.8c0,0,0,0,0-0.1c-0.7,0.4-1.2,0.9-1.7,1.5
	c-0.5-0.4-1.1-0.5-1.7-0.2c-0.5-0.5-0.1-1.4,0.5-1.9s1.2-1,1.2-1.7l-3.2,1.6l1.2-2.6c-0.6-0.1-1.2,0-1.6,0.3c0-0.8-0.1-1.6-0.3-2.5
	l-0.1-0.3c-0.1-1-0.4-2.1-0.8-3l1.1-0.3c-0.7-0.7-1.6-1.1-2.6-1c0.5-2.5,0.3-5.1-0.7-7.5c-0.2,2.6-0.2,5.1-0.2,7.7l-0.8-0.3
	c-0.1,0.4,0,0.8,0.4,0.9c-0.4,0.5-0.5,1.2-0.3,1.7c-0.9,0.1-1.7-0.1-2.5-0.4c0,0.6,0.8,0.9,1.4,1.2s1.2,1,0.7,1.5s-1.2-0.1-1.8,0
	c0.1,0.4,0.4,0.7,0.7,0.9l-5.8,0.8c0.9,1.2,2.6,1.4,3.8,0.5c0,0,0,0,0.1,0c0.2,0.3,0.4,0.6,0.4,1c-0.7,0.3-1.4,0.6-2.1,0.8
	c-0.7-0.8-1.8-1.2-2.8-1.1c0.6-2.8,0.3-5.8-0.8-8.4c-0.2,2.7-0.3,5.5-0.2,8.2c-0.5-0.2-0.9-0.2-1.4-0.2c0.6-2.8,0.3-5.8-0.8-8.4
	c-0.2,2.9-0.3,5.8-0.2,8.7l-0.9-0.3c-0.1,0.4,0.1,0.8,0.4,1c-0.5,0.6-0.6,1.3-0.3,2h-0.2l-0.2-0.1c0,0,0,0,0,0.1
	c-0.8,0-1.7-0.1-2.5-0.4c0,0.7,0.9,1.1,1.5,1.4s1.3,1.2,0.8,1.7s-1.4-0.1-2.1,0c0.1,0.4,0.4,0.8,0.8,1l-3.8,0.5
	c0.1-0.1,0.2-0.2,0.2-0.4c-0.1-0.4-0.5-0.6-0.8-0.7c-0.4-0.1-0.7-0.2-1-0.5c1.3-0.3,2.1-1.6,1.8-2.8l0,0c-0.7,0.4-1.2,0.9-1.7,1.5
	c-0.3-0.2-0.6-0.3-0.9-0.4c0.2-0.5,0.3-1,0.1-1.5c-0.4,0.2-0.8,0.5-1.1,0.9c0.1-0.4,0.3-0.7,0.7-1c0.5-0.5,1.2-1,1.2-1.7l-3.2,1.6
	l1.2-2.6c-0.6-0.1-1.2,0-1.6,0.3c0-0.8-0.1-1.6-0.3-2.5c0-0.1,0-0.2,0-0.3c-0.1-1-0.4-2.1-0.8-3l1.1-0.3c-0.7-0.7-1.6-1.1-2.6-1
	c0.5-2.5,0.3-5.1-0.7-7.5c-0.2,2.4-0.2,4.9-0.2,7.4c-0.5-0.2-1-0.3-1.5-0.3c0.5-2.5,0.3-5.1-0.7-7.5c-0.2,2.6-0.2,5.1-0.2,7.7
	l-0.8-0.3c-0.1,0.4,0,0.8,0.4,0.9c-0.4,0.5-0.5,1.2-0.3,1.7h-0.1c-0.8,0.1-1.7-0.1-2.5-0.4c0,0.6,0.8,1,1.4,1.2
	c0.6,0.2,1.2,1,0.7,1.5s-1.2-0.1-1.8,0c0.1,0.4,0.4,0.7,0.7,0.9l-5.8,0.8c0.7,0.9,1.9,1.3,3,0.9c0.4,0.3,0.8,0.4,1.3,0.5
	c-0.7,0.3-1.4,0.6-2.1,0.8c0.4,0.3,0.9,0.5,1.4,0.5c-0.3,0.4-0.2,0.9,0.1,1.2l0.1,0.1c-0.4,0.1-0.7,0.5-0.6,0.9
	c0,0.2,0.1,0.4,0.2,0.6c-0.4-0.1-0.7-0.1-1.1-0.1l0.1,0.1c-0.8-0.3-1.7-0.5-2.6-0.5c0.6,1.2,1.8,2,3.1,2.2l-2.2,1.5l1,1.2
	c-1.5,0.8-3.2,1.1-4.9,0.9c0.9,1.2,2,2.2,3.2,3c-1-0.4-2.1-0.5-3.1-0.3c-0.3,0.1-0.7,0.2-0.7,0.5c0,0.2,0.1,0.4,0.3,0.5
	c0.7,0.8,1.5,1.5,2.4,2.1c-0.4,0.7-0.4,1.5-0.1,2.2c-0.9,0.1-6.4,2-7.3,2.1v59.7c2.5,14.9,33.1,45.2,37.8,59.6
	c6.5,19.8,19.5,37,33.9,52.1c18.1,19,39.7,35.9,65.2,42.3c32.6,8.2,66.7-1.7,100.3-3.5c31.7-1.7,63.4,4,95.2,4
	c51.3,0,105-17,137.8-56.5c11.5-13.9,20.1-30.1,28.5-46.1c4.7-4.6,7.2-15.3,9.5-21.5c2.3-6.3,4.2-12.7,6.4-19
	c2.5-7.3,6-14.1,8.6-21.3c2.3-6.4,22,16.3,24.1,9.8v-48.3c0.1,0-6.3-1.3-6.2-1.4l-0.4-1.2C541.2,246.9,542,246.4,541.8,245.9z
	 M387.3,303.2L387.3,303.2L387.3,303.2z M406.9,288.4c0,0.4,0.1,0.7,0.2,1.1l-0.9,0.4L406.9,288.4z M408,292.1V292V292.1L408,292.1z
	 M432.5,271.9c-0.2-0.1-0.4-0.1-0.6-0.2l0.1-0.2L432.5,271.9z M429.5,277.4c0.1-0.1,0.2-0.3,0.3-0.4l-1.5-0.4c-0.2-0.7,1-1,1.7-0.6
	c0.2,0.1,0.4,0.2,0.6,0.3c-0.1,0.2-0.2,0.5-0.2,0.7L429.5,277.4z M473.8,253.2l0.2,0.2l-0.4,0.2L473.8,253.2z M493.8,248.7l-0.5,0.4
	c-0.2-0.1-0.4-0.2-0.5-0.4c0.1,0,0.3-0.1,0.4-0.1S493.5,248.7,493.8,248.7L493.8,248.7z M491,252.6c-0.1-0.4,0.2-0.6,0.6-0.7
	l0.6,0.7c-0.1,0.1-0.3,0.1-0.5,0.2L491,252.6z M527.8,233c0.1-0.4,0-0.8-0.1-1.1C528,232.1,528,232.6,527.8,233L527.8,233z
	 M523.5,231c0.5-0.4,0.9-0.8,1.3-1.3c0.3,0.6,1.1,1,1.8,1.3c0.4,0.2,0.7,0.4,1,0.8c-0.6,0.4-1.2,0.8-1.7,1.3c-0.3-0.1-0.5-0.1-0.8,0
	c0,0.2,0.1,0.4,0.3,0.6l-0.1,0.1c-0.7-0.6-1.6-0.7-2.3-0.3C522.2,232.9,522.8,231.6,523.5,231L523.5,231z M508.1,236.6l-2.4,1.6
	c-0.1-0.6-0.2-1.3-0.3-1.9l-0.1-0.4c0-0.1,0-0.3-0.1-0.5C506.1,236,507,236.5,508.1,236.6L508.1,236.6z M491.1,243.9
	c0.7-0.5,1.2-1.1,1.6-1.9c0.5,0.5,1.2,0.7,1.9,0.6c-0.4,0.5-0.3,1.2,0.2,1.6l0.1,0.1c-0.5,0.1-0.9,0.6-0.9,1.1
	c-0.4,0.3-0.7,0.6-1,0.9c-1-0.3-2-0.6-3-0.7C490.1,245,490.5,244.3,491.1,243.9L491.1,243.9z M477.5,241.8c-0.9,0.4-1.8,0.8-2.8,1
	c0.4-0.5,0.6-1,0.7-1.6c0.6-0.1,1.1-0.4,1.5-0.7C477.3,240.8,477.5,241.3,477.5,241.8L477.5,241.8z M474.6,242.9
	c0.5,0.4,1.2,0.6,1.9,0.6c-0.4,0.5-0.3,1.2,0.2,1.6c0.1,0.1,0.1,0.1,0.2,0.1c-0.6,0.1-1,0.7-0.9,1.2c0.1,0.6,0.4,1.1,0.7,1.5
	c-0.6-0.3-1.3-0.5-1.9-0.8l-0.3-1c0.3,0.4,1.1-0.1,1-0.6s-0.7-0.8-1.2-1c-0.5-0.1-1-0.3-1.4-0.7
	C473.6,243.7,474.1,243.4,474.6,242.9L474.6,242.9z M471.8,247.1c0.9,1.3,2.3,2.2,4,2.5l-0.9,0.6c0-0.2,0-0.3,0-0.5c-1,0-2,0-3,0.1
	c0.2-0.6,0.5-1.2,0.9-1.6l-1.5-0.4C471,247.4,471.3,247.2,471.8,247.1L471.8,247.1z M450.8,253.7c0.1-0.1,0.1-0.3,0.2-0.4
	c0.3,0.3,0.7,0.5,1,0.8C451.5,253.9,451,253.8,450.8,253.7L450.8,253.7z M450.8,253.2c-0.7-0.1-1.4,0-1.9,0.3h-0.2
	c0-0.8-0.1-1.7-0.2-2.5C449.1,251.8,449.9,252.5,450.8,253.2L450.8,253.2z M428.5,268.1c0.7,0.8,1.4,1.6,2.2,2.3
	c-0.1,0.1-0.3,0.3-0.4,0.5c-0.7-0.6-1.6-0.7-2.4-0.3C427.1,269.9,427.6,268.8,428.5,268.1L428.5,268.1z M406.6,286.3
	c-0.4,0.1-0.7,0.2-1,0.4c0-0.4,0-0.9-0.1-1.3C405.9,285.7,406.3,286,406.6,286.3z M205.9,367.9c0,0.3,0.1,0.7,0.4,0.9l0,0
	c-0.4-0.1-0.8-0.3-1.2-0.6C205.4,368.1,205.6,368,205.9,367.9z M205.1,370.9c0.3,0.2,0.6,0.3,1,0.4l0.3,0.4
	c-0.7-0.4-1.5-0.6-2.3-0.9C204.4,370.7,204.8,370.7,205.1,370.9L205.1,370.9z M282,376.2c0.2,0,0.4-0.1,0.7-0.2l0.8,0.6
	C283,376.4,282.5,376.3,282,376.2C282,376.3,282,376.2,282,376.2z M316.1,354.7l0.7,0.9c-0.6,0.3-1.3,0.5-1.9,0.7
	c0.2-0.5,0.5-1,0.9-1.4L316.1,354.7z M367.3,324.2c-0.2,0.1-0.5,0.2-0.7,0.3c0-1.1-0.2-2.3-0.4-3.4c0-0.1,0-0.3-0.1-0.4
	c-0.1-0.7-0.2-1.3-0.4-2c0.3,0.3,0.7,0.5,1,0.7C365.8,320.9,366.5,322.6,367.3,324.2L367.3,324.2z M351.4,336.3l0.3-0.3
	c0.4,0.5,0.7,0.9,1.1,1.4c-0.8,0.4-1.6,0.7-2.4,0.9C350.4,337.5,350.8,336.8,351.4,336.3z M298.5,364.3l0.1,0.2l-0.2,0.1
	C298.5,364.5,298.5,364.4,298.5,364.3z M247.6,384.8c1.3,0.6,2.8,0.3,3.9-0.5c0.3,0.4,0.5,0.8,0.6,1.3c-1,0.5-2,0.8-3,1.1
	c0.5,0.5,1.3,0.7,2,0.6c-0.4,0.5-0.3,1.2,0.2,1.6c0.1,0.1,0.1,0.1,0.2,0.1c-0.6,0.1-1,0.7-0.9,1.2c0.1,0.6,0.4,1.1,0.7,1.5
	c-1.7-0.8-3.5-1.3-5.4-1.5c0.6,1.1,1.5,2,2.6,2.6l-1.1,0.2c-0.5-0.7-1-1.4-1.4-2.1C245.1,388.5,246.8,386.8,247.6,384.8L247.6,384.8
	z M225.3,386.5c-1.1-0.4-2.3-0.6-3.5-0.5c-0.1-0.8,0-1.5,0.3-2.2C223.1,384.8,224.1,385.7,225.3,386.5L225.3,386.5z M207.1,365
	c-0.5,0.3-1,0.7-1.4,1.1c-0.3,0.1-0.5,0.2-0.8,0.2c-0.5-0.2-1-0.2-1.5,0c-0.4-0.4-0.4-1.1,0-1.5c1.1,0.3,2.4,0,3.3-0.7
	C206.8,364.4,206.9,364.7,207.1,365L207.1,365z M201.6,364.1l-0.1,0.1L201.6,364.1L201.6,364.1z M173.1,358.9
	c0.4,0.2,0.8,0.3,1.2,0.4l-2.2,1.5C172.4,360.1,172.6,359.5,173.1,358.9L173.1,358.9z M171.8,361.5c0.1-0.2,0.1-0.4,0.2-0.7l1,1.2
	l-0.1,0.1L171.8,361.5z M171.6,352.6c1,0.9,2.5,1,3.6,0.1c0.2,0.3,0.4,0.6,0.4,1c-0.7,0.3-1.4,0.6-2.2,0.8c0.4,0.3,0.9,0.5,1.4,0.5
	c0.5,0.7,0.4,1.6-0.3,2.1c0,0-0.1,0-0.1,0.1c0.1,0.4,0.3,0.8,0.5,1.1c-0.4-0.2-0.9-0.4-1.3-0.5c0.3-0.7,0.4-1.5,0.3-2.3
	c-1,0-2,0-3,0.1c0.2-0.6,0.4-1.2,0.9-1.6l-1.4-0.4C170.3,352.7,170.9,352.5,171.6,352.6L171.6,352.6z M138.1,324.4
	c0.1,0.2,0.3,0.3,0.5,0.4c-0.6,0.1-1,0.7-0.9,1.2c0.1,0.6,0.4,1.1,0.7,1.5c-0.4-0.2-0.9-0.4-1.3-0.6
	C137.1,326.1,137.6,325.2,138.1,324.4z M156.4,345.9c-0.1,0-0.3,0.1-0.4,0.1c-0.4-0.8-0.8-1.5-1.4-2.1c0.4,0.2,0.9,0.3,1.4,0.3
	c-0.4,0.5-0.3,1.2,0.2,1.6C156.3,345.8,156.3,345.8,156.4,345.9L156.4,345.9z M155.8,348c0.1,0.2,0.3,0.4,0.4,0.6l-0.6-0.3
	C155.6,348.2,155.8,348.1,155.8,348z M153.8,351c-0.1-0.2-0.3-0.4-0.4-0.6c0.1,0.2,0.4,0.1,0.8-0.3c0.3,0.1,0.6,0.2,0.9,0.2
	l-1.2,0.8L153.8,351z M156.4,341.2c0.3,0.4,0.5,0.8,0.6,1.3c-0.9,0.4-1.8,0.8-2.7,1c-0.1-0.2-0.2-0.4-0.3-0.5
	c-0.1-0.3-0.2-0.6-0.2-0.9C154.8,342.1,155.8,341.8,156.4,341.2L156.4,341.2z M138.9,321.5c0-0.1,0-0.2,0-0.3c-0.8,0-1.6,0-2.4,0.1
	c0-0.1,0.1-0.3,0.1-0.4c0.7-0.1,1.4-0.4,1.9-0.8c0.3,0.4,0.5,0.8,0.6,1.3L138.9,321.5z M71.4,242.7c0.1,0.1,0.2,0.2,0.4,0.1
	c0.1,0.1,0.2,0.2,0.4,0.3l-0.6,0.1L71.4,242.7z M83.9,257.8c0.1,0.4,0.3,0.7,0.6,1c-0.3-0.1-0.6-0.3-0.9-0.4
	C83.8,258.2,83.8,258,83.9,257.8z M83.7,260.1l-1.2,0.8c0.1-0.3,0.2-0.7,0.4-1C83.1,260.1,83.3,260.1,83.7,260.1L83.7,260.1z
	 M69.9,244.3c0.2,0.3,0.4,0.6,0.4,0.9h-1c0.1-0.3,0.2-0.5,0.3-0.8C69.8,244.4,69.9,244.4,69.9,244.3z M109.8,297.4
	c0.6,0.3,1.2,1,0.7,1.5c-0.1,0.1-0.3,0.2-0.5,0.2C110.2,298.5,110.2,297.9,109.8,297.4L109.8,297.4z M109.3,299.7l0.1,0.1l-0.6,0.1
	C109.1,299.8,109.3,299.8,109.3,299.7L109.3,299.7z M111.2,294.8L111.2,294.8c-0.3,0.5-0.4,1.2-0.2,1.8c-0.4,0-0.9,0-1.3-0.1
	C110.3,296.1,110.8,295.5,111.2,294.8L111.2,294.8z M98.3,266.8c0.2,0.5,0.9,0.9,1.5,1.1s1.3,1.2,0.8,1.7s-1.4-0.1-2.1,0
	c0.1,0.4,0.4,0.8,0.8,1l-2.3,0.3C96.8,269.3,97.7,268.1,98.3,266.8L98.3,266.8z M84.3,255.1c-0.3,0.4-0.3,1,0.1,1.3
	c0.1,0,0.1,0.1,0.2,0.1c-0.1,0-0.3,0.1-0.4,0.2v-0.1c0-0.4-0.3-0.8-0.7-0.8l0,0c-0.6,0-1.1,0-1.7,0.1c0.1-0.5,0.4-0.9,0.7-1.3
	l-1.2-0.3c-0.2-0.6,0.8-0.8,1.4-0.5s1.3,0.6,1.7,0.1c-0.1-0.3-0.2-0.6-0.3-0.8l0,0c0.2,0.1,0.5,0,0.6-0.2c0.2,0.3,0.3,0.6,0.4,0.9
	c-0.8,0.4-1.6,0.7-2.5,0.9C83.2,255,83.8,255.2,84.3,255.1L84.3,255.1z M71.8,239.9c0.3,0.1,0.6,0.3,0.8,0.4
	c0.7,0.3,1.3,1.2,0.8,1.7c-0.3,0.3-0.9,0.1-1.4,0.1c-0.2-0.3-0.4-0.4-0.8-0.5s-0.7-0.2-1-0.5C70.9,240.9,71.4,240.5,71.8,239.9z
	 M69.9,243.3l-0.8,0.1C69.4,243.3,69.7,243.3,69.9,243.3z M28.8,233.6l-2,1.4c-0.2-0.3-0.4-0.5-0.5-0.8c-0.2-0.6-0.3-1.2-0.1-1.8
	C26.9,233.1,27.8,233.5,28.8,233.6L28.8,233.6z M41,225.1c0-0.2-0.1-0.4-0.1-0.7c0.3,0.1,0.5,0.1,0.8,0.2
	C41.3,224.8,41.2,225,41,225.1z M28.7,226.8c0.5,0.3,1,0.5,1.6,0.5l0,0c-0.8,0.4-1.6,0.7-2.5,0.9c0.4,0.4,1,0.6,1.6,0.5
	c-0.3,0.4-0.3,1,0.1,1.3c0.1,0,0.1,0.1,0.2,0.1c-0.5,0.1-0.8,0.5-0.7,1c0,0.2,0.1,0.5,0.2,0.6c-0.5-0.1-1-0.2-1.5-0.2
	c0,0,0,0.1,0.1,0.1c-0.4-0.1-0.8-0.2-1.1-0.3c0.6-1.1,1.3-2.1,1.1-3.4c-0.7,0-1.4,0-2.1,0.1c0.1-0.4,0.3-0.8,0.6-1.2l-1-0.3
	c-0.1-0.3,0.2-0.5,0.5-0.5C26.6,226.8,27.7,227.1,28.7,226.8z M41,219.9c0.4,0.3,0.8,0.4,1.3,0.4c-0.3,0.4-0.2,0.9,0.1,1.2l0.1,0.1
	c-0.4,0.1-0.7,0.5-0.6,0.9c0.1,0.4,0.3,0.8,0.5,1.1c-0.6-0.3-1.2-0.5-1.8-0.7c-0.1-0.9-0.4-1.8-0.8-2.6L41,219.9z M27.7,225.5
	L27.7,225.5L27.7,225.5z"/>
<linearGradient id="SVGID_3_" gradientUnits="userSpaceOnUse" x1="369.7299" y1="1351.6765" x2="212.6197" y2="902.3068" gradientTransform="matrix(1 0 0 1 -14.31 -789.69)">
	<stop  offset="0" style="stop-color:#000000"/>
	<stop  offset="0.12" style="stop-color:#000000;stop-opacity:0.69"/>
	<stop  offset="1" style="stop-color:#000000;stop-opacity:0"/>
</linearGradient>
<path class="st2" d="M451,321.2l-34.2,38.4c-11.5,12.9-23,25.8-35.9,37.2c-14.1,12.3-29.3,23.2-45.5,32.5
	c-22.1,13-46.1,24-71.7,25.6c-36.8,2.3-71.5-15.1-101.3-37.8c-5.7-4.3-11.2-8.8-16.5-13.4c-26.2-22.6-51.5-51.8-51.4-86.5
	c0-16.3,7.6-29.8,22.5-36c15.1-6.4,28.9-15.4,40.8-26.7c5.4-5.2,10.6-11,17.6-13.8c3.8-1.6,8.1-2.2,11.4-4.7
	c2.6-1.9,4.4-4.8,6.2-7.5c9.5-14.7,19.9-28.8,31.2-42.1c3.1-3.6,6.4-7.3,10.8-9.2c1.3-0.6,2.7-1,4.1-1.2c5.7-0.9,11.9,1.1,16.7,4.5
	c6,4.2,10.4,10.3,14.6,16.3c5.5,7.7,11,15.4,16.5,23.2c4,5.6,8.3,11.4,14.6,13.8c7.7,2.9,17.3,0.4,23.6,5.6c5,4.2,6,12.1,11.4,15.9
	c3.3,2.3,7.6,2.5,11.5,3.6c11.3,3.2,18.8,13.6,27.3,21.7c3.8,3.6,8.2,7,13.3,8c3.7,0.7,7.5,0.2,11.3,0.8c5,0.9,9.3,3.7,13.5,6.5
	L451,321.2z"/>
<linearGradient id="SVGID_4_" gradientUnits="userSpaceOnUse" x1="85.8471" y1="1035.8405" x2="458.627" y2="1181.1307" gradientTransform="matrix(1 0 0 1 -14.31 -789.69)">
	<stop  offset="1.000000e-02" style="stop-color:#000000"/>
	<stop  offset="0.13" style="stop-color:#000000;stop-opacity:0.69"/>
	<stop  offset="1" style="stop-color:#000000;stop-opacity:0"/>
</linearGradient>
<path class="st3" d="M237.1,271.5c-2.5,8.8-0.4,18.2,5.5,25.1l-11.4-0.8c-3.7,15.9-9.4,31.3-17.1,45.8c-3.2,6-6.7,11.9-7.6,18.6
	c-1.3,10.2,3.8,20.3,3.9,30.6c0.2,1.3-0.2,2.6-0.9,3.6c-0.9,1-2.4,1.3-3.8,1.4c-11.8,1.3-24,3.8-33.2,11.3c-3.6,3-6.7,6.7-10,10
	c-5.7-4.3-11.2-8.8-16.5-13.4c-26.2-22.6-51.5-51.8-51.4-86.5c0-16.3,7.6-29.8,22.5-36c15.1-6.4,28.9-15.4,40.8-26.7
	c5.4-5.2,10.6-11,17.6-13.8c3.8-1.6,8.1-2.2,11.4-4.7c2.6-1.9,4.4-4.8,6.2-7.5c9.5-14.7,19.9-28.8,31.2-42.1
	c3.1-3.6,6.4-7.3,10.8-9.2c1.3-0.6,2.7-1,4.1-1.2c2.3,10.4,1.5,23.8,3.5,32.7c3.4,15.1,8.1,31.3,2.1,46.4
	C242.4,260.7,238.8,265.7,237.1,271.5z"/>
<linearGradient id="SVGID_5_" gradientUnits="userSpaceOnUse" x1="309.3564" y1="1090.7946" x2="369.0464" y2="1006.3246" gradientTransform="matrix(1 0 0 1 -14.31 -789.69)">
	<stop  offset="1.000000e-02" style="stop-color:#000000"/>
	<stop  offset="0.13" style="stop-color:#000000;stop-opacity:0.69"/>
	<stop  offset="1" style="stop-color:#000000;stop-opacity:0"/>
</linearGradient>
<path class="st4" d="M352.9,296.1c-2.4-5.7-7.5-9.7-11.9-14.1c-5.5-5.4-10.2-11.6-13.9-18.5c-2.1-3.8-3.9-7.9-6.6-11.3
	c-2-2.3-4.2-4.4-6.6-6.4c-7.1-6-14.1-12.2-21.3-18.1c5.5,13.5,16.3,26.6,25.9,37.4C328.6,276.9,340.3,287.2,352.9,296.1z"/>
<path d="M537.5,277.5c-0.1-1.1,3.1-4-2.3-3.1c0.2-0.6,0.5-1.2,0.9-1.6c-4.4-1.8,3.1,0.6,1.9-2c0.5,0.2,2.2-1-1.6-2.3
	c1.1-0.3,2.5-1.5,2.5-4c-0.9,0.5-1.7,1.2-2.4,2.1c-2-0.3-3.8-0.8-0.1-5.3l-4.4,2.3l1.7-3.6c-0.8-0.2-1.6-0.1-2.3,0.4
	c-0.3-2,0-3.8-1.6-8l1.5-0.4c-0.9-1-2.2-1.6-3.6-1.4c0.7-3.5,0.4-7.1-1-10.4c-0.2,3.5-0.3,7.1-0.3,10.7c-0.4,0-2-1.1-0.6,0.9
	c-0.6,0.7-0.7,1.6-0.4,2.4c-1.2,0.1-2.4-0.1-3.5-0.5c6.7,5.3-0.8,2.3,1.4,5l-8,1c0.2,2.2,11.1-0.6,2.9,3c0.5,0.5,1.3,0.7,2,0.6
	c-0.3,0.4-0.3,0.2,0.4,1.7c0.1,0.3-1.7-0.1-0.1,2.8c-1.7-0.8-3.5-1.3-5.4-1.5c0.3,0.6,0.7,1.2,1.2,1.6l-4.2,2.1
	c0.6-1.2,1.1-2.4,1.7-3.6c-0.8-0.2-1.6-0.1-2.3,0.4c-0.3-2,0-3.8-1.6-8l1.5-0.4c-0.9-1-2.2-1.6-3.6-1.4c0.7-3.5,0.4-7.1-1-10.4
	c-0.2,3.5-0.3,7.1-0.3,10.6c-0.4,0-2-1.1-0.6,0.9c-0.6,0.7-0.7,1.6-0.4,2.4c-1.2,0.1-2.4-0.1-3.5-0.5c6.6,5.3-0.7,2.3,1.4,5l-8,1
	c0.2,2.3,11.1-0.5,2.9,3c0.5,0.5,1.3,0.7,2,0.6c-0.3,0.4-0.3,0.2,0.4,1.7c0.1,0.3-1.7-0.1-0.1,2.8c-1.7-0.8-3.5-1.3-5.4-1.5
	c0.9,1.7,2.5,2.8,4.3,3.1l-3.1,2.1l1.4,1.7c-2.1,1.1-4.5,1.5-6.8,1.2c1.3,1.6,2.8,3,4.5,4.2c0-0.3-0.8,0.3-1.2-0.7
	c-1,0.4-0.3,0.1-3.5,0.4l0.8-1.7c-0.8-0.2-1.7,0-2.3,0.6c-0.2-2,0-3.8-1.6-8l1.5-0.4c-0.9-1-2.2-1.5-3.6-1.4c0.7-3.5,0.4-7.1-1-10.4
	c-0.2,3.6-0.3,7.1-0.3,10.6c-0.4,0-2-1.1-0.6,0.9c-0.6,0.7-0.7,1.6-0.4,2.4c-1.2,0.1-2.4-0.1-3.5-0.5c6.7,5.3-0.8,2.3,1.4,5l-8,1
	c0.2,2.3,11.1-0.5,2.9,3c0.5,0.5,1.3,0.7,2,0.6c-0.3,0.4-0.2,0.2,0.4,1.7c0.1,0.3-1.7-0.1-0.1,2.8c-1.7-0.8-3.5-1.3-5.4-1.5
	c0.8,1.7,2.4,2.9,4.3,3.2l-2.8,2c0.3-0.4,0.5-0.8,0.5-1.3l-4.4,2.2c0.6-1.2,1.1-2.4,1.7-3.6c-0.8-0.2-1.6,0-2.3,0.4
	c-0.3-2,0-3.8-1.6-8l1.5-0.4c-0.9-1-2.2-1.5-3.6-1.4c0.7-3.5,0.4-7.1-1-10.4c-0.2,3.5-0.3,7.1-0.3,10.6c-0.4,0-2-1.1-0.6,0.9
	c-0.6,0.7-0.7,1.6-0.4,2.4c-1.2,0.1-2.4-0.1-3.5-0.5c6.6,5.3-0.7,2.3,1.4,5l-8,1c0.2,2.3,11.1-0.5,2.9,3c0.5,0.5,1.3,0.7,2,0.6
	c-0.3,0.4-0.3,0.2,0.4,1.7c0.1,0.3-1.6-0.2-0.1,2.8c-1.7-0.8-3.5-1.3-5.4-1.5c0.9,1.7,2.5,2.8,4.3,3.1l-3.1,2.1l1.4,1.7
	c-1.7,0.9-3.6,1.3-5.5,1.3c0-0.1,0-0.2,0-0.3c-0.1,0-0.2,0.4-1.4,0.2l0.3,0.4l-3.3,1.7c0.6-1.2,1.1-2.4,1.7-3.6
	c-0.8-0.2-1.6-0.1-2.3,0.4c-0.3-2,0-3.8-1.6-8l1.5-0.4c-0.9-1-2.2-1.5-3.6-1.4c0.7-3.5,0.4-7.1-1-10.4c-0.2,3.5-0.3,7.1-0.3,10.6
	c-0.4,0-2-1.1-0.6,0.9c-0.6,0.7-0.7,1.6-0.4,2.4c-1.2,0.1-2.4-0.1-3.5-0.5c6.7,5.3-0.8,2.3,1.4,5l-8,1c0.2,2.3,11.1-0.5,2.9,3
	c0.5,0.5,1.3,0.7,2,0.6c-0.3,0.4-0.2,0.2,0.4,1.7c0.1,0.3-1.6-0.1-0.1,2.8c-1.7-0.8-3.5-1.3-5.4-1.5c0.9,1.7,2.5,2.8,4.3,3.1
	l-3.1,2.1l1.4,1.7c-2.1,1.1-4.5,1.5-6.8,1.2c0.2,0.2,0.4,0.5,0.6,0.7c-0.5,0-1,0.2-1.4,0.5c-0.2-2,0-3.8-1.6-8l1.5-0.4
	c-0.9-1-2.2-1.5-3.6-1.4c0.7-3.5,0.4-7.1-1-10.4c-0.2,3.5-0.3,7.1-0.3,10.6c-0.4,0-2-1.1-0.6,0.9c-0.6,0.7-0.7,1.6-0.4,2.4
	c-1.2,0.1-2.4-0.1-3.5-0.5c6.7,5.3-0.9,2.3,1.4,5l-8,1c0.2,2.2,11.1-0.5,2.9,3c0.5,0.5,1.3,0.7,2,0.6c-0.3,0.4-0.2,0.2,0.4,1.7
	c0.1,0.3-1.7-0.1-0.1,2.8c-1.7-0.8-3.5-1.3-5.4-1.5c0.9,1.7,2.5,2.8,4.4,3.1l-3.2,2.2l1.4,1.7c-2.1,1.1-4.5,1.5-6.8,1.2
	c0.4,0.4,0.7,0.9,1.1,1.3c-0.7-0.1-1.4,0.1-1.9,0.5c-0.2-2,0-3.8-1.6-8l1.5-0.4c-0.9-1-2.3-1.5-3.6-1.4c0.7-3.5,0.4-7.1-1-10.4
	c-0.2,3.5-0.3,7.1-0.3,10.7c-0.4,0-2-1.1-0.5,0.9c-0.6,0.7-0.7,1.6-0.4,2.4c-1.2,0.1-2.4-0.1-3.5-0.5c0.3,0.8,6.1,4.7,0.4,3.7
	c0.1,0.5,0.5,1,1,1.2l-8,1c0.2,2.3,11.1-0.5,2.9,3c0.5,0.5,1.3,0.7,2,0.6c-0.3,0.4-0.2,0.2,0.4,1.7c0.1,0.3-1.7-0.1-0.1,2.8
	c-1.7-0.8-3.5-1.3-5.4-1.5c0.9,1.7,2.5,2.8,4.3,3.1l-3.1,2.1l1.4,1.7c-2.1,1.1-4.5,1.5-6.8,1.2c-0.6-0.2,0,0-1.7-0.2
	c0.7-3.5,0.4-7.1-1-10.4c-0.2,3.5-0.3,7.1-0.3,10.6c-0.4,0-2-1.1-0.6,0.9c-0.6,0.7-0.7,1.6-0.4,2.4c-1.2,0.1-2.4-0.1-3.5-0.5
	c6.7,5.3-0.9,2.3,1.4,5l-8,1c0.2,2.2,11.1-0.6,2.9,3c0.5,0.5,1.3,0.7,2,0.6c-0.3,0.4-0.2,0.2,0.4,1.7c0.1,0.3-1.6-0.1-0.1,2.8
	c-1.7-0.8-3.5-1.3-5.4-1.5c0.9,1.7,2.5,2.8,4.3,3.1l-3.6,2.5l1.4,1.7c-0.4,0.2-0.8,0.4-1.2,0.5c-0.3-1.5-0.1-2-1.3-5l1.5-0.4
	c-0.9-1-2.2-1.5-3.6-1.4c0.7-3.5,0.4-7.1-1-10.4c-0.2,3.5-0.3,7.1-0.3,10.6c-0.4,0-2-1.1-0.6,0.9c-0.6,0.7-0.7,1.6-0.4,2.4
	c-1.2,0.1-2.4-0.1-3.5-0.5c6.7,5.3-0.9,2.3,1.4,5l-8,1c0.5,2.1,10.6-0.3,2.9,3c0.5,0.5,1.3,0.7,2,0.6c-0.3,0.4-0.3,0.2,0.4,1.7
	c0.1,0.3-1.6-0.2-0.1,2.8c-1.7-0.8-3.5-1.3-5.4-1.5c0.9,1.7,2.5,2.8,4.3,3.1l-1.6,1.1c0.1-0.2,0.2-0.5,0.1-0.8l-4.4,2.3l1.7-3.6
	c-0.8-0.2-1.6,0-2.3,0.4c-0.3-2,0-3.8-1.6-8l1.5-0.4c-0.9-1-2.2-1.5-3.6-1.4c0.7-3.5,0.4-7.1-1-10.4c-0.2,3.5-0.3,7.1-0.3,10.6
	c-0.4,0-2-1.1-0.6,0.9c-0.6,0.7-0.7,1.6-0.4,2.4c-1.2,0.1-2.4-0.1-3.5-0.5c6.6,5.2-0.7,2.3,1.4,5l-8,1c0.2,2.3,11.1-0.5,2.9,3
	c0.5,0.5,1.3,0.7,2,0.6c-0.3,0.4-0.3,0.2,0.4,1.7c0.1,0.3-1.7-0.1-0.1,2.8c-1.7-0.8-3.5-1.3-5.4-1.5c0.8,1.7,2.5,2.9,4.3,3.1
	c-1.4,1.4-4.4,1.4-1.9,4c-0.7,0.4-1.5,0.7-2.3,0.9c0.2-0.2,0.3-0.5,0.2-0.8c-0.9,0.2-1.5,1.4-3.3,1.2l1.1-2.3
	c-0.6-0.2-1.3,0-1.9,0.3c-0.2-0.5,0.4-1.5-1.3-6.5l1.2-0.3c-0.7-0.8-1.8-1.3-2.9-1.2c0.6-2.8,0.3-5.8-0.8-8.5
	c-0.2,2.9-0.3,5.8-0.2,8.7c-0.1,0.1-1.7-0.8-0.5,0.7c-0.5,0.6-0.6,1.3-0.3,2c-1,0.1-2-0.1-2.9-0.4c-0.4,0.5,5.3,3.2,0.3,3
	c0.1,0.4,0.4,0.8,0.8,1l-6.5,0.9c0.2,1.8,9-0.4,2.4,2.4c0.4,0.4,1,0.6,1.6,0.5c-0.2,0.3-0.2,0.2,0.3,1.4c-0.1,0.2-1.3,0.4-0.1,2.2
	c-1.4-0.7-2.9-1.1-4.4-1.2c0.7,1.4,2,2.3,3.5,2.5l-0.8,0.5c0-0.2,0-0.3,0-0.5l-4.4,2.3c0.5-1.2,1.1-2.4,1.7-3.6
	c-0.8-0.2-1.6-0.1-2.3,0.4c-0.3-2,0-3.8-1.6-8l1.5-0.4c-0.9-1-2.2-1.5-3.6-1.4c0.7-3.5,0.4-7.1-1-10.4c-0.2,3.5-0.3,7.1-0.3,10.6
	c-0.4,0-2-1.1-0.6,0.9c-0.6,0.7-0.7,1.6-0.4,2.4c-1.2,0.1-2.4-0.1-3.5-0.5c6.7,5.3-0.9,2.3,1.4,5l-8,1c0.2,2.2,11.1-0.5,2.9,3
	c0.5,0.5,1.3,0.7,2,0.6c-0.3,0.4-0.2,0.2,0.4,1.7c0.1,0.3-1.6-0.1-0.1,2.8c-1.7-0.8-3.5-1.3-5.4-1.5c0.9,1.7,2.5,2.8,4.3,3.1
	l-3.1,2.1l1.2,1.5c-0.3,0.1-1.7,1.2-3,1.4l1.1-2.3c-0.6-0.1-1.1,0-1.6,0.3c-0.3-1.2,0.7,0.3-1.2-5.8l1.1-0.3c-0.7-0.7-1.6-1.1-2.6-1
	c0.5-2.5,0.3-5.1-0.7-7.5c-0.2,2.5-0.2,5.1-0.2,7.7c-0.1,0-1.5-0.7-0.4,0.7c-0.4,0.5-0.5,1.2-0.3,1.7c-0.9,0.1-1.7-0.1-2.5-0.4
	c-1.2,0,5,2.5,0.3,2.7c0.1,0.4,0.4,0.7,0.7,0.9l-5.8,0.8c-0.4,1.5,8.1-0.5,2.1,2.2c0.4,0.3,0.9,0.5,1.4,0.5
	c-0.2,0.3-0.2,0.2,0.3,1.2c-0.1,0.1-1.2,0.3-0.1,2c-1.2-0.6-2.5-1-3.9-1.1c0.6,1.2,1.8,2,3.1,2.2l-2.2,1.5l1,1.2
	c-0.2,0.1-0.4,0.2-0.6,0.3c0-0.3,0-0.5-0.1-0.8c-1.2-0.1,1,1.4-4.2,1.4l0.2,0.2c-2.2,0.3-0.1-1.9,1.6-4.8l-4.4,2.3l1.7-3.6
	c-0.8-0.2-1.6-0.1-2.3,0.4c-0.2-2,0-3.8-1.6-8l1.5-0.4c-0.9-1-2.2-1.5-3.6-1.4c0.7-3.5,0.4-7.1-1-10.4c-0.2,3.5-0.3,7.1-0.3,10.6
	c-0.4,0-2-1.1-0.6,0.9c-0.6,0.7-0.7,1.6-0.4,2.4c-1.2,0.1-2.4-0.1-3.5-0.5c6.7,5.3-0.9,2.3,1.4,5l-8,1c0.2,2.2,11.1-0.5,2.9,3
	c0.5,0.5,1.3,0.7,2,0.6c-0.3,0.4-0.2,0.2,0.4,1.7c0,0.2-1.7,0-0.2,2.8c-1.7-0.8-3.5-1.3-5.4-1.5c0.9,1.7,2.5,2.8,4.4,3.1
	c-1,0.7-2.1,1.4-3.1,2.1l1.4,1.7c-0.4,0.2-0.8,0.4-1.2,0.5c-0.3-1.5-0.1-2-1.3-5l1.5-0.5c-0.9-1-2.2-1.5-3.6-1.4
	c0.7-3.5,0.4-7.1-1-10.4c-0.2,3.5-0.3,7.1-0.3,10.6c-0.4,0-2-1.1-0.6,0.9c-0.6,0.7-0.7,1.6-0.4,2.4c-1.2,0.1-2.4-0.1-3.5-0.5
	c6.7,5.4-0.9,2.2,1.4,5l-6.1,0.8c-0.3-1.4,0.5-1.4-3-1.1c0.2-0.6,0.5-1.2,0.9-1.6c-4.4-1.8,2.4,0.5,1.9-2c0.4,0.2,2.2-1-1.6-2.3
	c1.1-0.3,2.6-1.5,2.5-4c-0.9,0.5-1.7,1.2-2.4,2.1c-2-0.3-3.8-0.8-0.1-5.3l-4.4,2.3l1.7-3.6c-0.8-0.2-1.6-0.1-2.3,0.4
	c-0.2-2,0-3.8-1.6-8l1.5-0.4c-0.9-1-2.2-1.5-3.6-1.4c0.7-3.5,0.4-7.1-1-10.4c-0.2,3.5-0.3,7.1-0.3,10.6c-0.4,0-2-1.1-0.6,0.9
	c-0.6,0.7-0.7,1.6-0.4,2.4c-1.2,0.1-2.4-0.1-3.6-0.5c6.7,5.3-0.9,2.3,1.4,5l-8,1c0.5,2.1,10.6-0.3,2.9,3c0.6,0.5,1.3,0.7,2,0.6
	c-0.3,0.4-0.2,0.2,0.4,1.7c0,0.3-1.6-0.1-0.2,2.8c-1.7-0.8-3.5-1.3-5.4-1.5c0.9,1.7,2.5,2.8,4.4,3.1l-3.1,2.3l1.4,1.7
	c-1.5,0.7-3.1,1.2-4.8,1.3c-0.5-0.7,4.5-4.8-1.8-4c0.2-0.6,0.5-1.2,0.9-1.6c-4.4-1.7,3.1,0.6,1.9-2c0.5,0.2,2.2-1-1.6-2.3
	c1.1-0.3,2.5-1.5,2.5-4c-0.9,0.5-1.7,1.2-2.4,2.1c-2-0.3-3.8-0.8-0.1-5.3l-4.4,2.3l1.7-3.6c-0.8-0.2-1.6-0.1-2.3,0.4
	c-0.3-2,0-3.8-1.6-8l1.5-0.4c-0.9-1-2.2-1.5-3.6-1.4c0.7-3.5,0.4-7.1-1-10.4c-0.2,3.5-0.3,7.1-0.3,10.6c-0.4,0-2-1.1-0.6,1
	c-0.6,0.7-0.7,1.6-0.4,2.4c-1.2,0.1-2.4-0.1-3.6-0.5c6.6,5.2-0.7,2.3,1.4,5l-4.3,0.6c0.2-0.2,0.2-0.5,0.2-0.8
	c-0.4,0.1-1.5,1.1-3.3,1.2l1.1-2.3c-0.6-0.2-1.3,0-1.9,0.3c-0.2-0.6,0.4-1.5-1.3-6.5l1.2-0.3c-0.7-0.8-1.8-1.3-2.9-1.2
	c0.6-2.8,0.3-5.8-0.8-8.5c-0.2,2.9-0.3,5.8-0.2,8.7c-0.1,0.1-1.7-0.8-0.5,0.8c-0.5,0.6-0.6,1.3-0.3,2c-1,0.1-2-0.1-2.9-0.4
	c-0.4,0.5,5.3,3.2,0.3,3c0.1,0.4,0.4,0.8,0.8,1l-6.5,0.9c0.2,1.8,9-0.4,2.4,2.4c0.4,0.4,1,0.6,1.6,0.5c-0.2,0.3-0.2,0.2,0.3,1.4
	c-0.1,0.2-1.3,0.4-0.1,2.2c-1.4-0.7-2.9-1.1-4.4-1.2c0.7,1.4,2,2.3,3.5,2.5l-2.5,1.7l0.3,0.4c-7.1-0.7,2.3-8.7-3.4-8.1
	c0.1-0.4,0.3-0.8,0.6-1.2c-2.5-1,1.3,0.5,1.4-1.4c0.3,0.1,1.5-0.7-1.1-1.6c0.7-0.3,1.4-0.6,1.8-2.9c-0.7,0.4-1.2,0.9-1.7,1.5
	c-1.5-0.4-2.9,0-0.1-3.8l-3.2,1.6c0.4-0.9,0.8-1.7,1.2-2.6c-0.6-0.1-1.1,0-1.6,0.3c-0.3-1.2,0.7,0.3-1.2-5.8l1.1-0.3
	c-0.7-0.7-1.6-1.1-2.6-1c0.5-2.5,0.3-5.1-0.7-7.5c-0.2,2.6-0.2,5.1-0.2,7.7c-0.1,0-1.5-0.7-0.4,0.7c-0.4,0.5-0.5,1.2-0.3,1.7
	c-0.9,0.1-1.7-0.1-2.6-0.4c-1.2,0,5,2.5,0.3,2.7c0.1,0.4,0.4,0.7,0.7,0.9c0-0.2-2.3,0.6-3.2,0.2c0.5,0.2,2.2-1-1.6-2.3
	c1.1-0.3,2.6-1.5,2.5-4c-0.9,0.5-1.7,1.2-2.4,2.1c-2-0.3-3.8-0.8-0.1-5.3l-4.4,2.3l1.7-3.6c-0.8-0.2-1.6-0.1-2.3,0.4
	c-0.3-2,0-3.8-1.6-8l1.5-0.4c-0.9-1-2.3-1.5-3.6-1.4c0.7-3.5,0.4-7.1-1-10.4c-0.2,3.5-0.3,7.1-0.3,10.7c-0.4,0-2-1.1-0.6,0.9
	c-0.6,0.7-0.7,1.6-0.4,2.4c-1.2,0.1-2.4-0.1-3.6-0.5c6.7,5.3-0.8,2.3,1.4,5l-5.1,0.7c-0.5-1.4,5.9-7.1-0.9-5.9
	c0.2-0.6,0.5-1.2,0.9-1.6c-4.4-1.9,2.6,0.5,1.9-2c0.5,0.2,2.2-1-1.6-2.3c1.1-0.3,2.5-1.5,2.5-4c-0.9,0.5-1.7,1.2-2.4,2.1
	c-2-0.3-3.8-0.8-0.1-5.3l-4.4,2.2l1.7-3.6c-0.8-0.2-1.6,0-2.3,0.4c-0.3-2,0-3.8-1.6-8l1.5-0.4c-0.9-1-2.2-1.5-3.6-1.4
	c0.7-3.5,0.4-7.1-1-10.4c-0.2,3.5-0.3,7.1-0.3,10.6c-0.4,0-2-1.1-0.6,0.9c-0.6,0.7-0.7,1.6-0.4,2.4c-1.2,0.1-2.4-0.1-3.6-0.5
	c6.6,5.2-0.6,2.3,1.4,5c0-0.3-2.1,0.9-2.4-0.1c0.4,0.1,1.7-0.8-1.3-1.9c0.8-0.3,1.6-0.6,2-3.2c-0.8,0.4-1.4,1-1.9,1.7
	c-2.1-0.2-2.6-1.2-0.1-4.4l-3.6,1.8c0.4-1,0.9-1.9,1.4-2.9c-0.6-0.2-1.3,0-1.9,0.3c-0.2-0.6,0.4-1.5-1.3-6.5l1.2-0.3
	c-0.7-0.8-1.8-1.3-2.9-1.2c0.6-2.8,0.3-5.8-0.8-8.5c-0.2,2.9-0.3,5.8-0.2,8.7c-0.1,0.1-1.7-0.8-0.5,0.7c-0.5,0.6-0.6,1.3-0.3,2
	c-1,0.1-2-0.1-2.9-0.4c-0.4,0.5,5.3,3.2,0.3,3.1c0.1,0.4,0.4,0.8,0.8,1l-6.5,0.9c0.2,1.8,9-0.4,2.4,2.4c2.1,0.4,1.2,1.4,1.8,4.2
	c-1.4-0.7-2.9-1.1-4.4-1.2c0.7,1.4,2,2.3,3.5,2.5l-2.5,1.7l1.1,1.4c-0.8,0.4-1.6,0.7-2.4,0.8c-2.2-2.2,2.2-10.4-1.8-10
	c0.1-0.4,0.3-0.8,0.6-1.2c-2.5-1,1.3,0.5,1.4-1.4c0.3,0.1,1.5-0.7-1.1-1.6c0.7-0.3,1.4-0.6,1.8-2.9c-0.7,0.4-1.2,0.9-1.7,1.5
	c-1.5-0.4-2.9,0-0.1-3.8l-3.2,1.6l1.2-2.6c-0.6-0.1-1.2,0-1.6,0.3c-0.4-1.2,0.7,0.4-1.1-5.8l1.1-0.3c-0.7-0.7-1.6-1.1-2.6-1
	c0.5-2.5,0.3-5.1-0.7-7.5c-0.2,2.5-0.2,5.1-0.2,7.6c-0.1,0.1-1.5-0.7-0.4,0.7c-0.4,0.5-0.5,1.2-0.3,1.7c-0.9,0.1-1.7-0.1-2.6-0.4
	c-1.2,0,5,2.5,0.3,2.7c0.1,0.4,0.4,0.7,0.7,0.9c-2,0.5-1.6-0.4-3.2-4c-4.3-1.9,2.6-10.9-2.5-10.5c0.1-0.5,0.4-0.9,0.7-1.3
	c-3.4-1.5,2.5,0.6,1.6-1.6c0.4,0.1,1.7-0.8-1.4-1.9c0.8-0.3,1.6-0.6,2-3.2c-0.8,0.4-1.4,1-1.9,1.7c-2.1-0.2-2.6-1.2-0.1-4.3l-3.5,2
	l1.3-2.9c-0.6-0.2-1.3,0-1.8,0.3c-0.2-0.6,0.4-1.5-1.3-6.5l1.2-0.3c-0.6-0.6-1.3-1-2.2-1.1c2.8-1.8-2.2-5,0-9c0.1-1.9,3.3-4-1.3-3.4
	c0.1-0.5,0.4-0.9,0.7-1.3c-3.4-1.7,2.2,0.7,1.6-1.6c0.4,0.1,1.7-0.8-1.3-1.9c0.8-0.3,1.6-0.6,2-3.2c-0.8,0.4-1.4,1-1.9,1.7
	c-2.1-0.2-2.6-1.2-0.1-4.3l-3.6,1.8c0.4-1,0.9-1.9,1.4-2.9c-0.6-0.2-1.3,0-1.8,0.3c-0.2-0.6,0.5-1.5-1.3-6.5l1.2-0.3
	c-0.7-0.8-1.8-1.3-2.9-1.1c0.6-2.8,0.3-5.8-0.8-8.5c-0.2,2.9-0.3,5.8-0.2,8.7c-0.1,0.1-1.7-0.8-0.5,0.7c-0.5,0.6-0.6,1.3-0.3,2
	c-1,0.1-2-0.1-2.9-0.5c-0.4,0.5,5.3,3.2,0.3,3.1c0.1,0.4,0.4,0.8,0.8,1l-6.5,0.8c0.2,1.8,9-0.4,2.4,2.4c0.4,0.4,1,0.6,1.6,0.5
	c-0.2,0.3-0.2,0.2,0.3,1.4c-0.1,0.2-1.3,0.4-0.1,2.2c-1.4-0.7-2.9-1.1-4.4-1.2c0.7,1.4,2,2.3,3.5,2.5l-2.5,1.7l1.1,1.4
	c-0.8,0.4-1.6,0.7-2.4,0.8c-2.2-2.2,2.2-10.5-1.8-10c0.1-0.4,0.3-0.8,0.6-1.2c-2.5-1,1.3,0.5,1.5-1.4c0.3,0.1,1.5-0.7-1.1-1.6
	c0.7-0.3,1.4-0.6,1.8-2.9c-0.7,0.4-1.2,0.9-1.7,1.5c-1.5-0.4-2.9,0-0.1-3.8c-0.3-0.2-1.8,1.7-2.8,0.8l0.8-1.8
	c-0.1,0-0.2-0.1-0.4-0.1c0.4-0.6,0.5-1.3,0.3-2c-0.6,0.4-1.2,0.8-1.7,1.4c0.2-0.5-0.6-0.8-0.3-4l-0.4,0.2c-0.1-0.3-0.2-0.7-0.4-1
	l1.1-0.3c-0.7-0.7-1.6-1.1-2.6-1c0.5-2.5,0.3-5.1-0.7-7.5c-0.2,2.5-0.2,5.1-0.2,7.6c-0.1,0-1.5-0.7-0.4,0.7
	c-0.1,0.1,0.1,0.2-0.4,0.4c-0.2-0.6,0.4-1.5-1.3-6.5l1.2-0.3c-0.7-0.8-1.8-1.3-2.9-1.2c0.6-2.8,0.3-5.8-0.8-8.5
	c-0.2,2.9-0.3,5.8-0.2,8.7l-0.9-0.3c-0.1,0.4,0.1,0.8,0.4,1c-0.5,0.6-0.6,1.3-0.3,2c-1,0.1-2-0.1-2.9-0.4c-0.4,0.5,5.3,3.2,0.3,3
	c0.1,0.4,0.4,0.8,0.8,1l-6.5,0.9c0.1,1.8,9-0.5,2.4,2.4c0.4,0.4,1,0.6,1.6,0.5c-0.2,0.3-0.2,0.2,0.3,1.4c-0.1,0.2-1.3,0.4-0.1,2.2
	c-1.4-0.7-2.9-1.1-4.4-1.2c0.7,1.4,2,2.3,3.5,2.5l-2.5,1.7l1.1,1.4c-0.8,0.4-1.6,0.7-2.4,0.8c-2.2-2.3,2.2-10.4-1.8-10
	c0.1-0.4,0.3-0.8,0.6-1.2c-2.5-1,1.3,0.5,1.4-1.4c0.3,0.1,1.5-0.7-1.1-1.6c0.7-0.3,1.4-0.6,1.8-2.9c-0.7,0.4-1.2,0.9-1.7,1.5
	c-1.5-0.4-2.9,0-0.1-3.8l-3.2,1.6l1.2-2.6c-0.6-0.1-1.2,0-1.6,0.3c-0.4-1.2,0.7,0.5-1.1-5.8l1.1-0.3c-0.7-0.7-1.6-1.1-2.6-1
	c0.5-2.5,0.3-5.1-0.7-7.5c-0.2,2.5-0.2,5.1-0.2,7.7c-0.1,0.1-1.5-0.7-0.4,0.6c-0.4,0.5-0.5,1.2-0.3,1.7c-0.9,0.1-1.7-0.1-2.6-0.4
	c-1.2,0,5,2.5,0.3,2.7c0.1,0.4,0.4,0.7,0.7,0.9l-5.8,0.8c-0.4,1.5,8.1-0.5,2.1,2.2c0.4,0.3,0.9,0.5,1.4,0.5
	c-0.2,0.3-0.2,0.1,0.3,1.2c-0.1,0.1-1.2,0.3-0.1,2c-1.3-0.6-2.6-1-4-1c0.6,1.2,1.8,2,3.1,2.2l-1.7,1.2c-0.6-0.2,0,0-1.8,0.3
	c-0.2-0.6,0.4-1.5-1.3-6.5l1.2-0.3c-0.7-0.8-1.8-1.3-2.9-1.2c0.6-2.8,0.3-5.8-0.8-8.5c-0.2,2.8-0.3,5.5-0.2,8.3
	c-0.5-0.2-0.9-0.2-1.4-0.2c0.6-2.8,0.3-5.8-0.8-8.5c-0.2,2.9-0.3,5.8-0.2,8.7c-0.1,0.1-1.7-0.8-0.5,0.7c-0.5,0.6-0.6,1.3-0.3,2
	c0,0-0.1,0.1-0.4-0.1c-0.8,0.2,0,0-2.5-0.4c3.1,2.5,1.4,1.8,1.1,4.1l-3.8,0.5c0.1-0.7,0.4-0.4-1.7-1.6c1.3-0.3,2.1-1.5,1.8-2.8
	c-0.7,0.4-1.2,0.9-1.7,1.5c-0.3-0.2-0.6-0.3-0.9-0.4c0.2-0.5,0.3-1,0.2-1.5c-0.4,0.2-0.8,0.5-1.1,0.9c0.3-0.7,0.5-0.5,1.8-2.8
	l-3.2,1.6l1.2-2.6c-0.6-0.1-1.2,0-1.6,0.3c-0.3-1.2,0.6,0.4-1.2-5.8l1.1-0.3c-0.7-0.7-1.6-1.1-2.6-1c0.5-2.5,0.3-5.1-0.7-7.5
	c-0.2,2.4-0.2,4.9-0.2,7.4c-0.5-0.2-1-0.3-1.5-0.3c0.5-2.5,0.3-5.1-0.7-7.5c-0.2,2.5-0.2,5.1-0.2,7.6c-0.1,0-1.5-0.7-0.4,0.7
	c-0.4,0.5-0.5,1.2-0.3,1.7c-1,0.1,0,0-2.5-0.4c-1.2,0,5,2.5,0.3,2.7c0.1,0.4,0.4,0.7,0.7,0.9l-5.8,0.8c0.9,1.1,1.3,0.3,4.2,1.4
	c-0.7,0.3-1.4,0.6-2.1,0.8c0.4,0.3,0.9,0.5,1.4,0.5c-0.2,0.2-0.2,0.2,0.3,1.2c-0.1,0-0.8,0.3-0.4,1.4c-0.4-0.1-0.7-0.1-1.1-0.1
	l0.1,0.1c-0.8-0.3-1.7-0.5-2.6-0.5c0.6,1.2,1.8,2.1,3.1,2.3l-2.2,1.5l1,1.2c-1.5,0.8-3.2,1.1-4.9,0.9c0.9,1.1,2,2.2,3.2,3
	c-4.4-0.7-2.4,0.8-1.3,5c-0.9,0.1-9.4,0.1-10.3,0.2v103.7v117.9h547.2V287.4L537.5,277.5z M317,258.4l0.1,0.2
	c-0.1,0-0.1,0.1-0.2,0.1C317,258.6,317,258.5,317,258.4z"/>
<linearGradient id="SVGID_6_" gradientUnits="userSpaceOnUse" x1="343.8691" y1="976.6351" x2="412.5791" y2="854.9951" gradientTransform="matrix(1 0 0 1 -14.31 -789.69)">
	<stop  offset="2.000000e-02" style="stop-color:#FFFFFF;stop-opacity:0"/>
	<stop  offset="0.58" style="stop-color:#FFFFFF;stop-opacity:0.39"/>
	<stop  offset="0.68" style="stop-color:#FFFFFF;stop-opacity:0.68"/>
	<stop  offset="1" style="stop-color:#FFFFFF"/>
</linearGradient>
<path class="st5" d="M320.6,116.1c-2.6,2.7-4.8,5.9-8,7.9c-8.1,5.2-18.8,1.9-28.2,3.6c-4.9,0.9-9.4,3.2-14,5.2
	c-16,6.8-33.4,9.6-50.7,12.4c20.9,14.2,46.4,20.2,71.4,16.9l-3,10.3c19.5,10.7,42.9,11.2,62.8,1.4c-0.3,14.3,19.4,24.3,30.7,15.6
	c2.1-1.6,4-3.7,6.6-4.4c3.1-0.8,6.2,0.8,9.2,1.9c15.2,6,32.3,2.5,48.2-1.1c8.1-1.8,16.6-3.9,22.6-9.6s8.1-16.5,2-22.2
	c11.4-2.8,12.1-20.8,3.2-28.5s-21.9-8-33.6-7.4c-5-12.8-11-26.8-23.4-32.9c-15.9-7.9-27.6,9.3-41,13
	C355.4,103.7,336.8,98.8,320.6,116.1z"/>
<linearGradient id="SVGID_7_" gradientUnits="userSpaceOnUse" x1="337.1909" y1="998.0778" x2="391.1709" y2="902.5177" gradientTransform="matrix(1 0 0 1 -14.31 -789.69)">
	<stop  offset="2.000000e-02" style="stop-color:#FFFFFF;stop-opacity:0"/>
	<stop  offset="0.58" style="stop-color:#FFFFFF;stop-opacity:0.39"/>
	<stop  offset="0.68" style="stop-color:#FFFFFF;stop-opacity:0.68"/>
	<stop  offset="1" style="stop-color:#FFFFFF"/>
</linearGradient>
<path class="st6" d="M316,152.7c-2,2.1-3.8,4.6-6.3,6.2c-6.3,4.1-14.8,1.5-22.2,2.8c-3.8,0.7-7.4,2.5-11,4
	c-12.6,5.4-26.3,7.6-39.8,9.7c16.4,11.2,36.4,15.9,56.1,13.3l-2.3,8.1c15.3,8.3,33.6,8.7,49.2,1.1c-0.2,11.3,15.2,19.1,24.1,12.3
	c1.7-1.3,3.1-2.9,5.2-3.4c2.4-0.6,4.9,0.6,7.2,1.5c11.9,4.7,25.3,1.9,37.9-0.9c6.4-1.4,13.1-3,17.8-7.6c4.7-4.6,6.3-12.9,1.6-17.4
	c9-2.2,9.5-16.3,2.5-22.4s-17.2-6.3-26.4-5.8c-3.9-10.1-8.6-21.1-18.4-25.9c-12.5-6.2-21.7,7.3-32.3,10.2
	C343.3,143,328.6,139.2,316,152.7z"/>
<linearGradient id="SVGID_8_" gradientUnits="userSpaceOnUse" x1="122.5846" y1="987.5578" x2="171.9446" y2="900.1676" gradientTransform="matrix(1 0 0 1 -14.31 -789.69)">
	<stop  offset="2.000000e-02" style="stop-color:#FFFFFF;stop-opacity:0"/>
	<stop  offset="0.58" style="stop-color:#FFFFFF;stop-opacity:0.39"/>
	<stop  offset="0.68" style="stop-color:#FFFFFF;stop-opacity:0.68"/>
	<stop  offset="1" style="stop-color:#FFFFFF"/>
</linearGradient>
<path class="st7" d="M101.8,146.9c-1.8,2-3.5,4.2-5.7,5.7c-5.8,3.8-13.5,1.3-20.3,2.6c-3.5,0.6-6.8,2.3-10,3.7
	c-11.5,4.9-24,6.9-36.4,8.9c15,10.2,33.3,14.5,51.3,12.1l-2.1,7.4c14,7.6,30.7,8,45,1c-0.2,10.3,13.9,17.4,22.1,11.2
	c1.5-1.1,2.9-2.7,4.7-3.1c2.2-0.6,4.5,0.6,6.6,1.4c10.9,4.3,23.2,1.8,34.6-0.8c5.8-1.3,12-2.8,16.3-6.9s5.8-11.8,1.4-15.9
	c8.2-2,8.7-14.9,2.3-20.5s-15.7-5.8-24.1-5.3c-3.6-9.2-7.9-19.3-16.8-23.7c-11.4-5.7-19.8,6.7-29.5,9.4
	C126.8,138,113.3,134.5,101.8,146.9z"/>
<linearGradient id="SVGID_9_" gradientUnits="userSpaceOnUse" x1="281.8" y1="512.1" x2="281.8" y2="512.1" gradientTransform="matrix(1 0 0 -1 0 792)">
	<stop  offset="1.000000e-02" style="stop-color:#000000"/>
	<stop  offset="0.13" style="stop-color:#000000;stop-opacity:0.69"/>
	<stop  offset="1" style="stop-color:#000000;stop-opacity:0"/>
</linearGradient>
<path class="st8" d="M281.8,279.9"/>
</svg>
