<?xml version="1.0" encoding="utf-8"?>
<!-- Generator: Adobe Illustrator 23.1.0, SVG Export Plug-In . SVG Version: 6.00 Build 0)  -->
<svg version="1.1" id="Layer_1" xmlns="http://www.w3.org/2000/svg" xmlns:xlink="http://www.w3.org/1999/xlink" x="0px" y="0px"
	 viewBox="0 0 549.3 431" style="enable-background:new 0 0 549.3 431;" xml:space="preserve" preserveAspectRatio="xMidYMid slice">
<style type="text/css">
	.st0{fill:url(#SVGID_1_);}
	.st1{opacity:0.58;fill:url(#SVGID_2_);enable-background:new    ;}
	.st2{fill:url(#SVGID_3_);}
	.st3{fill:#00434C;}
	.st4{opacity:0.58;fill:url(#SVGID_4_);enable-background:new    ;}
	.st5{fill:url(#SVGID_5_);}
	.st6{fill:url(#SVGID_6_);}
	.st7{fill:url(#SVGID_7_);}
	.st8{fill:url(#SVGID_8_);}
	.st9{fill:url(#SVGID_9_);}
	.st10{fill:url(#SVGID_10_);}
	.st11{fill:#444444;}
</style>
<linearGradient id="SVGID_1_" gradientUnits="userSpaceOnUse" x1="274.6499" y1="-62" x2="274.6499" y2="369" gradientTransform="matrix(1 0 0 1 0 62)">
	<stop  offset="0" style="stop-color:#81E6FD;stop-opacity:0"/>
	<stop  offset="0.3517" style="stop-color:#68E1FD"/>
</linearGradient>
<rect class="st0" width="549.3" height="431"/>
<title>Peak 1</title>
<linearGradient id="SVGID_2_" gradientUnits="userSpaceOnUse" x1="85.8471" y1="-557.8405" x2="458.627" y2="-703.1309" gradientTransform="matrix(1 0 0 -1 -14.31 -343.69)">
	<stop  offset="1.000000e-02" style="stop-color:#000000"/>
	<stop  offset="0.13" style="stop-color:#000000;stop-opacity:0.69"/>
	<stop  offset="1" style="stop-color:#000000;stop-opacity:0"/>
</linearGradient>
<path class="st1" d="M237.1,239.5c-2.5,8.8-0.4,18.2,5.5,25.1l-11.4-0.8c-3.7,15.9-9.4,31.3-17.1,45.8c-3.2,6-6.7,11.9-7.6,18.6
	c-1.3,10.2,3.8,20.3,3.9,30.6c0.2,1.3-0.2,2.6-0.9,3.6c-0.9,1-2.4,1.3-3.8,1.4c-11.8,1.3-24,3.8-33.2,11.3c-3.6,3-6.7,6.7-10,10
	c-5.7-4.3-11.2-8.8-16.5-13.4c-26.2-22.6-51.5-51.8-51.4-86.5c0-16.3,7.6-29.8,22.5-36c15.1-6.4,28.9-15.4,40.8-26.7
	c5.4-5.2,10.6-11,17.6-13.8c3.8-1.6,8.1-2.2,11.4-4.7c2.6-1.9,4.4-4.8,6.2-7.5c9.5-14.7,19.9-28.8,31.2-42.1
	c3.1-3.6,6.4-7.3,10.8-9.2c1.3-0.6,2.7-1,4.1-1.2c2.3,10.4,1.5,23.8,3.5,32.7c3.4,15.1,8.1,31.3,2.1,46.4
	C242.4,228.7,238.8,233.7,237.1,239.5z"/>
<linearGradient id="SVGID_3_" gradientUnits="userSpaceOnUse" x1="369.7299" y1="-873.6765" x2="212.6197" y2="-424.3068" gradientTransform="matrix(1 0 0 -1 -14.31 -343.69)">
	<stop  offset="0" style="stop-color:#000000"/>
	<stop  offset="0.12" style="stop-color:#000000;stop-opacity:0.69"/>
	<stop  offset="1" style="stop-color:#000000;stop-opacity:0"/>
</linearGradient>
<path class="st2" d="M451,289.2l-34.2,38.4c-11.5,12.9-23,25.8-35.9,37.2c-14.1,12.3-29.3,23.2-45.5,32.5
	c-22.1,13-46.1,24-71.7,25.6c-36.8,2.3-71.5-15.1-101.3-37.8c-5.7-4.3-11.2-8.8-16.5-13.4c-26.2-22.6-51.5-51.8-51.4-86.5
	c0-16.3,7.6-29.8,22.5-36c15.1-6.4,28.9-15.4,40.8-26.7c5.4-5.2,10.6-11,17.6-13.8c3.8-1.6,8.1-2.2,11.4-4.7
	c2.6-1.9,4.4-4.8,6.2-7.5c9.5-14.7,19.9-28.8,31.2-42.1c3.1-3.6,6.4-7.3,10.8-9.2c1.3-0.6,2.7-1,4.1-1.2c5.7-0.9,11.9,1.1,16.7,4.5
	c6,4.2,10.4,10.3,14.6,16.3c5.5,7.7,11,15.4,16.5,23.2c4,5.6,8.3,11.4,14.6,13.8c7.7,2.9,17.3,0.4,23.6,5.6c5,4.2,6,12.1,11.4,15.9
	c3.3,2.3,7.6,2.5,11.5,3.6c11.3,3.2,18.8,13.6,27.3,21.7c3.8,3.6,8.2,7,13.3,8c3.7,0.7,7.5,0.2,11.3,0.8c5,0.9,9.3,3.7,13.5,6.5
	L451,289.2z"/>
<path class="st3" d="M543,213.9c-0.1-0.5-0.7-0.8-1.2-1c0-0.3-0.3-0.6-0.8-0.9c1.4-0.7,2.2-2.2,1.9-3.8c-0.9,0.5-1.7,1.2-2.4,2.1
	c-0.7-0.6-1.6-0.7-2.3-0.3c-0.7-0.7-0.1-1.9,0.6-2.6s1.7-1.4,1.6-2.4l-4.4,2.3c0.5-1.2,1.1-2.4,1.7-3.6c-0.8-0.2-1.6-0.1-2.3,0.4
	c0-1.1-0.2-2.3-0.4-3.4l-0.1-0.4c-0.1-1.4-0.5-2.8-1.2-4.1l1.5-0.4c-0.9-1-2.2-1.5-3.6-1.4c0.7-3.5,0.4-7.1-1-10.4
	c-0.2,3.5-0.3,7.1-0.3,10.6l-1.1-0.4c-0.2,0.5,0,1.1,0.5,1.3c-0.6,0.7-0.7,1.6-0.4,2.4c-1.1,0.1-2.2-0.1-3.3-0.5
	c0.1-0.3,0.2-0.5,0.2-0.8l-4.4,2.2l1.7-3.6c-0.8-0.2-1.6-0.1-2.3,0.4c0-1.1-0.2-2.3-0.4-3.4l-0.1-0.4c-0.1-1.4-0.5-2.9-1.2-4.2
	l1.5-0.4c-0.9-1-2.2-1.5-3.6-1.4c0.7-3.5,0.4-7.1-1-10.4c-0.2,3.5-0.3,7.1-0.3,10.6l-1.1-0.4c-0.2,0.5,0,1.1,0.5,1.3
	c-0.6,0.7-0.7,1.6-0.4,2.4c-1.2,0.1-2.4-0.1-3.5-0.6c0,0.9,1.1,1.3,1.9,1.7s1.7,1.4,1,2.1s-1.7-0.2-2.5,0.1c0.1,0.5,0.5,1,1,1.2
	l-8,1c1.3,1.6,3.7,1.9,5.3,0.6c0,0,0,0,0.1,0c0.3,0.4,0.5,0.8,0.6,1.3c-1,0.5-2,0.8-3,1.1c0.6,0.5,1.3,0.7,2,0.6
	c-0.4,0.5-0.3,1.2,0.2,1.6c0.1,0.1,0.1,0.1,0.2,0.1c-0.6,0.1-1,0.7-0.9,1.3s0.4,1.1,0.7,1.5c-1.3-0.6-2.7-1.1-4.2-1.3
	c-0.2-0.7-0.4-1.3-0.7-1.9l1.5-0.4c-0.9-1-2.2-1.5-3.6-1.4c0.7-3.5,0.4-7.1-1-10.4c-0.2,3.5-0.3,7.1-0.3,10.6l-1.1-0.4
	c-0.2,0.5,0,1.1,0.5,1.3c-0.6,0.7-0.7,1.6-0.4,2.4c-1.2,0.1-2.4-0.1-3.5-0.5c0,0.9,1.1,1.3,1.9,1.7c0.8,0.4,1.7,1.4,1,2
	s-1.7-0.2-2.5,0.1c0.1,0.5,0.5,1,1,1.2l-8,1c1.3,1.6,3.7,1.9,5.3,0.6l0,0c0.3,0.4,0.5,0.8,0.6,1.3c-1,0.5-2,0.8-3,1.1
	c0-0.2,0-0.3,0-0.5l-4.4,2.2c0.5-1.2,1.1-2.4,1.7-3.6c-0.8-0.2-1.6-0.1-2.3,0.4c0-1.1-0.2-2.3-0.4-3.4c0-0.1,0-0.3-0.1-0.4
	c-0.1-1.4-0.5-2.8-1.2-4.1l1.5-0.4c-0.9-1-2.3-1.5-3.6-1.4c0.7-3.5,0.4-7.1-1-10.4c-0.2,3.6-0.3,7.1-0.3,10.6l-1.1-0.4
	c-0.2,0.5,0,1.1,0.5,1.3c-0.6,0.7-0.7,1.6-0.4,2.4c-1.2,0.1-2.4-0.1-3.5-0.6c0,0.9,1.1,1.3,1.9,1.7c0.8,0.4,1.6,1.4,1,2.1
	c-0.6,0.7-1.7-0.2-2.5,0c0.1,0.5,0.5,1,1,1.2l-8,1c0.5,0.7,1.3,1.2,2.1,1.3c-0.3,0.3-0.5,0.5-0.7,0.8c-0.7-0.6-1.6-0.7-2.4-0.3
	c-0.7-0.7-0.1-1.9,0.6-2.6c0.7-0.7,1.7-1.4,1.6-2.4l-4.4,2.3c0.6-1.2,1.1-2.4,1.7-3.6c-0.8-0.2-1.6-0.1-2.3,0.4
	c0-1.1-0.2-2.3-0.4-3.4l-0.1-0.4c-0.1-1.4-0.5-2.8-1.2-4.1l1.5-0.4c-0.9-1-2.2-1.6-3.6-1.4c0.7-3.5,0.4-7.1-1-10.4
	c-0.2,3.6-0.3,7.1-0.3,10.7l-1.1-0.4c-0.2,0.5,0,1.1,0.5,1.3c-0.6,0.7-0.7,1.6-0.4,2.4c-1.2,0.1-2.4-0.1-3.5-0.5
	c0,0.9,1.1,1.3,1.9,1.7c0.8,0.4,1.7,1.4,1,2s-1.7-0.2-2.5,0.1c0.1,0.5,0.5,1,1,1.2l-8,1c1.3,1.6,3.7,1.9,5.3,0.6l0,0
	c0.3,0.4,0.5,0.8,0.6,1.3c-1,0.5-2,0.8-3,1.1c0.5,0.5,1.3,0.7,2,0.6c-0.4,0.5-0.3,1.2,0.2,1.6c0.1,0.1,0.1,0.1,0.2,0.1
	c-0.6,0.1-1,0.7-0.9,1.2c0.1,0.6,0.4,1.1,0.7,1.5c-1.7-0.8-3.5-1.3-5.4-1.5c0.9,1.7,2.5,2.8,4.3,3.1l-3.1,2.1l1.4,1.7
	c-1.9,0.9-3.9,1.4-6,1.3v-0.1c-0.1-1.4-0.5-2.8-1.2-4.1l1.5-0.4c-0.9-1-2.2-1.5-3.6-1.4c0.7-3.5,0.4-7.1-1-10.4
	c-0.2,3.5-0.3,7.1-0.3,10.6l-1.1-0.4c-0.2,0.5,0,1.1,0.5,1.3c-0.6,0.7-0.7,1.6-0.4,2.4c-1.2,0.1-2.4-0.1-3.5-0.5
	c0,0.9,1.1,1.3,1.9,1.7s1.7,1.4,1,2c-0.7,0.6-1.7-0.2-2.5,0c0.1,0.5,0.5,1,1,1.2l-8,1c1.3,1.6,3.7,1.9,5.3,0.6l0,0
	c0.3,0.4,0.5,0.8,0.6,1.3c-1,0.5-2,0.8-3,1.1c0.5,0.5,1.3,0.7,2,0.6c-0.4,0.5-0.3,1.2,0.2,1.6c0.1,0,0.1,0.1,0.2,0.1
	c-0.6,0.1-1,0.7-0.9,1.3s0.4,1.1,0.7,1.5c-1.7-0.8-3.5-1.3-5.4-1.5c0.9,1.7,2.5,2.8,4.4,3.1l-3.1,2.1l1.4,1.7c-1.9,1-4,1.4-6.1,1.3
	c0.7-0.6,1.5-1.3,1.4-2.2l-4.4,2.3c0.5-1.2,1.1-2.4,1.7-3.6c-0.8-0.2-1.6-0.1-2.3,0.4c0-1.1-0.2-2.3-0.4-3.4c0-0.1,0-0.3-0.1-0.5
	c-0.1-1.4-0.5-2.8-1.2-4.1l1.5-0.4c-0.9-1-2.2-1.5-3.6-1.4c0.7-3.5,0.4-7.1-1-10.4c-0.2,3.5-0.3,7.1-0.3,10.6l-1.1-0.4
	c-0.2,0.5,0,1.1,0.5,1.3c-0.6,0.7-0.7,1.6-0.4,2.4c-1.2,0.1-2.4-0.1-3.5-0.5c0,0.9,1.1,1.3,1.9,1.7c0.8,0.4,1.6,1.4,1,2
	c-0.6,0.6-1.7-0.2-2.5,0c0.1,0.5,0.5,1,1,1.2l-8,1c1.3,1.6,3.7,1.9,5.3,0.6l0,0c0.3,0.4,0.5,0.8,0.6,1.3c-1,0.5-2,0.8-3,1.1
	c0.5,0.5,1.3,0.7,2,0.6c-0.4,0.5-0.3,1.2,0.2,1.6c0.1,0.1,0.1,0.1,0.2,0.1c-0.6,0.1-1,0.7-0.9,1.3c0.1,0.6,0.4,1.1,0.7,1.5
	c-1.7-0.8-3.5-1.3-5.4-1.5c0.9,1.7,2.5,2.8,4.3,3.1l-3.2,2.5l1.4,1.7c-2.1,1.1-4.5,1.5-6.8,1.2c1.3,1.6,2.8,3,4.5,4.2
	c-1.3-0.5-2.6-0.6-4-0.4c-0.1-1.3-0.5-2.5-1.1-3.7l1.5-0.4c-0.9-1-2.2-1.5-3.6-1.4c0.7-3.5,0.4-7.1-1-10.4
	c-0.2,3.5-0.3,7.1-0.3,10.7l-1.1-0.4c-0.2,0.5,0,1.1,0.5,1.3c-0.6,0.7-0.7,1.6-0.4,2.4c-1.2,0.1-2.4-0.1-3.5-0.5
	c0,0.9,1.1,1.3,1.9,1.7c0.8,0.4,1.7,1.4,1,2s-1.7-0.2-2.5,0.1c0.1,0.5,0.5,1,1,1.2l-8,1c1.3,1.6,3.7,1.9,5.3,0.6c0,0,0,0,0.1,0
	c0.3,0.4,0.5,0.8,0.6,1.3c-1,0.5-2,0.8-3,1.1c0.5,0.5,1.3,0.7,2,0.6c-0.4,0.5-0.3,1.2,0.2,1.6c0.1,0,0.1,0.1,0.2,0.1
	c-0.6,0.1-1,0.7-0.9,1.2c0.1,0.6,0.4,1.1,0.7,1.5c-1.7-0.8-3.5-1.3-5.4-1.5c0.9,1.7,2.5,2.8,4.4,3.1l-3.1,2.1l1.4,1.7
	c-1.3,0.7-2.7,1.1-4.2,1.2l0.2-0.2c0.8-0.7,1.7-1.4,1.6-2.4l-4.4,2.3c0.6-1.2,1.1-2.4,1.7-3.6c-0.8-0.2-1.6,0-2.3,0.4
	c0-1.1-0.2-2.3-0.4-3.4c0-0.1,0-0.3-0.1-0.4c-0.1-1.4-0.5-2.8-1.2-4.1l1.5-0.4c-0.9-1-2.2-1.5-3.6-1.4c0.7-3.5,0.4-7.1-1-10.4
	c-0.2,3.5-0.3,7.1-0.3,10.6l-1.1-0.4c-0.2,0.5,0,1.1,0.5,1.3c-0.6,0.7-0.7,1.6-0.4,2.4c-1.2,0.1-2.4-0.1-3.5-0.5
	c0,0.9,1.1,1.3,1.9,1.7c0.8,0.4,1.7,1.4,1,2.1s-1.7-0.2-2.5,0c0.1,0.5,0.5,1,1,1.2l-8,1c1.3,1.6,3.7,1.9,5.3,0.6c0,0,0,0,0.1,0
	c0.3,0.4,0.5,0.8,0.6,1.3c-1,0.5-2,0.8-3,1.1c0.5,0.5,1.3,0.7,2,0.6c-0.4,0.5-0.3,1.2,0.2,1.6c0.1,0.1,0.1,0.1,0.2,0.1
	c-0.6,0.1-1,0.7-0.9,1.2c0.1,0.6,0.4,1.1,0.7,1.5c-1.7-0.8-3.5-1.3-5.4-1.5c0.8,1.7,2.5,2.9,4.3,3.1l-3.1,2.1l1.4,1.7
	c-2.1,1.2-4.5,1.7-6.9,1.4c1.3,1.6,2.8,3,4.5,4.2c-1.2-0.4-2.4-0.6-3.7-0.5c-0.6-0.2-1.3-0.3-1.9-0.3c0.7-3.5,0.4-7.1-1-10.4
	c-0.2,3.5-0.3,7.1-0.3,10.6l-1.1-0.4c-0.2,0.5,0,1.1,0.5,1.3c-0.6,0.7-0.7,1.6-0.4,2.4c-1.2,0.1-2.4-0.1-3.5-0.5
	c0,0.9,1.1,1.3,1.9,1.7c0.8,0.4,1.7,1.4,1,2s-1.7-0.2-2.5,0.1c0.1,0.5,0.5,1,1,1.2l-8,1c1.3,1.6,3.7,1.9,5.3,0.6c0,0,0,0,0.1,0
	c0.3,0.4,0.5,0.8,0.6,1.3c-1,0.5-2,0.8-3,1.1c0.5,0.5,1.3,0.7,2,0.6c0.7,0.9,0.5,2.2-0.4,2.9c-0.1,0-0.1,0.1-0.2,0.1
	c0.1,0.6,0.4,1.1,0.7,1.5c-1.7-0.8-3.5-1.3-5.4-1.5c0.9,1.7,2.5,2.8,4.3,3.1l-1.6,1.1c0.1-0.2,0.2-0.5,0.1-0.8l-4.4,2.3l1.7-3.6
	c-0.8-0.2-1.6-0.1-2.3,0.4c0-1.1-0.2-2.3-0.4-3.4l-0.1-0.5c-0.1-1.4-0.5-2.8-1.2-4.1l1.5-0.4c-0.9-1-2.2-1.5-3.6-1.4
	c0.7-3.5,0.4-7.1-1-10.4c-0.2,3.5-0.3,7.1-0.3,10.6l-1.1-0.4c-0.2,0.5,0,1.1,0.5,1.3c-0.6,0.7-0.7,1.6-0.4,2.4
	c-1.2,0.1-2.4-0.1-3.5-0.5c0,0.9,1.1,1.3,1.9,1.7c0.8,0.4,1.7,1.4,1,2s-1.7-0.2-2.5,0c0.1,0.5,0.5,1,1,1.2l-8,1
	c1.3,1.6,3.7,1.9,5.3,0.6l0,0c0.3,0.4,0.5,0.8,0.6,1.3c-1,0.5-2,0.8-3,1.1c0.5,0.5,1.3,0.7,2,0.6c-0.4,0.5-0.3,1.2,0.2,1.6
	c0.1,0,0.1,0.1,0.2,0.1c-0.6,0.1-1,0.7-0.9,1.3s0.4,1.1,0.7,1.5c-1.7-0.8-3.5-1.3-5.4-1.5c0.9,1.7,2.5,2.8,4.4,3.1l-3.1,2.1l1.4,1.7
	c-0.7,0.4-1.5,0.7-2.3,0.9c0.2-0.2,0.3-0.5,0.2-0.8l-2.3,1.2c-0.3,0-0.6,0-1,0l1.1-2.3c-0.6-0.2-1.3,0-1.8,0.3
	c0-0.9-0.1-1.9-0.3-2.8l-0.1-0.4c-0.1-1.2-0.4-2.3-1-3.4l1.1-0.3c-0.7-0.8-1.8-1.3-2.9-1.2c0.6-2.8,0.3-5.8-0.8-8.5
	c-0.2,2.9-0.3,5.8-0.2,8.7l-0.9-0.3c-0.2,0.4,0,0.9,0.4,1c-0.5,0.6-0.6,1.3-0.3,2c-1,0.1-2-0.1-2.9-0.5c0,0.7,0.9,1.1,1.6,1.4
	s1.3,1.2,0.8,1.7c-0.5,0.5-1.4-0.1-2.1,0c0.1,0.5,0.4,0.8,0.8,1l-6.5,0.9c1.1,1.3,3,1.5,4.3,0.5l0,0c0.3,0.3,0.4,0.7,0.5,1.1
	c-0.8,0.4-1.6,0.7-2.5,0.9c0.4,0.4,1,0.6,1.6,0.5c-0.3,0.4-0.2,1,0.2,1.3l0.1,0.1c-0.5,0.1-0.8,0.5-0.7,1c0.1,0.5,0.3,0.9,0.6,1.2
	c-1.4-0.7-2.9-1.1-4.4-1.2c0.7,1.4,2,2.3,3.5,2.5l-0.8,0.5c0-0.2,0.1-0.3,0.1-0.5l-4.4,2.2c0.6-1.2,1.1-2.4,1.7-3.6
	c-0.8-0.2-1.6-0.1-2.3,0.4c0-1.1-0.2-2.3-0.4-3.4l-0.1-0.4c-0.1-1.4-0.5-2.9-1.2-4.2l1.5-0.4c-0.9-1-2.2-1.6-3.6-1.4
	c0.7-3.5,0.4-7.1-1-10.4c-0.2,3.5-0.3,7.1-0.3,10.6l-1.1-0.4c-0.2,0.5,0,1.1,0.5,1.3c-0.6,0.7-0.7,1.6-0.4,2.4
	c-1.2,0.1-2.4-0.1-3.5-0.5c0,0.9,1.1,1.3,1.9,1.7c0.8,0.4,1.7,1.4,1,2s-1.7-0.2-2.5,0.1c0.1,0.5,0.5,1,1,1.2l-8,1
	c1.3,1.6,3.7,1.9,5.3,0.6c0,0,0,0,0.1,0c0.3,0.4,0.5,0.8,0.6,1.3c-1,0.5-2,0.8-3,1.1c0.5,0.5,1.3,0.7,2,0.6
	c-0.4,0.5-0.3,1.2,0.2,1.6c0.1,0.1,0.1,0.1,0.2,0.1c-0.6,0.1-1,0.7-0.9,1.3s0.4,1.1,0.7,1.5c-1.7-0.8-3.5-1.3-5.4-1.5
	c0.9,1.7,2.5,2.8,4.3,3.1l-3.1,2.1l1.2,1.5l-2.3,1.2l-0.7,0.1l1.1-2.3c-0.6-0.1-1.2,0-1.6,0.3c0-0.8-0.1-1.6-0.3-2.5
	c0-0.1,0-0.2,0-0.3c-0.1-1-0.4-2.1-0.8-3l1.1-0.3c-0.7-0.7-1.6-1.1-2.6-1c0.5-2.5,0.3-5.1-0.7-7.5c-0.2,2.5-0.2,5.1-0.2,7.6
	l-0.8-0.3c-0.1,0.4,0,0.8,0.4,0.9c-0.4,0.5-0.5,1.2-0.3,1.7c-0.9,0.1-1.7-0.1-2.5-0.4c0,0.6,0.8,1,1.4,1.2c0.6,0.2,1.2,1,0.7,1.5
	s-1.2-0.1-1.8,0c0.1,0.4,0.4,0.7,0.7,0.9l-5.8,0.8c0.9,1.2,2.6,1.4,3.8,0.4l0,0c0.2,0.3,0.4,0.6,0.4,1c-0.7,0.3-1.4,0.6-2.2,0.8
	c0.4,0.3,0.9,0.5,1.4,0.5c0.5,0.7,0.4,1.6-0.3,2.1c0,0-0.1,0-0.1,0.1c0.1,0.4,0.3,0.8,0.5,1.1c-1.2-0.6-2.5-1-3.9-1.1
	c0.6,1.2,1.8,2.1,3.1,2.3l-2.2,1.5l1,1.2c-0.2,0.1-0.4,0.2-0.6,0.3c0-0.3,0-0.5-0.1-0.8c-0.6,0.4-1.2,0.8-1.7,1.3
	c-0.8,0.1-1.7,0.2-2.5,0.1c0,0.1,0.1,0.1,0.2,0.2c-0.2,0-0.5,0.1-0.7,0.2c-0.7-0.7-0.1-1.9,0.6-2.6c0.7-0.7,1.7-1.4,1.6-2.4
	l-4.4,2.3c0.6-1.2,1.1-2.4,1.7-3.6c-0.8-0.2-1.6,0-2.3,0.4c0-1.1-0.2-2.3-0.4-3.4l-0.1-0.5c-0.1-1.4-0.5-2.8-1.2-4.1l1.5-0.4
	c-0.9-1-2.2-1.5-3.6-1.4c0.7-3.5,0.4-7.1-1-10.4c-0.2,3.5-0.3,7.1-0.3,10.6l-1.1-0.4c-0.2,0.5,0,1.1,0.5,1.3
	c-0.6,0.7-0.7,1.6-0.4,2.4c-1.2,0.1-2.4-0.1-3.5-0.5c0,0.9,1.1,1.3,1.9,1.7c0.8,0.4,1.7,1.4,1,2.1s-1.7-0.2-2.5,0
	c0.1,0.5,0.5,1,1,1.2l-8,1c1.3,1.6,3.6,1.9,5.3,0.6c0,0,0,0,0.1-0.1c0.3,0.4,0.5,0.8,0.6,1.3c-1,0.5-2,0.8-3,1.1
	c0.5,0.5,1.3,0.7,2,0.6c-0.4,0.5-0.3,1.2,0.2,1.6c0.1,0.1,0.1,0.1,0.2,0.1c-0.6,0.1-1,0.7-0.9,1.2c0.1,0.6,0.4,1.1,0.7,1.5
	c-1.7-0.8-3.5-1.3-5.4-1.5c0.8,1.7,2.5,2.9,4.3,3.1l-3.1,2.1l1.4,1.7c-0.4,0.2-0.8,0.4-1.2,0.5c0-0.1,0-0.3-0.1-0.4l-0.1-0.5
	c-0.1-1.4-0.5-2.8-1.2-4.1l1.5-0.4c-0.9-1-2.2-1.5-3.6-1.4c0.7-3.5,0.4-7.1-1-10.4c-0.2,3.5-0.3,7.1-0.3,10.6l-1.1-0.4
	c-0.2,0.5,0,1.1,0.5,1.3c-0.6,0.7-0.7,1.6-0.4,2.4c-1.2,0.1-2.4-0.1-3.5-0.5c0,0.9,1.1,1.3,1.9,1.7c0.8,0.4,1.7,1.4,1,2.1
	c-0.7,0.7-1.7-0.2-2.5,0c0.1,0.5,0.5,1,1,1.2l-6.1,0.8c0.1-0.4,0.1-0.8,0-1.2c-1,0-2,0-3,0.1c0.2-0.6,0.5-1.2,0.9-1.6l-1.5-0.4
	c-0.2-0.7,1-1,1.7-0.6c0.7,0.4,1.6,0.8,2.1,0.2l-0.4-1.2c0.3,0.5,1.1-0.1,1-0.6c-0.1-0.5-0.7-0.8-1.2-1c-0.5-0.1-1-0.3-1.4-0.7
	c1.8-0.4,2.9-2.2,2.5-3.9c0,0,0,0,0-0.1c-0.9,0.5-1.7,1.2-2.4,2.1c-0.7-0.6-1.6-0.7-2.4-0.3c-0.7-0.7-0.1-1.9,0.6-2.6
	c0.7-0.7,1.7-1.4,1.6-2.4l-4.5,2.4c0.6-1.2,1.1-2.4,1.7-3.6c-0.8-0.2-1.6-0.1-2.3,0.4c0-1.1-0.2-2.3-0.4-3.4l-0.1-0.4
	c-0.1-1.4-0.5-2.9-1.2-4.2l1.5-0.4c-0.9-1-2.2-1.6-3.6-1.4c0.7-3.5,0.4-7.1-1-10.4c-0.2,3.5-0.3,7.1-0.3,10.6l-1.1-0.4
	c-0.2,0.5,0,1.1,0.5,1.3c-0.6,0.7-0.7,1.6-0.4,2.4c-1.2,0.1-2.4-0.1-3.6-0.5c0,0.9,1.1,1.3,1.9,1.7c0.8,0.4,1.6,1.4,1,2
	c-0.6,0.6-1.7-0.2-2.5,0.1c0.1,0.5,0.5,1,1,1.2l-8,1c1.3,1.6,3.7,1.9,5.3,0.6c0,0,0,0,0.1,0c0.3,0.4,0.5,0.8,0.6,1.3
	c-1,0.5-2,0.8-3,1.1c0.5,0.5,1.3,0.7,2,0.6c0.7,0.9,0.5,2.2-0.4,2.9c-0.1,0-0.1,0.1-0.2,0.1c0.1,0.6,0.4,1.1,0.7,1.5
	c-1.7-0.8-3.5-1.3-5.4-1.5c0.9,1.7,2.5,2.8,4.3,3.1l-3.1,2.1l1.4,1.7c-1.5,0.7-3.1,1.2-4.7,1.3c0.7-1.3,1.5-2.5,1.2-4.1
	c-1,0-2,0-3,0.1c0.2-0.6,0.5-1.2,0.9-1.6l-1.4-0.4c-0.2-0.7,1-1,1.7-0.6c0.7,0.4,1.6,0.8,2.1,0.2l-0.4-1.2c0.3,0.5,1.1-0.1,1-0.6
	s-0.7-0.8-1.2-1c-0.5-0.1-1-0.3-1.4-0.7c1.8-0.4,2.9-2.1,2.5-3.9v-0.1c-0.9,0.5-1.7,1.2-2.4,2.1c-0.7-0.6-1.6-0.7-2.4-0.3
	c-0.7-0.7-0.1-1.9,0.6-2.6c0.7-0.7,1.7-1.4,1.6-2.4l-4.4,2.3l1.7-3.6c-0.8-0.2-1.6-0.1-2.3,0.4c0-1.1-0.2-2.3-0.4-3.4
	c0-0.1,0-0.3-0.1-0.5c-0.1-1.4-0.5-2.8-1.2-4.1l1.5-0.4c-0.9-1-2.2-1.5-3.6-1.4c0.7-3.5,0.4-7.1-1-10.4c-0.2,3.5-0.3,7.1-0.3,10.6
	l-1.1-0.4c-0.2,0.5,0,1.1,0.5,1.3c-0.6,0.7-0.7,1.6-0.4,2.4c-1.2,0.1-2.4-0.1-3.6-0.5c0,0.9,1.1,1.3,1.9,1.7c0.8,0.4,1.7,1.4,1,2
	c-0.7,0.6-1.7-0.2-2.5,0c0.1,0.5,0.5,1,1,1.2l-4.3,0.6c0.1-0.2,0.2-0.5,0.2-0.8l-2,1l-1.3,0.2l1.1-2.3c-0.6-0.2-1.3,0-1.8,0.3
	c0-0.9-0.1-1.9-0.3-2.8l-0.1-0.4c-0.1-1.2-0.4-2.3-0.9-3.4l1.2-0.3c-0.7-0.8-1.8-1.3-2.9-1.2c0.6-2.8,0.3-5.8-0.8-8.5
	c-0.2,2.9-0.3,5.8-0.2,8.7l-0.9-0.3c-0.2,0.4,0,0.9,0.4,1c-0.5,0.5-0.6,1.3-0.3,2c-1,0.1-2-0.1-2.9-0.4c0,0.7,0.9,1.1,1.6,1.4
	c0.7,0.3,1.4,1.2,0.8,1.7c-0.6,0.5-1.4-0.1-2.1,0c0.1,0.5,0.4,0.8,0.8,1l-6.5,0.9c1.1,1.3,3,1.5,4.3,0.5l0,0
	c0.3,0.3,0.4,0.7,0.5,1.1c-0.8,0.4-1.6,0.7-2.5,0.9c0.4,0.4,1,0.6,1.6,0.5c0.6,0.7,0.4,1.8-0.3,2.3l-0.1,0.1
	c0.1,0.5,0.3,0.9,0.6,1.2c-1.4-0.7-2.9-1.1-4.4-1.2c0.7,1.4,2,2.3,3.5,2.5l-2.5,1.7l0.3,0.4l-2.4-1.3c-0.1-0.2-0.2-0.4-0.3-0.6
	c-1-2.5,1.9-3.9,1.5-6.3c-0.7,0-1.4,0-2.1,0c0.1-0.4,0.3-0.8,0.6-1.2l-1-0.3c-0.1-0.5,0.7-0.7,1.2-0.4c0.5,0.3,1.2,0.6,1.5,0.1
	c-0.1-0.3-0.2-0.6-0.3-0.8c0.2,0.3,0.8,0,0.7-0.4s-0.5-0.6-0.9-0.7s-0.7-0.2-1-0.5c1.3-0.3,2.1-1.5,1.8-2.8l0,0
	c-0.7,0.4-1.2,0.9-1.7,1.5c-0.5-0.4-1.1-0.5-1.7-0.2c-0.5-0.5-0.1-1.4,0.5-1.9c0.6-0.5,1.2-1,1.2-1.7l-3.2,1.6l1.2-2.6
	c-0.6-0.1-1.2,0-1.6,0.3c0-0.8-0.1-1.6-0.3-2.5c0-0.1,0-0.2-0.1-0.3c-0.1-1-0.4-2.1-0.8-3l1.1-0.3c-0.7-0.7-1.6-1.1-2.6-1
	c0.5-2.5,0.3-5.1-0.7-7.5c-0.2,2.5-0.2,5.1-0.2,7.6l-0.8-0.3c-0.1,0.4,0,0.8,0.4,0.9c-0.4,0.5-0.5,1.2-0.3,1.7
	c-0.9,0.1-1.7-0.1-2.6-0.4c0,0.6,0.8,1,1.4,1.2s1.2,1,0.7,1.5s-1.2-0.1-1.8,0c0.1,0.4,0.4,0.7,0.7,0.9l-3.2,0.4l-0.1-0.2
	c0.3,0.5,1.1-0.1,1-0.6s-0.7-0.8-1.2-1c-0.5-0.1-1-0.3-1.4-0.7c1.8-0.4,2.9-2.2,2.5-3.9c0,0,0,0,0-0.1c-0.9,0.5-1.7,1.2-2.4,2.1
	c-0.7-0.6-1.6-0.7-2.4-0.3c-0.7-0.7-0.1-1.9,0.6-2.6c0.7-0.7,1.7-1.4,1.6-2.4l-4.4,2.3c0.6-1.2,1.1-2.4,1.7-3.6
	c-0.8-0.2-1.6-0.1-2.3,0.4c0-1.1-0.2-2.3-0.4-3.4l-0.1-0.5c-0.1-1.4-0.5-2.8-1.2-4.1l1.5-0.4c-0.9-1-2.2-1.6-3.6-1.4
	c0.7-3.5,0.4-7.1-1-10.4c-0.2,3.5-0.3,7.1-0.3,10.6l-1.1-0.4c-0.2,0.5,0,1.1,0.5,1.3c-0.6,0.7-0.7,1.6-0.4,2.4
	c-1.2,0.1-2.4-0.1-3.6-0.5c0,0.9,1.1,1.3,1.9,1.7c0.8,0.4,1.7,1.4,1,2c-0.7,0.6-1.7-0.2-2.5,0c0.1,0.5,0.5,1,1,1.2l-5.1,0.7
	c0.6-2,2.5-3.7,2.1-6c-1,0-2,0-3,0.1c0.2-0.6,0.5-1.2,0.9-1.6l-1.4-0.4c-0.2-0.7,1-1,1.7-0.6c0.7,0.4,1.6,0.8,2.1,0.2l-0.4-1.2
	c0.3,0.5,1.1-0.1,1-0.6c-0.1-0.5-0.7-0.8-1.2-1c-0.5-0.1-1-0.3-1.4-0.7c1.8-0.4,2.9-2.1,2.5-3.9v-0.1c-0.9,0.5-1.7,1.2-2.4,2.1
	c-0.7-0.6-1.6-0.7-2.4-0.3c-0.7-0.7-0.1-1.9,0.6-2.6c0.7-0.7,1.7-1.4,1.6-2.4l-4.4,2.3l1.7-3.6c-0.8-0.2-1.6-0.1-2.3,0.4
	c0-1.1-0.2-2.3-0.4-3.4l-0.1-0.3c-0.1-1.4-0.5-2.8-1.2-4.1l1.5-0.4c-0.9-1-2.2-1.5-3.6-1.4c0.7-3.5,0.4-7.1-1-10.4
	c-0.2,3.5-0.3,7.1-0.3,10.6l-1.1-0.4c-0.2,0.5,0,1.1,0.6,1.3c-0.6,0.7-0.7,1.6-0.4,2.4c-1.2,0.1-2.4-0.1-3.6-0.5
	c0,0.9,1.1,1.3,1.9,1.7c0.8,0.4,1.7,1.4,1,2c-0.7,0.6-1.7-0.2-2.5,0c0.1,0.5,0.5,1,1,1.2l-2.3,0.3c0-0.1-0.1-0.3-0.1-0.4
	c0.2,0.4,0.9-0.1,0.8-0.5s-0.5-0.7-1-0.8c-0.4-0.1-0.8-0.3-1.2-0.6c1.4-0.3,2.3-1.8,2-3.2l0,0c-0.8,0.4-1.4,1-1.9,1.7
	c-0.5-0.5-1.3-0.5-1.9-0.2c-0.6-0.6-0.1-1.6,0.5-2.1c0.6-0.5,1.4-1.1,1.3-2l-3.5,1.9l1.4-2.9c-0.6-0.2-1.3,0-1.8,0.3
	c0-0.9-0.1-1.9-0.3-2.8l-0.1-0.4c-0.1-1.2-0.4-2.3-0.9-3.4l1.2-0.3c-0.7-0.8-1.8-1.3-2.9-1.2c0.6-2.8,0.3-5.8-0.8-8.5
	c-0.2,2.9-0.3,5.8-0.2,8.7l-0.9-0.3c-0.1,0.4,0.1,0.8,0.4,1c-0.5,0.6-0.6,1.3-0.3,2c-1,0.1-2-0.1-2.9-0.4c0,0.7,0.9,1.1,1.6,1.4
	s1.3,1.2,0.8,1.7c-0.5,0.5-1.4-0.1-2.1,0c0.1,0.5,0.4,0.8,0.8,1l-6.5,0.9c1.1,1.3,3,1.5,4.3,0.5l0,0c0.3,0.3,0.4,0.7,0.5,1.1
	c-0.8,0.4-1.6,0.7-2.5,0.9c0.4,0.4,1,0.6,1.6,0.5c-0.3,0.4-0.2,1,0.2,1.3l0.1,0.1c-0.5,0.1-0.8,0.5-0.7,1c0.1,0.5,0.3,0.9,0.6,1.2
	c-1.4-0.7-2.9-1.1-4.4-1.2c0.7,1.4,2,2.3,3.5,2.5l-2.5,1.7l1.1,1.4c-0.8,0.4-1.6,0.7-2.4,0.8c0.2-0.2,0.3-0.5,0.4-0.8
	c0-1.2-1.1-2-1.6-3c-1-2.5,1.9-3.9,1.5-6.3c-0.7,0-1.4,0-2.1,0c0.1-0.4,0.3-0.8,0.6-1.2l-1-0.3c-0.1-0.5,0.7-0.7,1.2-0.4
	s1.2,0.6,1.5,0.1c-0.1-0.3-0.2-0.6-0.3-0.8c0.2,0.3,0.8,0,0.7-0.4c-0.1-0.4-0.5-0.6-0.8-0.7c-0.4-0.1-0.7-0.2-1-0.5
	c1.3-0.3,2.1-1.5,1.8-2.8c0,0,0,0,0-0.1c-0.7,0.4-1.2,0.9-1.7,1.5c-0.5-0.4-1.1-0.5-1.7-0.2c-0.5-0.5-0.1-1.4,0.5-1.9
	c0.6-0.5,1.2-1,1.2-1.7l-3.2,1.6l1.2-2.6c-0.6-0.1-1.2,0-1.6,0.3c0-0.8-0.1-1.6-0.3-2.5c0-0.1,0-0.2,0-0.3c-0.1-1-0.4-2.1-0.8-3
	l1.1-0.3c-0.7-0.7-1.6-1.1-2.6-1c0.5-2.5,0.3-5.1-0.7-7.5c-0.2,2.6-0.2,5.1-0.2,7.7l-0.2-0.1c0-0.1,0.1-0.1,0.1-0.2
	c0-1.4-1.3-2.3-1.8-3.4c-1.1-2.8,2.1-4.4,1.7-7.1c-0.8,0-1.6,0-2.4,0.1c0.1-0.5,0.4-1,0.7-1.3l-1.2-0.3c-0.2-0.6,0.8-0.8,1.4-0.5
	c0.6,0.3,1.3,0.6,1.7,0.1l-0.3-1c0.2,0.4,0.9,0,0.8-0.5c-0.1-0.5-0.5-0.7-1-0.8c-0.4-0.1-0.8-0.3-1.2-0.6c1.4-0.3,2.3-1.7,2-3.2
	c0,0,0,0,0-0.1c-0.7,0.4-1.4,1-1.9,1.7c-0.5-0.5-1.3-0.5-1.9-0.2c-0.6-0.6-0.1-1.6,0.5-2.1s1.4-1.1,1.3-2l-3.6,1.8
	c0.4-1,0.9-1.9,1.4-2.9c-0.6-0.2-1.3,0-1.8,0.3c0-0.9-0.1-1.9-0.3-2.8c0-0.1,0-0.2,0-0.4c-0.1-1.2-0.5-2.3-1-3.4l1.2-0.3
	c-0.7-0.8-1.8-1.3-2.9-1.2c0.6-2.8,0.3-5.8-0.8-8.5c-0.2,2.9-0.3,5.8-0.2,8.7l-0.9-0.3c-0.1,0.4,0,0.9,0.4,1c-0.5,0.6-0.6,1.3-0.3,2
	c-0.9,0.1-1.9-0.1-2.7-0.4c0.4-0.7,0.6-1.6,0.5-2.4c-0.8,0-1.6,0-2.4,0.1c0.1-0.5,0.4-1,0.7-1.3l-1.2-0.3c-0.2-0.6,0.8-0.8,1.4-0.5
	s1.3,0.6,1.7,0.1l-0.3-1c0.2,0.4,0.9-0.1,0.8-0.5s-0.5-0.7-1-0.8c-0.4-0.1-0.8-0.3-1.2-0.6c1.4-0.3,2.3-1.7,2-3.2c0,0,0,0,0-0.1
	c-0.8,0.4-1.4,1-1.9,1.7c-0.5-0.5-1.3-0.5-1.9-0.2c-0.6-0.6-0.1-1.6,0.5-2.1s1.4-1.1,1.3-2l-3.6,1.9l1.4-2.9c-0.6-0.2-1.3,0-1.8,0.3
	c0-0.9-0.1-1.9-0.3-2.8l-0.1-0.4c-0.1-1.2-0.5-2.3-1-3.4l1.2-0.3c-0.7-0.8-1.8-1.3-2.9-1.2c0.6-2.8,0.3-5.8-0.8-8.4
	c-0.2,2.9-0.3,5.8-0.2,8.7l-0.9-0.3c-0.1,0.4,0,0.9,0.4,1.1c-0.5,0.6-0.6,1.3-0.3,2c-1,0-1.9-0.1-2.8-0.5c0,0.7,0.9,1.1,1.6,1.4
	s1.3,1.2,0.8,1.7c-0.5,0.5-1.4-0.1-2.1,0c0.1,0.4,0.4,0.8,0.8,1l-2.7,0.4l-0.2-0.1c-0.4-0.1-0.8-0.3-1.2-0.6c1.4-0.3,2.3-1.8,2-3.2
	l0,0c-0.6,0.3-1.1,0.7-1.5,1.2c-0.2,0.2-0.6,0.3-0.9,0.2c-0.3-0.1-0.5-0.1-0.8-0.1c-0.4,0-0.8-0.3-0.8-0.7c0-0.1,0-0.2,0-0.3
	c0.2-0.3,0.4-0.7,0.7-0.9c0.6-0.6,1.4-1.1,1.3-2l-1.5,0.8c-0.4,0.2-0.8,0-1-0.4c-0.1-0.2-0.1-0.4,0-0.6l0.4-0.9
	c-0.3-0.1-0.7-0.1-1,0c-0.4,0.1-0.8-0.2-0.9-0.6v-0.1c0-0.6-0.2-1.2-0.2-1.8l-0.1-0.4c-0.1-1.2-0.5-2.3-1-3.4l1.2-0.3
	c-0.6-0.6-1.3-1-2.1-1.1c-0.4-0.1-0.7-0.4-0.7-0.9c0.4-2.6,0-5.2-1-7.6c-0.2,2.9-0.3,5.8-0.2,8.7l-0.9-0.3c-0.1,0.4,0.1,0.8,0.4,1
	c-0.3,0.3-0.5,0.8-0.5,1.2s-0.3,0.8-0.7,0.8c0,0,0,0-0.1,0c-0.3,0-0.6-0.1-0.9-0.1c0.1-0.4,0.1-0.7,0-1.1c-0.7,0.4-1.2,0.9-1.7,1.5
	c-0.5-0.4-1.1-0.5-1.7-0.2c-0.5-0.5-0.1-1.4,0.5-1.9s1.2-1,1.2-1.7l-3.2,1.6l3.5-0.6c-0.6-0.1-1.2,0-1.6,0.3c0-0.8-0.1-1.6-0.3-2.4
	v-0.3c-0.1-1-0.4-2.1-0.8-3l1.1-0.3c-0.7-0.7-1.6-1.1-2.6-1c0.5-2.5,0.3-5.1-0.7-7.5c-0.2,2.6-0.2,5.1-0.2,7.6l-0.8-0.3
	c-0.1,0.4,0,0.8,0.4,0.9c-0.4,0.5-0.5,1.2-0.3,1.7c-0.8,0.1-1.7,0-2.5-0.3c0,0.6,0.8,1,1.4,1.2s1.2,1,0.7,1.5
	c-0.5,0.5-1.2-0.1-1.8,0c0.1,0.4,0.4,0.7,0.7,0.9l-5.8,0.8c0.9,1.2,2.6,1.4,3.8,0.4l0,0c0.2,0.3,0.4,0.6,0.4,1
	c-0.7,0.3-1.4,0.6-2.2,0.8c0.4,0.3,0.9,0.5,1.4,0.5c-0.3,0.3-0.2,0.9,0.1,1.1c0,0,0.1,0.1,0.2,0.1c-0.4,0.1-0.7,0.5-0.6,0.9
	s0.3,0.8,0.5,1.1c-1.2-0.6-2.5-1-3.9-1.1c0.6,1.2,1.8,2,3.1,2.2l-2.2,1.5l1,1.2c-0.1,0.1-0.2,0.1-0.3,0.1c-1.3-0.6-2.6-1.2-3.9-1.7
	l0,0c0.4,0,0.7-0.1,1-0.3c0.8-0.6,0.3-1.9-0.3-2.7c0.3,0.5,2-1.9,2-2.3c0-1.2-1.1-2-1.6-3c-1-2.5,1.9-3.9,1.5-6.3
	c-0.7,0-1.4,0-2.1,0.1c0.1-0.4,0.3-0.8,0.6-1.2l-1-0.3c-0.2-0.5,0.7-0.7,1.2-0.4c0.5,0.3,1.2,0.6,1.5,0.1c-0.1-0.3-0.2-0.6-0.3-0.8
	c0.2,0.3,0.8,0,0.7-0.4s-0.5-0.6-0.8-0.7c-0.4-0.1-0.7-0.2-1-0.5c1.3-0.3,2.1-1.5,1.8-2.8c0,0,0,0,0-0.1c-0.7,0.4-1.2,0.9-1.7,1.5
	c-0.5-0.4-1.1-0.5-1.7-0.2c-0.5-0.5-0.1-1.4,0.5-1.9s1.2-1,1.2-1.7l-3.2,1.6l1.2-2.6c-0.6-0.1-1.2,0-1.6,0.3c0-0.8-0.1-1.6-0.3-2.5
	l-0.1-0.3c-0.1-1-0.4-2.1-0.8-3l1.1-0.3c-0.7-0.7-1.6-1.1-2.6-1c0.5-2.5,0.3-5.1-0.7-7.5c-0.2,2.6-0.2,5.1-0.2,7.7l-0.8-0.3
	c-0.1,0.4,0,0.8,0.4,0.9c-0.4,0.5-0.5,1.2-0.3,1.7c-0.9,0.1-1.7-0.1-2.5-0.4c0,0.6,0.8,0.9,1.4,1.2c0.6,0.3,1.2,1,0.7,1.5
	s-1.2-0.1-1.8,0c0.1,0.4,0.4,0.7,0.7,0.9l-5.8,0.8c0.9,1.2,2.6,1.4,3.8,0.5c0,0,0,0,0.1,0c0.2,0.3,0.4,0.6,0.4,1
	c-0.7,0.3-1.4,0.6-2.1,0.8c-0.7-0.8-1.8-1.2-2.8-1.1c0.6-2.8,0.3-5.8-0.8-8.4c-0.2,2.7-0.3,5.5-0.2,8.2c-0.5-0.2-0.9-0.2-1.4-0.2
	c0.6-2.8,0.3-5.8-0.8-8.4c-0.2,2.9-0.3,5.8-0.2,8.7l-0.9-0.3c-0.1,0.4,0.1,0.8,0.4,1c-0.5,0.6-0.6,1.3-0.3,2h-0.2l-0.2-0.1
	c0,0,0,0,0,0.1c-0.8,0-1.7-0.1-2.5-0.4c0,0.7,0.9,1.1,1.5,1.4c0.6,0.3,1.3,1.2,0.8,1.7c-0.5,0.5-1.4-0.1-2.1,0
	c0.1,0.4,0.4,0.8,0.8,1l-3.8,0.5c0.1-0.1,0.2-0.2,0.2-0.4c-0.1-0.4-0.5-0.6-0.8-0.7c-0.4-0.1-0.7-0.2-1-0.5c1.3-0.3,2.1-1.6,1.8-2.8
	l0,0c-0.7,0.4-1.2,0.9-1.7,1.5c-0.3-0.2-0.6-0.3-0.9-0.4c0.2-0.5,0.3-1,0.1-1.5c-0.4,0.2-0.8,0.5-1.1,0.9c0.1-0.4,0.3-0.7,0.7-1
	c0.5-0.5,1.2-1,1.2-1.7l-3.2,1.6l1.2-2.6c-0.6-0.1-1.2,0-1.6,0.3c0-0.8-0.1-1.6-0.3-2.5c0-0.1,0-0.2,0-0.3c-0.1-1-0.4-2.1-0.8-3
	l1.1-0.3c-0.7-0.7-1.6-1.1-2.6-1c0.5-2.5,0.3-5.1-0.7-7.5c-0.2,2.4-0.2,4.9-0.2,7.4c-0.5-0.2-1-0.3-1.5-0.3c0.5-2.5,0.3-5.1-0.7-7.5
	c-0.2,2.6-0.2,5.1-0.2,7.7l-0.8-0.3c-0.1,0.4,0,0.8,0.4,0.9c-0.4,0.5-0.5,1.2-0.3,1.7h-0.1c-0.8,0.1-1.7-0.1-2.5-0.4
	c0,0.6,0.8,1,1.4,1.2c0.6,0.2,1.2,1,0.7,1.5c-0.5,0.5-1.2-0.1-1.8,0c0.1,0.4,0.4,0.7,0.7,0.9l-5.8,0.8c0.7,0.9,1.9,1.3,3,0.9
	c0.4,0.3,0.8,0.4,1.3,0.5c-0.7,0.3-1.4,0.6-2.1,0.8c0.4,0.3,0.9,0.5,1.4,0.5c-0.3,0.4-0.2,0.9,0.1,1.2l0.1,0.1
	c-0.4,0.1-0.7,0.5-0.6,0.9c0,0.2,0.1,0.4,0.2,0.6c-0.4-0.1-0.7-0.1-1.1-0.1l0.1,0.1c-0.8-0.3-1.7-0.5-2.6-0.5c0.6,1.2,1.8,2,3.1,2.2
	l-2.2,1.5l1,1.2c-1.5,0.8-3.2,1.1-4.9,0.9c0.9,1.2,2,2.2,3.2,3c-1-0.4-2.1-0.5-3.1-0.3c-0.3,0.1-0.7,0.2-0.7,0.5
	c0,0.2,0.1,0.4,0.3,0.5c0.7,0.8,1.5,1.5,2.4,2.1C7,202.5,7,203.3,7.3,204c-0.9,0.1-6.4,2-7.3,2.1v59.7c2.5,14.9,33.2,45.2,37.9,59.6
	c6.5,19.8,19.6,37,34,52.1c18.2,19,39.8,35.9,65.4,42.3c32.7,8.2,66.9-1.7,100.7-3.5c31.8-1.7,63.6,4,95.5,4
	c51.5,0,105.4-17,138.3-56.5c11.5-13.9,20.2-30.1,28.6-46.1c4.7-4.6,7.2-15.3,9.5-21.5c2.3-6.3,4.2-12.7,6.4-19
	c2.5-7.3,6-14.1,8.6-21.3c2.3-6.4,22.1,16.3,24.2,9.8v-48.3c0.1,0-6.3-1.3-6.2-1.4l-0.4-1.2C542.4,214.9,543.2,214.4,543,213.9z
	 M387.9,271.2L387.9,271.2L387.9,271.2z M407.6,256.4c0,0.4,0.1,0.7,0.2,1.1l-0.9,0.4L407.6,256.4z M408.7,260.1V260V260.1
	L408.7,260.1z M433.3,239.9c-0.2-0.1-0.4-0.1-0.6-0.2l0.1-0.2L433.3,239.9z M430.3,245.4c0.1-0.1,0.2-0.3,0.3-0.4l-1.5-0.4
	c-0.2-0.7,1-1,1.7-0.6c0.2,0.1,0.4,0.2,0.6,0.3c-0.1,0.2-0.2,0.5-0.2,0.7L430.3,245.4z M474.7,221.2l0.2,0.2l-0.4,0.2L474.7,221.2z
	 M494.8,216.7l-0.5,0.4c-0.2-0.1-0.4-0.2-0.5-0.4c0.1,0,0.3-0.1,0.4-0.1S494.5,216.7,494.8,216.7L494.8,216.7z M492,220.6
	c-0.1-0.4,0.2-0.6,0.6-0.7l0.6,0.7c-0.1,0.1-0.3,0.1-0.5,0.2L492,220.6z M528.9,201c0.1-0.4,0-0.8-0.1-1.1
	C529.1,200.1,529.1,200.6,528.9,201L528.9,201z M524.6,199c0.5-0.4,0.9-0.8,1.3-1.3c0.3,0.6,1.1,1,1.8,1.3c0.4,0.2,0.7,0.4,1,0.8
	c-0.6,0.4-1.2,0.8-1.7,1.3c-0.3-0.1-0.5-0.1-0.8,0c0,0.2,0.1,0.4,0.3,0.6l-0.1,0.1c-0.7-0.6-1.6-0.7-2.3-0.3
	C523.3,200.9,523.9,199.6,524.6,199L524.6,199z M509.2,204.6l-2.4,1.6c-0.1-0.6-0.2-1.3-0.3-1.9l-0.1-0.4c0-0.1,0-0.3-0.1-0.5
	C507.1,204,508,204.5,509.2,204.6L509.2,204.6z M492.1,211.9c0.7-0.5,1.2-1.1,1.6-1.9c0.5,0.5,1.2,0.7,1.9,0.6
	c-0.4,0.5-0.3,1.2,0.2,1.6l0.1,0.1c-0.5,0.1-0.9,0.6-0.9,1.1c-0.4,0.3-0.7,0.6-1,0.9c-1-0.3-2-0.6-3-0.7
	C491.1,213,491.5,212.3,492.1,211.9L492.1,211.9z M478.4,209.8c-0.9,0.4-1.8,0.8-2.8,1c0.4-0.5,0.6-1,0.7-1.6
	c0.6-0.1,1.1-0.4,1.5-0.7C478.2,208.8,478.4,209.3,478.4,209.8L478.4,209.8z M475.5,210.9c0.5,0.4,1.2,0.6,1.9,0.6
	c-0.4,0.5-0.3,1.2,0.2,1.6c0.1,0.1,0.1,0.1,0.2,0.1c-0.6,0.1-1,0.7-0.9,1.2c0.1,0.6,0.4,1.1,0.7,1.5c-0.6-0.3-1.3-0.5-1.9-0.8
	l-0.3-1c0.3,0.4,1.1-0.1,1-0.6s-0.7-0.8-1.2-1c-0.5-0.1-1-0.3-1.4-0.7C474.5,211.7,475,211.4,475.5,210.9L475.5,210.9z M472.7,215.1
	c0.9,1.3,2.3,2.2,4,2.5l-0.9,0.6c0-0.2,0-0.3,0-0.5c-1,0-2,0-3,0.1c0.2-0.6,0.5-1.2,0.9-1.6l-1.5-0.4
	C471.9,215.4,472.2,215.2,472.7,215.1L472.7,215.1z M451.6,221.7c0.1-0.1,0.1-0.3,0.2-0.4c0.3,0.3,0.7,0.5,1,0.8
	C452.3,221.9,451.8,221.8,451.6,221.7L451.6,221.7z M451.6,221.2c-0.7-0.1-1.4,0-1.9,0.3h-0.2c0-0.8-0.1-1.7-0.2-2.5
	C449.9,219.8,450.7,220.5,451.6,221.2L451.6,221.2z M429.3,236.1c0.7,0.8,1.4,1.6,2.2,2.3c-0.1,0.1-0.3,0.3-0.4,0.5
	c-0.7-0.6-1.6-0.7-2.4-0.3C427.9,237.9,428.4,236.8,429.3,236.1L429.3,236.1z M407.3,254.3c-0.4,0.1-0.7,0.2-1,0.4
	c0-0.4,0-0.9-0.1-1.3C406.6,253.7,407,254,407.3,254.3z M205.8,335.9c0,0.3,0.1,0.7,0.4,0.9l0,0c-0.4-0.1-0.8-0.3-1.2-0.6
	C205.3,336.1,205.5,336,205.8,335.9z M205,338.9c0.3,0.2,0.6,0.3,1,0.4l0.3,0.4c-0.7-0.4-1.5-0.6-2.3-0.9
	C204.3,338.7,204.7,338.7,205,338.9L205,338.9z M282.2,344.2c0.2,0,0.4-0.1,0.7-0.2l0.8,0.6C283.2,344.4,282.7,344.3,282.2,344.2
	C282.2,344.3,282.2,344.2,282.2,344.2z M316.5,322.7l0.7,0.9c-0.6,0.3-1.3,0.5-1.9,0.7c0.2-0.5,0.5-1,0.9-1.4L316.5,322.7z
	 M367.8,292.2c-0.2,0.1-0.5,0.2-0.7,0.3c0-1.1-0.2-2.3-0.4-3.4c0-0.1,0-0.3-0.1-0.4c-0.1-0.7-0.2-1.3-0.4-2c0.3,0.3,0.7,0.5,1,0.7
	C366.3,288.9,367,290.6,367.8,292.2L367.8,292.2z M351.9,304.3l0.3-0.3c0.4,0.5,0.7,0.9,1.1,1.4c-0.8,0.4-1.6,0.7-2.4,0.9
	C350.9,305.5,351.3,304.8,351.9,304.3z M298.8,332.3l0.1,0.2l-0.2,0.1C298.8,332.5,298.8,332.4,298.8,332.3z M247.7,352.8
	c1.3,0.6,2.8,0.3,3.9-0.5c0.3,0.4,0.5,0.8,0.6,1.3c-1,0.5-2,0.8-3,1.1c0.5,0.5,1.3,0.7,2,0.6c-0.4,0.5-0.3,1.2,0.2,1.6
	c0.1,0.1,0.1,0.1,0.2,0.1c-0.6,0.1-1,0.7-0.9,1.2c0.1,0.6,0.4,1.1,0.7,1.5c-1.7-0.8-3.5-1.3-5.4-1.5c0.6,1.1,1.5,2,2.6,2.6l-1.1,0.2
	c-0.5-0.7-1-1.4-1.4-2.1C245.2,356.5,246.9,354.8,247.7,352.8L247.7,352.8z M225.3,354.5c-1.1-0.4-2.3-0.6-3.5-0.5
	c-0.1-0.8,0-1.5,0.3-2.2C223.1,352.8,224.1,353.7,225.3,354.5L225.3,354.5z M207.1,333c-0.5,0.3-1,0.7-1.4,1.1
	c-0.3,0.1-0.5,0.2-0.8,0.2c-0.5-0.2-1-0.2-1.5,0c-0.4-0.4-0.4-1.1,0-1.5c1.1,0.3,2.4,0,3.3-0.7C206.8,332.4,206.9,332.7,207.1,333
	L207.1,333z M201.5,332.1l-0.1,0.1L201.5,332.1L201.5,332.1z M172.9,326.9c0.4,0.2,0.8,0.3,1.2,0.4l-2.2,1.5
	C172.2,328.1,172.4,327.5,172.9,326.9L172.9,326.9z M171.6,329.5c0.1-0.2,0.1-0.4,0.2-0.7l1,1.2l-0.1,0.1L171.6,329.5z M171.4,320.6
	c1,0.9,2.5,1,3.6,0.1c0.2,0.3,0.4,0.6,0.4,1c-0.7,0.3-1.4,0.6-2.2,0.8c0.4,0.3,0.9,0.5,1.4,0.5c0.5,0.7,0.4,1.6-0.3,2.1
	c0,0-0.1,0-0.1,0.1c0.1,0.4,0.3,0.8,0.5,1.1c-0.4-0.2-0.9-0.4-1.3-0.5c0.3-0.7,0.4-1.5,0.3-2.3c-1,0-2,0-3,0.1
	c0.2-0.6,0.4-1.2,0.9-1.6l-1.4-0.4C170.1,320.7,170.7,320.5,171.4,320.6L171.4,320.6z M137.8,292.4c0.1,0.2,0.3,0.3,0.5,0.4
	c-0.6,0.1-1,0.7-0.9,1.2c0.1,0.6,0.4,1.1,0.7,1.5c-0.4-0.2-0.9-0.4-1.3-0.6C136.8,294.1,137.3,293.2,137.8,292.4z M156.2,313.9
	c-0.1,0-0.3,0.1-0.4,0.1c-0.4-0.8-0.8-1.5-1.4-2.1c0.4,0.2,0.9,0.3,1.4,0.3c-0.4,0.5-0.3,1.2,0.2,1.6
	C156.1,313.8,156.1,313.8,156.2,313.9L156.2,313.9z M155.6,316c0.1,0.2,0.3,0.4,0.4,0.6l-0.6-0.3C155.4,316.2,155.6,316.1,155.6,316
	z M153.6,319c-0.1-0.2-0.3-0.4-0.4-0.6c0.1,0.2,0.4,0.1,0.8-0.3c0.3,0.1,0.6,0.2,0.9,0.2l-1.2,0.8L153.6,319z M156.2,309.2
	c0.3,0.4,0.5,0.8,0.6,1.3c-0.9,0.4-1.8,0.8-2.7,1c-0.1-0.2-0.2-0.4-0.3-0.5c-0.1-0.3-0.2-0.6-0.2-0.9
	C154.6,310.1,155.6,309.8,156.2,309.2L156.2,309.2z M138.6,289.5c0-0.1,0-0.2,0-0.3c-0.8,0-1.6,0-2.4,0.1c0-0.1,0.1-0.3,0.1-0.4
	c0.7-0.1,1.4-0.4,1.9-0.8c0.3,0.4,0.5,0.8,0.6,1.3L138.6,289.5z M70.9,210.7c0.1,0.1,0.2,0.2,0.4,0.1c0.1,0.1,0.2,0.2,0.4,0.3
	l-0.6,0.1L70.9,210.7z M83.4,225.8c0.1,0.4,0.3,0.7,0.6,1c-0.3-0.1-0.6-0.3-0.9-0.4C83.3,226.2,83.3,226,83.4,225.8z M83.2,228.1
	l-1.2,0.8c0.1-0.3,0.2-0.7,0.4-1C82.6,228.1,82.8,228.1,83.2,228.1L83.2,228.1z M69.4,212.3c0.2,0.3,0.4,0.6,0.4,0.9h-1
	c0.1-0.3,0.2-0.5,0.3-0.8C69.3,212.4,69.4,212.4,69.4,212.3z M109.4,265.4c0.6,0.3,1.2,1,0.7,1.5c-0.1,0.1-0.3,0.2-0.5,0.2
	C109.8,266.5,109.8,265.9,109.4,265.4L109.4,265.4z M108.9,267.7l0.1,0.1l-0.6,0.1C108.7,267.8,108.9,267.8,108.9,267.7L108.9,267.7
	z M110.8,262.8L110.8,262.8c-0.3,0.5-0.4,1.2-0.2,1.8c-0.4,0-0.9,0-1.3-0.1C109.9,264.1,110.4,263.5,110.8,262.8L110.8,262.8z
	 M97.9,234.8c0.2,0.5,0.9,0.9,1.5,1.1s1.3,1.2,0.8,1.7c-0.5,0.5-1.4-0.1-2.1,0c0.1,0.4,0.4,0.8,0.8,1l-2.3,0.3
	C96.4,237.3,97.3,236.1,97.9,234.8L97.9,234.8z M83.8,223.1c-0.3,0.4-0.3,1,0.1,1.3c0.1,0,0.1,0.1,0.2,0.1c-0.1,0-0.3,0.1-0.4,0.2
	v-0.1c0-0.4-0.3-0.8-0.7-0.8l0,0c-0.6,0-1.1,0-1.7,0.1c0.1-0.5,0.4-0.9,0.7-1.3l-1.2-0.3c-0.2-0.6,0.8-0.8,1.4-0.5
	c0.6,0.3,1.3,0.6,1.7,0.1c-0.1-0.3-0.2-0.6-0.3-0.8l0,0c0.2,0.1,0.5,0,0.6-0.2c0.2,0.3,0.3,0.6,0.4,0.9c-0.8,0.4-1.6,0.7-2.5,0.9
	C82.7,223,83.3,223.2,83.8,223.1L83.8,223.1z M71.3,207.9c0.3,0.1,0.6,0.3,0.8,0.4c0.7,0.3,1.3,1.2,0.8,1.7
	c-0.3,0.3-0.9,0.1-1.4,0.1c-0.2-0.3-0.4-0.4-0.8-0.5s-0.7-0.2-1-0.5C70.4,208.9,70.9,208.5,71.3,207.9z M69.4,211.3l-0.8,0.1
	C68.9,211.3,69.2,211.3,69.4,211.3z M28.1,201.6l-2,1.4c-0.2-0.3-0.4-0.5-0.5-0.8c-0.2-0.6-0.3-1.2-0.1-1.8
	C26.2,201.1,27.1,201.5,28.1,201.6L28.1,201.6z M40.3,193.1c0-0.2-0.1-0.4-0.1-0.7c0.3,0.1,0.5,0.1,0.8,0.2
	C40.6,192.8,40.5,193,40.3,193.1z M28,194.8c0.5,0.3,1,0.5,1.6,0.5l0,0c-0.8,0.4-1.6,0.7-2.5,0.9c0.4,0.4,1,0.6,1.6,0.5
	c-0.3,0.4-0.3,1,0.1,1.3c0.1,0,0.1,0.1,0.2,0.1c-0.5,0.1-0.8,0.5-0.7,1c0,0.2,0.1,0.5,0.2,0.6c-0.5-0.1-1-0.2-1.5-0.2
	c0,0,0,0.1,0.1,0.1c-0.4-0.1-0.8-0.2-1.1-0.3c0.6-1.1,1.3-2.1,1.1-3.4c-0.7,0-1.4,0-2.1,0.1c0.1-0.4,0.3-0.8,0.6-1.2l-1-0.3
	c-0.1-0.3,0.2-0.5,0.5-0.5C25.9,194.8,27,195.1,28,194.8z M40.3,187.9c0.4,0.3,0.8,0.4,1.3,0.4c-0.3,0.4-0.2,0.9,0.1,1.2l0.1,0.1
	c-0.4,0.1-0.7,0.5-0.6,0.9s0.3,0.8,0.5,1.1c-0.6-0.3-1.2-0.5-1.8-0.7c-0.1-0.9-0.4-1.8-0.8-2.6L40.3,187.9z M27,193.5L27,193.5
	L27,193.5z"/>
<linearGradient id="SVGID_4_" gradientUnits="userSpaceOnUse" x1="309.3564" y1="-612.7946" x2="369.0464" y2="-528.3246" gradientTransform="matrix(1 0 0 -1 -14.31 -343.69)">
	<stop  offset="1.000000e-02" style="stop-color:#000000"/>
	<stop  offset="0.13" style="stop-color:#000000;stop-opacity:0.69"/>
	<stop  offset="1" style="stop-color:#000000;stop-opacity:0"/>
</linearGradient>
<path class="st4" d="M352.9,264.1c-2.4-5.7-7.5-9.7-11.9-14.1c-5.5-5.4-10.2-11.6-13.9-18.5c-2.1-3.8-3.9-7.9-6.6-11.3
	c-2-2.3-4.2-4.4-6.6-6.4c-7.1-6-14.1-12.2-21.3-18.1c5.5,13.5,16.3,26.6,25.9,37.4C328.6,244.9,340.3,255.2,352.9,264.1z"/>
<path d="M539.3,239.2c-0.1-0.9,3.1-3.3-2.3-2.6c0.2-0.5,0.5-1,0.9-1.3c-4.4-1.5,3.1,0.5,1.9-1.7c0.5,0.2,2.2-0.8-1.6-1.9
	c1.1-0.2,2.5-1.2,2.5-3.3c-0.9,0.4-1.7,1-2.4,1.7c-2-0.2-3.8-0.7-0.1-4.4l-4.4,1.9l1.7-3c-0.8-0.2-1.6-0.1-2.3,0.3
	c-0.3-1.7,0-3.2-1.6-6.7l1.5-0.3c-0.9-0.8-2.2-1.3-3.6-1.2c0.7-2.9,0.4-5.9-1-8.6c-0.2,2.9-0.3,5.9-0.3,8.9c-0.4,0-2-0.9-0.6,0.7
	c-0.6,0.6-0.7,1.3-0.4,2c-1.2,0.1-2.4-0.1-3.5-0.4c6.7,4.4-0.8,1.9,1.4,4.2l-8,0.8c0.2,1.8,11.1-0.5,2.9,2.5c0.5,0.4,1.3,0.6,2,0.5
	c-0.3,0.3-0.3,0.2,0.4,1.4c0.1,0.2-1.7-0.1-0.1,2.3c-1.7-0.7-3.5-1.1-5.4-1.2c0.3,0.5,0.7,1,1.2,1.3l-4.2,1.7c0.6-1,1.1-2,1.7-3
	c-0.8-0.2-1.6-0.1-2.3,0.3c-0.3-1.7,0-3.2-1.6-6.7l1.5-0.3c-0.9-0.8-2.2-1.3-3.6-1.2c0.7-2.9,0.4-5.9-1-8.6
	c-0.2,2.9-0.3,5.9-0.3,8.8c-0.4,0-2-0.9-0.6,0.7c-0.6,0.6-0.7,1.3-0.4,2c-1.2,0.1-2.4-0.1-3.5-0.4c6.6,4.4-0.7,1.9,1.4,4.2l-8,0.8
	c0.2,1.9,11.1-0.4,2.9,2.5c0.5,0.4,1.3,0.6,2,0.5c-0.3,0.3-0.3,0.2,0.4,1.4c0.1,0.2-1.7-0.1-0.1,2.3c-1.7-0.7-3.5-1.1-5.4-1.2
	c0.9,1.4,2.5,2.3,4.3,2.6l-3.1,1.7l1.4,1.4c-2.1,0.9-4.5,1.2-6.8,1c1.3,1.3,2.8,2.5,4.5,3.5c0-0.2-0.8,0.2-1.2-0.6
	c-1,0.3-0.3,0.1-3.5,0.3l0.8-1.4c-0.8-0.2-1.7,0-2.3,0.5c-0.2-1.7,0-3.2-1.6-6.7l1.5-0.3c-0.9-0.8-2.2-1.2-3.6-1.2
	c0.7-2.9,0.4-5.9-1-8.6c-0.2,3-0.3,5.9-0.3,8.8c-0.4,0-2-0.9-0.6,0.7c-0.6,0.6-0.7,1.3-0.4,2c-1.2,0.1-2.4-0.1-3.5-0.4
	c6.7,4.4-0.8,1.9,1.4,4.2l-8,0.8c0.2,1.9,11.1-0.4,2.9,2.5c0.5,0.4,1.3,0.6,2,0.5c-0.3,0.3-0.2,0.2,0.4,1.4c0.1,0.2-1.7-0.1-0.1,2.3
	c-1.7-0.7-3.5-1.1-5.4-1.2c0.8,1.4,2.4,2.4,4.3,2.7l-2.8,1.7c0.3-0.3,0.5-0.7,0.5-1.1l-4.4,1.8c0.6-1,1.1-2,1.7-3
	c-0.8-0.2-1.6,0-2.3,0.3c-0.3-1.7,0-3.2-1.6-6.7l1.5-0.3c-0.9-0.8-2.2-1.2-3.6-1.2c0.7-2.9,0.4-5.9-1-8.6c-0.2,2.9-0.3,5.9-0.3,8.8
	c-0.4,0-2-0.9-0.6,0.7c-0.6,0.6-0.7,1.3-0.4,2c-1.2,0.1-2.4-0.1-3.5-0.4c6.6,4.4-0.7,1.9,1.4,4.2l-8,0.8c0.2,1.9,11.1-0.4,2.9,2.5
	c0.5,0.4,1.3,0.6,2,0.5c-0.3,0.3-0.3,0.2,0.4,1.4c0.1,0.2-1.6-0.2-0.1,2.3c-1.7-0.7-3.5-1.1-5.4-1.2c0.9,1.4,2.5,2.3,4.3,2.6
	l-3.1,1.7l1.4,1.4c-1.7,0.7-3.6,1.1-5.5,1.1c0-0.1,0-0.2,0-0.2c-0.1,0-0.2,0.3-1.4,0.2l0.3,0.3l-3.3,1.4c0.6-1,1.1-2,1.7-3
	c-0.8-0.2-1.6-0.1-2.3,0.3c-0.3-1.7,0-3.2-1.6-6.7l1.5-0.3c-0.9-0.8-2.2-1.2-3.6-1.2c0.7-2.9,0.4-5.9-1-8.6
	c-0.2,2.9-0.3,5.9-0.3,8.8c-0.4,0-2-0.9-0.6,0.7c-0.6,0.6-0.7,1.3-0.4,2c-1.2,0.1-2.4-0.1-3.5-0.4c6.7,4.4-0.8,1.9,1.4,4.2l-8,0.8
	c0.2,1.9,11.1-0.4,2.9,2.5c0.5,0.4,1.3,0.6,2,0.5c-0.3,0.3-0.2,0.2,0.4,1.4c0.1,0.2-1.6-0.1-0.1,2.3c-1.7-0.7-3.5-1.1-5.4-1.2
	c0.9,1.4,2.5,2.3,4.3,2.6l-3.1,1.7l1.4,1.4c-2.1,0.9-4.5,1.2-6.8,1c0.2,0.2,0.4,0.4,0.6,0.6c-0.5,0-1,0.2-1.4,0.4
	c-0.2-1.7,0-3.2-1.6-6.7l1.5-0.3c-0.9-0.8-2.2-1.2-3.6-1.2c0.7-2.9,0.4-5.9-1-8.6c-0.2,2.9-0.3,5.9-0.3,8.8c-0.4,0-2-0.9-0.6,0.7
	c-0.6,0.6-0.7,1.3-0.4,2c-1.2,0.1-2.4-0.1-3.5-0.4c6.7,4.4-0.9,1.9,1.4,4.2l-8,0.8c0.2,1.8,11.1-0.4,2.9,2.5c0.5,0.4,1.3,0.6,2,0.5
	c-0.3,0.3-0.2,0.2,0.4,1.4c0.1,0.2-1.7-0.1-0.1,2.3c-1.7-0.7-3.5-1.1-5.4-1.2c0.9,1.4,2.5,2.3,4.4,2.6l-3.2,1.8l1.4,1.4
	c-2.1,0.9-4.5,1.2-6.8,1c0.4,0.3,0.7,0.7,1.1,1.1c-0.7-0.1-1.4,0.1-1.9,0.4c-0.2-1.7,0-3.2-1.6-6.7l1.5-0.3
	c-0.9-0.8-2.3-1.2-3.6-1.2c0.7-2.9,0.4-5.9-1-8.6c-0.2,2.9-0.3,5.9-0.3,8.9c-0.4,0-2-0.9-0.5,0.7c-0.6,0.6-0.7,1.3-0.4,2
	c-1.2,0.1-2.4-0.1-3.5-0.4c0.3,0.7,6.1,3.9,0.4,3.1c0.1,0.4,0.5,0.8,1,1l-8,0.8c0.2,1.9,11.1-0.4,2.9,2.5c0.5,0.4,1.3,0.6,2,0.5
	c-0.3,0.3-0.2,0.2,0.4,1.4c0.1,0.2-1.7-0.1-0.1,2.3c-1.7-0.7-3.5-1.1-5.4-1.2c0.9,1.4,2.5,2.3,4.3,2.6l-3.1,1.7l1.4,1.4
	c-2.1,0.9-4.5,1.2-6.8,1c-0.6-0.2,0,0-1.7-0.2c0.7-2.9,0.4-5.9-1-8.6c-0.2,2.9-0.3,5.9-0.3,8.8c-0.4,0-2-0.9-0.6,0.7
	c-0.6,0.6-0.7,1.3-0.4,2c-1.2,0.1-2.4-0.1-3.5-0.4c6.7,4.4-0.9,1.9,1.4,4.2l-8,0.8c0.2,1.8,11.1-0.5,2.9,2.5c0.5,0.4,1.3,0.6,2,0.5
	c-0.3,0.3-0.2,0.2,0.4,1.4c0.1,0.2-1.6-0.1-0.1,2.3c-1.7-0.7-3.5-1.1-5.4-1.2c0.9,1.4,2.5,2.3,4.3,2.6l-3.6,2.1l1.4,1.4
	c-0.4,0.2-0.8,0.3-1.2,0.4c-0.3-1.2-0.1-1.7-1.3-4.2l1.5-0.3c-0.9-0.8-2.2-1.2-3.6-1.2c0.7-2.9,0.4-5.9-1-8.6
	c-0.2,2.9-0.3,5.9-0.3,8.8c-0.4,0-2-0.9-0.6,0.7c-0.6,0.6-0.7,1.3-0.4,2c-1.2,0.1-2.4-0.1-3.5-0.4c6.7,4.4-0.9,1.9,1.4,4.2l-8,0.8
	c0.5,1.7,10.6-0.2,2.9,2.5c0.5,0.4,1.3,0.6,2,0.5c-0.3,0.3-0.3,0.2,0.4,1.4c0.1,0.2-1.6-0.2-0.1,2.3c-1.7-0.7-3.5-1.1-5.4-1.2
	c0.9,1.4,2.5,2.3,4.3,2.6l-1.6,0.9c0.1-0.2,0.2-0.4,0.1-0.7l-4.4,1.9l1.7-3c-0.8-0.2-1.6,0-2.3,0.3c-0.3-1.7,0-3.2-1.6-6.7l1.5-0.3
	c-0.9-0.8-2.2-1.2-3.6-1.2c0.7-2.9,0.4-5.9-1-8.6c-0.2,2.9-0.3,5.9-0.3,8.8c-0.4,0-2-0.9-0.6,0.7c-0.6,0.6-0.7,1.3-0.4,2
	c-1.2,0.1-2.4-0.1-3.5-0.4c6.6,4.3-0.7,1.9,1.4,4.2l-8,0.8c0.2,1.9,11.1-0.4,2.9,2.5c0.5,0.4,1.3,0.6,2,0.5
	c-0.3,0.3-0.3,0.2,0.4,1.4c0.1,0.2-1.7-0.1-0.1,2.3c-1.7-0.7-3.5-1.1-5.4-1.2c0.8,1.4,2.5,2.4,4.3,2.6c-1.4,1.2-4.4,1.2-1.9,3.3
	c-0.7,0.3-1.5,0.6-2.3,0.7c0.2-0.2,0.3-0.4,0.2-0.7c-0.9,0.2-1.5,1.2-3.3,1l1.1-1.9c-0.6-0.2-1.3,0-1.9,0.2
	c-0.2-0.4,0.4-1.2-1.3-5.4l1.2-0.2c-0.7-0.7-1.8-1.1-2.9-1c0.6-2.3,0.3-4.8-0.8-7.1c-0.2,2.4-0.3,4.8-0.2,7.2
	c-0.1,0.1-1.7-0.7-0.5,0.6c-0.5,0.5-0.6,1.1-0.3,1.7c-1,0.1-2-0.1-2.9-0.3c-0.4,0.4,5.3,2.7,0.3,2.5c0.1,0.3,0.4,0.7,0.8,0.8
	l-6.5,0.7c0.2,1.5,9-0.3,2.4,2c0.4,0.3,1,0.5,1.6,0.4c-0.2,0.2-0.2,0.2,0.3,1.2c-0.1,0.2-1.3,0.3-0.1,1.8c-1.4-0.6-2.9-0.9-4.4-1
	c0.7,1.2,2,1.9,3.5,2.1l-0.8,0.4c0-0.2,0-0.2,0-0.4L317,346c0.5-1,1.1-2,1.7-3c-0.8-0.2-1.6-0.1-2.3,0.3c-0.3-1.7,0-3.2-1.6-6.7
	l1.5-0.3c-0.9-0.8-2.2-1.2-3.6-1.2c0.7-2.9,0.4-5.9-1-8.6c-0.2,2.9-0.3,5.9-0.3,8.8c-0.4,0-2-0.9-0.6,0.7c-0.6,0.6-0.7,1.3-0.4,2
	c-1.2,0.1-2.4-0.1-3.5-0.4c6.7,4.4-0.9,1.9,1.4,4.2l-8,0.8c0.2,1.8,11.1-0.4,2.9,2.5c0.5,0.4,1.3,0.6,2,0.5
	c-0.3,0.3-0.2,0.2,0.4,1.4c0.1,0.2-1.6-0.1-0.1,2.3c-1.7-0.7-3.5-1.1-5.4-1.2c0.9,1.4,2.5,2.3,4.3,2.6l-3.1,1.7l1.2,1.2
	c-0.3,0.1-1.7,1-3,1.2l1.1-1.9c-0.6-0.1-1.1,0-1.6,0.2c-0.3-1,0.7,0.2-1.2-4.8l1.1-0.2c-0.7-0.6-1.6-0.9-2.6-0.8
	c0.5-2.1,0.3-4.2-0.7-6.2c-0.2,2.1-0.2,4.2-0.2,6.4c-0.1,0-1.5-0.6-0.4,0.6c-0.4,0.4-0.5,1-0.3,1.4c-0.9,0.1-1.7-0.1-2.5-0.3
	c-1.2,0,5,2.1,0.3,2.2c0.1,0.3,0.4,0.6,0.7,0.7l-5.8,0.7c-0.4,1.2,8.1-0.4,2.1,1.8c0.4,0.2,0.9,0.4,1.4,0.4c-0.2,0.2-0.2,0.2,0.3,1
	c-0.1,0.1-1.2,0.2-0.1,1.7c-1.2-0.5-2.5-0.8-3.9-0.9c0.6,1,1.8,1.7,3.1,1.8l-2.2,1.2l1,1c-0.2,0.1-0.4,0.2-0.6,0.2
	c0-0.2,0-0.4-0.1-0.7c-1.2-0.1,1,1.2-4.2,1.2l0.2,0.2c-2.2,0.2-0.1-1.6,1.6-4l-4.4,1.9l1.7-3c-0.8-0.2-1.6-0.1-2.3,0.3
	c-0.2-1.7,0-3.2-1.6-6.7l1.5-0.3c-0.9-0.8-2.2-1.2-3.6-1.2c0.7-2.9,0.4-5.9-1-8.6c-0.2,2.9-0.3,5.9-0.3,8.8c-0.4,0-2-0.9-0.6,0.7
	c-0.6,0.6-0.7,1.3-0.4,2c-1.2,0.1-2.4-0.1-3.5-0.4c6.7,4.4-0.9,1.9,1.4,4.2l-8,0.8c0.2,1.8,11.1-0.4,2.9,2.5c0.5,0.4,1.3,0.6,2,0.5
	c-0.3,0.3-0.2,0.2,0.4,1.4c0,0.2-1.7,0-0.2,2.3c-1.7-0.7-3.5-1.1-5.4-1.2c0.9,1.4,2.5,2.3,4.4,2.6c-1,0.6-2.1,1.2-3.1,1.7l1.4,1.4
	c-0.4,0.2-0.8,0.3-1.2,0.4c-0.3-1.2-0.1-1.7-1.3-4.2l1.5-0.4c-0.9-0.8-2.2-1.2-3.6-1.2c0.7-2.9,0.4-5.9-1-8.6
	c-0.2,2.9-0.3,5.9-0.3,8.8c-0.4,0-2-0.9-0.6,0.7c-0.6,0.6-0.7,1.3-0.4,2c-1.2,0.1-2.4-0.1-3.5-0.4c6.7,4.5-0.9,1.8,1.4,4.2l-6.1,0.7
	c-0.3-1.2,0.5-1.2-3-0.9c0.2-0.5,0.5-1,0.9-1.3c-4.4-1.5,2.4,0.4,1.9-1.7c0.4,0.2,2.2-0.8-1.6-1.9c1.1-0.2,2.6-1.2,2.5-3.3
	c-0.9,0.4-1.7,1-2.4,1.7c-2-0.2-3.8-0.7-0.1-4.4l-4.4,1.9l1.7-3c-0.8-0.2-1.6-0.1-2.3,0.3c-0.2-1.7,0-3.2-1.6-6.7l1.5-0.3
	c-0.9-0.8-2.2-1.2-3.6-1.2c0.7-2.9,0.4-5.9-1-8.6c-0.2,2.9-0.3,5.9-0.3,8.8c-0.4,0-2-0.9-0.6,0.7c-0.6,0.6-0.7,1.3-0.4,2
	c-1.2,0.1-2.4-0.1-3.6-0.4c6.7,4.4-0.9,1.9,1.4,4.2l-8,0.8c0.5,1.7,10.6-0.2,2.9,2.5c0.6,0.4,1.3,0.6,2,0.5
	c-0.3,0.3-0.2,0.2,0.4,1.4c0,0.2-1.6-0.1-0.2,2.3c-1.7-0.7-3.5-1.1-5.4-1.2c0.9,1.4,2.5,2.3,4.4,2.6l-3.1,1.9l1.4,1.4
	c-1.5,0.6-3.1,1-4.8,1.1c-0.5-0.6,4.5-4-1.8-3.3c0.2-0.5,0.5-1,0.9-1.3c-4.4-1.4,3.1,0.5,1.9-1.7c0.5,0.2,2.2-0.8-1.6-1.9
	c1.1-0.2,2.5-1.2,2.5-3.3c-0.9,0.4-1.7,1-2.4,1.7c-2-0.2-3.8-0.7-0.1-4.4l-4.4,1.9l1.7-3c-0.8-0.2-1.6-0.1-2.3,0.3
	c-0.3-1.7,0-3.2-1.6-6.7l1.5-0.3c-0.9-0.8-2.2-1.2-3.6-1.2c0.7-2.9,0.4-5.9-1-8.6c-0.2,2.9-0.3,5.9-0.3,8.8c-0.4,0-2-0.9-0.6,0.8
	c-0.6,0.6-0.7,1.3-0.4,2c-1.2,0.1-2.4-0.1-3.6-0.4c6.6,4.3-0.7,1.9,1.4,4.2l-4.3,0.5c0.2-0.2,0.2-0.4,0.2-0.7
	c-0.4,0.1-1.5,0.9-3.3,1l1.1-1.9c-0.6-0.2-1.3,0-1.9,0.2c-0.2-0.5,0.4-1.2-1.3-5.4l1.2-0.2c-0.7-0.7-1.8-1.1-2.9-1
	c0.6-2.3,0.3-4.8-0.8-7.1c-0.2,2.4-0.3,4.8-0.2,7.2c-0.1,0.1-1.7-0.7-0.5,0.7c-0.5,0.5-0.6,1.1-0.3,1.7c-1,0.1-2-0.1-2.9-0.3
	c-0.4,0.4,5.3,2.7,0.3,2.5c0.1,0.3,0.4,0.7,0.8,0.8l-6.5,0.7c0.2,1.5,9-0.3,2.4,2c0.4,0.3,1,0.5,1.6,0.4c-0.2,0.2-0.2,0.2,0.3,1.2
	c-0.1,0.2-1.3,0.3-0.1,1.8c-1.4-0.6-2.9-0.9-4.4-1c0.7,1.2,2,1.9,3.5,2.1l-2.5,1.4l0.3,0.3c-7.1-0.6,2.3-7.2-3.4-6.7
	c0.1-0.3,0.3-0.7,0.6-1c-2.5-0.8,1.3,0.4,1.4-1.2c0.3,0.1,1.5-0.6-1.1-1.3c0.7-0.2,1.4-0.5,1.8-2.4c-0.7,0.3-1.2,0.7-1.7,1.2
	c-1.5-0.3-2.9,0-0.1-3.2l-3.2,1.3c0.4-0.7,0.8-1.4,1.2-2.2c-0.6-0.1-1.1,0-1.6,0.2c-0.3-1,0.7,0.2-1.2-4.8l1.1-0.2
	c-0.7-0.6-1.6-0.9-2.6-0.8c0.5-2.1,0.3-4.2-0.7-6.2c-0.2,2.2-0.2,4.2-0.2,6.4c-0.1,0-1.5-0.6-0.4,0.6c-0.4,0.4-0.5,1-0.3,1.4
	c-0.9,0.1-1.7-0.1-2.6-0.3c-1.2,0,5,2.1,0.3,2.2c0.1,0.3,0.4,0.6,0.7,0.7c0-0.2-2.3,0.5-3.2,0.2c0.5,0.2,2.2-0.8-1.6-1.9
	c1.1-0.2,2.6-1.2,2.5-3.3c-0.9,0.4-1.7,1-2.4,1.7c-2-0.2-3.8-0.7-0.1-4.4l-4.4,1.9l1.7-3c-0.8-0.2-1.6-0.1-2.3,0.3
	c-0.3-1.7,0-3.2-1.6-6.7l1.5-0.3c-0.9-0.8-2.3-1.2-3.6-1.2c0.7-2.9,0.4-5.9-1-8.6c-0.2,2.9-0.3,5.9-0.3,8.9c-0.4,0-2-0.9-0.6,0.7
	c-0.6,0.6-0.7,1.3-0.4,2c-1.2,0.1-2.4-0.1-3.6-0.4c6.7,4.4-0.8,1.9,1.4,4.2l-5.1,0.6c-0.5-1.2,5.9-5.9-0.9-4.9
	c0.2-0.5,0.5-1,0.9-1.3c-4.4-1.6,2.6,0.4,1.9-1.7c0.5,0.2,2.2-0.8-1.6-1.9c1.1-0.2,2.5-1.2,2.5-3.3c-0.9,0.4-1.7,1-2.4,1.7
	c-2-0.2-3.8-0.7-0.1-4.4L153,320l1.7-3c-0.8-0.2-1.6,0-2.3,0.3c-0.3-1.7,0-3.2-1.6-6.7l1.5-0.3c-0.9-0.8-2.2-1.2-3.6-1.2
	c0.7-2.9,0.4-5.9-1-8.6c-0.2,2.9-0.3,5.9-0.3,8.8c-0.4,0-2-0.9-0.6,0.7c-0.6,0.6-0.7,1.3-0.4,2c-1.2,0.1-2.4-0.1-3.6-0.4
	c6.6,4.3-0.6,1.9,1.4,4.2c0-0.2-2.1,0.7-2.4-0.1c0.4,0.1,1.7-0.7-1.3-1.6c0.8-0.2,1.6-0.5,2-2.7c-0.8,0.3-1.4,0.8-1.9,1.4
	c-2.1-0.2-2.6-1-0.1-3.7l-3.6,1.5c0.4-0.8,0.9-1.6,1.4-2.4c-0.6-0.2-1.3,0-1.9,0.2c-0.2-0.5,0.4-1.2-1.3-5.4l1.2-0.2
	c-0.7-0.7-1.8-1.1-2.9-1c0.6-2.3,0.3-4.8-0.8-7.1c-0.2,2.4-0.3,4.8-0.2,7.2c-0.1,0.1-1.7-0.7-0.5,0.6c-0.5,0.5-0.6,1.1-0.3,1.7
	c-1,0.1-2-0.1-2.9-0.3c-0.4,0.4,5.3,2.7,0.3,2.6c0.1,0.3,0.4,0.7,0.8,0.8l-6.5,0.7c0.2,1.5,9-0.3,2.4,2c2.1,0.3,1.2,1.2,1.8,3.5
	c-1.4-0.6-2.9-0.9-4.4-1c0.7,1.2,2,1.9,3.5,2.1l-2.5,1.4l1.1,1.2c-0.8,0.3-1.6,0.6-2.4,0.7c-2.2-1.8,2.2-8.6-1.8-8.3
	c0.1-0.3,0.3-0.7,0.6-1c-2.5-0.8,1.3,0.4,1.4-1.2c0.3,0.1,1.5-0.6-1.1-1.3c0.7-0.2,1.4-0.5,1.8-2.4c-0.7,0.3-1.2,0.7-1.7,1.2
	c-1.5-0.3-2.9,0-0.1-3.2l-3.2,1.3l1.2-2.2c-0.6-0.1-1.2,0-1.6,0.2c-0.4-1,0.7,0.3-1.1-4.8l1.1-0.2c-0.7-0.6-1.6-0.9-2.6-0.8
	c0.5-2.1,0.3-4.2-0.7-6.2c-0.2,2.1-0.2,4.2-0.2,6.3c-0.1,0.1-1.5-0.6-0.4,0.6c-0.4,0.4-0.5,1-0.3,1.4c-0.9,0.1-1.7-0.1-2.6-0.3
	c-1.2,0,5,2.1,0.3,2.2c0.1,0.3,0.4,0.6,0.7,0.7c-2,0.4-1.6-0.3-3.2-3.3c-4.3-1.6,2.6-9.1-2.5-8.7c0.1-0.4,0.4-0.7,0.7-1.1
	c-3.4-1.2,2.5,0.5,1.6-1.3c0.4,0.1,1.7-0.7-1.4-1.6c0.8-0.2,1.6-0.5,2-2.7c-0.8,0.3-1.4,0.8-1.9,1.4c-2.1-0.2-2.6-1-0.1-3.6
	l-3.5,1.7l1.3-2.4c-0.6-0.2-1.3,0-1.8,0.2c-0.2-0.5,0.4-1.2-1.3-5.4l1.2-0.2c-0.6-0.5-1.3-0.8-2.2-0.9c2.8-1.5-2.2-4.2,0-7.5
	c0.1-1.6,3.3-3.3-1.3-2.8c0.1-0.4,0.4-0.7,0.7-1.1c-3.4-1.4,2.2,0.6,1.6-1.3c0.4,0.1,1.7-0.7-1.3-1.6c0.8-0.2,1.6-0.5,2-2.7
	c-0.8,0.3-1.4,0.8-1.9,1.4c-2.1-0.2-2.6-1-0.1-3.6l-3.6,1.5c0.4-0.8,0.9-1.6,1.4-2.4c-0.6-0.2-1.3,0-1.8,0.2
	c-0.2-0.5,0.5-1.2-1.3-5.4l1.2-0.2c-0.7-0.7-1.8-1.1-2.9-0.9c0.6-2.3,0.3-4.8-0.8-7.1c-0.2,2.4-0.3,4.8-0.2,7.2
	c-0.1,0.1-1.7-0.7-0.5,0.6c-0.5,0.5-0.6,1.1-0.3,1.7c-1,0.1-2-0.1-2.9-0.4c-0.4,0.4,5.3,2.7,0.3,2.6c0.1,0.3,0.4,0.7,0.8,0.8
	l-6.5,0.7c0.2,1.5,9-0.3,2.4,2c0.4,0.3,1,0.5,1.6,0.4c-0.2,0.2-0.2,0.2,0.3,1.2c-0.1,0.2-1.3,0.3-0.1,1.8c-1.4-0.6-2.9-0.9-4.4-1
	c0.7,1.2,2,1.9,3.5,2.1l-2.5,1.4l1.1,1.2c-0.8,0.3-1.6,0.6-2.4,0.7c-2.2-1.8,2.2-8.7-1.8-8.3c0.1-0.3,0.3-0.7,0.6-1
	c-2.5-0.8,1.3,0.4,1.5-1.2c0.3,0.1,1.5-0.6-1.1-1.3c0.7-0.2,1.4-0.5,1.8-2.4c-0.7,0.3-1.2,0.7-1.7,1.2c-1.5-0.3-2.9,0-0.1-3.2
	c-0.3-0.2-1.8,1.4-2.8,0.7l0.8-1.5c-0.1,0-0.2-0.1-0.4-0.1c0.4-0.5,0.5-1.1,0.3-1.7c-0.6,0.3-1.2,0.7-1.7,1.2
	c0.2-0.4-0.6-0.7-0.3-3.3l-0.4,0.2c-0.1-0.2-0.2-0.6-0.4-0.8l1.1-0.2c-0.7-0.6-1.6-0.9-2.6-0.8c0.5-2.1,0.3-4.2-0.7-6.2
	c-0.2,2.1-0.2,4.2-0.2,6.3c-0.1,0-1.5-0.6-0.4,0.6c-0.1,0.1,0.1,0.2-0.4,0.3c-0.2-0.5,0.4-1.2-1.3-5.4l1.2-0.2
	c-0.7-0.7-1.8-1.1-2.9-1c0.6-2.3,0.3-4.8-0.8-7.1c-0.2,2.4-0.3,4.8-0.2,7.2l-0.9-0.2c-0.1,0.3,0.1,0.7,0.4,0.8
	c-0.5,0.5-0.6,1.1-0.3,1.7c-1,0.1-2-0.1-2.9-0.3c-0.4,0.4,5.3,2.7,0.3,2.5c0.1,0.3,0.4,0.7,0.8,0.8l-6.5,0.7c0.1,1.5,9-0.4,2.4,2
	c0.4,0.3,1,0.5,1.6,0.4c-0.2,0.2-0.2,0.2,0.3,1.2c-0.1,0.2-1.3,0.3-0.1,1.8c-1.4-0.6-2.9-0.9-4.4-1c0.7,1.2,2,1.9,3.5,2.1l-2.5,1.4
	l1.1,1.2c-0.8,0.3-1.6,0.6-2.4,0.7c-2.2-1.9,2.2-8.6-1.8-8.3c0.1-0.3,0.3-0.7,0.6-1c-2.5-0.8,1.3,0.4,1.4-1.2
	c0.3,0.1,1.5-0.6-1.1-1.3c0.7-0.2,1.4-0.5,1.8-2.4c-0.7,0.3-1.2,0.7-1.7,1.2c-1.5-0.3-2.9,0-0.1-3.2l-3.2,1.3l1.2-2.2
	c-0.6-0.1-1.2,0-1.6,0.2c-0.4-1,0.7,0.4-1.1-4.8l1.1-0.2c-0.7-0.6-1.6-0.9-2.6-0.8c0.5-2.1,0.3-4.2-0.7-6.2
	c-0.2,2.1-0.2,4.2-0.2,6.4c-0.1,0.1-1.5-0.6-0.4,0.5c-0.4,0.4-0.5,1-0.3,1.4c-0.9,0.1-1.7-0.1-2.6-0.3c-1.2,0,5,2.1,0.3,2.2
	c0.1,0.3,0.4,0.6,0.7,0.7l-5.8,0.7c-0.4,1.2,8.1-0.4,2.1,1.8c0.4,0.2,0.9,0.4,1.4,0.4c-0.2,0.2-0.2,0.1,0.3,1
	c-0.1,0.1-1.2,0.2-0.1,1.7c-1.3-0.5-2.6-0.8-4-0.8c0.6,1,1.8,1.7,3.1,1.8l-1.7,1c-0.6-0.2,0,0-1.8,0.2c-0.2-0.5,0.4-1.2-1.3-5.4
	l1.2-0.2c-0.7-0.7-1.8-1.1-2.9-1c0.6-2.3,0.3-4.8-0.8-7.1c-0.2,2.3-0.3,4.6-0.2,6.9c-0.5-0.2-0.9-0.2-1.4-0.2
	c0.6-2.3,0.3-4.8-0.8-7.1c-0.2,2.4-0.3,4.8-0.2,7.2c-0.1,0.1-1.7-0.7-0.5,0.6c-0.5,0.5-0.6,1.1-0.3,1.7c0,0-0.1,0.1-0.4-0.1
	c-0.8,0.2,0,0-2.5-0.3c3.1,2.1,1.4,1.5,1.1,3.4l-3.8,0.4c0.1-0.6,0.4-0.3-1.7-1.3c1.3-0.2,2.1-1.2,1.8-2.3c-0.7,0.3-1.2,0.7-1.7,1.2
	c-0.3-0.2-0.6-0.2-0.9-0.3c0.2-0.4,0.3-0.8,0.2-1.2c-0.4,0.2-0.8,0.4-1.1,0.7c0.3-0.6,0.5-0.4,1.8-2.3l-3.2,1.3l1.2-2.2
	c-0.6-0.1-1.2,0-1.6,0.2c-0.3-1,0.6,0.3-1.2-4.8l1.1-0.2c-0.7-0.6-1.6-0.9-2.6-0.8c0.5-2.1,0.3-4.2-0.7-6.2c-0.2,2-0.2,4.1-0.2,6.2
	c-0.5-0.2-1-0.2-1.5-0.2c0.5-2.1,0.3-4.2-0.7-6.2c-0.2,2.1-0.2,4.2-0.2,6.3c-0.1,0-1.5-0.6-0.4,0.6c-0.4,0.4-0.5,1-0.3,1.4
	c-1,0.1,0,0-2.5-0.3c-1.2,0,5,2.1,0.3,2.2c0.1,0.3,0.4,0.6,0.7,0.7l-5.8,0.7c0.9,0.9,1.3,0.2,4.2,1.2c-0.7,0.2-1.4,0.5-2.1,0.7
	c0.4,0.2,0.9,0.4,1.4,0.4c-0.2,0.2-0.2,0.2,0.3,1c-0.1,0-0.8,0.2-0.4,1.2c-0.4-0.1-0.7-0.1-1.1-0.1l0.1,0.1
	c-0.8-0.2-1.7-0.4-2.6-0.4c0.6,1,1.8,1.7,3.1,1.9l-2.2,1.2l1,1c-1.5,0.7-3.2,0.9-4.9,0.7c0.9,0.9,2,1.8,3.2,2.5
	c-4.4-0.6-2.4,0.7-1.3,4.2c-0.9,0.1-9.4,0.1-10.3,0.2V333v98h549.3V247.4L539.3,239.2z M317.9,223.3l0.1,0.2c-0.1,0-0.1,0.1-0.2,0.1
	C317.9,223.5,317.9,223.4,317.9,223.3z"/>
<linearGradient id="SVGID_5_" gradientUnits="userSpaceOnUse" x1="109.9079" y1="-539.0325" x2="168.1989" y2="-435.8376" gradientTransform="matrix(1 0 0 -1 -14.31 -343.69)">
	<stop  offset="2.000000e-02" style="stop-color:#FFFFFF;stop-opacity:0"/>
	<stop  offset="0.58" style="stop-color:#FFFFFF;stop-opacity:0.39"/>
	<stop  offset="0.68" style="stop-color:#FFFFFF;stop-opacity:0.68"/>
	<stop  offset="1" style="stop-color:#FFFFFF"/>
</linearGradient>
<path class="st5" d="M88.3,135.5c-2.3,2.2-4.2,4.7-7,6.3c-7.1,4.2-16.5,1.5-24.7,2.9c-4.3,0.7-8.2,2.6-12.3,4.2
	c-14,5.5-29.2,7.7-44.4,9.9c18.3,11.4,40.6,16.2,62.5,13.5l-2.6,8.3c17.1,8.6,37.5,9,55,1.1c-0.3,11.5,17,19.5,26.9,12.5
	c1.8-1.3,3.5-3,5.8-3.5c2.7-0.6,5.4,0.6,8.1,1.5c13.3,4.8,28.3,2,42.2-0.9c7.1-1.4,14.5-3.1,19.8-7.7s7.1-13.2,1.8-17.8
	c10-2.2,10.6-16.7,2.8-22.8c-7.8-6.2-19.2-6.4-29.4-5.9c-4.4-10.3-9.6-21.5-20.5-26.4c-13.9-6.3-24.2,7.5-35.9,10.4
	C118.8,125.6,102.5,121.6,88.3,135.5z"/>
<linearGradient id="SVGID_6_" gradientUnits="userSpaceOnUse" x1="331.5532" y1="-561.2761" x2="390.6887" y2="-456.5864" gradientTransform="matrix(1 0 0 -1 -14.31 -343.69)">
	<stop  offset="2.000000e-02" style="stop-color:#FFFFFF;stop-opacity:0"/>
	<stop  offset="0.58" style="stop-color:#FFFFFF;stop-opacity:0.39"/>
	<stop  offset="0.68" style="stop-color:#FFFFFF;stop-opacity:0.68"/>
	<stop  offset="1" style="stop-color:#FFFFFF"/>
</linearGradient>
<path class="st6" d="M309.9,156.9c-2.3,2.2-4.3,4.7-7.2,6.3c-7.2,4.2-16.8,1.5-25.2,2.9c-4.4,0.7-8.4,2.6-12.5,4.2
	c-14.3,5.5-29.9,7.7-45.3,9.9c18.7,11.4,41.5,16.2,63.8,13.5l-2.7,8.3c17.4,8.6,38.4,9,56.2,1.1c-0.3,11.5,17.3,19.5,27.5,12.5
	c1.9-1.3,3.6-3,5.9-3.5c2.8-0.6,5.5,0.6,8.2,1.5c13.6,4.8,28.9,2,43.1-0.9c7.2-1.4,14.8-3.1,20.2-7.7c5.4-4.6,7.2-13.2,1.8-17.8
	c10.2-2.2,10.8-16.7,2.9-22.8c-8-6.2-19.6-6.4-30-5.9c-4.5-10.3-9.8-21.5-20.9-26.4c-14.2-6.3-24.7,7.5-36.7,10.4
	C341,147,324.4,143.1,309.9,156.9z"/>
<linearGradient id="SVGID_7_" gradientUnits="userSpaceOnUse" x1="236.6865" y1="-469.8571" x2="290.6665" y2="-374.2969" gradientTransform="matrix(1 0 0 -1 -14.31 -343.69)">
	<stop  offset="2.000000e-02" style="stop-color:#FFFFFF;stop-opacity:0"/>
	<stop  offset="0.58" style="stop-color:#FFFFFF;stop-opacity:0.39"/>
	<stop  offset="0.68" style="stop-color:#FFFFFF;stop-opacity:0.68"/>
	<stop  offset="1" style="stop-color:#FFFFFF"/>
</linearGradient>
<path class="st7" d="M215.5,70.5c-2,2.1-3.8,4.6-6.3,6.2c-6.3,4.1-14.8,1.5-22.2,2.8c-3.8,0.7-7.4,2.5-11,4
	c-12.6,5.4-26.3,7.6-39.8,9.7c16.4,11.2,36.4,15.9,56.1,13.3l-2.3,8.1c15.3,8.3,33.6,8.7,49.2,1.1c-0.2,11.3,15.2,19.1,24.1,12.3
	c1.7-1.3,3.1-2.9,5.2-3.4c2.4-0.6,4.9,0.6,7.2,1.5c11.9,4.7,25.3,1.9,37.9-0.9c6.4-1.4,13.1-3,17.8-7.6c4.7-4.6,6.3-12.9,1.6-17.4
	c9-2.2,9.5-16.3,2.5-22.4s-17.2-6.3-26.4-5.8c-3.9-10.1-8.6-21.1-18.4-25.9c-12.5-6.2-21.7,7.3-32.3,10.2
	C242.8,60.8,228.1,57,215.5,70.5z"/>
<linearGradient id="SVGID_8_" gradientUnits="userSpaceOnUse" x1="108.2912" y1="-437.0498" x2="157.6512" y2="-349.6596" gradientTransform="matrix(1 0 0 -1 -14.31 -343.69)">
	<stop  offset="2.000000e-02" style="stop-color:#FFFFFF;stop-opacity:0"/>
	<stop  offset="0.58" style="stop-color:#FFFFFF;stop-opacity:0.39"/>
	<stop  offset="0.68" style="stop-color:#FFFFFF;stop-opacity:0.68"/>
	<stop  offset="1" style="stop-color:#FFFFFF"/>
</linearGradient>
<path class="st8" d="M87.5,42.4c-1.8,2-3.5,4.2-5.7,5.7c-5.8,3.8-13.5,1.3-20.3,2.6c-3.5,0.6-6.8,2.3-10,3.7
	c-11.5,4.9-24,6.9-36.4,8.9c15,10.2,33.3,14.5,51.3,12.1l-2.1,7.4c14,7.6,30.7,8,45,1c-0.2,10.3,13.9,17.4,22.1,11.2
	c1.5-1.1,2.9-2.7,4.7-3.1c2.2-0.6,4.5,0.6,6.6,1.4c10.9,4.3,23.2,1.8,34.6-0.8c5.8-1.3,12-2.8,16.3-6.9s5.8-11.8,1.4-15.9
	c8.2-2,8.7-14.9,2.3-20.5s-15.7-5.8-24.1-5.3c-3.6-9.2-7.9-19.3-16.8-23.7c-11.4-5.7-19.8,6.7-29.5,9.4C112.5,33.5,99,30,87.5,42.4z
	"/>
<linearGradient id="SVGID_9_" gradientUnits="userSpaceOnUse" x1="281.8" y1="-288.1" x2="281.8" y2="-288.1" gradientTransform="matrix(1 0 0 1 0 536)">
	<stop  offset="1.000000e-02" style="stop-color:#000000"/>
	<stop  offset="0.13" style="stop-color:#000000;stop-opacity:0.69"/>
	<stop  offset="1" style="stop-color:#000000;stop-opacity:0"/>
</linearGradient>
<path class="st9" d="M281.8,247.9"/>
<linearGradient id="SVGID_10_" gradientUnits="userSpaceOnUse" x1="363.5416" y1="-444.8841" x2="422.677" y2="-340.1944" gradientTransform="matrix(1 0 0 -1 -14.31 -343.69)">
	<stop  offset="2.000000e-02" style="stop-color:#FFFFFF;stop-opacity:0"/>
	<stop  offset="0.58" style="stop-color:#FFFFFF;stop-opacity:0.39"/>
	<stop  offset="0.68" style="stop-color:#FFFFFF;stop-opacity:0.68"/>
	<stop  offset="1" style="stop-color:#FFFFFF"/>
</linearGradient>
<path class="st10" d="M341.9,40.5c-2.3,2.2-4.3,4.7-7.2,6.3c-7.2,4.2-16.8,1.5-25.2,2.9c-4.4,0.7-8.4,2.6-12.5,4.2
	c-14.3,5.5-29.9,7.7-45.3,9.9c18.7,11.4,41.5,16.2,63.8,13.5l-2.7,8.3c17.4,8.6,38.4,9,56.2,1.1c-0.3,11.5,17.3,19.5,27.5,12.5
	c1.9-1.3,3.6-3,5.9-3.5c2.8-0.6,5.5,0.6,8.2,1.5c13.6,4.8,28.9,2,43.1-0.9c7.2-1.4,14.8-3.1,20.2-7.7c5.4-4.6,7.2-13.2,1.8-17.8
	c10.2-2.2,10.8-16.7,2.9-22.8c-8-6.2-19.6-6.4-30-5.9c-4.5-10.3-9.8-21.5-20.9-26.4c-14.2-6.3-24.7,7.5-36.7,10.4
	C373,30.6,356.4,26.7,341.9,40.5z"/>
<g>
	<path class="st11" d="M96.4,68.3c-0.2-0.3-0.3-0.6-0.3-1.1V52.7c0-0.5,0.1-0.9,0.3-1.1c0.2-0.3,0.5-0.4,0.8-0.4h6.3
		c0.3,0,0.6,0.1,0.8,0.3c0.2,0.2,0.3,0.5,0.3,0.9c0,0.4-0.1,0.7-0.3,1c-0.2,0.2-0.5,0.3-0.8,0.3h-5.2v4.8h4.9c0.3,0,0.6,0.1,0.8,0.3
		c0.2,0.2,0.3,0.5,0.3,0.9c0,0.4-0.1,0.7-0.3,0.9c-0.2,0.2-0.5,0.3-0.8,0.3h-4.9v5.1h5.2c0.3,0,0.6,0.1,0.8,0.3
		c0.2,0.2,0.3,0.5,0.3,1c0,0.4-0.1,0.7-0.3,0.9c-0.2,0.2-0.5,0.3-0.8,0.3h-6.3C96.9,68.7,96.6,68.6,96.4,68.3z"/>
	<path class="st11" d="M107.8,68.1c-0.6-0.5-1.2-1.2-1.5-2.2c-0.4-0.9-0.5-2-0.5-3.3c0-1.3,0.2-2.4,0.6-3.3s0.9-1.7,1.6-2.2
		c0.7-0.5,1.4-0.8,2.3-0.8c0.5,0,0.9,0.1,1.4,0.3s0.9,0.4,1.2,0.7c0.4,0.3,0.6,0.8,0.6,1.3c0,0.4-0.1,0.7-0.2,0.9s-0.3,0.3-0.5,0.3
		c-0.1,0-0.3,0-0.4-0.1s-0.3-0.2-0.4-0.3c-0.3-0.2-0.5-0.4-0.7-0.5c-0.2-0.1-0.5-0.2-0.8-0.2c-0.7,0-1.3,0.3-1.7,1
		c-0.4,0.7-0.6,1.6-0.6,2.9c0,1.2,0.2,2.2,0.6,2.9c0.4,0.7,1,1,1.7,1c0.3,0,0.6-0.1,0.8-0.2c0.2-0.1,0.5-0.3,0.8-0.5
		c0.2-0.1,0.3-0.3,0.5-0.3s0.3-0.1,0.4-0.1c0.2,0,0.3,0.1,0.5,0.3c0.1,0.2,0.2,0.5,0.2,0.9c0,0.3,0,0.5-0.1,0.7
		c-0.1,0.2-0.2,0.4-0.4,0.6c-0.4,0.3-0.8,0.6-1.3,0.8c-0.5,0.2-1,0.3-1.5,0.3C109.2,68.9,108.5,68.6,107.8,68.1z"/>
	<path class="st11" d="M116.5,68.1c-0.7-0.5-1.2-1.2-1.5-2.2c-0.4-1-0.5-2.1-0.5-3.3c0-1.3,0.2-2.4,0.5-3.3c0.4-0.9,0.9-1.7,1.5-2.2
		c0.7-0.5,1.4-0.8,2.3-0.8c0.9,0,1.6,0.3,2.3,0.8c0.7,0.5,1.2,1.2,1.5,2.2c0.4,0.9,0.5,2.1,0.5,3.3c0,1.3-0.2,2.4-0.5,3.3
		c-0.4,1-0.9,1.7-1.5,2.2c-0.7,0.5-1.4,0.8-2.3,0.8C117.9,68.9,117.1,68.6,116.5,68.1z M120.4,65.5c0.4-0.7,0.6-1.6,0.6-2.9
		c0-1.3-0.2-2.2-0.6-2.9c-0.4-0.7-0.9-1-1.6-1s-1.2,0.3-1.6,1s-0.6,1.6-0.6,2.9c0,1.3,0.2,2.3,0.6,2.9c0.4,0.7,0.9,1,1.6,1
		C119.5,66.5,120,66.2,120.4,65.5z"/>
	<path class="st11" d="M128.1,54.2c-0.2,0.4-0.4,1-0.4,1.8v0.6h1.5c0.7,0,1,0.4,1,1.2c0,0.8-0.3,1.2-1,1.2h-1.5v8.4
		c0,0.5-0.1,0.8-0.3,1.1c-0.2,0.2-0.5,0.4-0.8,0.4c-0.3,0-0.6-0.1-0.8-0.4c-0.2-0.2-0.3-0.6-0.3-1.1v-8.4h-0.9c-0.7,0-1-0.4-1-1.2
		c0-0.8,0.3-1.2,1-1.2h0.9v-0.2c0-1.6,0.3-2.8,0.9-3.7s1.4-1.4,2.5-1.5l0.5,0c0.5,0,0.8,0,1,0.2c0.2,0.2,0.3,0.5,0.3,0.9
		c0,0.7-0.3,1.1-0.9,1.2l-0.5,0C128.7,53.6,128.3,53.8,128.1,54.2z"/>
	<path class="st11" d="M136.7,56.6c0.2,0.2,0.3,0.5,0.3,1c0,0.4-0.1,0.8-0.2,1c-0.2,0.2-0.4,0.4-0.8,0.4l-0.5,0.1
		c-0.7,0.1-1.2,0.4-1.5,1c-0.3,0.6-0.5,1.3-0.5,2.1v5.2c0,0.5-0.1,0.8-0.3,1.1c-0.2,0.3-0.5,0.4-0.8,0.4c-0.3,0-0.6-0.1-0.8-0.4
		c-0.2-0.3-0.3-0.6-0.3-1.1v-9.6c0-0.5,0.1-0.8,0.3-1.1c0.2-0.2,0.5-0.4,0.8-0.4s0.6,0.1,0.7,0.4c0.2,0.2,0.3,0.6,0.3,1v1
		c0.2-0.7,0.6-1.3,1-1.7s0.9-0.6,1.5-0.7l0.2,0C136.3,56.3,136.5,56.4,136.7,56.6z"/>
	<path class="st11" d="M138.1,53.7c-0.2-0.3-0.4-0.7-0.4-1.2s0.1-0.9,0.4-1.2c0.2-0.3,0.6-0.4,0.9-0.4c0.4,0,0.7,0.1,0.9,0.4
		c0.2,0.3,0.4,0.7,0.4,1.2s-0.1,0.9-0.4,1.2c-0.2,0.3-0.6,0.5-0.9,0.5S138.3,54,138.1,53.7z M138.2,68.4c-0.2-0.3-0.3-0.6-0.3-1.1
		v-9.6c0-0.5,0.1-0.8,0.3-1.1c0.2-0.2,0.5-0.4,0.8-0.4c0.3,0,0.6,0.1,0.8,0.4s0.3,0.6,0.3,1.1v9.6c0,0.5-0.1,0.8-0.3,1.1
		c-0.2,0.3-0.5,0.4-0.8,0.4C138.7,68.8,138.4,68.7,138.2,68.4z"/>
	<path class="st11" d="M149.7,65.7c0.1,0.2,0.2,0.5,0.2,0.9c0,0.5-0.2,0.9-0.6,1.3c-0.4,0.3-0.8,0.6-1.4,0.8c-0.5,0.2-1,0.3-1.4,0.3
		c-1.4,0-2.5-0.6-3.3-1.7c-0.8-1.1-1.2-2.7-1.2-4.6c0-1.2,0.2-2.3,0.5-3.3s0.8-1.7,1.5-2.2c0.6-0.5,1.4-0.8,2.2-0.8
		c0.8,0,1.4,0.2,2,0.7c0.6,0.5,1,1.2,1.3,2c0.3,0.9,0.5,1.9,0.5,3.1c0,0.7-0.2,1.1-0.7,1.1h-5.2c0.1,1.1,0.3,2,0.7,2.5
		c0.4,0.5,0.9,0.8,1.7,0.8c0.4,0,0.7-0.1,1-0.2c0.3-0.1,0.6-0.3,1-0.5c0.4-0.3,0.6-0.4,0.8-0.4C149.4,65.4,149.5,65.5,149.7,65.7z
		 M144.7,59.3c-0.4,0.5-0.6,1.3-0.6,2.3h4c0-1-0.2-1.8-0.5-2.3c-0.3-0.5-0.8-0.8-1.4-0.8C145.5,58.5,145.1,58.7,144.7,59.3z"/>
	<path class="st11" d="M159,57.5c0.5,0.8,0.8,2.1,0.8,3.7v6.1c0,0.5-0.1,0.8-0.3,1.1c-0.2,0.3-0.5,0.4-0.8,0.4
		c-0.3,0-0.6-0.1-0.8-0.4s-0.3-0.6-0.3-1.1v-5.9c0-0.9-0.1-1.6-0.4-2.1s-0.6-0.6-1.2-0.6c-0.6,0-1.1,0.3-1.5,0.8
		c-0.4,0.6-0.6,1.3-0.6,2.3v5.5c0,0.5-0.1,0.8-0.3,1.1s-0.5,0.4-0.8,0.4c-0.3,0-0.6-0.1-0.8-0.4c-0.2-0.3-0.3-0.6-0.3-1.1v-9.6
		c0-0.4,0.1-0.8,0.3-1c0.2-0.3,0.5-0.4,0.8-0.4c0.3,0,0.6,0.1,0.7,0.4c0.2,0.3,0.3,0.6,0.3,1v0.7c0.3-0.7,0.7-1.2,1.2-1.6
		c0.5-0.4,1-0.5,1.7-0.5C157.7,56.3,158.5,56.7,159,57.5z"/>
	<path class="st11" d="M170,51.5c0.2,0.3,0.3,0.6,0.3,1v14.8c0,0.4-0.1,0.8-0.3,1.1c-0.2,0.3-0.5,0.4-0.8,0.4s-0.6-0.1-0.8-0.4
		c-0.2-0.3-0.3-0.6-0.3-1.1v-0.6c-0.3,0.7-0.6,1.2-1.1,1.6s-1,0.6-1.7,0.6c-0.7,0-1.4-0.3-2-0.8c-0.6-0.5-1-1.3-1.4-2.2
		c-0.3-1-0.5-2.1-0.5-3.3c0-1.3,0.2-2.4,0.5-3.3c0.3-0.9,0.8-1.7,1.3-2.2c0.6-0.5,1.2-0.8,2-0.8c0.6,0,1.2,0.2,1.7,0.5
		c0.5,0.4,0.8,0.9,1.1,1.5v-5.9c0-0.4,0.1-0.7,0.3-1c0.2-0.3,0.5-0.4,0.8-0.4S169.8,51.2,170,51.5z M167.5,65.5
		c0.4-0.7,0.6-1.6,0.6-2.9c0-1.3-0.2-2.2-0.6-2.9c-0.4-0.7-0.9-1-1.6-1c-0.7,0-1.2,0.3-1.6,1c-0.4,0.7-0.6,1.6-0.6,2.8
		c0,1.3,0.2,2.2,0.6,2.9c0.4,0.7,0.9,1,1.6,1C166.6,66.5,167.1,66.1,167.5,65.5z"/>
	<path class="st11" d="M172.9,68.4c-0.2-0.3-0.3-0.6-0.3-1.1V52.6c0-0.5,0.1-0.8,0.3-1.1c0.2-0.2,0.5-0.4,0.8-0.4
		c0.3,0,0.6,0.1,0.8,0.4s0.3,0.6,0.3,1.1v14.8c0,0.5-0.1,0.8-0.3,1.1c-0.2,0.3-0.5,0.4-0.8,0.4C173.3,68.8,173.1,68.7,172.9,68.4z"
		/>
	<path class="st11" d="M183.4,56.6c0.2-0.1,0.3-0.2,0.5-0.2c0.3,0,0.5,0.1,0.7,0.4c0.2,0.3,0.3,0.6,0.3,1c0,0.2,0,0.4-0.1,0.6
		L180,72.4c-0.2,0.6-0.5,0.8-0.9,0.8c-0.3,0-0.5-0.1-0.7-0.4c-0.2-0.2-0.3-0.5-0.3-0.9c0-0.2,0-0.4,0.1-0.6l1.2-3.5l-3.3-9.6
		c-0.1-0.2-0.1-0.4-0.1-0.6c0-0.4,0.1-0.7,0.3-1c0.2-0.3,0.5-0.4,0.8-0.4c0.2,0,0.4,0.1,0.5,0.2c0.2,0.1,0.3,0.4,0.4,0.7l2.5,7.6
		l2.4-7.6C183.1,56.9,183.2,56.7,183.4,56.6z"/>
</g>
<g>
	<path class="st11" d="M330.5,183.6c-0.2-0.3-0.3-0.7-0.3-1.2v-14.5c0-0.5,0.1-0.9,0.3-1.2c0.2-0.3,0.5-0.4,0.8-0.4
		c0.4,0,0.6,0.1,0.8,0.4c0.2,0.3,0.3,0.7,0.3,1.2v14.5c0,0.5-0.1,0.9-0.3,1.2c-0.2,0.3-0.5,0.4-0.8,0.4
		C331,184,330.7,183.9,330.5,183.6z"/>
	<path class="st11" d="M342.3,172.7c0.5,0.8,0.8,2.1,0.8,3.7v6.1c0,0.5-0.1,0.8-0.3,1.1s-0.5,0.4-0.8,0.4c-0.3,0-0.6-0.1-0.8-0.4
		s-0.3-0.6-0.3-1.1v-5.9c0-0.9-0.1-1.6-0.4-2.1s-0.6-0.6-1.2-0.6c-0.6,0-1.1,0.3-1.5,0.8c-0.4,0.6-0.6,1.3-0.6,2.3v5.5
		c0,0.5-0.1,0.8-0.3,1.1s-0.5,0.4-0.8,0.4c-0.3,0-0.6-0.1-0.8-0.4s-0.3-0.6-0.3-1.1V173c0-0.4,0.1-0.8,0.3-1
		c0.2-0.3,0.5-0.4,0.8-0.4c0.3,0,0.6,0.1,0.7,0.4c0.2,0.3,0.3,0.6,0.3,1v0.7c0.3-0.7,0.7-1.2,1.2-1.6c0.5-0.4,1-0.5,1.7-0.5
		C341,171.5,341.8,171.9,342.3,172.7z"/>
	<path class="st11" d="M352.5,172.7c0.5,0.8,0.8,2.1,0.8,3.7v6.1c0,0.5-0.1,0.8-0.3,1.1s-0.5,0.4-0.8,0.4c-0.3,0-0.6-0.1-0.8-0.4
		s-0.3-0.6-0.3-1.1v-5.9c0-0.9-0.1-1.6-0.4-2.1s-0.6-0.6-1.2-0.6c-0.6,0-1.1,0.3-1.5,0.8c-0.4,0.6-0.6,1.3-0.6,2.3v5.5
		c0,0.5-0.1,0.8-0.3,1.1s-0.5,0.4-0.8,0.4c-0.3,0-0.6-0.1-0.8-0.4s-0.3-0.6-0.3-1.1V173c0-0.4,0.1-0.8,0.3-1
		c0.2-0.3,0.5-0.4,0.8-0.4c0.3,0,0.6,0.1,0.7,0.4c0.2,0.3,0.3,0.6,0.3,1v0.7c0.3-0.7,0.7-1.2,1.2-1.6c0.5-0.4,1-0.5,1.7-0.5
		C351.3,171.5,352,171.9,352.5,172.7z"/>
	<path class="st11" d="M357.1,183.3c-0.7-0.5-1.2-1.2-1.5-2.2c-0.4-1-0.5-2.1-0.5-3.3c0-1.3,0.2-2.4,0.5-3.3
		c0.4-0.9,0.9-1.7,1.5-2.2c0.7-0.5,1.4-0.8,2.3-0.8c0.9,0,1.6,0.3,2.3,0.8c0.7,0.5,1.2,1.2,1.5,2.2c0.4,0.9,0.5,2.1,0.5,3.3
		c0,1.3-0.2,2.4-0.5,3.3c-0.4,1-0.9,1.7-1.5,2.2c-0.7,0.5-1.4,0.8-2.3,0.8C358.6,184.1,357.8,183.8,357.1,183.3z M361.1,180.7
		c0.4-0.7,0.6-1.6,0.6-2.9c0-1.3-0.2-2.2-0.6-2.9s-0.9-1-1.6-1c-0.7,0-1.2,0.3-1.6,1c-0.4,0.7-0.6,1.6-0.6,2.9
		c0,1.3,0.2,2.3,0.6,2.9c0.4,0.7,0.9,1,1.6,1C360.1,181.7,360.7,181.4,361.1,180.7z"/>
	<path class="st11" d="M371.8,171.8c0.2-0.1,0.3-0.2,0.5-0.2c0.3,0,0.5,0.1,0.7,0.4c0.2,0.3,0.3,0.6,0.3,1c0,0.2,0,0.4-0.1,0.6
		l-3.2,9.6c-0.1,0.3-0.3,0.6-0.4,0.7c-0.2,0.2-0.4,0.2-0.6,0.2c-0.2,0-0.4-0.1-0.6-0.2c-0.2-0.2-0.4-0.4-0.5-0.7l-3.3-9.6
		c-0.1-0.2-0.1-0.4-0.1-0.6c0-0.4,0.1-0.7,0.3-1c0.2-0.3,0.5-0.4,0.8-0.4c0.4,0,0.7,0.3,0.9,0.9l2.5,7.6l2.4-7.6
		C371.6,172.1,371.7,171.9,371.8,171.8z"/>
	<path class="st11" d="M381,172.7c0.6,0.8,0.9,2.1,0.9,3.8v6c0,0.4-0.1,0.8-0.3,1.1c-0.2,0.3-0.4,0.4-0.8,0.4
		c-0.3,0-0.6-0.1-0.7-0.4c-0.2-0.3-0.3-0.6-0.3-1V182c-0.2,0.6-0.5,1.1-0.9,1.5c-0.4,0.4-0.9,0.5-1.5,0.5c-0.6,0-1.1-0.2-1.6-0.5
		c-0.5-0.3-0.8-0.8-1.1-1.4c-0.3-0.6-0.4-1.2-0.4-1.9c0-0.9,0.2-1.6,0.5-2.1c0.3-0.5,0.8-0.9,1.6-1.1c0.7-0.2,1.7-0.3,3-0.3h0.4
		v-0.6c0-0.8-0.1-1.4-0.4-1.8c-0.2-0.4-0.6-0.6-1.2-0.6c-0.3,0-0.7,0.1-1,0.2c-0.4,0.1-0.8,0.3-1.2,0.6c-0.3,0.2-0.5,0.3-0.7,0.3
		c-0.2,0-0.4-0.1-0.5-0.3s-0.2-0.5-0.2-0.8c0-0.3,0-0.5,0.1-0.7c0.1-0.2,0.3-0.4,0.5-0.6c0.4-0.3,0.9-0.6,1.5-0.7
		c0.6-0.2,1.1-0.3,1.7-0.3C379.5,171.5,380.4,171.9,381,172.7z M379.2,181c0.4-0.6,0.6-1.3,0.6-2.1v-0.5h-0.3c-0.8,0-1.4,0-1.8,0.1
		c-0.4,0.1-0.7,0.3-0.9,0.5c-0.2,0.2-0.3,0.6-0.3,1c0,0.5,0.1,1,0.4,1.3c0.3,0.3,0.6,0.5,1,0.5C378.4,181.9,378.8,181.6,379.2,181z"
		/>
	<path class="st11" d="M389.4,182.9c0,0.4-0.1,0.7-0.3,0.9s-0.6,0.3-1,0.3l-0.5,0c-2-0.2-3-1.7-3-4.5v-5.4h-0.9
		c-0.3,0-0.6-0.1-0.7-0.3c-0.2-0.2-0.3-0.5-0.3-0.9c0-0.4,0.1-0.7,0.3-0.9c0.2-0.2,0.4-0.3,0.7-0.3h0.9v-2.3c0-0.4,0.1-0.8,0.3-1.1
		c0.2-0.3,0.5-0.4,0.8-0.4c0.3,0,0.6,0.1,0.8,0.4c0.2,0.3,0.3,0.6,0.3,1.1v2.3h1.5c0.3,0,0.6,0.1,0.7,0.3c0.2,0.2,0.3,0.5,0.3,0.9
		c0,0.4-0.1,0.7-0.3,0.9c-0.2,0.2-0.4,0.3-0.7,0.3h-1.5v5.6c0,1.2,0.4,1.9,1.2,2l0.5,0C389.1,181.8,389.4,182.2,389.4,182.9z"/>
	<path class="st11" d="M390.7,168.9c-0.2-0.3-0.4-0.7-0.4-1.2s0.1-0.9,0.4-1.2c0.2-0.3,0.5-0.4,0.9-0.4c0.4,0,0.7,0.1,0.9,0.4
		c0.2,0.3,0.4,0.7,0.4,1.2s-0.1,0.9-0.4,1.2s-0.6,0.5-0.9,0.5C391.3,169.3,390.9,169.2,390.7,168.9z M390.9,183.7
		c-0.2-0.3-0.3-0.6-0.3-1.1V173c0-0.5,0.1-0.8,0.3-1.1c0.2-0.2,0.5-0.4,0.8-0.4s0.6,0.1,0.8,0.4s0.3,0.6,0.3,1.1v9.6
		c0,0.5-0.1,0.8-0.3,1.1c-0.2,0.3-0.5,0.4-0.8,0.4S391.1,183.9,390.9,183.7z"/>
	<path class="st11" d="M401.4,171.8c0.2-0.1,0.3-0.2,0.5-0.2c0.3,0,0.5,0.1,0.7,0.4c0.2,0.3,0.3,0.6,0.3,1c0,0.2,0,0.4-0.1,0.6
		l-3.2,9.6c-0.1,0.3-0.3,0.6-0.4,0.7c-0.2,0.2-0.4,0.2-0.6,0.2c-0.2,0-0.4-0.1-0.6-0.2c-0.2-0.2-0.4-0.4-0.5-0.7l-3.3-9.6
		c-0.1-0.2-0.1-0.4-0.1-0.6c0-0.4,0.1-0.7,0.3-1c0.2-0.3,0.5-0.4,0.8-0.4c0.4,0,0.7,0.3,0.9,0.9l2.5,7.6l2.4-7.6
		C401.1,172.1,401.2,171.9,401.4,171.8z"/>
	<path class="st11" d="M411.4,180.9c0.1,0.2,0.2,0.5,0.2,0.9c0,0.5-0.2,0.9-0.6,1.3c-0.4,0.3-0.8,0.6-1.4,0.8
		c-0.5,0.2-1,0.3-1.4,0.3c-1.4,0-2.5-0.6-3.3-1.7c-0.8-1.1-1.2-2.7-1.2-4.6c0-1.2,0.2-2.3,0.5-3.3c0.4-1,0.8-1.7,1.5-2.2
		c0.6-0.5,1.4-0.8,2.2-0.8c0.8,0,1.4,0.2,2,0.7c0.6,0.5,1,1.2,1.3,2c0.3,0.9,0.5,1.9,0.5,3.1c0,0.7-0.2,1.1-0.7,1.1h-5.2
		c0.1,1.1,0.3,2,0.7,2.5c0.4,0.5,0.9,0.8,1.7,0.8c0.4,0,0.7-0.1,1-0.2c0.3-0.1,0.6-0.3,1-0.5c0.4-0.3,0.6-0.4,0.8-0.4
		C411.1,180.6,411.3,180.7,411.4,180.9z M406.4,174.5c-0.4,0.5-0.6,1.3-0.6,2.3h4c0-1-0.2-1.8-0.5-2.3s-0.8-0.8-1.4-0.8
		C407.3,173.7,406.8,173.9,406.4,174.5z"/>
</g>
<g>
	<path class="st11" d="M362.5,67.1c-0.2-0.3-0.3-0.6-0.3-1.1V51.6c0-0.5,0.1-0.9,0.3-1.1c0.2-0.3,0.5-0.4,0.8-0.4h6.3
		c0.3,0,0.6,0.1,0.8,0.3c0.2,0.2,0.3,0.5,0.3,0.9c0,0.4-0.1,0.7-0.3,1c-0.2,0.2-0.5,0.3-0.8,0.3h-5.2v4.8h4.9c0.3,0,0.6,0.1,0.8,0.3
		c0.2,0.2,0.3,0.5,0.3,0.9c0,0.4-0.1,0.7-0.3,0.9c-0.2,0.2-0.5,0.3-0.8,0.3h-4.9V65h5.2c0.3,0,0.6,0.1,0.8,0.3
		c0.2,0.2,0.3,0.5,0.3,1c0,0.4-0.1,0.7-0.3,0.9c-0.2,0.2-0.5,0.3-0.8,0.3h-6.3C363,67.5,362.7,67.4,362.5,67.1z"/>
	<path class="st11" d="M379.7,56.3c0.5,0.8,0.8,2.1,0.8,3.7v6.1c0,0.5-0.1,0.8-0.3,1.1c-0.2,0.3-0.5,0.4-0.8,0.4s-0.6-0.1-0.8-0.4
		s-0.3-0.6-0.3-1.1v-5.9c0-0.9-0.1-1.6-0.4-2.1s-0.6-0.6-1.2-0.6c-0.6,0-1.1,0.3-1.5,0.8c-0.4,0.6-0.6,1.3-0.6,2.3v5.5
		c0,0.5-0.1,0.8-0.3,1.1s-0.5,0.4-0.8,0.4s-0.6-0.1-0.8-0.4c-0.2-0.3-0.3-0.6-0.3-1.1v-9.6c0-0.4,0.1-0.8,0.3-1
		c0.2-0.3,0.5-0.4,0.8-0.4c0.3,0,0.6,0.1,0.7,0.4c0.2,0.3,0.3,0.6,0.3,1v0.7c0.3-0.7,0.7-1.2,1.2-1.6c0.5-0.4,1-0.5,1.7-0.5
		C378.4,55.1,379.2,55.5,379.7,56.3z"/>
	<path class="st11" d="M390.7,55.6c0.2,0.3,0.3,0.6,0.3,1.1v9.8c0,1.9-0.4,3.3-1.1,4.3c-0.7,1-1.9,1.5-3.3,1.5c-1.3,0-2.3-0.3-3.2-1
		c-0.4-0.4-0.7-0.8-0.7-1.3c0-0.4,0.1-0.7,0.2-0.9c0.1-0.2,0.3-0.3,0.5-0.3c0.1,0,0.2,0,0.4,0.1s0.3,0.2,0.5,0.3
		c0.4,0.2,0.8,0.4,1.1,0.6c0.3,0.1,0.7,0.2,1.2,0.2c1.5,0,2.3-1.1,2.3-3.2V65c-0.3,0.7-0.6,1.2-1.1,1.6c-0.5,0.4-1.1,0.6-1.7,0.6
		c-0.8,0-1.4-0.3-2-0.8c-0.6-0.5-1-1.2-1.4-2.1s-0.5-2-0.5-3.1c0-1.2,0.2-2.2,0.5-3.2s0.8-1.6,1.4-2.1c0.6-0.5,1.3-0.8,2-0.8
		c0.6,0,1.2,0.2,1.7,0.6c0.5,0.4,0.9,0.9,1.1,1.6v-0.6c0-0.4,0.1-0.8,0.3-1c0.2-0.3,0.5-0.4,0.8-0.4
		C390.2,55.2,390.5,55.3,390.7,55.6z M388.2,63.8c0.4-0.6,0.6-1.5,0.6-2.6c0-1.1-0.2-2-0.6-2.7c-0.4-0.6-0.9-1-1.6-1
		c-0.7,0-1.2,0.3-1.6,1c-0.4,0.6-0.6,1.5-0.6,2.7c0,1.1,0.2,2,0.6,2.6c0.4,0.6,0.9,1,1.6,1C387.3,64.8,387.8,64.4,388.2,63.8z"/>
	<path class="st11" d="M399.7,56.4c0.6,0.8,0.9,2.1,0.9,3.8v6c0,0.4-0.1,0.8-0.3,1.1c-0.2,0.3-0.4,0.4-0.8,0.4
		c-0.3,0-0.6-0.1-0.7-0.4c-0.2-0.3-0.3-0.6-0.3-1v-0.5c-0.2,0.6-0.5,1.1-0.9,1.5c-0.4,0.4-0.9,0.5-1.5,0.5c-0.6,0-1.1-0.2-1.6-0.5
		c-0.5-0.3-0.8-0.8-1.1-1.4c-0.3-0.6-0.4-1.2-0.4-1.9c0-0.9,0.2-1.6,0.5-2.1c0.3-0.5,0.8-0.9,1.6-1.1c0.7-0.2,1.7-0.3,3-0.3h0.4
		v-0.6c0-0.8-0.1-1.4-0.4-1.8c-0.2-0.4-0.6-0.6-1.2-0.6c-0.3,0-0.7,0.1-1,0.2c-0.4,0.1-0.8,0.3-1.2,0.6c-0.3,0.2-0.5,0.3-0.7,0.3
		c-0.2,0-0.4-0.1-0.5-0.3s-0.2-0.5-0.2-0.8c0-0.3,0-0.5,0.1-0.7c0.1-0.2,0.3-0.4,0.5-0.6c0.4-0.3,0.9-0.6,1.5-0.7
		c0.6-0.2,1.1-0.3,1.7-0.3C398.2,55.1,399.1,55.5,399.7,56.4z M397.9,64.6c0.4-0.6,0.6-1.3,0.6-2.1V62h-0.3c-0.8,0-1.4,0-1.8,0.1
		c-0.4,0.1-0.7,0.3-0.9,0.5c-0.2,0.2-0.3,0.6-0.3,1c0,0.5,0.1,1,0.4,1.3c0.3,0.3,0.6,0.5,1,0.5C397,65.5,397.5,65.2,397.9,64.6z"/>
	<path class="st11" d="M410.8,55.6c0.2,0.3,0.3,0.6,0.3,1.1v9.8c0,1.9-0.4,3.3-1.1,4.3c-0.7,1-1.9,1.5-3.3,1.5c-1.3,0-2.3-0.3-3.2-1
		c-0.4-0.4-0.7-0.8-0.7-1.3c0-0.4,0.1-0.7,0.2-0.9c0.1-0.2,0.3-0.3,0.5-0.3c0.1,0,0.2,0,0.4,0.1s0.3,0.2,0.5,0.3
		c0.4,0.2,0.8,0.4,1.1,0.6c0.3,0.1,0.7,0.2,1.2,0.2c1.5,0,2.3-1.1,2.3-3.2V65c-0.3,0.7-0.6,1.2-1.1,1.6c-0.5,0.4-1.1,0.6-1.7,0.6
		c-0.8,0-1.4-0.3-2-0.8c-0.6-0.5-1-1.2-1.4-2.1s-0.5-2-0.5-3.1c0-1.2,0.2-2.2,0.5-3.2s0.8-1.6,1.4-2.1c0.6-0.5,1.3-0.8,2-0.8
		c0.6,0,1.2,0.2,1.7,0.6c0.5,0.4,0.9,0.9,1.1,1.6v-0.6c0-0.4,0.1-0.8,0.3-1c0.2-0.3,0.5-0.4,0.8-0.4
		C410.4,55.2,410.6,55.3,410.8,55.6z M408.3,63.8c0.4-0.6,0.6-1.5,0.6-2.6c0-1.1-0.2-2-0.6-2.7c-0.4-0.6-0.9-1-1.6-1
		c-0.7,0-1.2,0.3-1.6,1c-0.4,0.6-0.6,1.5-0.6,2.7c0,1.1,0.2,2,0.6,2.6c0.4,0.6,0.9,1,1.6,1C407.4,64.8,408,64.4,408.3,63.8z"/>
	<path class="st11" d="M413.5,52.5c-0.2-0.3-0.4-0.7-0.4-1.2s0.1-0.9,0.4-1.2c0.2-0.3,0.6-0.4,0.9-0.4c0.4,0,0.7,0.1,0.9,0.4
		c0.2,0.3,0.4,0.7,0.4,1.2s-0.1,0.9-0.4,1.2c-0.2,0.3-0.6,0.5-0.9,0.5C414.1,53,413.8,52.8,413.5,52.5z M413.7,67.3
		c-0.2-0.3-0.3-0.6-0.3-1.1v-9.6c0-0.5,0.1-0.8,0.3-1.1s0.5-0.4,0.8-0.4c0.3,0,0.6,0.1,0.8,0.4s0.3,0.6,0.3,1.1v9.6
		c0,0.5-0.1,0.8-0.3,1.1c-0.2,0.3-0.5,0.4-0.8,0.4C414.2,67.7,413.9,67.5,413.7,67.3z"/>
	<path class="st11" d="M425.1,56.3c0.5,0.8,0.8,2.1,0.8,3.7v6.1c0,0.5-0.1,0.8-0.3,1.1c-0.2,0.3-0.5,0.4-0.8,0.4s-0.6-0.1-0.8-0.4
		s-0.3-0.6-0.3-1.1v-5.9c0-0.9-0.1-1.6-0.4-2.1s-0.6-0.6-1.2-0.6c-0.6,0-1.1,0.3-1.5,0.8c-0.4,0.6-0.6,1.3-0.6,2.3v5.5
		c0,0.5-0.1,0.8-0.3,1.1s-0.5,0.4-0.8,0.4s-0.6-0.1-0.8-0.4c-0.2-0.3-0.3-0.6-0.3-1.1v-9.6c0-0.4,0.1-0.8,0.3-1
		c0.2-0.3,0.5-0.4,0.8-0.4c0.3,0,0.6,0.1,0.7,0.4c0.2,0.3,0.3,0.6,0.3,1v0.7c0.3-0.7,0.7-1.2,1.2-1.6c0.5-0.4,1-0.5,1.7-0.5
		C423.9,55.1,424.6,55.5,425.1,56.3z"/>
	<path class="st11" d="M436.2,55.6c0.2,0.3,0.3,0.6,0.3,1.1v9.8c0,1.9-0.4,3.3-1.1,4.3c-0.7,1-1.9,1.5-3.3,1.5c-1.3,0-2.3-0.3-3.2-1
		c-0.4-0.4-0.7-0.8-0.7-1.3c0-0.4,0.1-0.7,0.2-0.9c0.1-0.2,0.3-0.3,0.5-0.3c0.1,0,0.2,0,0.4,0.1s0.3,0.2,0.5,0.3
		c0.4,0.2,0.8,0.4,1.1,0.6c0.3,0.1,0.7,0.2,1.2,0.2c1.5,0,2.3-1.1,2.3-3.2V65c-0.3,0.7-0.6,1.2-1.1,1.6c-0.5,0.4-1.1,0.6-1.7,0.6
		c-0.8,0-1.4-0.3-2-0.8c-0.6-0.5-1-1.2-1.4-2.1s-0.5-2-0.5-3.1c0-1.2,0.2-2.2,0.5-3.2s0.8-1.6,1.4-2.1c0.6-0.5,1.3-0.8,2-0.8
		c0.6,0,1.2,0.2,1.7,0.6c0.5,0.4,0.9,0.9,1.1,1.6v-0.6c0-0.4,0.1-0.8,0.3-1c0.2-0.3,0.5-0.4,0.8-0.4C435.7,55.2,436,55.3,436.2,55.6
		z M433.7,63.8c0.4-0.6,0.6-1.5,0.6-2.6c0-1.1-0.2-2-0.6-2.7c-0.4-0.6-0.9-1-1.6-1c-0.7,0-1.2,0.3-1.6,1c-0.4,0.6-0.6,1.5-0.6,2.7
		c0,1.1,0.2,2,0.6,2.6c0.4,0.6,0.9,1,1.6,1C432.8,64.8,433.3,64.4,433.7,63.8z"/>
</g>
<g>
	<path class="st11" d="M130.5,169.7c0,0.4-0.1,0.7-0.3,0.9c-0.2,0.2-0.5,0.4-0.8,0.4c-0.2,0-0.4-0.1-0.5-0.2
		c-0.2-0.1-0.3-0.3-0.4-0.6l-2.3-5c-0.2-0.5-0.5-0.9-0.7-1.1c-0.3-0.2-0.6-0.3-1-0.3h-1.7v5.5c0,0.5-0.1,0.9-0.3,1.2
		c-0.2,0.3-0.5,0.4-0.8,0.4c-0.3,0-0.6-0.1-0.8-0.4s-0.3-0.7-0.3-1.2v-14.5c0-0.5,0.1-0.9,0.3-1.1c0.2-0.3,0.5-0.4,0.8-0.4h4.4
		c1.4,0,2.5,0.4,3.2,1.3c0.7,0.9,1.1,2.2,1.1,3.8c0,1.4-0.3,2.5-0.8,3.3s-1.3,1.4-2.3,1.7c0.3,0.1,0.6,0.3,0.9,0.6
		c0.3,0.3,0.5,0.7,0.8,1.2l1.6,3.4C130.4,169.1,130.5,169.4,130.5,169.7z M127.4,160.7c0.4-0.5,0.6-1.2,0.6-2.1c0-1-0.2-1.7-0.6-2.1
		c-0.4-0.4-1-0.7-1.9-0.7h-3v5.5h3C126.4,161.4,127,161.2,127.4,160.7z"/>
	<path class="st11" d="M139.7,167.9c0.1,0.2,0.2,0.5,0.2,0.9c0,0.5-0.2,0.9-0.6,1.3c-0.4,0.3-0.8,0.6-1.4,0.8
		c-0.5,0.2-1,0.3-1.4,0.3c-1.4,0-2.5-0.6-3.3-1.7c-0.8-1.1-1.2-2.7-1.2-4.6c0-1.2,0.2-2.3,0.5-3.3s0.8-1.7,1.5-2.2
		c0.6-0.5,1.4-0.8,2.2-0.8c0.8,0,1.4,0.2,2,0.7c0.6,0.5,1,1.2,1.3,2c0.3,0.9,0.5,1.9,0.5,3.1c0,0.7-0.2,1.1-0.7,1.1h-5.2
		c0.1,1.1,0.3,2,0.7,2.5c0.4,0.5,0.9,0.8,1.7,0.8c0.4,0,0.7-0.1,1-0.2c0.3-0.1,0.6-0.3,1-0.5c0.4-0.3,0.6-0.4,0.8-0.4
		C139.4,167.5,139.6,167.6,139.7,167.9z M134.7,161.4c-0.4,0.5-0.6,1.3-0.6,2.3h4c0-1-0.2-1.8-0.5-2.3c-0.3-0.5-0.8-0.8-1.4-0.8
		C135.6,160.6,135.1,160.9,134.7,161.4z"/>
	<path class="st11" d="M142,170.6c-0.2-0.3-0.3-0.6-0.3-1.1v-14.8c0-0.5,0.1-0.8,0.3-1.1c0.2-0.2,0.5-0.4,0.8-0.4
		c0.3,0,0.6,0.1,0.8,0.4s0.3,0.6,0.3,1.1v14.8c0,0.5-0.1,0.8-0.3,1.1c-0.2,0.3-0.5,0.4-0.8,0.4C142.5,171,142.2,170.9,142,170.6z"/>
	<path class="st11" d="M146.3,155.8c-0.2-0.3-0.4-0.7-0.4-1.2s0.1-0.9,0.4-1.2c0.2-0.3,0.6-0.4,0.9-0.4c0.4,0,0.7,0.1,0.9,0.4
		c0.2,0.3,0.4,0.7,0.4,1.2s-0.1,0.9-0.4,1.2c-0.2,0.3-0.6,0.5-0.9,0.5S146.6,156.1,146.3,155.8z M146.5,170.6
		c-0.2-0.3-0.3-0.6-0.3-1.1V160c0-0.5,0.1-0.8,0.3-1.1c0.2-0.2,0.5-0.4,0.8-0.4c0.3,0,0.6,0.1,0.8,0.4s0.3,0.6,0.3,1.1v9.6
		c0,0.5-0.1,0.8-0.3,1.1c-0.2,0.3-0.5,0.4-0.8,0.4C147,171,146.7,170.9,146.5,170.6z"/>
	<path class="st11" d="M157,159.7c0.6,0.8,0.9,2.1,0.9,3.8v6c0,0.4-0.1,0.8-0.3,1.1c-0.2,0.3-0.4,0.4-0.8,0.4
		c-0.3,0-0.6-0.1-0.7-0.4c-0.2-0.3-0.3-0.6-0.3-1V169c-0.2,0.6-0.5,1.1-0.9,1.5s-0.9,0.5-1.5,0.5c-0.6,0-1.1-0.2-1.6-0.5
		c-0.5-0.3-0.8-0.8-1.1-1.4c-0.3-0.6-0.4-1.2-0.4-1.9c0-0.9,0.2-1.6,0.5-2.1c0.3-0.5,0.8-0.9,1.6-1.1c0.7-0.2,1.7-0.3,3-0.3h0.4
		v-0.6c0-0.8-0.1-1.4-0.4-1.8c-0.2-0.4-0.6-0.6-1.2-0.6c-0.3,0-0.7,0.1-1,0.2s-0.8,0.3-1.2,0.6c-0.3,0.2-0.5,0.3-0.7,0.3
		c-0.2,0-0.4-0.1-0.5-0.3c-0.1-0.2-0.2-0.5-0.2-0.8c0-0.3,0-0.5,0.1-0.7c0.1-0.2,0.3-0.4,0.5-0.6c0.4-0.3,0.9-0.6,1.5-0.7
		c0.6-0.2,1.1-0.3,1.7-0.3C155.6,158.4,156.5,158.9,157,159.7z M155.3,168c0.4-0.6,0.6-1.3,0.6-2.1v-0.5h-0.3c-0.8,0-1.4,0-1.8,0.1
		s-0.7,0.3-0.9,0.5c-0.2,0.2-0.3,0.6-0.3,1c0,0.5,0.1,1,0.4,1.3c0.3,0.3,0.6,0.5,1,0.5C154.4,168.8,154.9,168.5,155.3,168z"/>
	<path class="st11" d="M167.1,159.2c0.6,0.5,1,1.2,1.3,2.2c0.3,0.9,0.5,2,0.5,3.3c0,1.3-0.2,2.4-0.5,3.3c-0.3,1-0.8,1.7-1.4,2.2
		c-0.6,0.5-1.2,0.8-2,0.8c-0.6,0-1.2-0.2-1.7-0.6c-0.5-0.4-0.9-0.9-1.1-1.6v0.6c0,0.4-0.1,0.8-0.3,1.1c-0.2,0.3-0.5,0.4-0.8,0.4
		s-0.6-0.1-0.8-0.4c-0.2-0.3-0.3-0.6-0.3-1.1v-14.8c0-0.4,0.1-0.8,0.3-1c0.2-0.3,0.5-0.4,0.8-0.4s0.6,0.1,0.8,0.4s0.3,0.6,0.3,1v5.8
		c0.3-0.7,0.6-1.2,1.1-1.5c0.5-0.4,1-0.5,1.6-0.5C165.8,158.4,166.5,158.7,167.1,159.2z M166.1,167.6c0.4-0.7,0.6-1.7,0.6-2.9
		c0-1.2-0.2-2.2-0.6-2.8c-0.4-0.7-0.9-1-1.6-1s-1.2,0.3-1.6,1c-0.4,0.7-0.6,1.6-0.6,2.9c0,1.3,0.2,2.2,0.6,2.9c0.4,0.7,0.9,1,1.6,1
		C165.2,168.6,165.7,168.3,166.1,167.6z"/>
	<path class="st11" d="M171,170.6c-0.2-0.3-0.3-0.6-0.3-1.1v-14.8c0-0.5,0.1-0.8,0.3-1.1c0.2-0.2,0.5-0.4,0.8-0.4
		c0.3,0,0.6,0.1,0.8,0.4s0.3,0.6,0.3,1.1v14.8c0,0.5-0.1,0.8-0.3,1.1c-0.2,0.3-0.5,0.4-0.8,0.4C171.5,171,171.2,170.9,171,170.6z"/>
	<path class="st11" d="M182.4,167.9c0.1,0.2,0.2,0.5,0.2,0.9c0,0.5-0.2,0.9-0.6,1.3c-0.4,0.3-0.8,0.6-1.4,0.8
		c-0.5,0.2-1,0.3-1.4,0.3c-1.4,0-2.5-0.6-3.3-1.7c-0.8-1.1-1.2-2.7-1.2-4.6c0-1.2,0.2-2.3,0.5-3.3s0.8-1.7,1.5-2.2
		c0.6-0.5,1.4-0.8,2.2-0.8c0.8,0,1.4,0.2,2,0.7c0.6,0.5,1,1.2,1.3,2c0.3,0.9,0.5,1.9,0.5,3.1c0,0.7-0.2,1.1-0.7,1.1h-5.2
		c0.1,1.1,0.3,2,0.7,2.5c0.4,0.5,0.9,0.8,1.7,0.8c0.4,0,0.7-0.1,1-0.2c0.3-0.1,0.6-0.3,1-0.5c0.4-0.3,0.6-0.4,0.8-0.4
		C182.1,167.5,182.3,167.6,182.4,167.9z M177.5,161.4c-0.4,0.5-0.6,1.3-0.6,2.3h4c0-1-0.2-1.8-0.5-2.3c-0.3-0.5-0.8-0.8-1.4-0.8
		C178.3,160.6,177.8,160.9,177.5,161.4z"/>
</g>
<g>
	<path class="st11" d="M227.1,100.4c-0.2-0.3-0.3-0.8-0.3-1.3v-16c0-0.5,0.1-1,0.3-1.3s0.5-0.5,0.9-0.5c0.4,0,0.7,0.2,0.9,0.5
		s0.3,0.7,0.3,1.3v16c0,0.5-0.1,1-0.3,1.3s-0.5,0.5-0.9,0.5C227.7,100.9,227.4,100.7,227.1,100.4z"/>
	<path class="st11" d="M240.1,88.4c0.6,0.9,0.8,2.3,0.8,4.1v6.7c0,0.5-0.1,0.9-0.3,1.2c-0.2,0.3-0.5,0.4-0.9,0.4
		c-0.4,0-0.7-0.1-0.9-0.4c-0.2-0.3-0.3-0.7-0.3-1.2v-6.5c0-1-0.1-1.8-0.4-2.3c-0.3-0.5-0.7-0.7-1.3-0.7c-0.7,0-1.3,0.3-1.7,0.9
		c-0.4,0.6-0.6,1.4-0.6,2.5v6.1c0,0.5-0.1,0.9-0.3,1.2c-0.2,0.3-0.5,0.4-0.9,0.4s-0.7-0.1-0.9-0.4c-0.2-0.3-0.3-0.7-0.3-1.2V88.7
		c0-0.5,0.1-0.9,0.3-1.1c0.2-0.3,0.5-0.4,0.9-0.4c0.3,0,0.6,0.1,0.8,0.4c0.2,0.3,0.3,0.7,0.3,1.1v0.7c0.3-0.7,0.8-1.3,1.3-1.7
		c0.5-0.4,1.2-0.6,1.8-0.6C238.7,87,239.5,87.5,240.1,88.4z"/>
	<path class="st11" d="M249.3,99.6c0,0.4-0.1,0.8-0.4,1s-0.6,0.3-1.1,0.3l-0.5-0.1c-2.2-0.2-3.3-1.9-3.3-4.9v-6h-1
		c-0.3,0-0.6-0.1-0.8-0.3s-0.3-0.5-0.3-1c0-0.4,0.1-0.7,0.3-1s0.5-0.3,0.8-0.3h1v-2.5c0-0.5,0.1-0.9,0.3-1.2
		c0.2-0.3,0.5-0.4,0.9-0.4c0.4,0,0.7,0.1,0.9,0.4c0.2,0.3,0.3,0.7,0.3,1.2v2.5h1.6c0.3,0,0.6,0.1,0.8,0.3c0.2,0.2,0.3,0.5,0.3,1
		c0,0.4-0.1,0.7-0.3,1c-0.2,0.2-0.5,0.3-0.8,0.3h-1.6v6.2c0,1.3,0.4,2.1,1.3,2.2l0.5,0.1C249,98.4,249.3,98.8,249.3,99.6z"/>
	<path class="st11" d="M258.6,97.4c0.1,0.2,0.2,0.6,0.2,1c0,0.6-0.2,1-0.7,1.4c-0.4,0.3-0.9,0.6-1.5,0.8s-1.1,0.3-1.6,0.3
		c-1.5,0-2.7-0.6-3.6-1.9c-0.9-1.2-1.3-2.9-1.3-5.1c0-1.4,0.2-2.6,0.6-3.6c0.4-1.1,0.9-1.9,1.6-2.5c0.7-0.6,1.5-0.9,2.4-0.9
		c0.9,0,1.6,0.3,2.2,0.8c0.6,0.5,1.1,1.3,1.5,2.2c0.3,1,0.5,2.1,0.5,3.4c0,0.8-0.2,1.2-0.7,1.2h-5.7c0.1,1.3,0.3,2.2,0.8,2.8
		c0.4,0.6,1,0.9,1.9,0.9c0.4,0,0.8-0.1,1.1-0.2c0.3-0.1,0.7-0.3,1.1-0.6c0.4-0.3,0.7-0.4,0.9-0.4C258.3,97.1,258.4,97.2,258.6,97.4z
		 M253.1,90.3c-0.4,0.6-0.6,1.4-0.7,2.5h4.4c0-1.1-0.2-2-0.6-2.5c-0.4-0.6-0.9-0.9-1.5-0.9C254,89.4,253.5,89.7,253.1,90.3z"/>
	<path class="st11" d="M266.9,87.4c0.2,0.2,0.3,0.6,0.3,1.1c0,0.5-0.1,0.9-0.3,1.1s-0.5,0.4-0.9,0.5l-0.6,0.1
		c-0.8,0.1-1.3,0.5-1.7,1.1s-0.5,1.4-0.5,2.3v5.7c0,0.5-0.1,0.9-0.3,1.2c-0.2,0.3-0.5,0.4-0.9,0.4c-0.3,0-0.6-0.1-0.9-0.4
		c-0.2-0.3-0.3-0.7-0.3-1.2V88.7c0-0.5,0.1-0.9,0.3-1.2c0.2-0.3,0.5-0.4,0.8-0.4c0.3,0,0.6,0.1,0.8,0.4c0.2,0.3,0.3,0.6,0.3,1.1v1.1
		c0.2-0.8,0.6-1.4,1.1-1.9c0.5-0.4,1-0.7,1.6-0.7l0.3,0C266.5,87,266.7,87.1,266.9,87.4z"/>
	<path class="st11" d="M275.3,88.4c0.6,0.9,1,2.3,1,4.2v6.7c0,0.5-0.1,0.9-0.3,1.2c-0.2,0.3-0.5,0.4-0.9,0.4c-0.3,0-0.6-0.1-0.8-0.4
		c-0.2-0.3-0.3-0.7-0.3-1.1v-0.6c-0.2,0.7-0.6,1.3-1,1.7c-0.5,0.4-1,0.6-1.6,0.6c-0.6,0-1.2-0.2-1.7-0.5c-0.5-0.4-0.9-0.9-1.2-1.5
		c-0.3-0.6-0.4-1.3-0.4-2.1c0-1,0.2-1.8,0.5-2.3s0.9-1,1.7-1.2s1.9-0.4,3.3-0.4h0.5v-0.6c0-0.9-0.1-1.5-0.4-2
		c-0.3-0.4-0.7-0.6-1.3-0.6c-0.4,0-0.8,0.1-1.1,0.2s-0.8,0.4-1.4,0.7c-0.3,0.2-0.6,0.4-0.7,0.4c-0.2,0-0.4-0.1-0.6-0.4
		c-0.1-0.2-0.2-0.5-0.2-0.9c0-0.3,0.1-0.6,0.2-0.8c0.1-0.2,0.3-0.4,0.6-0.6c0.5-0.3,1-0.6,1.6-0.8c0.6-0.2,1.2-0.3,1.9-0.3
		C273.7,87,274.6,87.5,275.3,88.4z M273.3,97.6c0.4-0.6,0.6-1.4,0.6-2.4v-0.6h-0.3c-0.9,0-1.5,0.1-2,0.2s-0.8,0.3-1,0.6
		c-0.2,0.3-0.3,0.6-0.3,1.1c0,0.6,0.1,1.1,0.4,1.4s0.6,0.6,1.1,0.6C272.4,98.5,272.9,98.2,273.3,97.6z"/>
	<path class="st11" d="M280.4,100.1c-0.7-0.6-1.3-1.4-1.7-2.4c-0.4-1-0.6-2.3-0.6-3.6c0-1.4,0.2-2.6,0.6-3.7c0.4-1.1,1-1.9,1.7-2.5
		c0.7-0.6,1.6-0.9,2.5-0.9c0.5,0,1,0.1,1.5,0.3c0.5,0.2,1,0.5,1.3,0.8c0.4,0.4,0.6,0.9,0.6,1.4c0,0.4-0.1,0.7-0.2,1
		s-0.3,0.4-0.5,0.4c-0.1,0-0.3,0-0.4-0.1c-0.2-0.1-0.3-0.2-0.5-0.3c-0.3-0.2-0.6-0.4-0.8-0.6c-0.3-0.1-0.6-0.2-0.9-0.2
		c-0.8,0-1.4,0.4-1.9,1.1c-0.4,0.7-0.6,1.8-0.6,3.2c0,1.4,0.2,2.4,0.6,3.2c0.4,0.7,1.1,1.1,1.9,1.1c0.3,0,0.6-0.1,0.9-0.2
		s0.5-0.3,0.8-0.6c0.2-0.2,0.4-0.3,0.5-0.4c0.1-0.1,0.3-0.1,0.4-0.1c0.2,0,0.4,0.1,0.5,0.4c0.1,0.3,0.2,0.6,0.2,1
		c0,0.3,0,0.6-0.1,0.8c-0.1,0.2-0.3,0.4-0.5,0.6c-0.4,0.4-0.9,0.7-1.4,0.9s-1.1,0.3-1.6,0.3C282,100.9,281.1,100.7,280.4,100.1z"/>
	<path class="st11" d="M294.1,99.6c0,0.4-0.1,0.8-0.4,1s-0.6,0.3-1.1,0.3l-0.5-0.1c-2.2-0.2-3.3-1.9-3.3-4.9v-6h-1
		c-0.3,0-0.6-0.1-0.8-0.3s-0.3-0.5-0.3-1c0-0.4,0.1-0.7,0.3-1s0.5-0.3,0.8-0.3h1v-2.5c0-0.5,0.1-0.9,0.3-1.2
		c0.2-0.3,0.5-0.4,0.9-0.4c0.4,0,0.7,0.1,0.9,0.4c0.2,0.3,0.3,0.7,0.3,1.2v2.5h1.6c0.3,0,0.6,0.1,0.8,0.3c0.2,0.2,0.3,0.5,0.3,1
		c0,0.4-0.1,0.7-0.3,1c-0.2,0.2-0.5,0.3-0.8,0.3h-1.6v6.2c0,1.3,0.4,2.1,1.3,2.2l0.5,0.1C293.8,98.4,294.1,98.8,294.1,99.6z"/>
	<path class="st11" d="M295.5,84.1c-0.3-0.3-0.4-0.8-0.4-1.3s0.1-1,0.4-1.3s0.6-0.5,1-0.5c0.4,0,0.8,0.2,1,0.5s0.4,0.8,0.4,1.3
		s-0.1,1-0.4,1.3c-0.3,0.3-0.6,0.5-1,0.5S295.8,84.5,295.5,84.1z M295.7,100.5c-0.2-0.3-0.3-0.7-0.3-1.2V88.7c0-0.5,0.1-0.9,0.3-1.2
		c0.2-0.3,0.5-0.4,0.9-0.4c0.3,0,0.6,0.1,0.9,0.4c0.2,0.3,0.3,0.7,0.3,1.2v10.6c0,0.5-0.1,0.9-0.3,1.2c-0.2,0.3-0.5,0.4-0.9,0.4
		C296.2,100.9,295.9,100.7,295.7,100.5z"/>
	<path class="st11" d="M307.3,87.3c0.2-0.2,0.4-0.2,0.6-0.2c0.3,0,0.6,0.1,0.8,0.4c0.2,0.3,0.4,0.6,0.4,1.1c0,0.2,0,0.4-0.1,0.7
		l-3.6,10.6c-0.1,0.3-0.3,0.6-0.5,0.8c-0.2,0.2-0.4,0.3-0.7,0.3c-0.2,0-0.5-0.1-0.7-0.3c-0.2-0.2-0.4-0.4-0.5-0.8l-3.6-10.6
		c-0.1-0.2-0.1-0.4-0.1-0.6c0-0.4,0.1-0.8,0.4-1.1c0.3-0.3,0.5-0.4,0.9-0.4c0.5,0,0.8,0.3,1,1l2.7,8.4l2.7-8.4
		C307,87.7,307.2,87.5,307.3,87.3z"/>
	<path class="st11" d="M318.4,97.4c0.1,0.2,0.2,0.6,0.2,1c0,0.6-0.2,1-0.7,1.4c-0.4,0.3-0.9,0.6-1.5,0.8s-1.1,0.3-1.6,0.3
		c-1.5,0-2.7-0.6-3.6-1.9c-0.9-1.2-1.3-2.9-1.3-5.1c0-1.4,0.2-2.6,0.6-3.6c0.4-1.1,0.9-1.9,1.6-2.5c0.7-0.6,1.5-0.9,2.4-0.9
		c0.9,0,1.6,0.3,2.2,0.8c0.6,0.5,1.1,1.3,1.5,2.2c0.3,1,0.5,2.1,0.5,3.4c0,0.8-0.2,1.2-0.7,1.2h-5.7c0.1,1.3,0.3,2.2,0.8,2.8
		c0.4,0.6,1,0.9,1.9,0.9c0.4,0,0.8-0.1,1.1-0.2c0.3-0.1,0.7-0.3,1.1-0.6c0.4-0.3,0.7-0.4,0.9-0.4C318.1,97.1,318.3,97.2,318.4,97.4z
		 M312.9,90.3c-0.4,0.6-0.6,1.4-0.7,2.5h4.4c0-1.1-0.2-2-0.6-2.5c-0.4-0.6-0.9-0.9-1.5-0.9C313.8,89.4,313.3,89.7,312.9,90.3z"/>
</g>
</svg>
