<?xml version="1.0" encoding="utf-8"?>
<!-- Generator: Adobe Illustrator 23.1.0, SVG Export Plug-In . SVG Version: 6.00 Build 0)  -->
<svg version="1.1" id="Layer_1" xmlns="http://www.w3.org/2000/svg" xmlns:xlink="http://www.w3.org/1999/xlink" x="0px" y="0px"
	 viewBox="0 0 547.2 491.2" style="enable-background:new 0 0 547.2 491.2;" xml:space="preserve" preserveAspectRatio="xMidYMid slice">
<style type="text/css">
	.st0{fill:#68E1FD;}
	.st1{fill:url(#SVGID_1_);}
	.st2{fill:url(#SVGID_2_);}
	.st3{opacity:0.58;fill:url(#SVGID_3_);enable-background:new    ;}
	.st4{opacity:0.58;fill:url(#SVGID_4_);enable-background:new    ;}
	.st5{fill:url(#SVGID_5_);}
	.st6{fill:url(#SVGID_6_);}
	.st7{fill:url(#SVGID_7_);}
	.st8{fill:url(#SVGID_8_);}
	.st9{opacity:0.8;}
	.st10{fill:#FFFFFF;}
	.st11{opacity:0.8;fill:#46B1DF;enable-background:new    ;}
</style>
<rect class="st0" width="547.2" height="491.2"/>
<title>Peak 1</title>
<linearGradient id="SVGID_1_" gradientUnits="userSpaceOnUse" x1="289.5212" y1="-1410.2249" x2="285.0111" y2="-1794.2749" gradientTransform="matrix(1 0 0 -1 -14.31 -1250.49)">
	<stop  offset="1.000000e-02" style="stop-color:#000000"/>
	<stop  offset="0.13" style="stop-color:#000000;stop-opacity:0.69"/>
	<stop  offset="1" style="stop-color:#000000;stop-opacity:0"/>
</linearGradient>
<path class="st1" d="M541.6,228.1c-0.1-0.5-0.7-0.8-1.2-1c0-0.3-0.3-0.6-0.8-0.9c1.4-0.7,2.2-2.2,1.9-3.8c-0.9,0.5-1.7,1.2-2.4,2.1
	c-0.7-0.6-1.6-0.7-2.3-0.3c-0.7-0.7-0.1-1.9,0.6-2.6s1.7-1.4,1.6-2.4l-4.4,2.3c0.5-1.2,1.1-2.4,1.7-3.6c-0.8-0.2-1.6-0.1-2.3,0.4
	c0-1.1-0.2-2.3-0.4-3.4l-0.1-0.4c-0.1-1.4-0.5-2.8-1.2-4.1l1.5-0.4c-0.9-1-2.2-1.5-3.6-1.4c0.7-3.5,0.4-7.1-1-10.4
	c-0.2,3.5-0.3,7.1-0.3,10.6l-1.1-0.4c-0.2,0.5,0,1.1,0.5,1.3c-0.6,0.7-0.7,1.6-0.4,2.4c-1.1,0.1-2.2-0.1-3.3-0.5
	c0.1-0.3,0.2-0.5,0.2-0.8l-4.4,2.2l1.7-3.6c-0.8-0.2-1.6-0.1-2.3,0.4c0-1.1-0.2-2.3-0.4-3.4l-0.1-0.4c-0.1-1.4-0.5-2.9-1.2-4.2
	l1.5-0.4c-0.9-1-2.2-1.5-3.6-1.4c0.7-3.5,0.4-7.1-1-10.4c-0.2,3.5-0.3,7.1-0.3,10.6l-1.1-0.4c-0.2,0.5,0,1.1,0.5,1.3
	c-0.6,0.7-0.7,1.6-0.4,2.4c-1.2,0.1-2.4-0.1-3.5-0.6c0,0.9,1.1,1.3,1.9,1.7c0.8,0.4,1.7,1.4,1,2.1s-1.7-0.2-2.5,0.1
	c0.1,0.5,0.5,1,1,1.2l-8,1c1.3,1.6,3.7,1.9,5.3,0.6c0,0,0,0,0.1,0c0.3,0.4,0.5,0.8,0.6,1.3c-1,0.5-2,0.8-3,1.1
	c0.6,0.5,1.3,0.7,2,0.6c-0.4,0.5-0.3,1.2,0.2,1.6c0.1,0.1,0.1,0.1,0.2,0.1c-0.6,0.1-1,0.7-0.9,1.3s0.4,1.1,0.7,1.5
	c-1.3-0.6-2.7-1.1-4.2-1.3c-0.2-0.7-0.4-1.3-0.7-1.9l1.5-0.4c-0.9-1-2.2-1.5-3.6-1.4c0.7-3.5,0.4-7.1-1-10.4
	c-0.2,3.5-0.3,7.1-0.3,10.6l-1.1-0.4c-0.2,0.5,0,1.1,0.5,1.3c-0.6,0.7-0.7,1.6-0.4,2.4c-1.2,0.1-2.4-0.1-3.5-0.5
	c0,0.9,1.1,1.3,1.9,1.7s1.7,1.4,1,2s-1.7-0.2-2.5,0.1c0.1,0.5,0.5,1,1,1.2l-8,1c1.3,1.6,3.7,1.9,5.3,0.6l0,0
	c0.3,0.4,0.5,0.8,0.6,1.3c-1,0.5-2,0.8-3,1.1c0-0.2,0-0.3,0-0.5l-4.4,2.2c0.5-1.2,1.1-2.4,1.7-3.6c-0.8-0.2-1.6-0.1-2.3,0.4
	c0-1.1-0.2-2.3-0.4-3.4c0-0.1,0-0.3-0.1-0.4c-0.1-1.4-0.5-2.8-1.2-4.1l1.5-0.4c-0.9-1-2.3-1.5-3.6-1.4c0.7-3.5,0.4-7.1-1-10.4
	c-0.2,3.6-0.3,7.1-0.3,10.6l-1.1-0.4c-0.2,0.5,0,1.1,0.5,1.3c-0.6,0.7-0.7,1.6-0.4,2.4c-1.2,0.1-2.4-0.1-3.5-0.6
	c0,0.9,1.1,1.3,1.9,1.7s1.6,1.4,1,2.1s-1.7-0.2-2.5,0c0.1,0.5,0.5,1,1,1.2l-8,1c0.5,0.7,1.3,1.2,2.1,1.3c-0.3,0.3-0.5,0.5-0.7,0.8
	c-0.7-0.6-1.6-0.7-2.4-0.3c-0.7-0.7-0.1-1.9,0.6-2.6s1.7-1.4,1.6-2.4l-4.4,2.3c0.6-1.2,1.1-2.4,1.7-3.6c-0.8-0.2-1.6-0.1-2.3,0.4
	c0-1.1-0.2-2.3-0.4-3.4l-0.1-0.4c-0.1-1.4-0.5-2.8-1.2-4.1l1.5-0.4c-0.9-1-2.2-1.6-3.6-1.4c0.7-3.5,0.4-7.1-1-10.4
	c-0.2,3.6-0.3,7.1-0.3,10.7l-1.1-0.4c-0.2,0.5,0,1.1,0.5,1.3c-0.6,0.7-0.7,1.6-0.4,2.4c-1.2,0.1-2.4-0.1-3.5-0.5
	c0,0.9,1.1,1.3,1.9,1.7s1.7,1.4,1,2s-1.7-0.2-2.5,0.1c0.1,0.5,0.5,1,1,1.2l-8,1c1.3,1.6,3.7,1.9,5.3,0.6l0,0
	c0.3,0.4,0.5,0.8,0.6,1.3c-1,0.5-2,0.8-3,1.1c0.5,0.5,1.3,0.7,2,0.6c-0.4,0.5-0.3,1.2,0.2,1.6c0.1,0.1,0.1,0.1,0.2,0.1
	c-0.6,0.1-1,0.7-0.9,1.2c0.1,0.6,0.4,1.1,0.7,1.5c-1.7-0.8-3.5-1.3-5.4-1.5c0.9,1.7,2.5,2.8,4.3,3.1l-3.1,2.1l1.4,1.7
	c-1.9,0.9-3.9,1.4-6,1.3v-0.1c-0.1-1.4-0.5-2.8-1.2-4.1l1.5-0.4c-0.9-1-2.2-1.5-3.6-1.4c0.7-3.5,0.4-7.1-1-10.4
	c-0.2,3.5-0.3,7.1-0.3,10.6l-1.1-0.4c-0.2,0.5,0,1.1,0.5,1.3c-0.6,0.7-0.7,1.6-0.4,2.4c-1.2,0.1-2.4-0.1-3.5-0.5
	c0,0.9,1.1,1.3,1.9,1.7s1.7,1.4,1,2s-1.7-0.2-2.5,0c0.1,0.5,0.5,1,1,1.2l-8,1c1.3,1.6,3.7,1.9,5.3,0.6l0,0c0.3,0.4,0.5,0.8,0.6,1.3
	c-1,0.5-2,0.8-3,1.1c0.5,0.5,1.3,0.7,2,0.6c-0.4,0.5-0.3,1.2,0.2,1.6c0.1,0,0.1,0.1,0.2,0.1c-0.6,0.1-1,0.7-0.9,1.3s0.4,1.1,0.7,1.5
	c-1.7-0.8-3.5-1.3-5.4-1.5c0.9,1.7,2.5,2.8,4.4,3.1l-3.1,2.1l1.4,1.7c-1.9,1-4,1.4-6.1,1.3c0.7-0.6,1.5-1.3,1.4-2.2l-4.4,2.3
	c0.5-1.2,1.1-2.4,1.7-3.6c-0.8-0.2-1.6-0.1-2.3,0.4c0-1.1-0.2-2.3-0.4-3.4c0-0.1,0-0.3-0.1-0.5c-0.1-1.4-0.5-2.8-1.2-4.1l1.5-0.4
	c-0.9-1-2.2-1.5-3.6-1.4c0.7-3.5,0.4-7.1-1-10.4c-0.2,3.5-0.3,7.1-0.3,10.6l-1.1-0.4c-0.2,0.5,0,1.1,0.5,1.3
	c-0.6,0.7-0.7,1.6-0.4,2.4c-1.2,0.1-2.4-0.1-3.5-0.5c0,0.9,1.1,1.3,1.9,1.7s1.6,1.4,1,2s-1.7-0.2-2.5,0c0.1,0.5,0.5,1,1,1.2l-8,1
	c1.3,1.6,3.7,1.9,5.3,0.6l0,0c0.3,0.4,0.5,0.8,0.6,1.3c-1,0.5-2,0.8-3,1.1c0.5,0.5,1.3,0.7,2,0.6c-0.4,0.5-0.3,1.2,0.2,1.6
	c0.1,0.1,0.1,0.1,0.2,0.1c-0.6,0.1-1,0.7-0.9,1.3s0.4,1.1,0.7,1.5c-1.7-0.8-3.5-1.3-5.4-1.5c0.9,1.7,2.5,2.8,4.3,3.1l-3.2,2.5
	l1.4,1.7c-2.1,1.1-4.5,1.5-6.8,1.2c1.3,1.6,2.8,3,4.5,4.2c-1.3-0.5-2.6-0.6-4-0.4c-0.1-1.3-0.5-2.5-1.1-3.7l1.5-0.4
	c-0.9-1-2.2-1.5-3.6-1.4c0.7-3.5,0.4-7.1-1-10.4c-0.2,3.5-0.3,7.1-0.3,10.7l-1.1-0.4c-0.2,0.5,0,1.1,0.5,1.3
	c-0.6,0.7-0.7,1.6-0.4,2.4c-1.2,0.1-2.4-0.1-3.5-0.5c0,0.9,1.1,1.3,1.9,1.7s1.7,1.4,1,2s-1.7-0.2-2.5,0.1c0.1,0.5,0.5,1,1,1.2l-8,1
	c1.3,1.6,3.7,1.9,5.3,0.6c0,0,0,0,0.1,0c0.3,0.4,0.5,0.8,0.6,1.3c-1,0.5-2,0.8-3,1.1c0.5,0.5,1.3,0.7,2,0.6
	c-0.4,0.5-0.3,1.2,0.2,1.6c0.1,0,0.1,0.1,0.2,0.1c-0.6,0.1-1,0.7-0.9,1.2c0.1,0.6,0.4,1.1,0.7,1.5c-1.7-0.8-3.5-1.3-5.4-1.5
	c0.9,1.7,2.5,2.8,4.4,3.1l-3.1,2.1l1.4,1.7c-1.3,0.7-2.7,1.1-4.2,1.2l0.2-0.2c0.8-0.7,1.7-1.4,1.6-2.4l-4.4,2.3
	c0.6-1.2,1.1-2.4,1.7-3.6c-0.8-0.2-1.6,0-2.3,0.4c0-1.1-0.2-2.3-0.4-3.4c0-0.1,0-0.3-0.1-0.4c-0.1-1.4-0.5-2.8-1.2-4.1l1.5-0.4
	c-0.9-1-2.2-1.5-3.6-1.4c0.7-3.5,0.4-7.1-1-10.4c-0.2,3.5-0.3,7.1-0.3,10.6l-1.1-0.4c-0.2,0.5,0,1.1,0.5,1.3
	c-0.6,0.7-0.7,1.6-0.4,2.4c-1.2,0.1-2.4-0.1-3.5-0.5c0,0.9,1.1,1.3,1.9,1.7s1.7,1.4,1,2.1s-1.7-0.2-2.5,0c0.1,0.5,0.5,1,1,1.2l-8,1
	c1.3,1.6,3.7,1.9,5.3,0.6c0,0,0,0,0.1,0c0.3,0.4,0.5,0.8,0.6,1.3c-1,0.5-2,0.8-3,1.1c0.5,0.5,1.3,0.7,2,0.6
	c-0.4,0.5-0.3,1.2,0.2,1.6c0.1,0.1,0.1,0.1,0.2,0.1c-0.6,0.1-1,0.7-0.9,1.2c0.1,0.6,0.4,1.1,0.7,1.5c-1.7-0.8-3.5-1.3-5.4-1.5
	c0.8,1.7,2.5,2.9,4.3,3.1l-3.1,2.1l1.4,1.7c-2.1,1.2-4.5,1.7-6.9,1.4c1.3,1.6,2.8,3,4.5,4.2c-1.2-0.4-2.4-0.6-3.7-0.5
	c-0.6-0.2-1.3-0.3-1.9-0.3c0.7-3.5,0.4-7.1-1-10.4c-0.2,3.5-0.3,7.1-0.3,10.6l-1.1-0.4c-0.2,0.5,0,1.1,0.5,1.3
	c-0.6,0.7-0.7,1.6-0.4,2.4c-1.2,0.1-2.4-0.1-3.5-0.5c0,0.9,1.1,1.3,1.9,1.7s1.7,1.4,1,2s-1.7-0.2-2.5,0.1c0.1,0.5,0.5,1,1,1.2l-8,1
	c1.3,1.6,3.7,1.9,5.3,0.6c0,0,0,0,0.1,0c0.3,0.4,0.5,0.8,0.6,1.3c-1,0.5-2,0.8-3,1.1c0.5,0.5,1.3,0.7,2,0.6c0.7,0.9,0.5,2.2-0.4,2.9
	c-0.1,0-0.1,0.1-0.2,0.1c0.1,0.6,0.4,1.1,0.7,1.5c-1.7-0.8-3.5-1.3-5.4-1.5c0.9,1.7,2.5,2.8,4.3,3.1l-1.6,1.1
	c0.1-0.2,0.2-0.5,0.1-0.8l-4.4,2.3l1.7-3.6c-0.8-0.2-1.6-0.1-2.3,0.4c0-1.1-0.2-2.3-0.4-3.4l-0.1-0.5c-0.1-1.4-0.5-2.8-1.2-4.1
	l1.5-0.4c-0.9-1-2.2-1.5-3.6-1.4c0.7-3.5,0.4-7.1-1-10.4c-0.2,3.5-0.3,7.1-0.3,10.6l-1.1-0.4c-0.2,0.5,0,1.1,0.5,1.3
	c-0.6,0.7-0.7,1.6-0.4,2.4c-1.2,0.1-2.4-0.1-3.5-0.5c0,0.9,1.1,1.3,1.9,1.7s1.7,1.4,1,2s-1.7-0.2-2.5,0c0.1,0.5,0.5,1,1,1.2l-8,1
	c1.3,1.6,3.7,1.9,5.3,0.6l0,0c0.3,0.4,0.5,0.8,0.6,1.3c-1,0.5-2,0.8-3,1.1c0.5,0.5,1.3,0.7,2,0.6c-0.4,0.5-0.3,1.2,0.2,1.6
	c0.1,0,0.1,0.1,0.2,0.1c-0.6,0.1-1,0.7-0.9,1.3c0.1,0.6,0.4,1.1,0.7,1.5c-1.7-0.8-3.5-1.3-5.4-1.5c0.9,1.7,2.5,2.8,4.4,3.1l-3.1,2.1
	l1.4,1.7c-0.7,0.4-1.5,0.7-2.3,0.9c0.2-0.2,0.3-0.5,0.2-0.8l-2.3,1.2c-0.3,0-0.6,0-1,0l1.1-2.3c-0.6-0.2-1.3,0-1.8,0.3
	c0-0.9-0.1-1.9-0.3-2.8l-0.1-0.4c-0.1-1.2-0.4-2.3-1-3.4l1.1-0.3c-0.7-0.8-1.8-1.3-2.9-1.2c0.6-2.8,0.3-5.8-0.8-8.5
	c-0.2,2.9-0.3,5.8-0.2,8.7l-0.9-0.3c-0.2,0.4,0,0.9,0.4,1c-0.5,0.6-0.6,1.3-0.3,2c-1,0.1-2-0.1-2.9-0.5c0,0.7,0.9,1.1,1.6,1.4
	s1.3,1.2,0.8,1.7s-1.4-0.1-2.1,0c0.1,0.5,0.4,0.8,0.8,1l-6.5,0.9c1.1,1.3,3,1.5,4.3,0.5l0,0c0.3,0.3,0.4,0.7,0.5,1.1
	c-0.8,0.4-1.6,0.7-2.5,0.9c0.4,0.4,1,0.6,1.6,0.5c-0.3,0.4-0.2,1,0.2,1.3l0.1,0.1c-0.5,0.1-0.8,0.5-0.7,1c0.1,0.5,0.3,0.9,0.6,1.2
	c-1.4-0.7-2.9-1.1-4.4-1.2c0.7,1.4,2,2.3,3.5,2.5l-0.8,0.5c0-0.2,0.1-0.3,0.1-0.5l-4.4,2.2c0.6-1.2,1.1-2.4,1.7-3.6
	c-0.8-0.2-1.6-0.1-2.3,0.4c0-1.1-0.2-2.3-0.4-3.4l-0.1-0.4c-0.1-1.4-0.5-2.9-1.2-4.2l1.5-0.4c-0.9-1-2.2-1.6-3.6-1.4
	c0.7-3.5,0.4-7.1-1-10.4c-0.2,3.5-0.3,7.1-0.3,10.6l-1.1-0.4c-0.2,0.5,0,1.1,0.5,1.3c-0.6,0.7-0.7,1.6-0.4,2.4
	c-1.2,0.1-2.4-0.1-3.5-0.5c0,0.9,1.1,1.3,1.9,1.7s1.7,1.4,1,2s-1.7-0.2-2.5,0.1c0.1,0.5,0.5,1,1,1.2l-8,1c1.3,1.6,3.7,1.9,5.3,0.6
	c0,0,0,0,0.1,0c0.3,0.4,0.5,0.8,0.6,1.3c-1,0.5-2,0.8-3,1.1c0.5,0.5,1.3,0.7,2,0.6c-0.4,0.5-0.3,1.2,0.2,1.6
	c0.1,0.1,0.1,0.1,0.2,0.1c-0.6,0.1-1,0.7-0.9,1.3c0.1,0.6,0.4,1.1,0.7,1.5c-1.7-0.8-3.5-1.3-5.4-1.5c0.9,1.7,2.5,2.8,4.3,3.1
	l-3.1,2.1l1.2,1.5l-2.3,1.2l-0.7,0.1l1.1-2.3c-0.6-0.1-1.2,0-1.6,0.3c0-0.8-0.1-1.6-0.3-2.5c0-0.1,0-0.2,0-0.3c-0.1-1-0.4-2.1-0.8-3
	l1.1-0.3c-0.7-0.7-1.6-1.1-2.6-1c0.5-2.5,0.3-5.1-0.7-7.5c-0.2,2.5-0.2,5.1-0.2,7.6l-0.8-0.3c-0.1,0.4,0,0.8,0.4,0.9
	c-0.4,0.5-0.5,1.2-0.3,1.7c-0.9,0.1-1.7-0.1-2.5-0.4c0,0.6,0.8,1,1.4,1.2s1.2,1,0.7,1.5s-1.2-0.1-1.8,0c0.1,0.4,0.4,0.7,0.7,0.9
	l-5.8,0.8c0.9,1.2,2.6,1.4,3.8,0.4l0,0c0.2,0.3,0.4,0.6,0.4,1c-0.7,0.3-1.4,0.6-2.2,0.8c0.4,0.3,0.9,0.5,1.4,0.5
	c0.5,0.7,0.4,1.6-0.3,2.1c0,0-0.1,0-0.1,0.1c0.1,0.4,0.3,0.8,0.5,1.1c-1.2-0.6-2.5-1-3.9-1.1c0.6,1.2,1.8,2.1,3.1,2.3l-2.2,1.5
	l1,1.2c-0.2,0.1-0.4,0.2-0.6,0.3c0-0.3,0-0.5-0.1-0.8c-0.6,0.4-1.2,0.8-1.7,1.3c-0.8,0.1-1.7,0.2-2.5,0.1c0,0.1,0.1,0.1,0.2,0.2
	c-0.2,0-0.5,0.1-0.7,0.2c-0.7-0.7-0.1-1.9,0.6-2.6s1.7-1.4,1.6-2.4l-4.4,2.3c0.6-1.2,1.1-2.4,1.7-3.6c-0.8-0.2-1.6,0-2.3,0.4
	c0-1.1-0.2-2.3-0.4-3.4l-0.1-0.5c-0.1-1.4-0.5-2.8-1.2-4.1l1.5-0.4c-0.9-1-2.2-1.5-3.6-1.4c0.7-3.5,0.4-7.1-1-10.4
	c-0.2,3.5-0.3,7.1-0.3,10.6l-1.1-0.4c-0.2,0.5,0,1.1,0.5,1.3c-0.6,0.7-0.7,1.6-0.4,2.4c-1.2,0.1-2.4-0.1-3.5-0.5
	c0,0.9,1.1,1.3,1.9,1.7s1.7,1.4,1,2.1s-1.7-0.2-2.5,0c0.1,0.5,0.5,1,1,1.2l-8,1c1.3,1.6,3.6,1.9,5.3,0.6c0,0,0,0,0.1-0.1
	c0.3,0.4,0.5,0.8,0.6,1.3c-1,0.5-2,0.8-3,1.1c0.5,0.5,1.3,0.7,2,0.6c-0.4,0.5-0.3,1.2,0.2,1.6c0.1,0.1,0.1,0.1,0.2,0.1
	c-0.6,0.1-1,0.7-0.9,1.2c0.1,0.6,0.4,1.1,0.7,1.5c-1.7-0.8-3.5-1.3-5.4-1.5c0.8,1.7,2.5,2.9,4.3,3.1l-3.1,2.1l1.4,1.7
	c-0.4,0.2-0.8,0.4-1.2,0.5c0-0.1,0-0.3-0.1-0.4l-0.1-0.5c-0.1-1.4-0.5-2.8-1.2-4.1l1.5-0.4c-0.9-1-2.2-1.5-3.6-1.4
	c0.7-3.5,0.4-7.1-1-10.4c-0.2,3.5-0.3,7.1-0.3,10.6l-1.1-0.4c-0.2,0.5,0,1.1,0.5,1.3c-0.6,0.7-0.7,1.6-0.4,2.4
	c-1.2,0.1-2.4-0.1-3.5-0.5c0,0.9,1.1,1.3,1.9,1.7s1.7,1.4,1,2.1s-1.7-0.2-2.5,0c0.1,0.5,0.5,1,1,1.2l-6.1,0.8c0.1-0.4,0.1-0.8,0-1.2
	c-1,0-2,0-3,0.1c0.2-0.6,0.5-1.2,0.9-1.6l-1.5-0.4c-0.2-0.7,1-1,1.7-0.6s1.6,0.8,2.1,0.2l-0.4-1.2c0.3,0.5,1.1-0.1,1-0.6
	s-0.7-0.8-1.2-1c-0.5-0.1-1-0.3-1.4-0.7c1.8-0.4,2.9-2.2,2.5-3.9c0,0,0,0,0-0.1c-0.9,0.5-1.7,1.2-2.4,2.1c-0.7-0.6-1.6-0.7-2.4-0.3
	c-0.7-0.7-0.1-1.9,0.6-2.6s1.7-1.4,1.6-2.4l-4.5,2.4c0.6-1.2,1.1-2.4,1.7-3.6c-0.8-0.2-1.6-0.1-2.3,0.4c0-1.1-0.2-2.3-0.4-3.4
	l-0.1-0.4c-0.1-1.4-0.5-2.9-1.2-4.2l1.5-0.4c-0.9-1-2.2-1.6-3.6-1.4c0.7-3.5,0.4-7.1-1-10.4c-0.2,3.5-0.3,7.1-0.3,10.6l-1.1-0.4
	c-0.2,0.5,0,1.1,0.5,1.3c-0.6,0.7-0.7,1.6-0.4,2.4c-1.2,0.1-2.4-0.1-3.6-0.5c0,0.9,1.1,1.3,1.9,1.7s1.6,1.4,1,2s-1.7-0.2-2.5,0.1
	c0.1,0.5,0.5,1,1,1.2l-8,1c1.3,1.6,3.7,1.9,5.3,0.6c0,0,0,0,0.1,0c0.3,0.4,0.5,0.8,0.6,1.3c-1,0.5-2,0.8-3,1.1
	c0.5,0.5,1.3,0.7,2,0.6c0.7,0.9,0.5,2.2-0.4,2.9c-0.1,0-0.1,0.1-0.2,0.1c0.1,0.6,0.4,1.1,0.7,1.5c-1.7-0.8-3.5-1.3-5.4-1.5
	c0.9,1.7,2.5,2.8,4.3,3.1l-3.1,2.1l1.4,1.7c-1.5,0.7-3.1,1.2-4.7,1.3c0.7-1.3,1.5-2.5,1.2-4.1c-1,0-2,0-3,0.1
	c0.2-0.6,0.5-1.2,0.9-1.6l-1.4-0.4c-0.2-0.7,1-1,1.7-0.6s1.6,0.8,2.1,0.2l-0.4-1.2c0.3,0.5,1.1-0.1,1-0.6s-0.7-0.8-1.2-1
	c-0.5-0.1-1-0.3-1.4-0.7c1.8-0.4,2.9-2.1,2.5-3.9v-0.1c-0.9,0.5-1.7,1.2-2.4,2.1c-0.7-0.6-1.6-0.7-2.4-0.3c-0.7-0.7-0.1-1.9,0.6-2.6
	s1.7-1.4,1.6-2.4l-4.4,2.3l1.7-3.6c-0.8-0.2-1.6-0.1-2.3,0.4c0-1.1-0.2-2.3-0.4-3.4c0-0.1,0-0.3-0.1-0.5c-0.1-1.4-0.5-2.8-1.2-4.1
	l1.5-0.4c-0.9-1-2.2-1.5-3.6-1.4c0.7-3.5,0.4-7.1-1-10.4c-0.2,3.5-0.3,7.1-0.3,10.6l-1.1-0.4c-0.2,0.5,0,1.1,0.5,1.3
	c-0.6,0.7-0.7,1.6-0.4,2.4c-1.2,0.1-2.4-0.1-3.6-0.5c0,0.9,1.1,1.3,1.9,1.7s1.7,1.4,1,2s-1.7-0.2-2.5,0c0.1,0.5,0.5,1,1,1.2
	l-4.3,0.6c0.1-0.2,0.2-0.5,0.2-0.8l-2,1l-1.3,0.2l1.1-2.3c-0.6-0.2-1.3,0-1.8,0.3c0-0.9-0.1-1.9-0.3-2.8l-0.1-0.4
	c-0.1-1.2-0.4-2.3-0.9-3.4l1.2-0.3c-0.7-0.8-1.8-1.3-2.9-1.2c0.6-2.8,0.3-5.8-0.8-8.5c-0.2,2.9-0.3,5.8-0.2,8.7l-0.9-0.3
	c-0.2,0.4,0,0.9,0.4,1c-0.5,0.5-0.6,1.3-0.3,2c-1,0.1-2-0.1-2.9-0.4c0,0.7,0.9,1.1,1.6,1.4s1.4,1.2,0.8,1.7s-1.4-0.1-2.1,0
	c0.1,0.5,0.4,0.8,0.8,1l-6.5,0.9c1.1,1.3,3,1.5,4.3,0.5l0,0c0.3,0.3,0.4,0.7,0.5,1.1c-0.8,0.4-1.6,0.7-2.5,0.9
	c0.4,0.4,1,0.6,1.6,0.5c0.6,0.7,0.4,1.8-0.3,2.3l-0.1,0.1c0.1,0.5,0.3,0.9,0.6,1.2c-1.4-0.7-2.9-1.1-4.4-1.2c0.7,1.4,2,2.3,3.5,2.5
	l-2.5,1.7l0.3,0.4l-2.4-1.3c-0.1-0.2-0.2-0.4-0.3-0.6c-1-2.5,1.9-3.9,1.5-6.3c-0.7,0-1.4,0-2.1,0c0.1-0.4,0.3-0.8,0.6-1.2l-1-0.3
	c-0.1-0.5,0.7-0.7,1.2-0.4s1.2,0.6,1.5,0.1c-0.1-0.3-0.2-0.6-0.3-0.8c0.2,0.3,0.8,0,0.7-0.4s-0.5-0.6-0.9-0.7s-0.7-0.2-1-0.5
	c1.3-0.3,2.1-1.5,1.8-2.8l0,0c-0.7,0.4-1.2,0.9-1.7,1.5c-0.5-0.4-1.1-0.5-1.7-0.2c-0.5-0.5-0.1-1.4,0.5-1.9s1.2-1,1.2-1.7l-3.2,1.6
	l1.2-2.6c-0.6-0.1-1.2,0-1.6,0.3c0-0.8-0.1-1.6-0.3-2.5c0-0.1,0-0.2-0.1-0.3c-0.1-1-0.4-2.1-0.8-3l1.1-0.3c-0.7-0.7-1.6-1.1-2.6-1
	c0.5-2.5,0.3-5.1-0.7-7.5c-0.2,2.5-0.2,5.1-0.2,7.6l-0.8-0.3c-0.1,0.4,0,0.8,0.4,0.9c-0.4,0.5-0.5,1.2-0.3,1.7
	c-0.9,0.1-1.7-0.1-2.6-0.4c0,0.6,0.8,1,1.4,1.2s1.2,1,0.7,1.5s-1.2-0.1-1.8,0c0.1,0.4,0.4,0.7,0.7,0.9l-3.2,0.4l-0.1-0.2
	c0.3,0.5,1.1-0.1,1-0.6s-0.7-0.8-1.2-1c-0.5-0.1-1-0.3-1.4-0.7c1.8-0.4,2.9-2.2,2.5-3.9c0,0,0,0,0-0.1c-0.9,0.5-1.7,1.2-2.4,2.1
	c-0.7-0.6-1.6-0.7-2.4-0.3c-0.7-0.7-0.1-1.9,0.6-2.6s1.7-1.4,1.6-2.4l-4.4,2.3c0.6-1.2,1.1-2.4,1.7-3.6c-0.8-0.2-1.6-0.1-2.3,0.4
	c0-1.1-0.2-2.3-0.4-3.4l-0.1-0.5c-0.1-1.4-0.5-2.8-1.2-4.1l1.5-0.4c-0.9-1-2.2-1.6-3.6-1.4c0.7-3.5,0.4-7.1-1-10.4
	c-0.2,3.5-0.3,7.1-0.3,10.6l-1.1-0.4c-0.2,0.5,0,1.1,0.5,1.3c-0.6,0.7-0.7,1.6-0.4,2.4c-1.2,0.1-2.4-0.1-3.6-0.5
	c0,0.9,1.1,1.3,1.9,1.7s1.7,1.4,1,2s-1.7-0.2-2.5,0c0.1,0.5,0.5,1,1,1.2l-5.1,0.7c0.6-2,2.5-3.7,2.1-6c-1,0-2,0-3,0.1
	c0.2-0.6,0.5-1.2,0.9-1.6l-1.4-0.4c-0.2-0.7,1-1,1.7-0.6s1.6,0.8,2.1,0.2l-0.4-1.2c0.3,0.5,1.1-0.1,1-0.6s-0.7-0.8-1.2-1
	c-0.5-0.1-1-0.3-1.4-0.7c1.8-0.4,2.9-2.1,2.5-3.9v-0.1c-0.9,0.5-1.7,1.2-2.4,2.1c-0.7-0.6-1.6-0.7-2.4-0.3c-0.7-0.7-0.1-1.9,0.6-2.6
	s1.7-1.4,1.6-2.4l-4.4,2.3l1.7-3.6c-0.8-0.2-1.6-0.1-2.3,0.4c0-1.1-0.2-2.3-0.4-3.4l-0.1-0.3c-0.1-1.4-0.5-2.8-1.2-4.1l1.5-0.4
	c-0.9-1-2.2-1.5-3.6-1.4c0.7-3.5,0.4-7.1-1-10.4c-0.2,3.5-0.3,7.1-0.3,10.6l-1.1-0.4c-0.2,0.5,0,1.1,0.6,1.3
	c-0.6,0.7-0.7,1.6-0.4,2.4c-1.2,0.1-2.4-0.1-3.6-0.5c0,0.9,1.1,1.3,1.9,1.7s1.7,1.4,1,2s-1.7-0.2-2.5,0c0.1,0.5,0.5,1,1,1.2
	l-2.3,0.3c0-0.1-0.1-0.3-0.1-0.4c0.2,0.4,0.9-0.1,0.8-0.5s-0.5-0.7-1-0.8c-0.4-0.1-0.8-0.3-1.2-0.6c1.4-0.3,2.3-1.8,2-3.2l0,0
	c-0.8,0.4-1.4,1-1.9,1.7c-0.5-0.5-1.3-0.5-1.9-0.2c-0.6-0.6-0.1-1.6,0.5-2.1s1.4-1.1,1.3-2l-3.5,1.9l1.4-2.9c-0.6-0.2-1.3,0-1.8,0.3
	c0-0.9-0.1-1.9-0.3-2.8l-0.1-0.4c-0.1-1.2-0.4-2.3-0.9-3.4l1.2-0.3c-0.7-0.8-1.8-1.3-2.9-1.2c0.6-2.8,0.3-5.8-0.8-8.5
	c-0.2,2.9-0.3,5.8-0.2,8.7l-0.9-0.3c-0.1,0.4,0.1,0.8,0.4,1c-0.5,0.6-0.6,1.3-0.3,2c-1,0.1-2-0.1-2.9-0.4c0,0.7,0.9,1.1,1.6,1.4
	s1.3,1.2,0.8,1.7s-1.4-0.1-2.1,0c0.1,0.5,0.4,0.8,0.8,1l-6.5,0.9c1.1,1.3,3,1.5,4.3,0.5l0,0c0.3,0.3,0.4,0.7,0.5,1.1
	c-0.8,0.4-1.6,0.7-2.5,0.9c0.4,0.4,1,0.6,1.6,0.5c-0.3,0.4-0.2,1,0.2,1.3l0.1,0.1c-0.5,0.1-0.8,0.5-0.7,1c0.1,0.5,0.3,0.9,0.6,1.2
	c-1.4-0.7-2.9-1.1-4.4-1.2c0.7,1.4,2,2.3,3.5,2.5l-2.5,1.7l1.1,1.4c-0.8,0.4-1.6,0.7-2.4,0.8c0.2-0.2,0.3-0.5,0.4-0.8
	c0-1.2-1.1-2-1.6-3c-1-2.5,1.9-3.9,1.5-6.3c-0.7,0-1.4,0-2.1,0c0.1-0.4,0.3-0.8,0.6-1.2l-1-0.3c-0.1-0.5,0.7-0.7,1.2-0.4
	s1.2,0.6,1.5,0.1c-0.1-0.3-0.2-0.6-0.3-0.8c0.2,0.3,0.8,0,0.7-0.4s-0.5-0.6-0.8-0.7c-0.4-0.1-0.7-0.2-1-0.5c1.3-0.3,2.1-1.5,1.8-2.8
	c0,0,0,0,0-0.1c-0.7,0.4-1.2,0.9-1.7,1.5c-0.5-0.4-1.1-0.5-1.7-0.2c-0.5-0.5-0.1-1.4,0.5-1.9s1.2-1,1.2-1.7l-3.2,1.6l1.2-2.6
	c-0.6-0.1-1.2,0-1.6,0.3c0-0.8-0.1-1.6-0.3-2.5c0-0.1,0-0.2,0-0.3c-0.1-1-0.4-2.1-0.8-3l1.1-0.3c-0.7-0.7-1.6-1.1-2.6-1
	c0.5-2.5,0.3-5.1-0.7-7.5c-0.2,2.6-0.2,5.1-0.2,7.7l-0.2-0.1c0-0.1,0.1-0.1,0.1-0.2c0-1.4-1.3-2.3-1.8-3.4c-1.1-2.8,2.1-4.4,1.7-7.1
	c-0.8,0-1.6,0-2.4,0.1c0.1-0.5,0.4-1,0.7-1.3l-1.2-0.3c-0.2-0.6,0.8-0.8,1.4-0.5s1.3,0.6,1.7,0.1l-0.3-1c0.2,0.4,0.9,0,0.8-0.5
	s-0.5-0.7-1-0.8c-0.4-0.1-0.8-0.3-1.2-0.6c1.4-0.3,2.3-1.7,2-3.2c0,0,0,0,0-0.1c-0.7,0.4-1.4,1-1.9,1.7c-0.5-0.5-1.3-0.5-1.9-0.2
	c-0.6-0.6-0.1-1.6,0.5-2.1s1.4-1.1,1.3-2l-3.6,1.8c0.4-1,0.9-1.9,1.4-2.9c-0.6-0.2-1.3,0-1.8,0.3c0-0.9-0.1-1.9-0.3-2.8
	c0-0.1,0-0.2,0-0.4c-0.1-1.2-0.5-2.3-1-3.4l1.2-0.3c-0.7-0.8-1.8-1.3-2.9-1.2c0.6-2.8,0.3-5.8-0.8-8.5c-0.2,2.9-0.3,5.8-0.2,8.7
	l-0.9-0.3c-0.1,0.4,0,0.9,0.4,1c-0.5,0.6-0.6,1.3-0.3,2c-0.9,0.1-1.9-0.1-2.7-0.4c0.4-0.7,0.6-1.6,0.5-2.4c-0.8,0-1.6,0-2.4,0.1
	c0.1-0.5,0.4-1,0.7-1.3l-1.2-0.3c-0.2-0.6,0.8-0.8,1.4-0.5s1.3,0.6,1.7,0.1l-0.3-1c0.2,0.4,0.9-0.1,0.8-0.5s-0.5-0.7-1-0.8
	c-0.4-0.1-0.8-0.3-1.2-0.6c1.4-0.3,2.3-1.7,2-3.2c0,0,0,0,0-0.1c-0.8,0.4-1.4,1-1.9,1.7c-0.5-0.5-1.3-0.5-1.9-0.2
	c-0.6-0.6-0.1-1.6,0.5-2.1s1.4-1.1,1.3-2l-3.6,1.9l1.4-2.9c-0.6-0.2-1.3,0-1.8,0.3c0-0.9-0.1-1.9-0.3-2.8l-0.1-0.4
	c-0.1-1.2-0.5-2.3-1-3.4l1.2-0.3c-0.7-0.8-1.8-1.3-2.9-1.2c0.6-2.8,0.3-5.8-0.8-8.4c-0.2,2.9-0.3,5.8-0.2,8.7l-0.9-0.3
	c-0.1,0.4,0,0.9,0.4,1.1c-0.5,0.6-0.6,1.3-0.3,2c-1,0-1.9-0.1-2.8-0.5c0,0.7,0.9,1.1,1.6,1.4s1.3,1.2,0.8,1.7s-1.4-0.1-2.1,0
	c0.1,0.4,0.4,0.8,0.8,1l-2.7,0.4l-0.2-0.1c-0.4-0.1-0.8-0.3-1.2-0.6c1.4-0.3,2.3-1.8,2-3.2l0,0c-0.6,0.3-1.1,0.7-1.5,1.2
	c-0.2,0.2-0.6,0.3-0.9,0.2s-0.5-0.1-0.8-0.1c-0.4,0-0.8-0.3-0.8-0.7c0-0.1,0-0.2,0-0.3c0.2-0.3,0.4-0.7,0.7-0.9
	c0.6-0.6,1.4-1.1,1.3-2l-1.6,0.8c-0.4,0.2-0.8,0-1-0.4c-0.1-0.2-0.1-0.4,0-0.6l0.4-0.9c-0.3-0.1-0.7-0.1-1,0
	c-0.4,0.1-0.8-0.2-0.9-0.6v-0.1c0-0.6-0.2-1.2-0.2-1.8l-0.1-0.4c-0.1-1.2-0.5-2.3-1-3.4l1.2-0.3c-0.6-0.6-1.3-1-2.1-1.1
	c-0.4-0.1-0.7-0.4-0.7-0.9c0.4-2.6,0-5.2-1-7.6c-0.2,2.9-0.3,5.8-0.2,8.7l-0.9-0.3c-0.1,0.4,0.1,0.8,0.4,1c-0.3,0.3-0.5,0.8-0.5,1.2
	s-0.3,0.8-0.7,0.8c0,0,0,0-0.1,0c-0.3,0-0.6-0.1-0.9-0.1c0.1-0.4,0.1-0.7,0-1.1c-0.7,0.4-1.2,0.9-1.7,1.5c-0.5-0.4-1.1-0.5-1.7-0.2
	c-0.5-0.5-0.1-1.4,0.5-1.9s1.2-1,1.2-1.7l-3.2,1.6L68,217c-0.6-0.1-1.2,0-1.6,0.3c0-0.8-0.1-1.6-0.3-2.4v-0.3c-0.1-1-0.4-2.1-0.8-3
	l1.1-0.3c-0.7-0.7-1.6-1.1-2.6-1c0.5-2.5,0.3-5.1-0.7-7.5c-0.2,2.6-0.2,5.1-0.2,7.6l-0.8-0.3c-0.1,0.4,0,0.8,0.4,0.9
	c-0.4,0.5-0.5,1.2-0.3,1.7c-0.8,0.1-1.7,0-2.5-0.3c0,0.6,0.8,1,1.4,1.2s1.2,1,0.7,1.5s-1.2-0.1-1.8,0c0.1,0.4,0.4,0.7,0.7,0.9
	l-5.8,0.8c0.9,1.2,2.6,1.4,3.8,0.4l0,0c0.2,0.3,0.4,0.6,0.4,1c-0.7,0.3-1.4,0.6-2.2,0.8c0.4,0.3,0.9,0.5,1.4,0.5
	c-0.3,0.3-0.2,0.9,0.1,1.1c0,0,0.1,0.1,0.2,0.1c-0.4,0.1-0.7,0.5-0.6,0.9c0.1,0.4,0.3,0.8,0.5,1.1c-1.2-0.6-2.5-1-3.9-1.1
	c0.6,1.2,1.8,2,3.1,2.2l-2.2,1.5l1,1.2c-0.1,0.1-0.2,0.1-0.3,0.1c-1.3-0.6-2.6-1.2-3.9-1.7l0,0c0.4,0,0.7-0.1,1-0.3
	c0.8-0.6,0.3-1.9-0.3-2.7c0.3,0.5,2-1.9,2-2.3c0-1.2-1.1-2-1.6-3c-1-2.5,1.9-3.9,1.5-6.3c-0.7,0-1.4,0-2.1,0.1
	c0.1-0.4,0.3-0.8,0.6-1.2l-1-0.3c-0.2-0.5,0.7-0.7,1.2-0.4s1.2,0.6,1.5,0.1c-0.1-0.3-0.2-0.6-0.3-0.8c0.2,0.3,0.8,0,0.7-0.4
	s-0.5-0.6-0.8-0.7c-0.4-0.1-0.7-0.2-1-0.5c1.3-0.3,2.1-1.5,1.8-2.8c0,0,0,0,0-0.1c-0.7,0.4-1.2,0.9-1.7,1.5
	c-0.5-0.4-1.1-0.5-1.7-0.2c-0.5-0.5-0.1-1.4,0.5-1.9s1.2-1,1.2-1.7l-3.2,1.6l1.2-2.6c-0.6-0.1-1.2,0-1.6,0.3c0-0.8-0.1-1.6-0.3-2.5
	l-0.1-0.3c-0.1-1-0.4-2.1-0.8-3l1.1-0.3c-0.7-0.7-1.6-1.1-2.6-1c0.5-2.5,0.3-5.1-0.7-7.5c-0.2,2.6-0.2,5.1-0.2,7.7l-0.8-0.3
	c-0.1,0.4,0,0.8,0.4,0.9c-0.4,0.5-0.5,1.2-0.3,1.7c-0.9,0.1-1.7-0.1-2.5-0.4c0,0.6,0.8,0.9,1.4,1.2s1.2,1,0.7,1.5s-1.2-0.1-1.8,0
	c0.1,0.4,0.4,0.7,0.7,0.9l-5.8,0.8c0.9,1.2,2.6,1.4,3.8,0.5c0,0,0,0,0.1,0c0.2,0.3,0.4,0.6,0.4,1c-0.7,0.3-1.4,0.6-2.1,0.8
	c-0.7-0.8-1.8-1.2-2.8-1.1c0.6-2.8,0.3-5.8-0.8-8.4c-0.2,2.7-0.3,5.5-0.2,8.2c-0.5-0.2-0.9-0.2-1.4-0.2c0.6-2.8,0.3-5.8-0.8-8.4
	c-0.2,2.9-0.3,5.8-0.2,8.7l-0.9-0.3c-0.1,0.4,0.1,0.8,0.4,1c-0.5,0.6-0.6,1.3-0.3,2h-0.2l-0.2-0.1c0,0,0,0,0,0.1
	c-0.8,0-1.7-0.1-2.5-0.4c0,0.7,0.9,1.1,1.5,1.4c0.6,0.3,1.3,1.2,0.8,1.7s-1.4-0.1-2.1,0c0.1,0.4,0.4,0.8,0.8,1l-3.8,0.5
	c0.1-0.1,0.2-0.2,0.2-0.4c-0.1-0.4-0.5-0.6-0.8-0.7c-0.4-0.1-0.7-0.2-1-0.5c1.3-0.3,2.1-1.6,1.8-2.8l0,0c-0.7,0.4-1.2,0.9-1.7,1.5
	c-0.3-0.2-0.6-0.3-0.9-0.4c0.2-0.5,0.3-1,0.1-1.5c-0.4,0.2-0.8,0.5-1.1,0.9c0.1-0.4,0.3-0.7,0.7-1c0.5-0.5,1.2-1,1.2-1.7l-3.2,1.6
	l1.2-2.6c-0.6-0.1-1.2,0-1.6,0.3c0-0.8-0.1-1.6-0.3-2.5c0-0.1,0-0.2,0-0.3c-0.1-1-0.4-2.1-0.8-3l1.1-0.3c-0.7-0.7-1.6-1.1-2.6-1
	c0.5-2.5,0.3-5.1-0.7-7.5c-0.2,2.4-0.2,4.9-0.2,7.4c-0.5-0.2-1-0.3-1.5-0.3c0.5-2.5,0.3-5.1-0.7-7.5c-0.2,2.6-0.2,5.1-0.2,7.7
	l-0.8-0.3c-0.1,0.4,0,0.8,0.4,0.9c-0.4,0.5-0.5,1.2-0.3,1.7h-0.1c-0.8,0.1-1.7-0.1-2.5-0.4c0,0.6,0.8,1,1.4,1.2s1.2,1,0.7,1.5
	s-1.2-0.1-1.8,0c0.1,0.4,0.4,0.7,0.7,0.9L9,199.4c0.7,0.9,1.9,1.3,3,0.9c0.4,0.3,0.8,0.4,1.3,0.5c-0.7,0.3-1.4,0.6-2.1,0.8
	c0.4,0.3,0.9,0.5,1.4,0.5c-0.3,0.4-0.2,0.9,0.1,1.2l0.1,0.1c-0.4,0.1-0.7,0.5-0.6,0.9c0,0.2,0.1,0.4,0.2,0.6
	c-0.4-0.1-0.7-0.1-1.1-0.1l0.1,0.1c-0.8-0.3-1.7-0.5-2.6-0.5c0.6,1.2,1.8,2,3.1,2.2l-2.2,1.5l1,1.2c-1.5,0.8-3.2,1.1-4.9,0.9
	c0.9,1.2,2,2.2,3.2,3c-1-0.4-2.1-0.5-3.1-0.3c-0.3,0.1-0.7,0.2-0.7,0.5c0,0.2,0.1,0.4,0.3,0.5c0.7,0.8,1.5,1.5,2.4,2.1
	c-0.4,0.7-0.4,1.5-0.1,2.2c-0.9,0.1-6.4,2-7.3,2.1V280c2.5,14.9,33.1,45.2,37.8,59.6c6.5,19.8,19.5,37,33.9,52.1
	c18.1,19,39.7,35.9,65.2,42.3c32.6,8.2,66.7-1.7,100.3-3.5c31.7-1.7,63.4,4,95.2,4c51.3,0,105-17,137.8-56.5
	c11.5-13.9,20.1-30.1,28.5-46.1c4.7-4.6,7.2-15.3,9.5-21.5c2.3-6.3,4.2-12.7,6.4-19c2.5-7.3,6-14.1,8.6-21.3
	c2.3-6.4,22,16.3,24.1,9.8v-48.3c0.1,0-6.3-1.3-6.2-1.4l-0.4-1.2C540.9,229.1,541.7,228.6,541.6,228.1z M387,285.4L387,285.4
	L387,285.4z M406.6,270.6c0,0.4,0.1,0.7,0.2,1.1l-0.9,0.4L406.6,270.6z M407.8,274.3v-0.1C407.8,274.2,407.8,274.3,407.8,274.3
	L407.8,274.3z M432.2,254.1c-0.2-0.1-0.4-0.1-0.6-0.2l0.1-0.2L432.2,254.1z M429.2,259.6c0.1-0.1,0.2-0.3,0.3-0.4l-1.5-0.4
	c-0.2-0.7,1-1,1.7-0.6c0.2,0.1,0.4,0.2,0.6,0.3c-0.1,0.2-0.2,0.5-0.2,0.7L429.2,259.6z M473.5,235.4l0.2,0.2l-0.4,0.2L473.5,235.4z
	 M493.5,230.9l-0.5,0.4c-0.2-0.1-0.4-0.2-0.5-0.4c0.1,0,0.3-0.1,0.4-0.1S493.3,230.9,493.5,230.9L493.5,230.9z M490.7,234.8
	c-0.1-0.4,0.2-0.6,0.6-0.7l0.6,0.7c-0.1,0.1-0.3,0.1-0.5,0.2L490.7,234.8z M527.5,215.2c0.1-0.4,0-0.8-0.1-1.1
	C527.7,214.3,527.7,214.8,527.5,215.2L527.5,215.2z M523.3,213.2c0.5-0.4,0.9-0.8,1.3-1.3c0.3,0.6,1.1,1,1.8,1.3
	c0.4,0.2,0.7,0.4,1,0.8c-0.6,0.4-1.2,0.8-1.7,1.3c-0.3-0.1-0.5-0.1-0.8,0c0,0.2,0.1,0.4,0.3,0.6l-0.1,0.1c-0.7-0.6-1.6-0.7-2.3-0.3
	C521.9,215.1,522.5,213.8,523.3,213.2L523.3,213.2z M507.9,218.8l-2.4,1.6c-0.1-0.6-0.2-1.3-0.3-1.9l-0.1-0.4c0-0.1,0-0.3-0.1-0.5
	C505.9,218.2,506.8,218.7,507.9,218.8L507.9,218.8z M490.9,226.1c0.7-0.5,1.2-1.1,1.6-1.9c0.5,0.5,1.2,0.7,1.9,0.6
	c-0.4,0.5-0.3,1.2,0.2,1.6l0.1,0.1c-0.5,0.1-0.9,0.6-0.9,1.1c-0.4,0.3-0.7,0.6-1,0.9c-1-0.3-2-0.6-3-0.7
	C489.9,227.2,490.3,226.5,490.9,226.1L490.9,226.1z M477.3,224c-0.9,0.4-1.8,0.8-2.8,1c0.4-0.5,0.6-1,0.7-1.6
	c0.6-0.1,1.1-0.4,1.5-0.7C477,223,477.2,223.5,477.3,224L477.3,224z M474.4,225.1c0.5,0.4,1.2,0.6,1.9,0.6c-0.4,0.5-0.3,1.2,0.2,1.6
	c0.1,0.1,0.1,0.1,0.2,0.1c-0.6,0.1-1,0.7-0.9,1.2c0.1,0.6,0.4,1.1,0.7,1.5c-0.6-0.3-1.3-0.5-1.9-0.8l-0.3-1c0.3,0.4,1.1-0.1,1-0.6
	s-0.7-0.8-1.2-1c-0.5-0.1-1-0.3-1.4-0.7C473.4,225.9,473.9,225.6,474.4,225.1L474.4,225.1z M471.5,229.3c0.9,1.3,2.3,2.2,4,2.5
	l-0.9,0.6c0-0.2,0-0.3,0-0.5c-1,0-2,0-3,0.1c0.2-0.6,0.5-1.2,0.9-1.6L471,230C470.7,229.6,471,229.4,471.5,229.3L471.5,229.3z
	 M450.5,235.9c0.1-0.1,0.1-0.3,0.2-0.4c0.3,0.3,0.7,0.5,1,0.8C451.2,236.1,450.8,236,450.5,235.9L450.5,235.9z M450.5,235.4
	c-0.7-0.1-1.4,0-1.9,0.3h-0.2c0-0.8-0.1-1.7-0.2-2.5C448.9,234,449.6,234.7,450.5,235.4L450.5,235.4z M428.2,250.3
	c0.7,0.8,1.4,1.6,2.2,2.3c-0.1,0.1-0.3,0.3-0.4,0.5c-0.7-0.6-1.6-0.7-2.4-0.3C426.9,252.1,427.4,251,428.2,250.3L428.2,250.3z
	 M406.4,268.5c-0.4,0.1-0.7,0.2-1,0.4c0-0.4,0-0.9-0.1-1.3C405.6,267.9,406,268.2,406.4,268.5z M205.6,350.1c0,0.3,0.1,0.7,0.4,0.9
	l0,0c-0.4-0.1-0.8-0.3-1.2-0.6C205.1,350.3,205.4,350.2,205.6,350.1z M204.8,353.1c0.3,0.2,0.6,0.3,1,0.4l0.3,0.4
	c-0.7-0.4-1.5-0.6-2.3-0.9C204.1,352.9,204.5,352.9,204.8,353.1L204.8,353.1z M281.7,358.4c0.2,0,0.4-0.1,0.7-0.2l0.8,0.6
	C282.7,358.6,282.3,358.5,281.7,358.4C281.7,358.5,281.7,358.4,281.7,358.4z M315.9,336.9l0.7,0.9c-0.6,0.3-1.3,0.5-1.9,0.7
	c0.2-0.5,0.5-1,0.9-1.4L315.9,336.9z M367,306.4c-0.2,0.1-0.5,0.2-0.7,0.3c0-1.1-0.2-2.3-0.4-3.4c0-0.1,0-0.3-0.1-0.4
	c-0.1-0.7-0.2-1.3-0.4-2c0.3,0.3,0.7,0.5,1,0.7C365.5,303.1,366.3,304.8,367,306.4L367,306.4z M351.1,318.5l0.3-0.3
	c0.4,0.5,0.7,0.9,1.1,1.4c-0.8,0.4-1.6,0.7-2.4,0.9C350.1,319.7,350.5,319,351.1,318.5z M298.3,346.5l0.1,0.2l-0.2,0.1
	C298.3,346.7,298.3,346.6,298.3,346.5z M247.4,367c1.3,0.6,2.8,0.3,3.9-0.5c0.3,0.4,0.5,0.8,0.6,1.3c-1,0.5-2,0.8-3,1.1
	c0.5,0.5,1.3,0.7,2,0.6c-0.4,0.5-0.3,1.2,0.2,1.6c0.1,0.1,0.1,0.1,0.2,0.1c-0.6,0.1-1,0.7-0.9,1.2c0.1,0.6,0.4,1.1,0.7,1.5
	c-1.7-0.8-3.5-1.3-5.4-1.5c0.6,1.1,1.5,2,2.6,2.6l-1.1,0.2c-0.5-0.7-1-1.4-1.4-2.1C244.8,370.7,246.5,369,247.4,367L247.4,367z
	 M225,368.7c-1.1-0.4-2.3-0.6-3.5-0.5c-0.1-0.8,0-1.5,0.3-2.2C222.8,367,223.9,367.9,225,368.7L225,368.7z M206.8,347.2
	c-0.5,0.3-1,0.7-1.4,1.1c-0.3,0.1-0.5,0.2-0.8,0.2c-0.5-0.2-1-0.2-1.5,0c-0.4-0.4-0.4-1.1,0-1.5c1.1,0.3,2.4,0,3.3-0.7
	C206.5,346.6,206.7,346.9,206.8,347.2L206.8,347.2z M201.4,346.3l-0.1,0.1L201.4,346.3L201.4,346.3z M172.8,341.1
	c0.4,0.2,0.8,0.3,1.2,0.4l-2.2,1.5C172.1,342.3,172.4,341.7,172.8,341.1L172.8,341.1z M171.5,343.7c0.1-0.2,0.1-0.4,0.2-0.7l1,1.2
	l-0.1,0.1L171.5,343.7z M171.3,334.8c1,0.9,2.5,1,3.6,0.1c0.2,0.3,0.4,0.6,0.4,1c-0.7,0.3-1.4,0.6-2.2,0.8c0.4,0.3,0.9,0.5,1.4,0.5
	c0.5,0.7,0.4,1.6-0.3,2.1c0,0-0.1,0-0.1,0.1c0.1,0.4,0.3,0.8,0.5,1.1c-0.4-0.2-0.9-0.4-1.3-0.5c0.3-0.7,0.4-1.5,0.3-2.3
	c-1,0-2,0-3,0.1c0.2-0.6,0.4-1.2,0.9-1.6l-1.4-0.4C170,334.9,170.7,334.7,171.3,334.8L171.3,334.8z M137.8,306.6
	c0.1,0.2,0.3,0.3,0.5,0.4c-0.6,0.1-1,0.7-0.9,1.2c0.1,0.6,0.4,1.1,0.7,1.5c-0.4-0.2-0.9-0.4-1.3-0.6
	C136.9,308.3,137.3,307.4,137.8,306.6z M156.1,328.1c-0.1,0-0.3,0.1-0.4,0.1c-0.4-0.8-0.8-1.5-1.4-2.1c0.4,0.2,0.9,0.3,1.4,0.3
	c-0.4,0.5-0.3,1.2,0.2,1.6C156,328,156,328,156.1,328.1L156.1,328.1z M155.5,330.2c0.1,0.2,0.3,0.4,0.4,0.6l-0.6-0.3
	C155.4,330.4,155.5,330.3,155.5,330.2z M153.5,333.2c-0.1-0.2-0.3-0.4-0.4-0.6c0.1,0.2,0.4,0.1,0.8-0.3c0.3,0.1,0.6,0.2,0.9,0.2
	l-1.2,0.8L153.5,333.2z M156.2,323.4c0.3,0.4,0.5,0.8,0.6,1.3c-0.9,0.4-1.8,0.8-2.7,1c-0.1-0.2-0.2-0.4-0.3-0.5
	c-0.1-0.3-0.2-0.6-0.2-0.9C154.5,324.3,155.5,324,156.2,323.4L156.2,323.4z M138.7,303.7c0-0.1,0-0.2,0-0.3c-0.8,0-1.6,0-2.4,0.1
	c0-0.1,0.1-0.3,0.1-0.4c0.7-0.1,1.4-0.4,1.9-0.8c0.3,0.4,0.5,0.8,0.6,1.3L138.7,303.7z M71.2,224.9c0.1,0.1,0.2,0.2,0.4,0.1
	c0.1,0.1,0.2,0.2,0.4,0.3l-0.6,0.1L71.2,224.9z M83.7,240c0.1,0.4,0.3,0.7,0.6,1c-0.3-0.1-0.6-0.3-0.9-0.4
	C83.5,240.4,83.6,240.2,83.7,240z M83.4,242.3l-1.2,0.8c0.1-0.3,0.2-0.7,0.4-1C82.8,242.3,83.1,242.3,83.4,242.3L83.4,242.3z
	 M69.7,226.5c0.2,0.3,0.4,0.6,0.4,0.9h-1c0.1-0.3,0.2-0.5,0.3-0.8C69.6,226.6,69.7,226.6,69.7,226.5z M109.6,279.6
	c0.6,0.3,1.2,1,0.7,1.5c-0.1,0.1-0.3,0.2-0.5,0.2C109.9,280.7,109.9,280.1,109.6,279.6L109.6,279.6z M109.1,281.9l0.1,0.1l-0.6,0.1
	C108.8,282,109,282,109.1,281.9L109.1,281.9z M110.9,277L110.9,277c-0.3,0.5-0.4,1.2-0.2,1.8c-0.4,0-0.9,0-1.3-0.1
	C110,278.3,110.5,277.7,110.9,277L110.9,277z M98.1,249c0.2,0.5,0.9,0.9,1.5,1.1s1.3,1.2,0.8,1.7s-1.4-0.1-2.1,0
	c0.1,0.4,0.4,0.8,0.8,1l-2.3,0.3C96.5,251.5,97.4,250.3,98.1,249L98.1,249z M84.1,237.3c-0.3,0.4-0.3,1,0.1,1.3
	c0.1,0,0.1,0.1,0.2,0.1c-0.1,0-0.3,0.1-0.4,0.2v-0.1c0-0.4-0.3-0.8-0.7-0.8l0,0c-0.6,0-1.1,0-1.7,0.1c0.1-0.5,0.4-0.9,0.7-1.3
	l-1.2-0.3c-0.2-0.6,0.8-0.8,1.4-0.5s1.3,0.6,1.7,0.1c-0.1-0.3-0.2-0.6-0.3-0.8l0,0c0.2,0.1,0.5,0,0.6-0.2c0.2,0.3,0.3,0.6,0.4,0.9
	c-0.8,0.4-1.6,0.7-2.5,0.9C82.9,237.2,83.5,237.4,84.1,237.3L84.1,237.3z M71.5,222.1c0.3,0.1,0.6,0.3,0.8,0.4
	c0.7,0.3,1.3,1.2,0.8,1.7c-0.3,0.3-0.9,0.1-1.4,0.1c-0.2-0.3-0.4-0.4-0.8-0.5s-0.7-0.2-1-0.5C70.7,223.1,71.2,222.7,71.5,222.1z
	 M69.7,225.5l-0.8,0.1C69.2,225.5,69.4,225.5,69.7,225.5z M28.5,215.8l-2,1.4c-0.2-0.3-0.4-0.5-0.5-0.8c-0.2-0.6-0.3-1.2-0.1-1.8
	C26.6,215.3,27.5,215.7,28.5,215.8L28.5,215.8z M40.7,207.3c0-0.2-0.1-0.4-0.1-0.7c0.3,0.1,0.5,0.1,0.8,0.2
	C41.1,207,40.9,207.2,40.7,207.3z M28.4,209c0.5,0.3,1,0.5,1.6,0.5l0,0c-0.8,0.4-1.6,0.7-2.5,0.9c0.4,0.4,1,0.6,1.6,0.5
	c-0.3,0.4-0.3,1,0.1,1.3c0.1,0,0.1,0.1,0.2,0.1c-0.5,0.1-0.8,0.5-0.7,1c0,0.2,0.1,0.5,0.2,0.6c-0.5-0.1-1-0.2-1.5-0.2
	c0,0,0,0.1,0.1,0.1c-0.4-0.1-0.8-0.2-1.1-0.3c0.6-1.1,1.3-2.1,1.1-3.4c-0.7,0-1.4,0-2.1,0.1c0.1-0.4,0.3-0.8,0.6-1.2l-1-0.3
	c-0.1-0.3,0.2-0.5,0.5-0.5C26.3,209,27.4,209.3,28.4,209z M40.7,202.1c0.4,0.3,0.8,0.4,1.3,0.4c-0.3,0.4-0.2,0.9,0.1,1.2l0.1,0.1
	c-0.4,0.1-0.7,0.5-0.6,0.9c0.1,0.4,0.3,0.8,0.5,1.1c-0.6-0.3-1.2-0.5-1.8-0.7c-0.1-0.9-0.4-1.8-0.8-2.6L40.7,202.1z M27.4,207.7
	L27.4,207.7L27.4,207.7z"/>
<linearGradient id="SVGID_2_" gradientUnits="userSpaceOnUse" x1="369.4352" y1="-1794.6921" x2="212.3252" y2="-1345.3223" gradientTransform="matrix(1 0 0 -1 -14.31 -1250.49)">
	<stop  offset="0" style="stop-color:#000000"/>
	<stop  offset="0.12" style="stop-color:#000000;stop-opacity:0.69"/>
	<stop  offset="1" style="stop-color:#000000;stop-opacity:0"/>
</linearGradient>
<path class="st2" d="M450.7,303.4l-34.2,38.4c-11.5,12.9-23,25.8-35.9,37.2c-14.1,12.3-29.3,23.2-45.5,32.5
	c-22.1,13-46.1,24-71.7,25.6c-36.8,2.3-71.5-15.1-101.3-37.8c-5.7-4.3-11.2-8.8-16.5-13.4c-26.2-22.6-51.5-51.8-51.4-86.5
	c0-16.3,7.6-29.8,22.5-36c15.1-6.4,28.9-15.4,40.8-26.7c5.4-5.2,10.6-11,17.6-13.8c3.8-1.6,8.1-2.2,11.4-4.7
	c2.6-1.9,4.4-4.8,6.2-7.5c9.5-14.7,19.9-28.8,31.2-42.1c3.1-3.6,6.4-7.3,10.8-9.2c1.3-0.6,2.7-1,4.1-1.2c5.7-0.9,11.9,1.1,16.7,4.5
	c6,4.2,10.4,10.3,14.6,16.3c5.5,7.7,11,15.4,16.5,23.2c4,5.6,8.3,11.4,14.6,13.8c7.7,2.9,17.3,0.4,23.6,5.6c5,4.2,6,12.1,11.4,15.9
	c3.3,2.3,7.6,2.5,11.5,3.6c11.3,3.2,18.8,13.6,27.3,21.7c3.8,3.6,8.2,7,13.3,8c3.7,0.7,7.5,0.2,11.3,0.8c5,0.9,9.3,3.7,13.5,6.5
	L450.7,303.4z"/>
<linearGradient id="SVGID_3_" gradientUnits="userSpaceOnUse" x1="85.5905" y1="-1478.8574" x2="458.3704" y2="-1624.1477" gradientTransform="matrix(1 0 0 -1 -14.31 -1250.49)">
	<stop  offset="1.000000e-02" style="stop-color:#000000"/>
	<stop  offset="0.13" style="stop-color:#000000;stop-opacity:0.69"/>
	<stop  offset="1" style="stop-color:#000000;stop-opacity:0"/>
</linearGradient>
<path class="st3" d="M236.8,253.7c-2.5,8.8-0.4,18.2,5.5,25.1l-11.4-0.8c-3.7,15.9-9.4,31.3-17.1,45.8c-3.2,6-6.7,11.9-7.6,18.6
	c-1.3,10.2,3.8,20.3,3.9,30.6c0.2,1.3-0.2,2.6-0.9,3.6c-0.9,1-2.4,1.3-3.8,1.4c-11.8,1.3-24,3.8-33.2,11.3c-3.6,3-6.7,6.7-10,10
	c-5.7-4.3-11.2-8.8-16.5-13.4c-26.2-22.6-51.5-51.8-51.4-86.5c0-16.3,7.6-29.8,22.5-36c15.1-6.4,28.9-15.4,40.8-26.7
	c5.4-5.2,10.6-11,17.6-13.8c3.8-1.6,8.1-2.2,11.4-4.7c2.6-1.9,4.4-4.8,6.2-7.5c9.5-14.7,19.9-28.8,31.2-42.1
	c3.1-3.6,6.4-7.3,10.8-9.2c1.3-0.6,2.7-1,4.1-1.2c2.3,10.4,1.5,23.8,3.5,32.7c3.4,15.1,8.1,31.3,2.1,46.4
	C242.1,242.9,238.5,247.9,236.8,253.7z"/>
<linearGradient id="SVGID_4_" gradientUnits="userSpaceOnUse" x1="309.0731" y1="-1533.771" x2="368.7631" y2="-1449.301" gradientTransform="matrix(1 0 0 -1 -14.31 -1250.49)">
	<stop  offset="1.000000e-02" style="stop-color:#000000"/>
	<stop  offset="0.13" style="stop-color:#000000;stop-opacity:0.69"/>
	<stop  offset="1" style="stop-color:#000000;stop-opacity:0"/>
</linearGradient>
<path class="st4" d="M352.6,278.3c-2.4-5.7-7.5-9.7-11.9-14.1c-5.5-5.4-10.2-11.6-13.9-18.5c-2.1-3.8-3.9-7.9-6.6-11.3
	c-2-2.3-4.2-4.4-6.6-6.4c-7.1-6-14.1-12.2-21.3-18.1c5.5,13.5,16.3,26.6,25.9,37.4C328.4,259.1,340,269.4,352.6,278.3z"/>
<path d="M537.3,259.7c-0.1-1.1,3.1-4-2.3-3.1c0.2-0.6,0.5-1.2,0.9-1.6c-4.4-1.8,3.1,0.6,1.9-2c0.5,0.2,2.2-1-1.6-2.3
	c1.1-0.3,2.5-1.5,2.5-4c-0.9,0.5-1.7,1.2-2.4,2.1c-2-0.3-3.8-0.8-0.1-5.3l-4.4,2.3l1.7-3.6c-0.8-0.2-1.6-0.1-2.3,0.4
	c-0.3-2,0-3.8-1.6-8l1.5-0.4c-0.9-1-2.2-1.6-3.6-1.4c0.7-3.5,0.4-7.1-1-10.4c-0.2,3.5-0.3,7.1-0.3,10.7c-0.4,0-2-1.1-0.6,0.9
	c-0.6,0.7-0.7,1.6-0.4,2.4c-1.2,0.1-2.4-0.1-3.5-0.5c6.7,5.3-0.8,2.3,1.4,5l-8,1c0.2,2.2,11.1-0.6,2.9,3c0.5,0.5,1.3,0.7,2,0.6
	c-0.3,0.4-0.3,0.2,0.4,1.7c0.1,0.3-1.7-0.1-0.1,2.8c-1.7-0.8-3.5-1.3-5.4-1.5c0.3,0.6,0.7,1.2,1.2,1.6l-4.2,2.1
	c0.6-1.2,1.1-2.4,1.7-3.6c-0.8-0.2-1.6-0.1-2.3,0.4c-0.3-2,0-3.8-1.6-8l1.5-0.4c-0.9-1-2.2-1.6-3.6-1.4c0.7-3.5,0.4-7.1-1-10.4
	c-0.2,3.5-0.3,7.1-0.3,10.6c-0.4,0-2-1.1-0.6,0.9c-0.6,0.7-0.7,1.6-0.4,2.4c-1.2,0.1-2.4-0.1-3.5-0.5c6.6,5.3-0.7,2.3,1.4,5l-8,1
	c0.2,2.3,11.1-0.5,2.9,3c0.5,0.5,1.3,0.7,2,0.6c-0.3,0.4-0.3,0.2,0.4,1.7c0.1,0.3-1.7-0.1-0.1,2.8c-1.7-0.8-3.5-1.3-5.4-1.5
	c0.9,1.7,2.5,2.8,4.3,3.1l-3.1,2.1l1.4,1.7c-2.1,1.1-4.5,1.5-6.8,1.2c1.3,1.6,2.8,3,4.5,4.2c0-0.3-0.8,0.3-1.2-0.7
	c-1,0.4-0.3,0.1-3.5,0.4l0.8-1.7c-0.8-0.2-1.7,0-2.3,0.6c-0.2-2,0-3.8-1.6-8l1.5-0.4c-0.9-1-2.2-1.5-3.6-1.4c0.7-3.5,0.4-7.1-1-10.4
	c-0.2,3.6-0.3,7.1-0.3,10.6c-0.4,0-2-1.1-0.6,0.9c-0.6,0.7-0.7,1.6-0.4,2.4c-1.2,0.1-2.4-0.1-3.5-0.5c6.7,5.3-0.8,2.3,1.4,5l-8,1
	c0.2,2.3,11.1-0.5,2.9,3c0.5,0.5,1.3,0.7,2,0.6c-0.3,0.4-0.2,0.2,0.4,1.7c0.1,0.3-1.7-0.1-0.1,2.8c-1.7-0.8-3.5-1.3-5.4-1.5
	c0.8,1.7,2.4,2.9,4.3,3.2l-2.8,2c0.3-0.4,0.5-0.8,0.5-1.3l-4.4,2.2c0.6-1.2,1.1-2.4,1.7-3.6c-0.8-0.2-1.6,0-2.3,0.4
	c-0.3-2,0-3.8-1.6-8l1.5-0.4c-0.9-1-2.2-1.5-3.6-1.4c0.7-3.5,0.4-7.1-1-10.4c-0.2,3.5-0.3,7.1-0.3,10.6c-0.4,0-2-1.1-0.6,0.9
	c-0.6,0.7-0.7,1.6-0.4,2.4c-1.2,0.1-2.4-0.1-3.5-0.5c6.6,5.3-0.7,2.3,1.4,5l-8,1c0.2,2.3,11.1-0.5,2.9,3c0.5,0.5,1.3,0.7,2,0.6
	c-0.3,0.4-0.3,0.2,0.4,1.7c0.1,0.3-1.6-0.2-0.1,2.8c-1.7-0.8-3.5-1.3-5.4-1.5c0.9,1.7,2.5,2.8,4.3,3.1l-3.1,2.1l1.4,1.7
	c-1.7,0.9-3.6,1.3-5.5,1.3c0-0.1,0-0.2,0-0.3c-0.1,0-0.2,0.4-1.4,0.2l0.3,0.4l-3.3,1.7c0.6-1.2,1.1-2.4,1.7-3.6
	c-0.8-0.2-1.6-0.1-2.3,0.4c-0.3-2,0-3.8-1.6-8l1.5-0.4c-0.9-1-2.2-1.5-3.6-1.4c0.7-3.5,0.4-7.1-1-10.4c-0.2,3.5-0.3,7.1-0.3,10.6
	c-0.4,0-2-1.1-0.6,0.9c-0.6,0.7-0.7,1.6-0.4,2.4c-1.2,0.1-2.4-0.1-3.5-0.5c6.7,5.3-0.8,2.3,1.4,5l-8,1c0.2,2.3,11.1-0.5,2.9,3
	c0.5,0.5,1.3,0.7,2,0.6c-0.3,0.4-0.2,0.2,0.4,1.7c0.1,0.3-1.6-0.1-0.1,2.8c-1.7-0.8-3.5-1.3-5.4-1.5c0.9,1.7,2.5,2.8,4.3,3.1
	l-3.1,2.1l1.4,1.7c-2.1,1.1-4.5,1.5-6.8,1.2c0.2,0.2,0.4,0.5,0.6,0.7c-0.5,0-1,0.2-1.4,0.5c-0.2-2,0-3.8-1.6-8l1.5-0.4
	c-0.9-1-2.2-1.5-3.6-1.4c0.7-3.5,0.4-7.1-1-10.4c-0.2,3.5-0.3,7.1-0.3,10.6c-0.4,0-2-1.1-0.6,0.9c-0.6,0.7-0.7,1.6-0.4,2.4
	c-1.2,0.1-2.4-0.1-3.5-0.5c6.7,5.3-0.9,2.3,1.4,5l-8,1c0.2,2.2,11.1-0.5,2.9,3c0.5,0.5,1.3,0.7,2,0.6c-0.3,0.4-0.2,0.2,0.4,1.7
	c0.1,0.3-1.7-0.1-0.1,2.8c-1.7-0.8-3.5-1.3-5.4-1.5c0.9,1.7,2.5,2.8,4.4,3.1l-3.2,2.2l1.4,1.7c-2.1,1.1-4.5,1.5-6.8,1.2
	c0.4,0.4,0.7,0.9,1.1,1.3c-0.7-0.1-1.4,0.1-1.9,0.5c-0.2-2,0-3.8-1.6-8l1.5-0.4c-0.9-1-2.3-1.5-3.6-1.4c0.7-3.5,0.4-7.1-1-10.4
	c-0.2,3.5-0.3,7.1-0.3,10.7c-0.4,0-2-1.1-0.5,0.9c-0.6,0.7-0.7,1.6-0.4,2.4c-1.2,0.1-2.4-0.1-3.5-0.5c0.3,0.8,6.1,4.7,0.4,3.7
	c0.1,0.5,0.5,1,1,1.2l-8,1c0.2,2.3,11.1-0.5,2.9,3c0.5,0.5,1.3,0.7,2,0.6c-0.3,0.4-0.2,0.2,0.4,1.7c0.1,0.3-1.7-0.1-0.1,2.8
	c-1.7-0.8-3.5-1.3-5.4-1.5c0.9,1.7,2.5,2.8,4.3,3.1l-3.1,2.1l1.4,1.7c-2.1,1.1-4.5,1.5-6.8,1.2c-0.6-0.2,0,0-1.7-0.2
	c0.7-3.5,0.4-7.1-1-10.4c-0.2,3.5-0.3,7.1-0.3,10.6c-0.4,0-2-1.1-0.6,0.9c-0.6,0.7-0.7,1.6-0.4,2.4c-1.2,0.1-2.4-0.1-3.5-0.5
	c6.7,5.3-0.9,2.3,1.4,5l-8,1c0.2,2.2,11.1-0.6,2.9,3c0.5,0.5,1.3,0.7,2,0.6c-0.3,0.4-0.2,0.2,0.4,1.7c0.1,0.3-1.6-0.1-0.1,2.8
	c-1.7-0.8-3.5-1.3-5.4-1.5c0.9,1.7,2.5,2.8,4.3,3.1L369,353l1.4,1.7c-0.4,0.2-0.8,0.4-1.2,0.5c-0.3-1.5-0.1-2-1.3-5l1.5-0.4
	c-0.9-1-2.2-1.5-3.6-1.4c0.7-3.5,0.4-7.1-1-10.4c-0.2,3.5-0.3,7.1-0.3,10.6c-0.4,0-2-1.1-0.6,0.9c-0.6,0.7-0.7,1.6-0.4,2.4
	c-1.2,0.1-2.4-0.1-3.5-0.5c6.7,5.3-0.9,2.3,1.4,5l-8,1c0.5,2.1,10.6-0.3,2.9,3c0.5,0.5,1.3,0.7,2,0.6c-0.3,0.4-0.3,0.2,0.4,1.7
	c0.1,0.3-1.6-0.2-0.1,2.8c-1.7-0.8-3.5-1.3-5.4-1.5c0.9,1.7,2.5,2.8,4.3,3.1l-1.6,1.1c0.1-0.2,0.2-0.5,0.1-0.8l-4.4,2.3l1.7-3.6
	c-0.8-0.2-1.6,0-2.3,0.4c-0.3-2,0-3.8-1.6-8l1.5-0.4c-0.9-1-2.2-1.5-3.6-1.4c0.7-3.5,0.4-7.1-1-10.4c-0.2,3.5-0.3,7.1-0.3,10.6
	c-0.4,0-2-1.1-0.6,0.9c-0.6,0.7-0.7,1.6-0.4,2.4c-1.2,0.1-2.4-0.1-3.5-0.5c6.6,5.2-0.7,2.3,1.4,5l-8,1c0.2,2.3,11.1-0.5,2.9,3
	c0.5,0.5,1.3,0.7,2,0.6c-0.3,0.4-0.3,0.2,0.4,1.7c0.1,0.3-1.7-0.1-0.1,2.8c-1.7-0.8-3.5-1.3-5.4-1.5c0.8,1.7,2.5,2.9,4.3,3.1
	c-1.4,1.4-4.4,1.4-1.9,4c-0.7,0.4-1.5,0.7-2.3,0.9c0.2-0.2,0.3-0.5,0.2-0.8c-0.9,0.2-1.5,1.4-3.3,1.2l1.1-2.3
	c-0.6-0.2-1.3,0-1.9,0.3c-0.2-0.5,0.4-1.5-1.3-6.5l1.2-0.3c-0.7-0.8-1.8-1.3-2.9-1.2c0.6-2.8,0.3-5.8-0.8-8.5
	c-0.2,2.9-0.3,5.8-0.2,8.7c-0.1,0.1-1.7-0.8-0.5,0.7c-0.5,0.6-0.6,1.3-0.3,2c-1,0.1-2-0.1-2.9-0.4c-0.4,0.5,5.3,3.2,0.3,3
	c0.1,0.4,0.4,0.8,0.8,1l-6.5,0.9c0.2,1.8,9-0.4,2.4,2.4c0.4,0.4,1,0.6,1.6,0.5c-0.2,0.3-0.2,0.2,0.3,1.4c-0.1,0.2-1.3,0.4-0.1,2.2
	c-1.4-0.7-2.9-1.1-4.4-1.2c0.7,1.4,2,2.3,3.5,2.5l-0.8,0.5c0-0.2,0-0.3,0-0.5l-4.4,2.3c0.5-1.2,1.1-2.4,1.7-3.6
	c-0.8-0.2-1.6-0.1-2.3,0.4c-0.3-2,0-3.8-1.6-8l1.5-0.4c-0.9-1-2.2-1.5-3.6-1.4c0.7-3.5,0.4-7.1-1-10.4c-0.2,3.5-0.3,7.1-0.3,10.6
	c-0.4,0-2-1.1-0.6,0.9c-0.6,0.7-0.7,1.6-0.4,2.4c-1.2,0.1-2.4-0.1-3.5-0.5c6.7,5.3-0.9,2.3,1.4,5l-8,1c0.2,2.2,11.1-0.5,2.9,3
	c0.5,0.5,1.3,0.7,2,0.6c-0.3,0.4-0.2,0.2,0.4,1.7c0.1,0.3-1.6-0.1-0.1,2.8c-1.7-0.8-3.5-1.3-5.4-1.5c0.9,1.7,2.5,2.8,4.3,3.1
	l-3.1,2.1l1.2,1.5c-0.3,0.1-1.7,1.2-3,1.4l1.1-2.3c-0.6-0.1-1.1,0-1.6,0.3c-0.3-1.2,0.7,0.3-1.2-5.8l1.1-0.3c-0.7-0.7-1.6-1.1-2.6-1
	c0.5-2.5,0.3-5.1-0.7-7.5c-0.2,2.5-0.2,5.1-0.2,7.7c-0.1,0-1.5-0.7-0.4,0.7c-0.4,0.5-0.5,1.2-0.3,1.7c-0.9,0.1-1.7-0.1-2.5-0.4
	c-1.2,0,5,2.5,0.3,2.7c0.1,0.4,0.4,0.7,0.7,0.9l-5.8,0.8c-0.4,1.5,8.1-0.5,2.1,2.2c0.4,0.3,0.9,0.5,1.4,0.5
	c-0.2,0.3-0.2,0.2,0.3,1.2c-0.1,0.1-1.2,0.3-0.1,2c-1.2-0.6-2.5-1-3.9-1.1c0.6,1.2,1.8,2,3.1,2.2l-2.2,1.5l1,1.2
	c-0.2,0.1-0.4,0.2-0.6,0.3c0-0.3,0-0.5-0.1-0.8c-1.2-0.1,1,1.4-4.2,1.4l0.2,0.2c-2.2,0.3-0.1-1.9,1.6-4.8l-4.4,2.3l1.7-3.6
	c-0.8-0.2-1.6-0.1-2.3,0.4c-0.2-2,0-3.8-1.6-8l1.5-0.4c-0.9-1-2.2-1.5-3.6-1.4c0.7-3.5,0.4-7.1-1-10.4c-0.2,3.5-0.3,7.1-0.3,10.6
	c-0.4,0-2-1.1-0.6,0.9c-0.6,0.7-0.7,1.6-0.4,2.4c-1.2,0.1-2.4-0.1-3.5-0.5c6.7,5.3-0.9,2.3,1.4,5l-8,1c0.2,2.2,11.1-0.5,2.9,3
	c0.5,0.5,1.3,0.7,2,0.6c-0.3,0.4-0.2,0.2,0.4,1.7c0,0.2-1.7,0-0.2,2.8c-1.7-0.8-3.5-1.3-5.4-1.5c0.9,1.7,2.5,2.8,4.4,3.1
	c-1,0.7-2.1,1.4-3.1,2.1l1.4,1.7c-0.4,0.2-0.8,0.4-1.2,0.5c-0.3-1.5-0.1-2-1.3-5l1.5-0.5c-0.9-1-2.2-1.5-3.6-1.4
	c0.7-3.5,0.4-7.1-1-10.4c-0.2,3.5-0.3,7.1-0.3,10.6c-0.4,0-2-1.1-0.6,0.9c-0.6,0.7-0.7,1.6-0.4,2.4c-1.2,0.1-2.4-0.1-3.5-0.5
	c6.7,5.4-0.9,2.2,1.4,5l-6.1,0.8c-0.3-1.4,0.5-1.4-3-1.1c0.2-0.6,0.5-1.2,0.9-1.6c-4.4-1.8,2.4,0.5,1.9-2c0.4,0.2,2.2-1-1.6-2.3
	c1.1-0.3,2.6-1.5,2.5-4c-0.9,0.5-1.7,1.2-2.4,2.1c-2-0.3-3.8-0.8-0.1-5.3l-4.4,2.3l1.7-3.6c-0.8-0.2-1.6-0.1-2.3,0.4
	c-0.2-2,0-3.8-1.6-8l1.5-0.4c-0.9-1-2.2-1.5-3.6-1.4c0.7-3.5,0.4-7.1-1-10.4c-0.2,3.5-0.3,7.1-0.3,10.6c-0.4,0-2-1.1-0.6,0.9
	c-0.6,0.7-0.7,1.6-0.4,2.4c-1.2,0.1-2.4-0.1-3.6-0.5c6.7,5.3-0.9,2.3,1.4,5l-8,1c0.5,2.1,10.6-0.3,2.9,3c0.6,0.5,1.3,0.7,2,0.6
	c-0.3,0.4-0.2,0.2,0.4,1.7c0,0.3-1.6-0.1-0.2,2.8c-1.7-0.8-3.5-1.3-5.4-1.5c0.9,1.7,2.5,2.8,4.4,3.1l-3.1,2.3l1.4,1.7
	c-1.5,0.7-3.1,1.2-4.8,1.3c-0.5-0.7,4.5-4.8-1.8-4c0.2-0.6,0.5-1.2,0.9-1.6c-4.4-1.7,3.1,0.6,1.9-2c0.5,0.2,2.2-1-1.6-2.3
	c1.1-0.3,2.5-1.5,2.5-4c-0.9,0.5-1.7,1.2-2.4,2.1c-2-0.3-3.8-0.8-0.1-5.3l-4.4,2.3l1.7-3.6c-0.8-0.2-1.6-0.1-2.3,0.4
	c-0.3-2,0-3.8-1.6-8l1.5-0.4c-0.9-1-2.2-1.5-3.6-1.4c0.7-3.5,0.4-7.1-1-10.4c-0.2,3.5-0.3,7.1-0.3,10.6c-0.4,0-2-1.1-0.6,1
	c-0.6,0.7-0.7,1.6-0.4,2.4c-1.2,0.1-2.4-0.1-3.6-0.5c6.6,5.2-0.7,2.3,1.4,5l-4.3,0.6c0.2-0.2,0.2-0.5,0.2-0.8
	c-0.4,0.1-1.5,1.1-3.3,1.2l1.1-2.3c-0.6-0.2-1.3,0-1.9,0.3c-0.2-0.6,0.4-1.5-1.3-6.5l1.2-0.3c-0.7-0.8-1.8-1.3-2.9-1.2
	c0.6-2.8,0.3-5.8-0.8-8.5c-0.2,2.9-0.3,5.8-0.2,8.7c-0.1,0.1-1.7-0.8-0.5,0.8c-0.5,0.6-0.6,1.3-0.3,2c-1,0.1-2-0.1-2.9-0.4
	c-0.4,0.5,5.3,3.2,0.3,3c0.1,0.4,0.4,0.8,0.8,1l-6.5,0.9c0.2,1.8,9-0.4,2.4,2.4c0.4,0.4,1,0.6,1.6,0.5c-0.2,0.3-0.2,0.2,0.3,1.4
	c-0.1,0.2-1.3,0.4-0.1,2.2c-1.4-0.7-2.9-1.1-4.4-1.2c0.7,1.4,2,2.3,3.5,2.5l-2.5,1.7l0.3,0.4c-7.1-0.7,2.3-8.7-3.4-8.1
	c0.1-0.4,0.3-0.8,0.6-1.2c-2.5-1,1.3,0.5,1.4-1.4c0.3,0.1,1.5-0.7-1.1-1.6c0.7-0.3,1.4-0.6,1.8-2.9c-0.7,0.4-1.2,0.9-1.7,1.5
	c-1.5-0.4-2.9,0-0.1-3.8l-3.2,1.6c0.4-0.9,0.8-1.7,1.2-2.6c-0.6-0.1-1.1,0-1.6,0.3c-0.3-1.2,0.7,0.3-1.2-5.8l1.1-0.3
	c-0.7-0.7-1.6-1.1-2.6-1c0.5-2.5,0.3-5.1-0.7-7.5c-0.2,2.6-0.2,5.1-0.2,7.7c-0.1,0-1.5-0.7-0.4,0.7c-0.4,0.5-0.5,1.2-0.3,1.7
	c-0.9,0.1-1.7-0.1-2.6-0.4c-1.2,0,5,2.5,0.3,2.7c0.1,0.4,0.4,0.7,0.7,0.9c0-0.2-2.3,0.6-3.2,0.2c0.5,0.2,2.2-1-1.6-2.3
	c1.1-0.3,2.6-1.5,2.5-4c-0.9,0.5-1.7,1.2-2.4,2.1c-2-0.3-3.8-0.8-0.1-5.3l-4.4,2.3l1.7-3.6c-0.8-0.2-1.6-0.1-2.3,0.4
	c-0.3-2,0-3.8-1.6-8l1.5-0.4c-0.9-1-2.3-1.5-3.6-1.4c0.7-3.5,0.4-7.1-1-10.4c-0.2,3.5-0.3,7.1-0.3,10.7c-0.4,0-2-1.1-0.6,0.9
	c-0.6,0.7-0.7,1.6-0.4,2.4c-1.2,0.1-2.4-0.1-3.6-0.5c6.7,5.3-0.8,2.3,1.4,5l-5.1,0.7c-0.5-1.4,5.9-7.1-0.9-5.9
	c0.2-0.6,0.5-1.2,0.9-1.6c-4.4-1.9,2.6,0.5,1.9-2c0.5,0.2,2.2-1-1.6-2.3c1.1-0.3,2.5-1.5,2.5-4c-0.9,0.5-1.7,1.2-2.4,2.1
	c-2-0.3-3.8-0.8-0.1-5.3l-4.4,2.2l1.7-3.6c-0.8-0.2-1.6,0-2.3,0.4c-0.3-2,0-3.8-1.6-8l1.5-0.4c-0.9-1-2.2-1.5-3.6-1.4
	c0.7-3.5,0.4-7.1-1-10.4c-0.2,3.5-0.3,7.1-0.3,10.6c-0.4,0-2-1.1-0.6,0.9c-0.6,0.7-0.7,1.6-0.4,2.4c-1.2,0.1-2.4-0.1-3.6-0.5
	c6.6,5.2-0.6,2.3,1.4,5c0-0.3-2.1,0.9-2.4-0.1c0.4,0.1,1.7-0.8-1.3-1.9c0.8-0.3,1.6-0.6,2-3.2c-0.8,0.4-1.4,1-1.9,1.7
	c-2.1-0.2-2.6-1.2-0.1-4.4l-3.6,1.8c0.4-1,0.9-1.9,1.4-2.9c-0.6-0.2-1.3,0-1.9,0.3c-0.2-0.6,0.4-1.5-1.3-6.5l1.2-0.3
	c-0.7-0.8-1.8-1.3-2.9-1.2c0.6-2.8,0.3-5.8-0.8-8.5c-0.2,2.9-0.3,5.8-0.2,8.7c-0.1,0.1-1.7-0.8-0.5,0.7c-0.5,0.6-0.6,1.3-0.3,2
	c-1,0.1-2-0.1-2.9-0.4c-0.4,0.5,5.3,3.2,0.3,3.1c0.1,0.4,0.4,0.8,0.8,1l-6.5,0.9c0.2,1.8,9-0.4,2.4,2.4c2.1,0.4,1.2,1.4,1.8,4.2
	c-1.4-0.7-2.9-1.1-4.4-1.2c0.7,1.4,2,2.3,3.5,2.5l-2.5,1.7l1.1,1.4c-0.8,0.4-1.6,0.7-2.4,0.8c-2.2-2.2,2.2-10.4-1.8-10
	c0.1-0.4,0.3-0.8,0.6-1.2c-2.5-1,1.3,0.5,1.4-1.4c0.3,0.1,1.5-0.7-1.1-1.6c0.7-0.3,1.4-0.6,1.8-2.9c-0.7,0.4-1.2,0.9-1.7,1.5
	c-1.5-0.4-2.9,0-0.1-3.8l-3.2,1.6l1.2-2.6c-0.6-0.1-1.2,0-1.6,0.3c-0.4-1.2,0.7,0.4-1.1-5.8l1.1-0.3c-0.7-0.7-1.6-1.1-2.6-1
	c0.5-2.5,0.3-5.1-0.7-7.5c-0.2,2.5-0.2,5.1-0.2,7.6c-0.1,0.1-1.5-0.7-0.4,0.7c-0.4,0.5-0.5,1.2-0.3,1.7c-0.9,0.1-1.7-0.1-2.6-0.4
	c-1.2,0,5,2.5,0.3,2.7c0.1,0.4,0.4,0.7,0.7,0.9c-2,0.5-1.6-0.4-3.2-4c-4.3-1.9,2.6-10.9-2.5-10.5c0.1-0.5,0.4-0.9,0.7-1.3
	c-3.4-1.5,2.5,0.6,1.6-1.6c0.4,0.1,1.7-0.8-1.4-1.9c0.8-0.3,1.6-0.6,2-3.2c-0.8,0.4-1.4,1-1.9,1.7c-2.1-0.2-2.6-1.2-0.1-4.3l-3.5,2
	l1.3-2.9c-0.6-0.2-1.3,0-1.8,0.3c-0.2-0.6,0.4-1.5-1.3-6.5l1.2-0.3c-0.6-0.6-1.3-1-2.2-1.1c2.8-1.8-2.2-5,0-9c0.1-1.9,3.3-4-1.3-3.4
	c0.1-0.5,0.4-0.9,0.7-1.3c-3.4-1.7,2.2,0.7,1.6-1.6c0.4,0.1,1.7-0.8-1.3-1.9c0.8-0.3,1.6-0.6,2-3.2c-0.8,0.4-1.4,1-1.9,1.7
	c-2.1-0.2-2.6-1.2-0.1-4.3l-3.6,1.8c0.4-1,0.9-1.9,1.4-2.9c-0.6-0.2-1.3,0-1.8,0.3c-0.2-0.6,0.5-1.5-1.3-6.5l1.2-0.3
	c-0.7-0.8-1.8-1.3-2.9-1.1c0.6-2.8,0.3-5.8-0.8-8.5c-0.2,2.9-0.3,5.8-0.2,8.7c-0.1,0.1-1.7-0.8-0.5,0.7c-0.5,0.6-0.6,1.3-0.3,2
	c-1,0.1-2-0.1-2.9-0.5c-0.4,0.5,5.3,3.2,0.3,3.1c0.1,0.4,0.4,0.8,0.8,1l-6.5,0.8c0.2,1.8,9-0.4,2.4,2.4c0.4,0.4,1,0.6,1.6,0.5
	c-0.2,0.3-0.2,0.2,0.3,1.4c-0.1,0.2-1.3,0.4-0.1,2.2c-1.4-0.7-2.9-1.1-4.4-1.2c0.7,1.4,2,2.3,3.5,2.5l-2.5,1.7l1.1,1.4
	c-0.8,0.4-1.6,0.7-2.4,0.8c-2.2-2.2,2.2-10.5-1.8-10c0.1-0.4,0.3-0.8,0.6-1.2c-2.5-1,1.3,0.5,1.5-1.4c0.3,0.1,1.5-0.7-1.1-1.6
	c0.7-0.3,1.4-0.6,1.8-2.9c-0.7,0.4-1.2,0.9-1.7,1.5c-1.5-0.4-2.9,0-0.1-3.8c-0.3-0.2-1.8,1.7-2.8,0.8l0.8-1.8
	c-0.1,0-0.2-0.1-0.4-0.1c0.4-0.6,0.5-1.3,0.3-2c-0.6,0.4-1.2,0.8-1.7,1.4c0.2-0.5-0.6-0.8-0.3-4l-0.4,0.2c-0.1-0.3-0.2-0.7-0.4-1
	l1.1-0.3c-0.7-0.7-1.6-1.1-2.6-1c0.5-2.5,0.3-5.1-0.7-7.5c-0.2,2.5-0.2,5.1-0.2,7.6c-0.1,0-1.5-0.7-0.4,0.7
	c-0.1,0.1,0.1,0.2-0.4,0.4c-0.2-0.6,0.4-1.5-1.3-6.5l1.2-0.3c-0.7-0.8-1.8-1.3-2.9-1.2c0.6-2.8,0.3-5.8-0.8-8.5
	c-0.2,2.9-0.3,5.8-0.2,8.7l-0.9-0.3c-0.1,0.4,0.1,0.8,0.4,1c-0.5,0.6-0.6,1.3-0.3,2c-1,0.1-2-0.1-2.9-0.4c-0.4,0.5,5.3,3.2,0.3,3
	c0.1,0.4,0.4,0.8,0.8,1l-6.5,0.9c0.1,1.8,9-0.5,2.4,2.4c0.4,0.4,1,0.6,1.6,0.5c-0.2,0.3-0.2,0.2,0.3,1.4c-0.1,0.2-1.3,0.4-0.1,2.2
	c-1.4-0.7-2.9-1.1-4.4-1.2c0.7,1.4,2,2.3,3.5,2.5l-2.5,1.7l1.1,1.4c-0.8,0.4-1.6,0.7-2.4,0.8c-2.2-2.3,2.2-10.4-1.8-10
	c0.1-0.4,0.3-0.8,0.6-1.2c-2.5-1,1.3,0.5,1.4-1.4c0.3,0.1,1.5-0.7-1.1-1.6c0.7-0.3,1.4-0.6,1.8-2.9c-0.7,0.4-1.2,0.9-1.7,1.5
	c-1.5-0.4-2.9,0-0.1-3.8l-3.2,1.6l1.2-2.6c-0.6-0.1-1.2,0-1.6,0.3c-0.4-1.2,0.7,0.5-1.1-5.8l1.1-0.3c-0.7-0.7-1.6-1.1-2.6-1
	c0.5-2.5,0.3-5.1-0.7-7.5c-0.2,2.5-0.2,5.1-0.2,7.7c-0.1,0.1-1.5-0.7-0.4,0.6c-0.4,0.5-0.5,1.2-0.3,1.7c-0.9,0.1-1.7-0.1-2.6-0.4
	c-1.2,0,5,2.5,0.3,2.7c0.1,0.4,0.4,0.7,0.7,0.9l-5.8,0.8c-0.4,1.5,8.1-0.5,2.1,2.2c0.4,0.3,0.9,0.5,1.4,0.5
	c-0.2,0.3-0.2,0.1,0.3,1.2c-0.1,0.1-1.2,0.3-0.1,2c-1.3-0.6-2.6-1-4-1c0.6,1.2,1.8,2,3.1,2.2l-1.7,1.2c-0.6-0.2,0,0-1.8,0.3
	c-0.2-0.6,0.4-1.5-1.3-6.5l1.2-0.3c-0.7-0.8-1.8-1.3-2.9-1.2c0.6-2.8,0.3-5.8-0.8-8.5c-0.2,2.8-0.3,5.5-0.2,8.3
	c-0.5-0.2-0.9-0.2-1.4-0.2c0.6-2.8,0.3-5.8-0.8-8.5c-0.2,2.9-0.3,5.8-0.2,8.7c-0.1,0.1-1.7-0.8-0.5,0.7c-0.5,0.6-0.6,1.3-0.3,2
	c0,0-0.1,0.1-0.4-0.1c-0.8,0.2,0,0-2.5-0.4c3.1,2.5,1.4,1.8,1.1,4.1l-3.8,0.5c0.1-0.7,0.4-0.4-1.7-1.6c1.3-0.3,2.1-1.5,1.8-2.8
	c-0.7,0.4-1.2,0.9-1.7,1.5c-0.3-0.2-0.6-0.3-0.9-0.4c0.2-0.5,0.3-1,0.2-1.5c-0.4,0.2-0.8,0.5-1.1,0.9c0.3-0.7,0.5-0.5,1.8-2.8
	l-3.2,1.6l1.2-2.6c-0.6-0.1-1.2,0-1.6,0.3c-0.3-1.2,0.6,0.4-1.2-5.8l1.1-0.3c-0.7-0.7-1.6-1.1-2.6-1c0.5-2.5,0.3-5.1-0.7-7.5
	c-0.2,2.4-0.2,4.9-0.2,7.4c-0.5-0.2-1-0.3-1.5-0.3c0.5-2.5,0.3-5.1-0.7-7.5c-0.2,2.5-0.2,5.1-0.2,7.6c-0.1,0-1.5-0.7-0.4,0.7
	c-0.4,0.5-0.5,1.2-0.3,1.7c-1,0.1,0,0-2.5-0.4c-1.2,0,5,2.5,0.3,2.7c0.1,0.4,0.4,0.7,0.7,0.9l-5.8,0.8c0.9,1.1,1.3,0.3,4.2,1.4
	c-0.7,0.3-1.4,0.6-2.1,0.8c0.4,0.3,0.9,0.5,1.4,0.5c-0.2,0.2-0.2,0.2,0.3,1.2c-0.1,0-0.8,0.3-0.4,1.4c-0.4-0.1-0.7-0.1-1.1-0.1
	l0.1,0.1c-0.8-0.3-1.7-0.5-2.6-0.5c0.6,1.2,1.8,2.1,3.1,2.3l-2.2,1.5l1,1.2c-1.5,0.8-3.2,1.1-4.9,0.9c0.9,1.1,2,2.2,3.2,3
	c-4.4-0.7-2.4,0.8-1.3,5c-0.9,0.1-9.4,0.1-10.3,0.2v103.7v117.9h547.2V269.6L537.3,259.7z M316.7,240.6l0.1,0.2
	c-0.1,0-0.1,0.1-0.2,0.1C316.7,240.8,316.7,240.7,316.7,240.6z"/>
<linearGradient id="SVGID_5_" gradientUnits="userSpaceOnUse" x1="343.657" y1="-1419.6565" x2="412.367" y2="-1298.0165" gradientTransform="matrix(1 0 0 -1 -14.31 -1250.49)">
	<stop  offset="2.000000e-02" style="stop-color:#FFFFFF;stop-opacity:0"/>
	<stop  offset="0.58" style="stop-color:#FFFFFF;stop-opacity:0.39"/>
	<stop  offset="0.68" style="stop-color:#FFFFFF;stop-opacity:0.68"/>
	<stop  offset="1" style="stop-color:#FFFFFF"/>
</linearGradient>
<path class="st5" d="M320.4,98.3c-2.6,2.7-4.8,5.9-8,7.9c-8.1,5.2-18.8,1.9-28.2,3.6c-4.9,0.9-9.4,3.2-14,5.2
	c-16,6.8-33.4,9.6-50.7,12.4c20.9,14.2,46.4,20.2,71.4,16.9l-3,10.3c19.5,10.7,42.9,11.2,62.8,1.4c-0.3,14.3,19.4,24.3,30.7,15.6
	c2.1-1.6,4-3.7,6.6-4.4c3.1-0.8,6.2,0.8,9.2,1.9c15.2,6,32.3,2.5,48.2-1.1c8.1-1.8,16.6-3.9,22.6-9.6s8.1-16.5,2-22.2
	c11.4-2.8,12.1-20.8,3.2-28.5s-21.9-8-33.6-7.4c-5-12.8-11-26.8-23.4-32.9c-15.9-7.9-27.6,9.3-41,13C355.1,85.9,336.5,81,320.4,98.3
	z"/>
<linearGradient id="SVGID_6_" gradientUnits="userSpaceOnUse" x1="336.903" y1="-1441.0564" x2="390.883" y2="-1345.4963" gradientTransform="matrix(1 0 0 -1 -14.31 -1250.49)">
	<stop  offset="2.000000e-02" style="stop-color:#FFFFFF;stop-opacity:0"/>
	<stop  offset="0.58" style="stop-color:#FFFFFF;stop-opacity:0.39"/>
	<stop  offset="0.68" style="stop-color:#FFFFFF;stop-opacity:0.68"/>
	<stop  offset="1" style="stop-color:#FFFFFF"/>
</linearGradient>
<path class="st6" d="M315.7,134.9c-2,2.1-3.8,4.6-6.3,6.2c-6.3,4.1-14.8,1.5-22.2,2.8c-3.8,0.7-7.4,2.5-11,4
	c-12.6,5.4-26.3,7.6-39.8,9.7c16.4,11.2,36.4,15.9,56.1,13.3l-2.3,8.1c15.3,8.3,33.6,8.7,49.2,1.1c-0.2,11.3,15.2,19.1,24.1,12.3
	c1.7-1.3,3.1-2.9,5.2-3.4c2.4-0.6,4.9,0.6,7.2,1.5c11.9,4.7,25.3,1.9,37.9-0.9c6.4-1.4,13.1-3,17.8-7.6s6.3-12.9,1.6-17.4
	c9-2.2,9.5-16.3,2.5-22.4s-17.2-6.3-26.4-5.8c-3.9-10.1-8.6-21.1-18.4-25.9c-12.5-6.2-21.7,7.3-32.3,10.2
	C343,125.2,328.4,121.4,315.7,134.9z"/>
<linearGradient id="SVGID_7_" gradientUnits="userSpaceOnUse" x1="122.2967" y1="-1430.5364" x2="171.6567" y2="-1343.1462" gradientTransform="matrix(1 0 0 -1 -14.31 -1250.49)">
	<stop  offset="2.000000e-02" style="stop-color:#FFFFFF;stop-opacity:0"/>
	<stop  offset="0.58" style="stop-color:#FFFFFF;stop-opacity:0.39"/>
	<stop  offset="0.68" style="stop-color:#FFFFFF;stop-opacity:0.68"/>
	<stop  offset="1" style="stop-color:#FFFFFF"/>
</linearGradient>
<path class="st7" d="M101.5,129.1c-1.8,2-3.5,4.2-5.7,5.7c-5.8,3.8-13.5,1.3-20.3,2.6c-3.5,0.6-6.8,2.3-10,3.7
	C54,146,41.5,148,29.1,150c15,10.2,33.3,14.5,51.3,12.1l-2.1,7.4c14,7.6,30.7,8,45,1c-0.2,10.3,13.9,17.4,22.1,11.2
	c1.5-1.1,2.9-2.7,4.7-3.1c2.2-0.6,4.5,0.6,6.6,1.4c10.9,4.3,23.2,1.8,34.6-0.8c5.8-1.3,12-2.8,16.3-6.9s5.8-11.8,1.4-15.9
	c8.2-2,8.7-14.9,2.3-20.5s-15.7-5.8-24.1-5.3c-3.6-9.2-7.9-19.3-16.8-23.7c-11.4-5.7-19.8,6.7-29.5,9.4
	C126.5,120.2,113.1,116.7,101.5,129.1z"/>
<linearGradient id="SVGID_8_" gradientUnits="userSpaceOnUse" x1="281.5" y1="-211.9" x2="281.5" y2="-211.9" gradientTransform="matrix(1 0 0 1 0 474)">
	<stop  offset="1.000000e-02" style="stop-color:#000000"/>
	<stop  offset="0.13" style="stop-color:#000000;stop-opacity:0.69"/>
	<stop  offset="1" style="stop-color:#000000;stop-opacity:0"/>
</linearGradient>
<path class="st8" d="M281.5,262.1"/>
<g class="st9">
	<rect y="0.1" class="st10" width="0.5" height="491.2"/>
	<path class="st10" d="M0.5,0L0.5,0l407.1,0.1c0,131-195.6,249-204.4,491.2h344.6V0H0.5z"/>
</g>
<path class="st11" d="M0,0v491.2h203.2C212.1,249,407.6,131,407.6,0H0z"/>
</svg>
