<svg width="557" height="601" viewBox="0 0 557 601" fill="none" xmlns="http://www.w3.org/2000/svg">
<rect x="164.5" y="204.601" width="382" height="244" rx="42.5" fill="white" stroke="#3F59E5" stroke-width="21"/>
<line x1="133" y1="242.601" x2="503" y2="242.601" stroke="#3F59E5" stroke-opacity="0.66" stroke-width="17"/>
<line x1="133" y1="242.601" x2="503" y2="242.601" stroke="#3F59E5" stroke-opacity="0.66" stroke-width="17"/>
<line x1="163" y1="332.601" x2="518" y2="332.601" stroke="#3F59E5" stroke-opacity="0.66" stroke-width="17"/>
<line x1="163" y1="332.601" x2="518" y2="332.601" stroke="#3F59E5" stroke-opacity="0.66" stroke-width="17"/>
<line x1="163" y1="291.601" x2="495" y2="291.601" stroke="#3F59E5" stroke-opacity="0.66" stroke-width="17"/>
<line x1="163" y1="291.601" x2="495" y2="291.601" stroke="#3F59E5" stroke-opacity="0.66" stroke-width="17"/>
<line x1="163" y1="411.601" x2="518" y2="411.601" stroke="#3F59E5" stroke-opacity="0.66" stroke-width="17"/>
<line x1="163" y1="411.601" x2="518" y2="411.601" stroke="#3F59E5" stroke-opacity="0.66" stroke-width="17"/>
<line x1="163" y1="370.601" x2="495" y2="370.601" stroke="#3F59E5" stroke-opacity="0.66" stroke-width="17"/>
<line x1="163" y1="370.601" x2="495" y2="370.601" stroke="#3F59E5" stroke-opacity="0.66" stroke-width="17"/>
<path d="M465.695 114.291L206.557 4.14007C201.665 2.06068 196.063 4.22504 194.045 8.97429L-3.65234 474.178C-5.6706 478.927 -3.34108 484.463 1.55084 486.542L260.689 596.693C265.581 598.773 271.182 596.608 273.201 591.859L470.898 126.655C472.916 121.906 470.587 116.37 465.695 114.291Z" fill="url(#paint0_linear)"/>
<path d="M457.202 116.559L210.81 11.8261C205.918 9.74671 200.316 11.9111 198.298 16.6603L10.5479 458.457C8.52964 463.206 10.8592 468.742 15.7511 470.821L262.143 575.554C267.035 577.634 272.637 575.469 274.655 570.72L462.405 128.923C464.423 124.174 462.094 118.638 457.202 116.559Z" fill="white"/>
<path d="M268.892 545.73L444.595 138.218C447.02 132.594 444.384 126.072 438.733 123.711L377.907 98.3027C373.258 96.3607 367.884 97.8256 364.863 101.858L364.279 102.639C361.249 106.684 355.854 108.144 351.199 106.179L286.903 79.046C282.029 76.9894 279.31 71.7556 280.427 66.5856L280.589 65.8406C281.699 60.7037 279.021 55.4984 274.196 53.4156L223.161 31.3863C217.56 28.9682 211.06 31.5717 208.677 37.1886L35.096 446.295C32.7241 451.885 35.3308 458.341 40.9196 460.716L254.489 551.497C260.059 553.865 266.496 551.288 268.892 545.73Z" fill="#3F59E5"/>
<path d="M290.293 72.2207C292.093 72.9859 294.155 72.1894 294.897 70.4417C295.64 68.694 294.783 66.6569 292.983 65.8916C291.183 65.1264 289.121 65.9229 288.378 67.6706C287.636 69.4184 288.493 71.4555 290.293 72.2207Z" fill="#DBDBDB"/>
<path d="M356.545 93.8443L308.661 73.4903C307.927 73.1784 307.087 73.503 306.784 74.2154L305.863 76.3824C305.561 77.0948 305.91 77.9252 306.644 78.2371L354.528 98.5911C355.262 98.903 356.102 98.5783 356.405 97.8659L357.326 95.6989C357.629 94.9865 357.279 94.1562 356.545 93.8443Z" fill="#DBDBDB"/>
<defs>
<linearGradient id="paint0_linear" x1="-47405.7" y1="453434" x2="68043.2" y2="181832" gradientUnits="userSpaceOnUse">
<stop offset="0.01" stop-color="#808080" stop-opacity="0.25"/>
<stop offset="0.54" stop-color="#808080" stop-opacity="0.12"/>
<stop offset="1" stop-color="#808080" stop-opacity="0.1"/>
</linearGradient>
</defs>
</svg>
