<?xml version="1.0" encoding="utf-8"?>
<!-- Generator: Adobe Illustrator 23.1.0, SVG Export Plug-In . SVG Version: 6.00 Build 0)  -->
<svg version="1.1" id="Layer_1" xmlns="http://www.w3.org/2000/svg" xmlns:xlink="http://www.w3.org/1999/xlink" x="0px" y="0px"
	 viewBox="0 0 125 37" style="enable-background:new 0 0 125 37;" xml:space="preserve">
<style type="text/css">
	.st0{fill:#FFFFFF;}
	.st1{fill:#A6A6A6;}
	.st2{fill:url(#SVGID_1_);}
</style>
<g transform="scale(4.00216 4.0011)">
	<path class="st0" d="M31,8.2C31,8.6,30.6,9,30.1,9l0,0H1.2C0.7,9,0.3,8.6,0.3,8.2v-7c0-0.5,0.4-0.9,0.9-0.9h28.9
		c0.5,0,0.9,0.4,0.9,0.9l0,0V8.2L31,8.2z"/>
	<path class="st1" d="M30.1,9.2H1.2c-0.6,0-1.1-0.5-1.1-1.1v-7C0.1,0.5,0.6,0,1.2,0h28.9c0.6,0,1.1,0.5,1.1,1.1v7
		C31.2,8.8,30.7,9.2,30.1,9.2L30.1,9.2z"/>
	<path d="M31,8.2C31,8.6,30.6,9,30.1,9l0,0H1.2C0.7,9,0.3,8.6,0.3,8.2v-7c0-0.5,0.4-0.9,0.9-0.9h28.9c0.5,0,0.9,0.4,0.9,0.9l0,0V8.2
		L31,8.2z"/>
	<path class="st0" d="M7,4.6c0-0.7,0.6-1.1,0.6-1.1C7.3,3,6.8,2.9,6.6,2.9c-0.5,0-0.9,0.3-1.1,0.3s-0.6-0.3-1-0.3
		c-0.5,0-1,0.3-1.2,0.7c-0.5,0.9-0.1,2.2,0.4,3C3.9,7,4.2,7.4,4.6,7.3c0.4,0,0.5-0.2,1-0.2c0.4,0,0.6,0.2,1,0.2s0.7-0.4,0.9-0.7
		c0.3-0.4,0.4-0.8,0.4-0.8C7.8,5.8,7,5.5,7,4.6L7,4.6z M6.3,2.4c0.2-0.3,0.3-0.6,0.3-0.9c-0.3,0-0.7,0.2-0.9,0.4S5.4,2.5,5.4,2.8
		C5.7,2.8,6.1,2.7,6.3,2.4L6.3,2.4z"/>
	
		<linearGradient id="SVGID_1_" gradientUnits="userSpaceOnUse" x1="-23.1379" y1="33.2325" x2="-23.1379" y2="31.4389" gradientTransform="matrix(296.8586 0 0 296.6199 6891.5898 -9848.1465)">
		<stop  offset="0" style="stop-color:#1A1A1A;stop-opacity:0.1"/>
		<stop  offset="0.123" style="stop-color:#212121;stop-opacity:0.151"/>
		<stop  offset="0.308" style="stop-color:#353535;stop-opacity:0.227"/>
		<stop  offset="0.532" style="stop-color:#575757;stop-opacity:0.318"/>
		<stop  offset="0.783" style="stop-color:#858585;stop-opacity:0.421"/>
		<stop  offset="1" style="stop-color:#B3B3B3;stop-opacity:0.51"/>
	</linearGradient>
	<path class="st2" d="M30.1,0H14.6l6.1,9.2h9.4c0.6,0,1.1-0.5,1.1-1.1v-7C31.2,0.5,30.7,0,30.1,0z"/>
</g>
<g>
	<path class="st0" d="M38.4,6.1C38.9,6.1,39.6,6,40.2,6c1.2,0,2.1,0.3,2.7,0.8c0.6,0.5,0.9,1.3,0.9,2.4c0,1.1-0.3,2-1,2.6
		c-0.6,0.6-1.7,1-3,1c-0.6,0-1.1,0-1.6-0.1V6.1z M39.3,12.1c0.2,0,0.5,0,0.9,0c1.9,0,2.9-1,2.9-2.9c0-1.6-0.9-2.6-2.7-2.6
		c-0.4,0-0.8,0-1,0.1V12.1z"/>
	<path class="st0" d="M49.4,10.3c0,1.8-1.2,2.6-2.4,2.6c-1.3,0-2.3-1-2.3-2.5c0-1.6,1.1-2.6,2.4-2.6C48.5,7.8,49.4,8.8,49.4,10.3z
		 M45.6,10.4c0,1.1,0.6,1.9,1.5,1.9c0.8,0,1.5-0.8,1.5-1.9c0-0.8-0.4-1.9-1.4-1.9C46.1,8.5,45.6,9.5,45.6,10.4z"/>
	<path class="st0" d="M50.8,7.9l0.6,2.5c0.1,0.5,0.3,1,0.4,1.5h0c0.1-0.5,0.3-1,0.4-1.5l0.8-2.5h0.7l0.7,2.4
		c0.2,0.6,0.3,1.1,0.4,1.6h0c0.1-0.5,0.2-1,0.4-1.6l0.7-2.4H57l-1.6,4.8h-0.8l-0.7-2.3c-0.2-0.5-0.3-1-0.4-1.6h0
		c-0.1,0.6-0.3,1.1-0.4,1.6l-0.8,2.3h-0.8l-1.5-4.8H50.8z"/>
	<path class="st0" d="M57.8,9.3c0-0.5,0-0.9,0-1.3h0.8l0,0.8h0c0.2-0.5,0.8-0.9,1.6-0.9c0.7,0,1.7,0.4,1.7,2.1v2.9h-0.9V10
		c0-0.8-0.3-1.4-1.1-1.4c-0.6,0-1,0.4-1.2,0.9c0,0.1-0.1,0.3-0.1,0.4v2.9h-0.9V9.3z"/>
	<path class="st0" d="M63.4,5.7h0.9v7.1h-0.9V5.7z"/>
	<path class="st0" d="M70.1,10.3c0,1.8-1.2,2.6-2.4,2.6c-1.3,0-2.3-1-2.3-2.5c0-1.6,1.1-2.6,2.4-2.6C69.2,7.8,70.1,8.8,70.1,10.3z
		 M66.3,10.4c0,1.1,0.6,1.9,1.5,1.9c0.8,0,1.5-0.8,1.5-1.9c0-0.8-0.4-1.9-1.4-1.9C66.7,8.5,66.3,9.5,66.3,10.4z"/>
	<path class="st0" d="M73.9,12.8l-0.1-0.6h0c-0.3,0.4-0.8,0.7-1.5,0.7c-1,0-1.5-0.7-1.5-1.4c0-1.2,1-1.8,2.9-1.8V9.6
		c0-0.4-0.1-1.1-1.1-1.1c-0.5,0-0.9,0.1-1.3,0.4l-0.2-0.6c0.4-0.3,1-0.4,1.6-0.4c1.5,0,1.8,1,1.8,2v1.8c0,0.4,0,0.8,0.1,1.2H73.9z
		 M73.8,10.3c-1,0-2,0.1-2,1.1c0,0.6,0.4,0.8,0.8,0.8c0.6,0,1-0.4,1.2-0.8c0-0.1,0-0.2,0-0.3V10.3z"/>
	<path class="st0" d="M80.2,5.7v5.8c0,0.4,0,0.9,0,1.2h-0.8l0-0.8h0c-0.3,0.5-0.9,0.9-1.6,0.9c-1.2,0-2.1-1-2.1-2.5
		c0-1.6,1-2.6,2.2-2.6c0.7,0,1.2,0.3,1.5,0.7h0V5.7H80.2z M79.4,9.9c0-0.1,0-0.3,0-0.4c-0.1-0.6-0.6-1-1.3-1c-0.9,0-1.4,0.8-1.4,1.9
		c0,1,0.5,1.8,1.4,1.8c0.6,0,1.1-0.4,1.3-1c0-0.1,0-0.2,0-0.4V9.9z"/>
	<path class="st0" d="M88.2,10.3c0,1.8-1.2,2.6-2.4,2.6c-1.3,0-2.3-1-2.3-2.5c0-1.6,1.1-2.6,2.4-2.6C87.3,7.8,88.2,8.8,88.2,10.3z
		 M84.4,10.4c0,1.1,0.6,1.9,1.5,1.9c0.8,0,1.5-0.8,1.5-1.9c0-0.8-0.4-1.9-1.4-1.9C84.8,8.5,84.4,9.5,84.4,10.4z"/>
	<path class="st0" d="M89.3,9.3c0-0.5,0-0.9,0-1.3h0.8l0.1,0.8h0c0.2-0.5,0.8-0.9,1.6-0.9c0.7,0,1.7,0.4,1.7,2.1v2.9h-0.9V10
		c0-0.8-0.3-1.4-1.1-1.4c-0.6,0-1,0.4-1.2,0.9c0,0.1-0.1,0.3-0.1,0.4v2.9h-0.9V9.3z"/>
	<path class="st0" d="M98,6.6v1.4h1.3v0.7H98v2.6c0,0.6,0.2,0.9,0.7,0.9c0.2,0,0.4,0,0.5-0.1l0,0.7c-0.2,0.1-0.4,0.1-0.8,0.1
		c-0.4,0-0.7-0.1-0.9-0.4c-0.3-0.3-0.3-0.7-0.3-1.3V8.6h-0.8V7.9h0.8V6.8L98,6.6z"/>
	<path class="st0" d="M100.3,5.7h0.9v3h0c0.1-0.3,0.4-0.5,0.6-0.6c0.3-0.1,0.6-0.3,0.9-0.3c0.6,0,1.7,0.4,1.7,2.1v2.9h-0.9V10
		c0-0.8-0.3-1.4-1.1-1.4c-0.6,0-1,0.4-1.2,0.9c0,0.1-0.1,0.3-0.1,0.4v2.9h-0.9V5.7z"/>
	<path class="st0" d="M106.3,10.5c0,1.2,0.8,1.7,1.7,1.7c0.6,0,1-0.1,1.3-0.3l0.1,0.6c-0.3,0.1-0.8,0.3-1.6,0.3
		c-1.5,0-2.4-1-2.4-2.4c0-1.5,0.9-2.6,2.3-2.6c1.6,0,2,1.4,2,2.3c0,0.2,0,0.3,0,0.4H106.3z M108.9,9.9c0-0.6-0.2-1.4-1.2-1.4
		c-0.9,0-1.3,0.8-1.3,1.4H108.9z"/>
	<path class="st0" d="M41,23l-1.3,3.8h-1.6l4.1-12.1h1.9l4.1,12.1h-1.7L45.3,23H41z M44.9,21.7l-1.2-3.5c-0.3-0.8-0.4-1.5-0.6-2.2h0
		c-0.2,0.7-0.4,1.5-0.6,2.2l-1.2,3.5H44.9z"/>
	<path class="st0" d="M49.9,20.9c0-1.1,0-2-0.1-2.8h1.4l0.1,1.5h0c0.6-1.1,1.7-1.7,3.1-1.7c2.1,0,3.7,1.8,3.7,4.4
		c0,3.1-1.9,4.7-4,4.7c-1.2,0-2.2-0.5-2.7-1.4h0v4.7h-1.6V20.9z M51.5,23.2c0,0.2,0,0.5,0.1,0.6c0.3,1.1,1.2,1.9,2.4,1.9
		c1.7,0,2.6-1.4,2.6-3.4c0-1.7-0.9-3.2-2.6-3.2c-1.1,0-2.1,0.8-2.4,2c-0.1,0.2-0.1,0.4-0.1,0.6V23.2z"/>
	<path class="st0" d="M60.2,20.9c0-1.1,0-2-0.1-2.8h1.4l0.1,1.5h0c0.6-1.1,1.7-1.7,3.1-1.7c2.1,0,3.7,1.8,3.7,4.4
		c0,3.1-1.9,4.7-4,4.7c-1.2,0-2.2-0.5-2.7-1.4h0v4.7h-1.6V20.9z M61.7,23.2c0,0.2,0,0.5,0.1,0.6c0.3,1.1,1.2,1.9,2.4,1.9
		c1.7,0,2.6-1.4,2.6-3.4c0-1.7-0.9-3.2-2.6-3.2c-1.1,0-2.1,0.8-2.4,2c-0.1,0.2-0.1,0.4-0.1,0.6V23.2z"/>
	<path class="st0" d="M74.1,24.9c0.7,0.4,1.7,0.8,2.8,0.8c1.6,0,2.5-0.8,2.5-2.1c0-1.1-0.6-1.8-2.3-2.4c-2-0.7-3.2-1.7-3.2-3.4
		c0-1.9,1.6-3.3,3.9-3.3c1.2,0,2.1,0.3,2.7,0.6l-0.4,1.3c-0.4-0.2-1.2-0.6-2.3-0.6c-1.7,0-2.3,1-2.3,1.8c0,1.1,0.7,1.7,2.4,2.3
		c2.1,0.8,3.1,1.8,3.1,3.6c0,1.9-1.4,3.5-4.2,3.5c-1.2,0-2.4-0.3-3.1-0.8L74.1,24.9z"/>
	<path class="st0" d="M84.9,15.6v2.5h2.3v1.2h-2.3V24c0,1.1,0.3,1.7,1.2,1.7c0.4,0,0.7-0.1,0.9-0.1l0.1,1.2
		c-0.3,0.1-0.8,0.2-1.4,0.2c-0.7,0-1.3-0.2-1.7-0.7c-0.5-0.5-0.6-1.2-0.6-2.3v-4.8H82v-1.2h1.4V16L84.9,15.6z"/>
	<path class="st0" d="M96.8,22.4c0,3.2-2.2,4.6-4.3,4.6c-2.4,0-4.2-1.7-4.2-4.5c0-2.9,1.9-4.6,4.3-4.6
		C95.1,17.9,96.8,19.7,96.8,22.4z M89.9,22.4c0,1.9,1.1,3.3,2.6,3.3c1.5,0,2.6-1.4,2.6-3.4c0-1.5-0.7-3.3-2.6-3.3
		C90.7,19.1,89.9,20.8,89.9,22.4z"/>
	<path class="st0" d="M98.8,20.8c0-1,0-1.9-0.1-2.7h1.4l0.1,1.7h0.1c0.4-1.2,1.4-1.9,2.4-1.9c0.2,0,0.3,0,0.4,0.1v1.5
		c-0.2,0-0.3-0.1-0.5-0.1c-1.1,0-1.9,0.8-2.1,2c0,0.2-0.1,0.5-0.1,0.7v4.6h-1.6V20.8z"/>
	<path class="st0" d="M105.4,22.7c0,2.1,1.4,3,3,3c1.1,0,1.8-0.2,2.4-0.5l0.3,1.1c-0.6,0.3-1.5,0.5-2.9,0.5c-2.7,0-4.3-1.8-4.3-4.4
		s1.5-4.7,4.1-4.7c2.8,0,3.6,2.5,3.6,4.1c0,0.3,0,0.6-0.1,0.7H105.4z M110,21.6c0-1-0.4-2.6-2.2-2.6c-1.6,0-2.3,1.5-2.4,2.6H110z"/>
</g>
</svg>
