<?xml version="1.0" encoding="utf-8"?>
<!-- Generator: Adobe Illustrator 23.1.0, SVG Export Plug-In . SVG Version: 6.00 Build 0)  -->
<svg version="1.1" id="Layer_1" xmlns="http://www.w3.org/2000/svg" xmlns:xlink="http://www.w3.org/1999/xlink" x="0px" y="0px"
	 viewBox="0 0 125 37" style="enable-background:new 0 0 125 37;" xml:space="preserve">
<style type="text/css">
	.st0{fill:none;}
	.st1{fill:#A6A6A6;}
	.st2{fill:#FFFFFF;stroke:#FFFFFF;stroke-width:0.2;stroke-miterlimit:10;}
	.st3{fill:#FFFFFF;}
	.st4{fill:url(#SVGID_1_);}
	.st5{fill:url(#SVGID_2_);}
	.st6{fill:url(#SVGID_3_);}
	.st7{fill:url(#SVGID_4_);}
	.st8{opacity:0.2;enable-background:new    ;}
	.st9{opacity:0.12;enable-background:new    ;}
	.st10{opacity:0.25;fill:#FFFFFF;enable-background:new    ;}
</style>
<path class="st0" d="M0,0h116.5v36.9H0V0z"/>
<path d="M4.6,0.1h115.7c2.6,0,4.6,2.1,4.6,4.6v27.6c0,2.5-2.1,4.6-4.6,4.6H4.6c-2.6,0-4.6-2.1-4.6-4.6V4.7C0,2.2,2.1,0.1,4.6,0.1z"
	/>
<path class="st1" d="M120.4,0.8c2.1,0,3.9,1.7,3.9,3.9v27.6c0,2.1-1.7,3.9-3.9,3.9H4.6c-2.1,0-3.9-1.7-3.9-3.9l0,0V4.7
	c0-2.1,1.7-3.9,3.9-3.9l0,0H120.4 M120.4,0.1H4.6C2.1,0.1,0,2.2,0,4.7v27.6c0,2.5,2.1,4.6,4.6,4.6h115.7c2.6,0,4.6-2.1,4.6-4.6V4.7
	C125,2.2,122.9,0.1,120.4,0.1z"/>
<path class="st2" d="M40.9,9.5c0,0.7-0.2,1.3-0.6,1.8c-0.5,0.5-1.2,0.8-1.9,0.8c-1.5,0-2.7-1.3-2.7-2.9c0-0.8,0.3-1.5,0.8-2
	c0.5-0.5,1.2-0.8,1.9-0.8c0.4,0,0.7,0.1,1.1,0.2C39.8,6.8,40,7,40.3,7.3l-0.5,0.5c-0.3-0.4-0.9-0.7-1.4-0.7c-1.1,0-2,0.9-2,2.1
	c0,0,0,0.1,0,0.1c0,1.2,0.9,2.2,2,2.2c0.5,0,1.1-0.2,1.4-0.6c0.3-0.3,0.4-0.7,0.4-1.1h-1.9V9.1h2.5C40.9,9.2,40.9,9.4,40.9,9.5z
	 M44.9,7.2h-2.3V9h2.1v0.7h-2.1v1.7h2.3v0.7h-3V6.5h3V7.2z M47.7,12.1h-0.7V7.2h-1.5V6.5h3.6v0.7h-1.5V12.1z M51.7,12.1V6.5h0.7v5.5
	H51.7z M55.4,12.1h-0.7V7.2h-1.5V6.5h3.6v0.7h-1.4L55.4,12.1z M63.5,11.3c-1.1,1.1-2.7,1.1-3.8,0c-1-1.1-1-2.9,0-4.1
	c1-1.1,2.7-1.1,3.8,0c0,0,0,0,0,0C64.6,8.4,64.6,10.2,63.5,11.3z M60.2,10.9c0.8,0.8,2,0.8,2.8,0c0.8-0.9,0.8-2.3,0-3.2
	c-0.8-0.8-2-0.8-2.8,0C59.5,8.6,59.5,10,60.2,10.9z M65.2,12.1V6.5h0.8l2.5,4.3V6.5h0.7v5.5h-0.7l-2.6-4.5v4.5H65.2z"/>
<path class="st3" d="M58.8,20.1c-2,0-3.7,1.8-3.7,3.9c0,2.2,1.7,3.9,3.7,3.9c2,0,3.7-1.8,3.7-3.9c0-2.1-1.6-3.9-3.6-3.9
	C58.9,20.1,58.9,20.1,58.8,20.1z M58.8,26.4c-1.2,0.1-2.3-0.9-2.4-2.2c-0.1-1.3,0.8-2.4,2.1-2.5c1.2-0.1,2.3,0.9,2.4,2.2
	c0,0.1,0,0.1,0,0.2C60.9,25.3,60,26.3,58.8,26.4C58.9,26.4,58.8,26.4,58.8,26.4z M50.8,20.1c-2,0-3.7,1.8-3.7,3.9
	c0,2.2,1.7,3.9,3.7,3.9c2,0,3.7-1.8,3.7-3.9c0-2.1-1.6-3.9-3.6-3.9C50.9,20.1,50.8,20.1,50.8,20.1L50.8,20.1z M50.8,26.4
	c-1.2,0.1-2.3-0.9-2.4-2.2c-0.1-1.3,0.8-2.4,2.1-2.5c1.2-0.1,2.3,0.9,2.4,2.2c0,0.1,0,0.1,0,0.2C52.9,25.3,52,26.3,50.8,26.4
	C50.8,26.4,50.8,26.4,50.8,26.4L50.8,26.4z M41.2,21.3V23h3.7c-0.1,0.8-0.4,1.5-0.9,2.1c-0.8,0.8-1.8,1.3-2.9,1.2
	c-2.3,0-4.1-2-4.1-4.4s1.9-4.4,4.1-4.4c1.1,0,2.1,0.4,2.8,1.2l1.1-1.2c-1-1.1-2.4-1.7-3.9-1.7c-3.1-0.1-5.8,2.5-5.9,5.8
	c-0.1,3.4,2.3,6.2,5.5,6.3c0.1,0,0.3,0,0.4,0c1.5,0.1,2.9-0.5,4-1.7c0.9-1.1,1.4-2.5,1.3-3.9c0-0.3,0-0.7-0.1-1L41.2,21.3z
	 M80.3,22.6c-0.5-1.4-1.7-2.4-3.1-2.5c-1.9,0-3.5,1.6-3.5,3.7c0,0.1,0,0.2,0,0.2c0,2.1,1.5,3.9,3.5,3.9c0,0,0.1,0,0.1,0
	c1.2,0,2.4-0.6,3.1-1.7l-1.3-0.9c-0.4,0.7-1.1,1.1-1.8,1.1c-0.8,0-1.5-0.4-1.8-1.2l4.9-2.2L80.3,22.6z M75.3,23.9
	c-0.1-1.2,0.8-2.2,1.9-2.3c0,0,0,0,0,0c0.6,0,1.1,0.3,1.4,0.8L75.3,23.9z M71.3,27.7h1.6V16.2h-1.6V27.7z M68.7,21L68.7,21
	c-0.6-0.6-1.3-0.9-2-0.9c-2,0.1-3.6,1.9-3.5,4.1c0.1,2,1.6,3.6,3.5,3.7c0.7,0,1.4-0.3,1.9-0.9h0.1v0.6c0,1.5-0.8,2.3-2,2.3
	c-0.8,0-1.6-0.6-1.8-1.4l-1.4,0.6c0.5,1.4,1.8,2.3,3.3,2.3c1.9,0,3.5-1.2,3.5-4.1v-7h-1.5V21z M66.8,26.4c-1.2-0.1-2.1-1.3-2-2.6
	c0.1-1.2,1-2.1,2-2.2c1.1,0.1,2,1.1,2,2.3c0,0,0,0,0,0.1C68.9,25.2,68.1,26.3,66.8,26.4C66.9,26.4,66.9,26.4,66.8,26.4L66.8,26.4z
	 M87.9,16.2H84v11.5h1.6v-4.4h2.3c1.8,0.1,3.5-1.3,3.6-3.3s-1.3-3.7-3.1-3.8C88.2,16.2,88.1,16.2,87.9,16.2L87.9,16.2z M87.9,21.7
	h-2.3v-3.9h2.3c1,0,1.9,0.9,1.9,2S88.9,21.8,87.9,21.7L87.9,21.7z M97.8,20.1c-1.2-0.1-2.3,0.6-2.9,1.8l1.4,0.6
	c0.3-0.6,0.9-0.9,1.5-0.8c0.9-0.1,1.6,0.5,1.7,1.5c0,0,0,0,0,0v0.1c-0.5-0.3-1.1-0.4-1.7-0.4c-1.5,0-3.1,0.9-3.1,2.6
	c0.1,1.5,1.2,2.6,2.6,2.5c0,0,0,0,0.1,0c0.8,0.1,1.6-0.4,2.1-1.1h0.1v0.9h1.6v-4.4C101.1,21.3,99.7,20.1,97.8,20.1L97.8,20.1z
	 M97.6,26.4c-0.5,0-1.3-0.3-1.3-1c0-0.9,0.9-1.2,1.7-1.2c0.5,0,1,0.1,1.5,0.4C99.5,25.6,98.7,26.4,97.6,26.4L97.6,26.4z M106.8,20.4
	l-1.8,5h-0.1l-1.9-5h-1.7l2.9,7l-1.6,3.9h1.7l4.4-10.9H106.8z M92.3,27.7h1.6V16.2h-1.6V27.7z"/>
<linearGradient id="SVGID_1_" gradientUnits="userSpaceOnUse" x1="19.4671" y1="62.1179" x2="4.0175" y2="77.5675" gradientTransform="matrix(1 0 0 1 0 -54)">
	<stop  offset="0" style="stop-color:#00A0FF"/>
	<stop  offset="1.000000e-02" style="stop-color:#00A1FF"/>
	<stop  offset="0.26" style="stop-color:#00BEFF"/>
	<stop  offset="0.51" style="stop-color:#00D2FF"/>
	<stop  offset="0.76" style="stop-color:#00DFFF"/>
	<stop  offset="1" style="stop-color:#00E3FF"/>
</linearGradient>
<path class="st4" d="M9,7C8.7,7.4,8.6,7.9,8.6,8.3v20.4c0,0.5,0.1,0.9,0.4,1.3L9.1,30l10.7-11.4v-0.3L9,7L9,7z"/>
<linearGradient id="SVGID_2_" gradientUnits="userSpaceOnUse" x1="29.202" y1="72.5128" x2="8.3212" y2="72.5128" gradientTransform="matrix(1 0 0 1 0 -54)">
	<stop  offset="0" style="stop-color:#FFE000"/>
	<stop  offset="0.41" style="stop-color:#FFBD00"/>
	<stop  offset="0.78" style="stop-color:#FFA500"/>
	<stop  offset="1" style="stop-color:#FF9C00"/>
</linearGradient>
<path class="st5" d="M23.3,22.5l-3.5-3.8v-0.3l3.5-3.8l0.1,0l4.2,2.6c1.2,0.7,1.2,1.9,0,2.7L23.3,22.5L23.3,22.5z"/>
<linearGradient id="SVGID_3_" gradientUnits="userSpaceOnUse" x1="21.4812" y1="74.5672" x2="1.1901" y2="94.8494" gradientTransform="matrix(1 0 0 1 0 -54)">
	<stop  offset="0" style="stop-color:#FF3A44"/>
	<stop  offset="1" style="stop-color:#C31162"/>
</linearGradient>
<path class="st6" d="M23.4,22.4l-3.6-3.9L9,30c0.5,0.5,1.3,0.5,1.8,0.1L23.4,22.4"/>
<linearGradient id="SVGID_4_" gradientUnits="userSpaceOnUse" x1="5.8529" y1="54.8344" x2="14.9151" y2="63.8966" gradientTransform="matrix(1 0 0 1 0 -54)">
	<stop  offset="0" style="stop-color:#32A071"/>
	<stop  offset="7.000000e-02" style="stop-color:#2DA771"/>
	<stop  offset="0.48" style="stop-color:#15CF74"/>
	<stop  offset="0.8" style="stop-color:#06E775"/>
	<stop  offset="1" style="stop-color:#00F076"/>
</linearGradient>
<path class="st7" d="M23.4,14.6L10.8,7C10.3,6.5,9.5,6.6,9,7l10.8,11.5L23.4,14.6z"/>
<path class="st8" d="M23.3,22.3l-12.5,7.6c-0.5,0.4-1.2,0.4-1.7,0L9,30L9.1,30c0.5,0.4,1.2,0.4,1.7,0l12.6-7.6L23.3,22.3z"/>
<path class="st9" d="M9,29.9c-0.3-0.4-0.4-0.8-0.4-1.3v0.1c0,0.5,0.1,0.9,0.4,1.3V29.9L9,29.9z M27.6,19.7l-4.3,2.6l0.1,0.1l4.2-2.6
	c0.5-0.2,0.8-0.8,0.9-1.3C28.4,19,28.1,19.5,27.6,19.7z"/>
<path class="st10" d="M10.8,7.1l16.8,10.2c0.4,0.2,0.8,0.7,0.9,1.2c0-0.6-0.4-1.1-0.9-1.3L10.8,7C9.6,6.3,8.6,6.9,8.6,8.3v0.1
	C8.6,7,9.6,6.4,10.8,7.1z"/>
</svg>
