<svg width="155" height="155" viewBox="0 0 155 155" fill="none" xmlns="http://www.w3.org/2000/svg">
<path d="M51.6667 122.708H32.2917V58.125H51.6667V122.708ZM122.708 122.708H103.333V88.2079C103.333 79.2179 100.13 74.7423 93.7815 74.7423C88.7504 74.7423 85.56 77.2481 83.9583 82.2663C83.9583 90.4167 83.9583 122.708 83.9583 122.708H64.5833C64.5833 122.708 64.8417 64.5833 64.5833 58.125H79.8767L81.0585 71.0417H81.459C85.4308 64.5833 91.7794 60.2046 100.485 60.2046C107.105 60.2046 112.459 62.0452 116.547 66.6694C120.661 71.3 122.708 77.5129 122.708 86.2381V122.708Z" fill="#3F59E5"/>
<path d="M41.9792 51.6667C47.5078 51.6667 51.9896 47.3294 51.9896 41.9792C51.9896 36.6289 47.5078 32.2917 41.9792 32.2917C36.4506 32.2917 31.9688 36.6289 31.9688 41.9792C31.9688 47.3294 36.4506 51.6667 41.9792 51.6667Z" fill="#3F59E5"/>
</svg>
