<svg width="146" height="154" viewBox="0 0 146 154" fill="none" xmlns="http://www.w3.org/2000/svg">
<path d="M19.1055 44.7262C22.2422 46.4707 65.814 71.5258 67.4394 72.4281C69.0648 73.3305 70.7187 73.7516 73.2851 73.7516C75.8516 73.7516 77.5055 73.3305 79.1308 72.4281C80.7562 71.5258 124.328 46.4707 127.465 44.7262C128.634 44.0945 130.602 42.9516 131.029 41.6582C131.771 39.3723 130.972 38.5 127.807 38.5H73.2851H18.7633C15.598 38.5 14.7996 39.4023 15.541 41.6582C15.9687 42.9816 17.9363 44.0945 19.1055 44.7262Z" fill="#3F59E5"/>
<path d="M129.946 46.0797C127.607 47.343 106.62 63.1039 92.7328 72.5785L116.173 100.401C116.743 101.002 117 101.724 116.686 102.085C116.344 102.416 115.602 102.236 115.004 101.664L86.8871 76.6391C82.6383 79.5266 79.6441 81.5117 79.1309 81.8125C76.9352 82.9856 75.3953 83.136 73.2852 83.136C71.175 83.136 69.6352 82.9856 67.4395 81.8125C66.8977 81.5117 63.932 79.5266 59.6832 76.6391L31.5668 101.664C30.9965 102.266 30.2266 102.446 29.8844 102.085C29.5422 101.754 29.7988 101.002 30.3691 100.401L53.7805 72.5785C39.8934 63.1039 18.6777 47.343 16.3395 46.0797C13.8301 44.7262 13.6875 46.3204 13.6875 47.5536C13.6875 48.7868 13.6875 109.214 13.6875 109.214C13.6875 112.011 17.5941 115.5 20.3887 115.5H73.2852H126.182C128.976 115.5 132.313 111.981 132.313 109.214C132.313 109.214 132.313 48.7567 132.313 47.5536C132.313 46.2903 132.484 44.7262 129.946 46.0797Z" fill="#3F59E5"/>
</svg>
