<svg width="145" height="145" viewBox="0 0 145 145" fill="none" xmlns="http://www.w3.org/2000/svg">
<path d="M135.138 38.5307C130.506 40.5896 125.521 41.9784 120.291 42.5999C125.631 39.4029 129.726 34.3388 131.657 28.2976C126.662 31.2619 121.132 33.4129 115.242 34.5741C110.528 29.5509 103.809 26.4101 96.3742 26.4101C82.1 26.4101 70.5267 37.9834 70.5267 52.2601C70.5267 54.2832 70.7544 56.2551 71.1968 58.1503C49.7127 57.071 30.6634 46.7817 17.9136 31.1417C15.6885 34.9577 14.4148 39.3978 14.4148 44.1396C14.4148 53.1067 18.9776 61.02 25.9139 65.6544C21.6785 65.5189 17.6911 64.3552 14.205 62.419C14.2025 62.5265 14.2025 62.6364 14.2025 62.7464C14.2025 75.2686 23.1133 85.714 34.9398 88.0926C32.7709 88.6808 30.487 88.998 28.1288 88.998C26.4612 88.998 24.8423 88.8369 23.2642 88.5325C26.5559 98.8014 36.101 106.277 47.4108 106.485C38.564 113.418 27.4203 117.551 15.3074 117.551C13.2229 117.551 11.164 117.429 9.14093 117.188C20.5838 124.526 34.1699 128.802 48.7664 128.802C96.3154 128.802 122.314 89.4149 122.314 55.2551C122.314 54.1349 122.291 53.0172 122.242 51.9072C127.291 48.2702 131.675 43.7151 135.138 38.5307Z" fill="#3F59E5"/>
</svg>
