<svg width="626" height="731" viewBox="0 0 626 731" fill="none" xmlns="http://www.w3.org/2000/svg">
<g clip-path="url(#clip0)">
<path d="M607.178 -0.0397462L178.508 0.55879C169.026 0.57203 161.349 8.27003 161.362 17.7527L162.304 692.082C162.317 701.565 170.015 709.241 179.498 709.228L608.168 708.63C617.65 708.616 625.327 700.918 625.314 691.436L624.372 17.1063C624.359 7.62354 616.661 -0.0529866 607.178 -0.0397462Z" fill="url(#paint0_linear)"/>
<path d="M593.674 54.1092L193.824 54.6675L194.654 649.047L594.504 648.489L593.674 54.1092Z" fill="url(#paint1_linear)"/>
<path d="M596.865 4.89463L187.815 5.46577C178.333 5.47901 170.656 13.177 170.669 22.6597L171.573 669.979C171.586 679.462 179.284 687.138 188.767 687.125L597.817 686.554C607.299 686.541 614.976 678.843 614.963 669.36L614.059 22.0406C614.046 12.5579 606.348 4.88139 596.865 4.89463Z" fill="white"/>
<path d="M584.658 56.9817L201.748 57.5164L202.546 629.246L585.456 628.711L584.658 56.9817Z" fill="#80DC54"/>
<path d="M394.06 674.11C402.775 674.11 409.84 667.045 409.84 658.33C409.84 649.615 402.775 642.55 394.06 642.55C385.345 642.55 378.28 649.615 378.28 658.33C378.28 667.045 385.345 674.11 394.06 674.11Z" fill="#DBDBDB"/>
<path d="M326.901 37.8823C329.806 37.8782 332.158 35.52 332.154 32.6149C332.149 29.7099 329.791 27.3582 326.886 27.3623C323.981 27.3663 321.629 29.7246 321.634 32.6296C321.638 35.5346 323.996 37.8863 326.901 37.8823Z" fill="#DBDBDB"/>
<path d="M420.139 29.3321L354.619 29.4235C353.829 29.4246 353.19 30.0658 353.191 30.8555L353.194 33.2555C353.195 34.0453 353.837 34.6846 354.626 34.6835L420.146 34.5921C420.936 34.591 421.575 33.9498 421.574 33.1601L421.571 30.7601C421.57 29.9703 420.929 29.331 420.139 29.3321Z" fill="#DBDBDB"/>
<path d="M302.564 168.846L10.0043 169.254C4.48148 169.262 0.0105848 173.745 0.0182961 179.268L0.773646 720.248C0.781358 725.77 5.26476 730.241 10.7876 730.234L303.347 729.825C308.87 729.817 313.341 725.334 313.333 719.811L312.578 178.832C312.57 173.309 308.087 168.838 302.564 168.846Z" fill="url(#paint2_linear)"/>
<path d="M295.372 174.645L17.2024 175.034C11.6795 175.042 7.20864 179.525 7.21636 185.048L7.9337 698.807C7.94141 704.33 12.4248 708.801 17.9477 708.793L296.117 708.405C301.64 708.397 306.111 703.914 306.103 698.391L305.386 184.632C305.378 179.109 300.895 174.638 295.372 174.645Z" fill="white"/>
<path d="M281.322 201.365L28.925 201.717C23.4022 201.725 18.9313 206.208 18.939 211.731L19.5892 677.38C19.5969 682.903 24.0803 687.374 29.6031 687.366L282 687.014C287.523 687.006 291.994 682.523 291.986 677L291.336 211.351C291.328 205.828 286.845 201.357 281.322 201.365Z" fill="#80DC54"/>
<path d="M121.342 196.049C123.374 196.046 125.02 194.396 125.017 192.364C125.014 190.332 123.364 188.686 121.332 188.689C119.299 188.692 117.654 190.342 117.657 192.374C117.66 194.407 119.309 196.052 121.342 196.049Z" fill="#DBDBDB"/>
<path d="M193.473 189.508L139.413 189.584C138.584 189.585 137.914 190.258 137.915 191.086L137.918 193.606C137.92 194.434 138.592 195.105 139.42 195.104L193.48 195.028C194.309 195.027 194.979 194.355 194.978 193.526L194.975 191.006C194.974 190.178 194.301 189.507 193.473 189.508Z" fill="#DBDBDB"/>
</g>
<defs>
<linearGradient id="paint0_linear" x1="393.368" y1="711.306" x2="392.375" y2="0.529197" gradientUnits="userSpaceOnUse">
<stop offset="0.01" stop-color="#808080" stop-opacity="0.25"/>
<stop offset="0.54" stop-color="#808080" stop-opacity="0.12"/>
<stop offset="1" stop-color="#808080" stop-opacity="0.1"/>
</linearGradient>
<linearGradient id="paint1_linear" x1="394.107" y1="650.978" x2="393.274" y2="54.8256" gradientUnits="userSpaceOnUse">
<stop stop-opacity="0.12"/>
<stop offset="0.55" stop-opacity="0.09"/>
<stop offset="1" stop-opacity="0.02"/>
</linearGradient>
<linearGradient id="paint2_linear" x1="139394" y1="466521" x2="138953" y2="150668" gradientUnits="userSpaceOnUse">
<stop offset="0.01" stop-color="#808080" stop-opacity="0.25"/>
<stop offset="0.54" stop-color="#808080" stop-opacity="0.12"/>
<stop offset="1" stop-color="#808080" stop-opacity="0.1"/>
</linearGradient>
<clipPath id="clip0">
<rect width="625.28" height="730.24" fill="white"/>
</clipPath>
</defs>
</svg>
